<svg xmlns="http://www.w3.org/2000/svg" width="96" height="32" fill="none"><path d="M63.696.612a2.18 2.18 0 0 0-1.542.64c-.4.4-.64.965-.64 1.545V29.17c0 .58.23 1.135.64 1.545a2.18 2.18 0 0 0 3.085 0c.4-.4.64-.965.64-1.545V2.796c0-.58-.23-1.135-.64-1.545a2.18 2.18 0 0 0-1.543-.64zM30.454 9.908c0-1.206-.977-2.184-2.18-2.184s-2.18.978-2.18 2.184v19.26c0 1.206.977 2.184 2.18 2.184s2.18-.978 2.18-2.184V9.908z" fill="#5a646e"/><path d="M31.07 2.8a2.8 2.8 0 0 1-.838 1.944c-.523.513-1.226.8-1.958.8s-1.435-.288-1.958-.8a2.8 2.8 0 0 1-.838-1.944 2.8 2.8 0 0 1 .819-1.98C26.82.295 27.53 0 28.273 0s1.453.295 1.977.82a2.8 2.8 0 0 1 .819 1.98z" fill="#00aeef"/><path d="M57.572 14.694c-2.096-4.746-7.055-8.1-12.713-7.52a12.42 12.42 0 0 0-5.361 1.872 12.44 12.44 0 0 0-3.97 4.064 12.46 12.46 0 0 0-1.751 5.408c-.16 1.914.126 3.84.833 5.624a12.45 12.45 0 0 0 3.243 4.666 12.44 12.44 0 0 0 4.977 2.736c1.847.516 3.8.596 5.673.235s3.658-1.153 5.185-2.315a2.17 2.17 0 0 0 .613-.737c.147-.288.228-.606.236-.93a2.17 2.17 0 0 0-2.103-2.231 2.16 2.16 0 0 0-1.372.436 8 8 0 0 1-5.294 1.658c-1.55-.08-3.046-.603-4.3-1.505a8.17 8.17 0 0 1-2.829-3.587.85.85 0 0 1 .383-1.07.84.84 0 0 1 .398-.1h15.145c.484.002.964-.092 1.412-.276s.855-.455 1.198-.797.616-.748.802-1.196a3.69 3.69 0 0 0 .283-1.412c-.03-1.04-.26-2.066-.674-3.02zm-11.425-3.252a8.1 8.1 0 0 1 4.547 1.398 8.11 8.11 0 0 1 2.98 3.713.86.86 0 0 1 .055.405.85.85 0 0 1-.444.657c-.122.065-.258.1-.396.1H39.404a.83.83 0 0 1-.396-.1c-.122-.066-.226-.16-.304-.273s-.126-.246-.14-.384a.86.86 0 0 1 .055-.405 8.11 8.11 0 0 1 2.98-3.713c1.342-.9 2.926-1.398 4.547-1.398zM81.57 27.668a8.09 8.09 0 0 1-4.383-1.289c-1.307-.842-2.345-2.043-3-3.46a8.12 8.12 0 0 1 1.26-8.687l-3.3-2.817a12.41 12.41 0 0 0-2.39 4.237 12.46 12.46 0 0 0-.585 4.831c.124 1.633.57 3.226 1.3 4.687a12.44 12.44 0 0 0 3.005 3.825c1.243 1.065 2.684 1.873 4.24 2.38a12.4 12.4 0 0 0 4.827.57c1.63-.13 3.22-.582 4.676-1.33a12.43 12.43 0 0 0 3.809-3.023l-3.3-2.816a8.08 8.08 0 0 1-2.78 2.134c-1.072.5-2.238.758-3.42.757z" fill="#5a646e"/><path d="M81.57 7.1c-1.785-.002-3.55.382-5.17 1.125a12.4 12.4 0 0 0-4.232 3.182l3.29 2.817c1.402-1.617 3.385-2.613 5.517-2.77s4.24.533 5.865 1.925 2.634 3.37 2.81 5.503a8.12 8.12 0 0 1-1.878 5.887l3.29 2.816c1.53-1.812 2.513-4.024 2.83-6.376a12.46 12.46 0 0 0-1.042-6.899 12.44 12.44 0 0 0-4.587-5.253C86.26 7.788 83.94 7.1 81.57 7.1z" fill="#00aeef"/><path d="M22.074 26.1c-.376-.326-.852-.514-1.35-.532s-.985.135-1.383.433c-1.2.918-2.632 1.482-4.135 1.628s-3.017-.13-4.37-.8-2.494-1.704-3.293-2.987a8.12 8.12 0 0 1-.014-8.557 8.11 8.11 0 0 1 3.283-2.997c1.352-.673 2.865-.955 4.368-.814s2.937.7 4.14 1.615a2.17 2.17 0 0 0 2.731-.066c.245-.21.44-.47.57-.763s.196-.613.19-.935-.086-.638-.23-.925-.352-.54-.605-.736a12.42 12.42 0 0 0-6.352-2.5c-2.31-.224-4.634.204-6.713 1.235S5.084 11.026 3.862 13 1.995 17.253 2 19.575s.657 4.598 1.885 6.568 2.982 3.557 5.064 4.58 4.41 1.444 6.717 1.213a12.42 12.42 0 0 0 6.343-2.521 2.14 2.14 0 0 0 .819-1.642 2.14 2.14 0 0 0-.753-1.673z" fill="#5a646e"/></svg>