<?xml version="1.0" ?><svg viewBox="0 0 64 64" xmlns="http://www.w3.org/2000/svg"><defs><style>.cls-1{fill:#c1c8d1;}.cls-2{fill:#e6e9ed;}.cls-3{fill:#7fcdee;}.cls-4{fill:#b2e1f5;}.cls-5{fill:#acb3bc;}.cls-6{fill:#758190;}.cls-7{fill:#f9d18b;}.cls-8{fill:#fbe3b9;}.cls-9{fill:none;stroke:#000;stroke-linejoin:round;stroke-width:2px;}</style></defs><title/><g data-name="Layer 14" id="Layer_14"><rect class="cls-1" height="44" width="24" x="36" y="2"/><path class="cls-2" d="M36,44.069A39.733,39.733,0,0,0,51,13,39.525,39.525,0,0,0,49.436,2H36Z"/><rect class="cls-3" height="6" width="6" x="40" y="36"/><path class="cls-4" d="M43.628,36H40v4.376A40.185,40.185,0,0,0,43.628,36Z"/><rect class="cls-5" height="34" width="24" x="12" y="24"/><path class="cls-2" d="M12,52.963a40.609,40.609,0,0,0,24-8.894V24H12Z"/><rect class="cls-3" height="6" width="6" x="50" y="36"/><rect class="cls-3" height="6" width="6" x="50" y="26"/><rect class="cls-3" height="6" width="6" x="50" y="16"/><rect class="cls-3" height="6" width="6" x="50" y="6"/><rect class="cls-4" height="6" width="6" x="40" y="6"/><rect class="cls-4" height="6" width="6" x="40" y="16"/><rect class="cls-4" height="6" width="6" x="40" y="26"/><rect class="cls-4" height="6" width="6" x="26" y="40"/><rect class="cls-4" height="6" width="6" x="16" y="40"/><rect class="cls-4" height="6" width="6" x="16" y="30"/><rect class="cls-4" height="6" width="6" x="26" y="30"/><rect class="cls-6" height="12" width="24" x="36" y="46"/><path class="cls-1" d="M44,58V54a4,4,0,0,1,4-4h0a4,4,0,0,1,4,4v4Z"/><path class="cls-6" d="M20,58V54a4,4,0,0,1,4-4h0a4,4,0,0,1,4,4v4Z"/><rect class="cls-6" height="4" width="60" x="2" y="58"/><circle class="cls-7" cx="14" cy="14" r="12"/><path class="cls-6" d="M24.382,20a12.056,12.056,0,0,1-3.754,4H36V20Z"/><path class="cls-8" d="M2,14a11.955,11.955,0,0,0,3.962,8.892A17.688,17.688,0,0,0,22,5.5c0-.151-.019-.3-.023-.447A11.986,11.986,0,0,0,2,14Z"/><rect class="cls-9" height="4" width="60" x="2" y="58"/><polyline class="cls-9" points="60 58 60 2 36 2 36 58"/><rect class="cls-9" height="6" width="6" x="40" y="6"/><rect class="cls-9" height="6" width="6" x="50" y="6"/><rect class="cls-9" height="6" width="6" x="40" y="16"/><rect class="cls-9" height="6" width="6" x="50" y="16"/><rect class="cls-9" height="6" width="6" x="40" y="26"/><rect class="cls-9" height="6" width="6" x="50" y="26"/><rect class="cls-9" height="6" width="6" x="16" y="30"/><rect class="cls-9" height="6" width="6" x="26" y="30"/><rect class="cls-9" height="6" width="6" x="16" y="40"/><rect class="cls-9" height="6" width="6" x="26" y="40"/><rect class="cls-9" height="6" width="6" x="40" y="36"/><rect class="cls-9" height="6" width="6" x="50" y="36"/><line class="cls-9" x1="36" x2="60" y1="46" y2="46"/><path class="cls-9" d="M44,58V54a4,4,0,0,1,4-4h0a4,4,0,0,1,4,4v4"/><path class="cls-9" d="M20,58V54a4,4,0,0,1,4-4h0a4,4,0,0,1,4,4v4"/><line class="cls-9" x1="12" x2="12" y1="25.716" y2="58"/><line class="cls-9" x1="36" x2="24" y1="20" y2="20"/><path class="cls-9" d="M17,11h0a3,3,0,0,0-3-3h0a3,3,0,0,0-3,3h0a3,3,0,0,0,3,3h0a3,3,0,0,1,3,3h0a3,3,0,0,1-3,3h0a3,3,0,0,1-3-3h0"/><line class="cls-9" x1="14" x2="14" y1="8" y2="5"/><line class="cls-9" x1="14" x2="14" y1="20" y2="23"/><circle class="cls-9" cx="14" cy="14" r="12"/><line class="cls-9" x1="36" x2="20.635" y1="24" y2="24"/></g></svg>