<?xml version="1.0" ?><!DOCTYPE svg  PUBLIC '-//W3C//DTD SVG 1.1//EN'  'http://www.w3.org/Graphics/SVG/1.1/DTD/svg11.dtd'><svg enable-background="new 0 0 64 64" height="64px" id="Layer_1" version="1.1" viewBox="0 0 64 64" width="64px" xml:space="preserve" xmlns="http://www.w3.org/2000/svg" xmlns:xlink="http://www.w3.org/1999/xlink"><g id="saving"><g><g><polygon fill="#546E7A" points="32,19 29,19 24,6 32,7    "/><polygon fill="#607D8B" points="39,19 31,19 31,3 45,6    "/><path d="M56,50.5V39c0-11.55-9.45-21-21-21h-2c-11.55,0-21,9.45-21,21v11.5c0,1.5,0,3.5-1.5,4.5S9,58.672,9,59.5     V61h50v-1.5c0-0.828,0-3.5-1.5-4.5S56,52,56,50.5z" fill="#607D8B"/><path d="M56,50.5V39c0-11.55-9.45-21-21-21c0,0,11,6,11,21c0,19-1,21-16,21c-1,0,15,1,14,1s15,0,15,0v-1.5     c0-0.828,0-3.5-1.5-4.5S56,52,56,50.5z" fill="#546E7A"/><path d="M41.833,5.321C41.11,10.834,37.887,15,34,15c-1.062,0-2.073-0.317-3-0.881V19h8l6-13L41.833,5.321z" fill="#546E7A"/><path d="M33,18c-2.383,0-4.667,0.422-6.806,1.161C26.815,19.634,29.036,21,34,21s7.185-1.366,7.806-1.839     C39.667,18.422,37.383,18,35,18H33z" fill="#546E7A"/><path d="M40.895,17.56c-0.242-0.492-0.839-0.697-1.336-0.457C39.54,17.112,37.665,18,34,18     c-3.632,0-5.506-0.872-5.558-0.896c-0.49-0.243-1.09-0.043-1.337,0.449c-0.247,0.494-0.047,1.095,0.447,1.342     C27.644,18.939,29.813,20,34,20s6.356-1.061,6.447-1.105C40.939,18.648,41.138,18.053,40.895,17.56z" fill="#37474F"/><path d="M40.895,17.56c-0.242-0.492-0.839-0.697-1.336-0.457C39.54,17.112,37.665,18,34,18     c-3.632,0-5.506-0.872-5.558-0.896c-0.49-0.243-1.09-0.043-1.337,0.449c-0.247,0.494-0.047,1.095,0.447,1.342     C27.644,18.939,29.813,20,34,20s6.356-1.061,6.447-1.105C40.939,18.648,41.138,18.053,40.895,17.56z" fill="#37474F"/></g><rect fill="#455A64" height="1" width="50" x="9" y="60"/></g><g><rect fill="#FFD740" height="4" width="18" x="24" y="57"/><rect fill="#FFE57F" height="4" width="9" x="24" y="57"/><rect fill="#FFC400" height="1" width="18" x="24" y="60"/><rect fill="#FFFFFF" height="3" width="1" x="25" y="57"/><rect fill="#FFC400" height="3" width="1" x="35" y="57"/><rect fill="#FFC400" height="3" width="1" x="37" y="57"/><rect fill="#FFC400" height="3" width="1" x="39" y="57"/><rect fill="#FFC400" height="3" width="1" x="41" y="57"/></g><g><rect fill="#FFD740" height="4" width="18" x="23" y="53"/><rect fill="#FFE57F" height="4" width="9" x="23" y="53"/><rect fill="#FFC400" height="1" width="18" x="23" y="56"/><rect fill="#FFFFFF" height="3" width="1" x="24" y="53"/><rect fill="#FFC400" height="3" width="1" x="34" y="53"/><rect fill="#FFC400" height="3" width="1" x="36" y="53"/><rect fill="#FFC400" height="3" width="1" x="38" y="53"/><rect fill="#FFC400" height="3" width="1" x="40" y="53"/></g><g><rect fill="#FFD740" height="4" width="18" x="6" y="49"/><rect fill="#FFE57F" height="4" width="9" x="6" y="49"/><rect fill="#FFC400" height="1" width="18" x="6" y="52"/><rect fill="#FFFFFF" height="3" width="1" x="7" y="49"/><rect fill="#FFC400" height="3" width="1" x="17" y="49"/><rect fill="#FFC400" height="3" width="1" x="19" y="49"/><rect fill="#FFC400" height="3" width="1" x="21" y="49"/><rect fill="#FFC400" height="3" width="1" x="23" y="49"/></g><g><g><path d="M27.989,50.011c-3.313-3.314-3.313-8.707,0-12.021c3.314-3.313,8.707-3.313,12.021,0     c3.313,3.314,3.313,8.707,0,12.021C36.696,53.324,31.304,53.324,27.989,50.011z" fill="#FFD740"/><path d="M34,36c4.411,0,8,3.589,8,8s-3.589,8-8,8s-8-3.589-8-8S29.589,36,34,36 M34,35c-4.971,0-9,4.03-9,9     s4.029,9,9,9s9-4.03,9-9S38.971,35,34,35L34,35z" fill="#FDD835"/></g><path d="M27.133,48.563c-1.367-3.184-0.766-7.009,1.835-9.609c2.734-2.734,6.827-3.263,10.1-1.606    c0-0.093,0.001-0.186,0.007-0.279c-3.363-2.06-7.813-1.642-10.725,1.269c-2.779,2.779-3.291,6.967-1.539,10.267    C26.917,48.586,27.024,48.57,27.133,48.563z" fill="#FFFFFF"/><g><path d="M34,50.5c-3.584,0-6.5-2.916-6.5-6.5s2.916-6.5,6.5-6.5s6.5,2.916,6.5,6.5S37.584,50.5,34,50.5z" fill="#FFE57F"/><path d="M34,38c3.309,0,6,2.691,6,6s-2.691,6-6,6s-6-2.691-6-6S30.691,38,34,38 M34,37c-3.865,0-7,3.137-7,7     s3.135,7,7,7s7-3.137,7-7S37.865,37,34,37L34,37z" fill="#FFC400"/></g><g><path d="M34,41c0.719,0,1,0.521,1,1h2c0-0.814-0.674-1.619-2-1.894V39h-2v1.092c-1.326,0.24-2,1.009-2,2.408     c0,1.313,1.031,2.5,3,2.5c0.577,0,1,0.438,1,1c0,0.595-0.334,1-1,1s-1-0.367-1-1h-2c0,1.245,0.684,1.78,2,1.94V49h2v-1.075     c1.326-0.2,2.025-0.874,2-2.425c0-1.375-1-2.499-3-2.499c-0.563,0-1-0.313-1-1.001C33,41.482,33.281,41,34,41z" fill="#FFAB00"/></g><path d="M34,36c4.411,0,8,3.589,8,8s-3.589,8-8,8s-8-3.589-8-8S29.589,36,34,36 M34,35c-4.971,0-9,4.03-9,9    s4.029,9,9,9s9-4.03,9-9S38.971,35,34,35L34,35z" fill="#FFC400"/></g><g><rect fill="#FFD740" height="4" width="18" x="6" y="57"/><rect fill="#FFE57F" height="4" width="9" x="6" y="57"/><rect fill="#FFC400" height="1" width="18" x="6" y="60"/><rect fill="#FFFFFF" height="3" width="1" x="7" y="57"/><rect fill="#FFC400" height="3" width="1" x="17" y="57"/><rect fill="#FFC400" height="3" width="1" x="19" y="57"/><rect fill="#FFC400" height="3" width="1" x="21" y="57"/><rect fill="#FFC400" height="3" width="1" x="23" y="57"/></g><g><rect fill="#FFD740" height="4" width="18" x="5" y="53"/><rect fill="#FFE57F" height="4" width="9" x="5" y="53"/><rect fill="#FFC400" height="1" width="18" x="5" y="56"/><rect fill="#FFFFFF" height="3" width="1" x="6" y="53"/><rect fill="#FFC400" height="3" width="1" x="16" y="53"/><rect fill="#FFC400" height="3" width="1" x="18" y="53"/><rect fill="#FFC400" height="3" width="1" x="20" y="53"/><rect fill="#FFC400" height="3" width="1" x="22" y="53"/></g><g><g><path d="M8.989,46.011c-3.313-3.314-3.313-8.707,0-12.021c3.314-3.313,8.707-3.313,12.021,0     c3.313,3.314,3.313,8.707,0,12.021C17.696,49.324,12.304,49.324,8.989,46.011z" fill="#FFD740"/><path d="M15,32c4.411,0,8,3.589,8,8s-3.589,8-8,8s-8-3.589-8-8S10.589,32,15,32 M15,31c-4.971,0-9,4.03-9,9     s4.029,9,9,9s9-4.03,9-9S19.971,31,15,31L15,31z" fill="#FDD835"/></g><path d="M8.134,44.563c-1.368-3.185-0.767-7.01,1.834-9.61c2.734-2.734,6.827-3.263,10.101-1.606    c-0.001-0.093,0-0.186,0.007-0.279c-3.364-2.06-7.814-1.642-10.726,1.269c-2.779,2.779-3.291,6.967-1.539,10.267    C7.917,44.586,8.025,44.57,8.134,44.563z" fill="#FFFFFF"/><g><path d="M15,46.5c-3.584,0-6.5-2.916-6.5-6.5s2.916-6.5,6.5-6.5s6.5,2.916,6.5,6.5S18.584,46.5,15,46.5z" fill="#FFE57F"/><path d="M15,34c3.309,0,6,2.691,6,6s-2.691,6-6,6s-6-2.691-6-6S11.691,34,15,34 M15,33c-3.865,0-7,3.137-7,7     s3.135,7,7,7s7-3.137,7-7S18.865,33,15,33L15,33z" fill="#FFC400"/></g><g><path d="M15,37c0.719,0,1,0.521,1,1h2c0-0.814-0.674-1.619-2-1.894V35h-2v1.092c-1.326,0.24-2,1.009-2,2.408     c0,1.313,1.031,2.5,3,2.5c0.577,0,1,0.438,1,1c0,0.595-0.334,1-1,1s-1-0.367-1-1h-2c0,1.245,0.684,1.78,2,1.94V45h2v-1.075     c1.326-0.2,2.025-0.874,2-2.425c0-1.375-1-2.499-3-2.499c-0.563,0-1-0.313-1-1.001C14,37.482,14.281,37,15,37z" fill="#FFAB00"/></g><path d="M15,32c4.411,0,8,3.589,8,8s-3.589,8-8,8s-8-3.589-8-8S10.589,32,15,32 M15,31c-4.971,0-9,4.03-9,9    s4.029,9,9,9s9-4.03,9-9S19.971,31,15,31L15,31z" fill="#FFC400"/></g></g></svg>