<svg width="512" height="512" viewBox="0 0 512 512" fill="none" xmlns="http://www.w3.org/2000/svg">
<g clip-path="url(#clip0)">
<path d="M374.108 373.328C366.279 365.536 353.616 365.566 345.824 373.395L276 443.557V20C276 8.954 267.046 0 256 0C244.954 0 236 8.954 236 20V443.558L166.176 373.394C158.384 365.565 145.721 365.535 137.892 373.327C130.062 381.12 130.033 393.783 137.824 401.612L241.824 506.116C241.83 506.123 241.837 506.128 241.843 506.134C249.635 513.943 262.339 513.968 270.157 506.135C270.163 506.128 270.17 506.123 270.176 506.117L374.176 401.613C381.966 393.785 381.939 381.121 374.108 373.328Z" fill="#2D5275"/>
</g>
<defs>
<clipPath id="clip0">
<rect width="512" height="512" fill="white"/>
</clipPath>
</defs>
</svg>
