<svg width="512" height="512" viewBox="0 0 512 512" fill="none" xmlns="http://www.w3.org/2000/svg">
<path d="M492.452 112.071L178.877 45.7099C165.61 42.9031 152.46 51.4624 149.653 64.7293L143.696 103.014L505.509 179.58L511.466 141.295C514.273 128.033 505.719 114.879 492.452 112.071Z" fill="#2D5275"/>
<path d="M360.585 187.699C356.923 174.509 343.139 166.712 329.953 170.369L270.425 186.895L130.091 157.195L114.657 230.118L18.2265 256.883C5.04159 260.54 -2.75475 274.324 0.902056 287.51L55.2464 483.341C58.909 496.526 72.6938 504.328 85.8787 500.666L397.605 414.158C410.79 410.496 418.586 396.717 414.93 383.526L405.601 349.908L440.562 357.299C453.829 360.111 466.979 351.552 469.786 338.285L491.905 233.762L365.974 207.113L360.585 187.699ZM396.585 287.228L404.295 250.792C405.452 245.337 410.862 241.818 416.317 242.97L452.753 250.684C458.213 251.842 461.732 257.246 460.58 262.706L452.871 299.142C451.713 304.598 446.304 308.122 440.848 306.965L404.413 299.255C398.947 298.093 395.427 292.684 396.585 287.228ZM23.6511 276.425L109.918 252.493L313.463 196.008L335.367 189.922C335.766 189.815 336.166 189.764 336.555 189.764C338.312 189.764 340.413 190.916 341.027 193.124L343.599 202.385L351.656 231.419L31.0785 320.38L20.4494 282.091C19.7834 279.688 21.2492 277.091 23.6511 276.425ZM395.381 388.945C395.791 390.43 395.361 391.659 394.925 392.428C394.495 393.196 393.666 394.201 392.18 394.61L80.4592 481.118C80.0651 481.226 79.6602 481.282 79.2704 481.282C77.5135 481.282 75.4128 480.124 74.7987 477.916L43.1013 363.691L363.679 274.724L383.231 345.173L395.381 388.945Z" fill="#2D5275"/>
<path d="M130.828 396.761C129.332 391.382 123.718 388.207 118.339 389.698L81.934 399.804C76.5605 401.295 73.3797 406.914 74.8756 412.293L84.9768 448.692C86.4726 454.071 92.0871 457.247 97.4656 455.751L133.871 445.65C139.249 444.159 142.425 438.539 140.934 433.161L130.828 396.761Z" fill="#2D5275"/>
</svg>
