<svg width="512" height="512" viewBox="0 0 512 512" fill="none" xmlns="http://www.w3.org/2000/svg">
<path d="M448 128H376C369.635 128 363.53 125.471 359.029 120.971C354.529 116.47 352 110.365 352 104V32H144V168H424C426.122 168 428.157 168.843 429.657 170.343C431.157 171.843 432 173.878 432 176V336C432 338.122 431.157 340.157 429.657 341.657C428.157 343.157 426.122 344 424 344H144V448H448V128Z" fill="#2D5275"/>
<path d="M416 184H24V328H416V184ZM168 216H104C101.878 216 99.8434 216.843 98.3431 218.343C96.8429 219.843 96 221.878 96 224V288C96 290.122 96.8429 292.157 98.3431 293.657C99.8434 295.157 101.878 296 104 296H168V312H104C97.6348 312 91.5303 309.471 87.0294 304.971C82.5286 300.47 80 294.365 80 288V224C80 217.635 82.5286 211.53 87.0294 207.029C91.5303 202.529 97.6348 200 104 200H168V216ZM264 232H248V216H200V248H256C258.122 248 260.157 248.843 261.657 250.343C263.157 251.843 264 253.878 264 256V304C264 306.122 263.157 308.157 261.657 309.657C260.157 311.157 258.122 312 256 312H192C189.878 312 187.843 311.157 186.343 309.657C184.843 308.157 184 306.122 184 304V280H200V296H248V264H192C189.878 264 187.843 263.157 186.343 261.657C184.843 260.157 184 258.122 184 256V208C184 205.878 184.843 203.843 186.343 202.343C187.843 200.843 189.878 200 192 200H256C258.122 200 260.157 200.843 261.657 202.343C263.157 203.843 264 205.878 264 208V232ZM359.584 210.528L327.584 306.528C327.058 308.129 326.04 309.522 324.675 310.51C323.311 311.498 321.669 312.03 319.984 312.03C318.299 312.03 316.657 311.498 315.293 310.51C313.928 309.522 312.91 308.129 312.384 306.528L280.384 210.528C279.983 209.323 279.874 208.041 280.067 206.786C280.259 205.531 280.748 204.34 281.492 203.311C282.236 202.282 283.215 201.445 284.346 200.87C285.478 200.294 286.73 199.996 288 200H312V216H299.104L320 278.704L340.896 216H328V200H352C353.267 200.001 354.516 200.303 355.643 200.881C356.77 201.459 357.745 202.296 358.485 203.324C359.226 204.352 359.711 205.541 359.902 206.794C360.093 208.046 359.984 209.326 359.584 210.528V210.528Z" fill="#2D5275"/>
<path d="M480 64H411.312L461.656 114.344C463.156 115.844 464 117.878 464 120V456C464 458.122 463.157 460.157 461.657 461.657C460.157 463.157 458.122 464 456 464H176V480H480V64Z" fill="#2D5275"/>
<path d="M436.688 112L368 43.312V104C368 106.122 368.843 108.157 370.343 109.657C371.843 111.157 373.878 112 376 112H436.688Z" fill="#2D5275"/>
</svg>
