<svg width="512" height="512" viewBox="0 0 512 512" fill="none" xmlns="http://www.w3.org/2000/svg">
<path d="M488 48H395.312L365.656 18.344C364.156 16.8436 362.122 16.0005 360 16H136C133.878 16 131.843 16.8429 130.343 18.3431C128.843 19.8434 128 21.8783 128 24V168H24C21.8783 168 19.8434 168.843 18.3431 170.343C16.8429 171.843 16 173.878 16 176V336C16 338.122 16.8429 340.157 18.3431 341.657C19.8434 343.157 21.8783 344 24 344H128V456C128 458.122 128.843 460.157 130.343 461.657C131.843 463.157 133.878 464 136 464H160V488C160 490.122 160.843 492.157 162.343 493.657C163.843 495.157 165.878 496 168 496H488C490.122 496 492.157 495.157 493.657 493.657C495.157 492.157 496 490.122 496 488V56C496 53.8783 495.157 51.8434 493.657 50.3431C492.157 48.8429 490.122 48 488 48ZM368 43.312L436.688 112H376C373.878 112 371.843 111.157 370.343 109.657C368.843 108.157 368 106.122 368 104V43.312ZM32 184H416V328H32V184ZM144 344H424C426.122 344 428.157 343.157 429.657 341.657C431.157 340.157 432 338.122 432 336V176C432 173.878 431.157 171.843 429.657 170.343C428.157 168.843 426.122 168 424 168H144V32H352V104C352 110.365 354.529 116.47 359.029 120.971C363.53 125.471 369.635 128 376 128H448V448H144V344ZM480 480H176V464H456C458.122 464 460.157 463.157 461.657 461.657C463.157 460.157 464 458.122 464 456V120C464 117.878 463.156 115.844 461.656 114.344L411.312 64H480V480Z" fill="#2D5275"/>
<path d="M88 224V288C88 294.365 90.5286 300.47 95.0294 304.971C99.5303 309.471 105.635 312 112 312H168V296H112C109.878 296 107.843 295.157 106.343 293.657C104.843 292.157 104 290.122 104 288V224C104 221.878 104.843 219.843 106.343 218.343C107.843 216.843 109.878 216 112 216H168V200H112C105.635 200 99.5303 202.529 95.0294 207.029C90.5286 211.53 88 217.635 88 224Z" fill="#2D5275"/>
<path d="M256 200H192C189.878 200 187.843 200.843 186.343 202.343C184.843 203.843 184 205.878 184 208V256C184 258.122 184.843 260.157 186.343 261.657C187.843 263.157 189.878 264 192 264H248V296H200V280H184V304C184 306.122 184.843 308.157 186.343 309.657C187.843 311.157 189.878 312 192 312H256C258.122 312 260.157 311.157 261.657 309.657C263.157 308.157 264 306.122 264 304V256C264 253.878 263.157 251.843 261.657 250.343C260.157 248.843 258.122 248 256 248H200V216H248V232H264V208C264 205.878 263.157 203.843 261.657 202.343C260.157 200.843 258.122 200 256 200Z" fill="#2D5275"/>
<path d="M352 200H328V216H340.896L320 278.704L299.104 216H312V200H288C286.733 200.001 285.484 200.303 284.357 200.881C283.23 201.459 282.255 202.296 281.515 203.324C280.774 204.352 280.289 205.541 280.098 206.794C279.907 208.046 280.016 209.326 280.416 210.528L312.416 306.528C312.942 308.129 313.96 309.522 315.325 310.51C316.689 311.498 318.331 312.03 320.016 312.03C321.701 312.03 323.343 311.498 324.707 310.51C326.072 309.522 327.09 308.129 327.616 306.528L359.616 210.528C360.017 209.323 360.126 208.041 359.933 206.786C359.741 205.531 359.252 204.34 358.508 203.311C357.764 202.282 356.785 201.445 355.654 200.87C354.522 200.294 353.27 199.996 352 200Z" fill="#2D5275"/>
</svg>
