<svg width="512" height="512" viewBox="0 0 512 512" fill="none" xmlns="http://www.w3.org/2000/svg">
<path d="M503.816 130.068L487.045 113.18C481.767 107.906 474.744 105.001 467.239 105.001C459.738 105.001 452.707 107.906 447.429 113.18L256.114 304.503L64.5791 112.968C59.3092 107.694 52.2785 104.792 44.7775 104.792C37.2764 104.792 30.2415 107.694 24.9675 112.968L8.19207 129.752C-2.73069 140.666 -2.73069 158.445 8.19207 169.359L236.238 398.225C241.508 403.495 248.53 407.208 256.098 407.208H256.185C263.69 407.208 270.713 403.491 275.983 398.225L503.816 169.979C509.094 164.709 511.992 157.475 512 149.974C512 142.468 509.094 135.334 503.816 130.068Z" fill="#2D5275"/>
</svg>
