<svg width="512" height="512" viewBox="0 0 512 512" fill="none" xmlns="http://www.w3.org/2000/svg">
<path d="M439.658 91.21L351.435 2.987C349.522 1.075 346.928 0 344.223 0H79.554C73.921 0 69.355 4.566 69.355 10.199V501.801C69.355 507.434 73.921 512 79.554 512H432.446C438.078 512 442.645 507.434 442.645 501.801V98.422C442.645 95.717 441.57 93.123 439.658 91.21ZM354.422 34.823L407.823 88.223H354.422V34.823ZM422.247 491.602H89.753V20.398H334.024V98.422C334.024 104.055 338.591 108.621 344.223 108.621H422.247V491.602Z" fill="#2D5275"/>
<path d="M282.012 454.884H119.331C113.698 454.884 109.132 459.45 109.132 465.083C109.132 470.716 113.698 475.282 119.331 475.282H282.012C287.644 475.282 292.211 470.716 292.211 465.083C292.211 459.45 287.644 454.884 282.012 454.884Z" fill="#2D5275"/>
<path d="M334.026 454.884H322.959C317.327 454.884 312.76 459.45 312.76 465.083C312.76 470.716 317.327 475.282 322.959 475.282H334.026C339.658 475.282 344.225 470.716 344.225 465.083C344.225 459.45 339.658 454.884 334.026 454.884Z" fill="#2D5275"/>
<path d="M311.6 263.139L387.337 169.605C389.81 166.549 390.309 162.344 388.615 158.796C386.923 155.247 383.341 152.988 379.41 152.988H294.458C291.38 152.988 288.468 154.377 286.532 156.769L256 194.475L225.468 156.769C223.532 154.377 220.619 152.988 217.542 152.988H132.59C128.659 152.988 125.077 155.247 123.384 158.796C121.691 162.344 122.19 166.55 124.663 169.605L200.4 263.139L124.663 356.673C122.189 359.729 121.691 363.934 123.384 367.482C125.077 371.03 128.658 373.29 132.59 373.29H217.542C220.619 373.29 223.532 371.901 225.468 369.509L256 331.804L286.531 369.51C288.467 371.902 291.38 373.291 294.457 373.291H379.41C383.341 373.291 386.923 371.032 388.615 367.483C390.308 363.935 389.81 359.729 387.336 356.674L311.6 263.139ZM299.323 173.386H358.029L298.476 246.931L269.124 210.681L299.323 173.386ZM212.677 352.892H153.971L213.523 279.347L242.875 315.597L212.677 352.892ZM299.323 352.892L153.971 173.386H212.677L358.028 352.892H299.323Z" fill="#2D5275"/>
</svg>
