<svg width="512" height="513" viewBox="0 0 512 513" fill="none" xmlns="http://www.w3.org/2000/svg">
<g clip-path="url(#clip0)">
<path d="M256 0.884277C114.623 0.884277 0 115.508 0 256.884C0 398.277 114.623 512.884 256 512.884C397.393 512.884 512 398.293 512 256.884C512 115.508 397.391 0.884277 256 0.884277ZM256 464.884C141.121 464.884 48.0008 371.764 48.0008 256.884C48.0008 142.005 141.121 48.8851 256 48.8851C370.879 48.8851 463.999 142.005 463.999 256.884C463.999 371.764 370.879 464.884 256 464.884ZM256.016 113.156C237.681 113.156 223.807 122.724 223.807 138.18V279.94C223.807 295.411 237.679 304.948 256.016 304.948C273.904 304.948 288.225 295.012 288.225 279.94V138.18C288.223 123.091 273.904 113.156 256.016 113.156ZM256.016 336.884C238.4 336.884 224.063 351.221 224.063 368.852C224.063 386.451 238.4 400.788 256.016 400.788C273.632 400.788 287.953 386.451 287.953 368.852C287.951 351.219 273.632 336.884 256.016 336.884Z" fill="#E2574C"/>
</g>
<defs>
<clipPath id="clip0">
<rect width="512" height="512" fill="white" transform="translate(0 0.884277)"/>
</clipPath>
</defs>
</svg>
