<svg width="494" height="439" viewBox="0 0 494 439" fill="none" xmlns="http://www.w3.org/2000/svg">
<path d="M73.1429 36.5714C73.1429 50.2857 67.0476 60.7619 54.8571 68V429.714C54.8571 432.19 53.9524 434.333 52.1429 436.143C50.3333 437.952 48.1905 438.857 45.7143 438.857H27.4286C24.9524 438.857 22.8095 437.952 21 436.143C19.1905 434.333 18.2857 432.19 18.2857 429.714V68C6.09524 60.7619 0 50.2857 0 36.5714C0 26.4762 3.57143 17.8571 10.7143 10.7143C17.8571 3.57143 26.4762 0 36.5714 0C46.6667 0 55.2857 3.57143 62.4286 10.7143C69.5714 17.8571 73.1429 26.4762 73.1429 36.5714ZM493.714 54.8571V272.857C493.714 277.619 492.524 281.286 490.143 283.857C487.762 286.429 484 289.048 478.857 291.714C437.905 313.81 402.762 324.857 373.429 324.857C361.81 324.857 350.048 322.762 338.143 318.571C326.238 314.381 315.905 309.81 307.143 304.857C298.381 299.905 287.381 295.333 274.143 291.143C260.905 286.952 247.333 284.857 233.429 284.857C196.857 284.857 152.667 298.762 100.857 326.571C97.6191 328.286 94.4762 329.143 91.4286 329.143C86.4762 329.143 82.1905 327.333 78.5714 323.714C74.9524 320.095 73.1429 315.81 73.1429 310.857V98.8571C73.1429 92.7619 76.0952 87.5238 82 83.1429C86 80.4762 93.5238 76.3809 104.571 70.8571C149.524 48 189.619 36.5714 224.857 36.5714C245.238 36.5714 264.286 39.3333 282 44.8571C299.714 50.3809 320.571 58.7619 344.571 70C351.81 73.619 360.19 75.4286 369.714 75.4286C380 75.4286 391.19 73.4286 403.286 69.4286C415.381 65.4286 425.857 60.9524 434.714 56C443.571 51.0476 451.952 46.5714 459.857 42.5714C467.762 38.5714 472.952 36.5714 475.429 36.5714C480.381 36.5714 484.667 38.381 488.286 42C491.905 45.619 493.714 49.9048 493.714 54.8571Z" fill="#2D5275"/>
</svg>
