<svg width="512" height="325" viewBox="0 0 512 325" fill="none" xmlns="http://www.w3.org/2000/svg">
<path d="M428.423 175.058L378.188 74.3321C377.62 73.2185 376.867 72.1817 375.91 71.3138C374.95 70.4486 373.875 69.8137 372.753 69.4118L313.848 48.2406C309.744 46.766 305.349 45.975 300.774 46.0159C296.204 46.0646 291.829 46.9426 287.746 48.4966L243.051 65.5462C239.905 66.7494 236.782 68.1318 233.702 69.7062C232.673 70.2386 231.662 70.8146 230.655 71.3804C227.281 69.5526 223.759 67.9423 220.083 66.5727C208.358 62.19 196.351 60.7103 184.732 61.7036L154.662 64.2841C153.354 64.3967 152.033 64.8012 150.799 65.5257C149.565 66.2527 148.546 67.2332 147.745 68.3673L80.0378 164.754C78.6426 166.733 77.8977 169.252 78.1255 171.917C78.3482 174.582 79.4951 176.919 81.1898 178.598L110.64 207.785C109.025 210.742 108.001 214.062 107.765 217.615C107.34 224 109.437 230.164 113.651 234.975C117.87 239.782 123.704 242.662 130.094 243.08C130.434 243.103 130.78 243.103 131.125 243.115C128.506 251.581 130.649 261.197 137.471 267.653C141.555 271.519 146.79 273.771 152.353 274.132C148.769 283.016 150.707 293.609 158.031 300.539C162.498 304.773 168.34 307.1 174.497 307.1C180.907 307.1 186.887 304.596 191.403 300.075C193.082 310.925 202.096 319.575 213.496 320.32C214.021 320.356 214.558 320.379 215.083 320.379C217.996 320.379 220.787 319.828 223.382 318.861C227.622 321.687 232.675 323.243 238.054 323.026C244.664 322.749 250.593 319.834 255.027 315.272L238.83 299.11C238.868 298.737 238.937 298.378 238.952 297.992C239.162 294.817 238.727 291.745 237.782 288.891L270.932 321.956C275.115 323.658 279.667 324.511 284.408 324.319C293.895 323.932 302.346 319.452 308.331 312.52L311.649 308.672C311.956 308.308 312.191 307.899 312.396 307.459L261.358 256.561C260.042 255.258 259.937 253.089 261.104 251.725C262.274 250.368 264.302 250.322 265.607 251.625L326.307 312.156C329.615 313.316 333.155 313.882 336.834 313.73C345.175 313.39 352.616 309.45 357.877 303.345L365.893 294.067C367.731 291.927 368.826 289.039 368.724 285.901L315.458 232.796C314.158 231.49 314.04 229.317 315.207 227.963C316.385 226.603 318.407 226.557 319.71 227.86L373.227 281.224C375.423 281.81 377.73 282.097 380.101 282.002C386.938 281.725 393.021 278.5 397.327 273.5L399.48 271.007C403.788 266.017 406.328 259.259 406.069 251.909C405.808 244.562 402.813 238.034 398.169 233.4L383.882 219.156L387.491 222.751L426.122 187.868C427.763 186.394 428.953 184.328 429.388 181.901C429.821 179.476 429.429 177.083 428.423 175.058ZM130.764 232.753C127.142 232.517 123.829 230.884 121.43 228.15C119.034 225.423 117.852 221.924 118.092 218.294C118.55 211.169 124.515 205.591 131.637 205.591C131.939 205.591 132.246 205.599 132.549 205.617C136.171 205.857 139.484 207.488 141.882 210.222C144.278 212.954 145.461 216.45 145.228 220.081C144.732 227.507 138.278 233.254 130.764 232.753ZM153.925 263.857C150.435 263.857 147.118 262.541 144.583 260.142C139.205 255.058 138.913 246.49 143.905 241.073C144.163 240.804 149.468 235.192 152.012 232.514L153.349 231.094C155.944 228.354 159.452 226.844 163.225 226.844C166.717 226.844 170.037 228.168 172.566 230.571C175.206 233.065 176.719 236.436 176.816 240.072C176.916 243.694 175.595 247.147 173.102 249.779L169.318 253.78C168.509 254.63 167.641 255.549 166.753 256.486C166.612 256.645 166.456 256.804 166.32 256.952C165.66 257.646 165.076 258.26 164.623 258.734C164.364 259.013 164.106 259.292 163.839 259.563C163.773 259.633 163.722 259.691 163.717 259.699C161.141 262.382 157.657 263.857 153.925 263.857ZM184.278 292.595C181.695 295.278 178.222 296.753 174.492 296.753C171 296.753 167.674 295.429 165.148 293.028C159.772 287.944 159.477 279.378 164.454 273.986C164.572 273.858 167.687 270.561 171.217 266.836C171.217 266.834 171.217 266.834 171.217 266.834L173.839 264.066C178.429 259.208 179.934 257.628 180.441 257.078C180.5 257.024 180.569 256.96 180.618 256.904L180.628 256.896C181.071 256.417 181.329 256.151 181.337 256.143C183.928 253.404 187.44 251.891 191.216 251.891C194.708 251.891 198.021 253.212 200.558 255.613C203.197 258.112 204.702 261.486 204.802 265.111C204.902 268.749 203.581 272.2 201.077 274.844C200.834 275.1 184.803 292.037 184.278 292.595ZM214.169 310.003C206.689 309.506 201 303.019 201.494 295.544C201.963 288.415 207.905 282.836 215.037 282.836C215.339 282.836 215.646 282.847 215.948 282.865C223.426 283.356 229.114 289.843 228.628 297.321C228.136 304.742 221.693 310.497 214.169 310.003ZM380.377 215.665L274.562 110.167L275.755 107.154C276.372 105.582 276.293 103.726 275.389 102.164C274.483 100.608 272.967 99.7017 271.38 99.6172L263.516 99.1462L254.924 98.6367L254.271 108.82C254.264 109.033 252.561 132.191 240.752 153.114C228.646 174.584 212.605 181.988 210.16 182.464C207.429 182.994 204.564 183.498 202.183 183.498C200.547 183.498 199.288 183.268 198.21 182.774L194.193 180.913C192.509 180.132 191.224 178.698 190.545 176.87C189.885 175.106 189.893 173.179 190.545 171.42L230.791 83.095L237.634 78.5868L240.391 77.5372H240.386L290.966 58.245C294.146 57.0342 297.477 56.3993 300.858 56.3686L301.14 56.366C304.422 56.366 307.673 56.9343 310.786 58.0556L369.694 79.2268L419.934 179.95L380.377 215.665Z" fill="#2D5275"/>
<path d="M437.629 10.002L397.862 29.8291C392.143 32.6887 387.504 37.7268 385.313 44.2701C383.124 50.816 383.802 57.6282 386.647 63.36L438.714 167.744C441.569 173.461 446.604 178.107 453.16 180.288C459.699 182.479 466.511 181.811 472.24 178.954L512 159.117L437.629 10.002ZM472.138 159.178C466.856 159.178 462.561 154.895 462.561 149.606C462.561 144.312 466.856 140.019 472.138 140.019C477.429 140.019 481.725 144.312 481.725 149.606C481.725 154.895 477.429 159.178 472.138 159.178Z" fill="#2D5275"/>
<path d="M0 136.356L36.3571 161.897C41.5898 165.578 48.2278 167.255 55.0272 166.065C61.8317 164.879 67.4995 161.044 71.1731 155.814L138.227 60.3622C141.911 55.1322 143.588 48.4864 142.403 41.6922C141.207 34.8902 137.388 29.2173 132.15 25.536L95.7875 0L0 136.356ZM31.36 131.456C32.1485 126.223 37.0304 122.621 42.2554 123.407C47.4931 124.198 51.0899 129.083 50.3066 134.313C49.5155 139.551 44.6387 143.153 39.4035 142.356C34.1683 141.573 30.569 136.694 31.36 131.456Z" fill="#2D5275"/>
</svg>
