<svg width="512" height="386" viewBox="0 0 512 386" fill="none" xmlns="http://www.w3.org/2000/svg">
<path fill-rule="evenodd" clip-rule="evenodd" d="M101.001 0H410.999C432.99 0 450.998 18.0077 450.998 39.9987V299.99H420.744V309.011H364.252V299.99H147.748V309.011H91.2563V299.99H61.0022V39.9987C61.0022 17.9912 78.9933 0 101.001 0ZM0 327.002H192.751C192.883 332.533 197.442 337.01 203.006 337.01H308.994C314.558 337.01 319.117 332.533 319.249 327.002H512V345.997C512 368.005 493.992 385.996 472.001 385.996H39.9987C17.9912 385.996 0 368.005 0 345.997V327.002ZM153.493 87.0095H358.491V106.992H153.493V87.0095ZM153.493 185.048H268.502V205.014H153.493V185.048ZM153.493 136.029H358.491V155.995H153.493V136.029ZM89.4128 39.9987H422.587V259.992H89.4128V39.9987Z" fill="#2D5275"/>
</svg>
