<svg width="512" height="1024" viewBox="0 0 512 1024" fill="none" xmlns="http://www.w3.org/2000/svg">
<path d="M503.816 642.068L487.045 625.18C481.767 619.906 474.744 617.001 467.239 617.001C459.738 617.001 452.707 619.906 447.429 625.18L256.114 816.503L64.5791 624.968C59.3092 619.694 52.2785 616.792 44.7775 616.792C37.2764 616.792 30.2415 619.694 24.9675 624.968L8.19207 641.752C-2.73069 652.666 -2.73069 670.445 8.19207 681.359L236.238 910.225C241.508 915.495 248.53 919.208 256.098 919.208H256.185C263.69 919.208 270.713 915.491 275.983 910.225L503.816 681.979C509.094 676.709 511.992 669.475 512 661.974C512 654.468 509.094 647.334 503.816 642.068Z" fill="#2D5275" fill-opacity="0.75"/>
<g clip-path="url(#clip0)">
<path d="M8.18377 381.932L24.955 398.82C30.2332 404.094 37.2556 406.999 44.7608 406.999C52.2619 406.999 59.2926 404.094 64.5708 398.82L255.886 207.497L447.421 399.032C452.691 404.306 459.721 407.208 467.223 407.208C474.724 407.208 481.758 404.306 487.033 399.032L503.808 382.248C514.731 371.334 514.731 353.555 503.808 342.641L275.762 113.775C270.492 108.505 263.47 104.792 255.902 104.792H255.815C248.31 104.792 241.287 108.509 236.017 113.775L8.18377 342.021C2.90555 347.291 0.00834047 354.525 1.52033e-05 362.026C1.52033e-05 369.532 2.90555 376.666 8.18377 381.932Z" fill="#2D5275" fill-opacity="0.75"/>
</g>
<defs>
<clipPath id="clip0">
<rect width="512" height="512" fill="white" transform="translate(512 512) rotate(-180)"/>
</clipPath>
</defs>
</svg>
