<svg width="512" height="512" viewBox="0 0 512 512" fill="none" xmlns="http://www.w3.org/2000/svg">
<path d="M8.18377 381.932L24.955 398.82C30.2332 404.094 37.2556 406.999 44.7608 406.999C52.2619 406.999 59.2926 404.094 64.5708 398.82L255.886 207.497L447.421 399.032C452.691 404.306 459.721 407.208 467.223 407.208C474.724 407.208 481.758 404.306 487.033 399.032L503.808 382.248C514.731 371.334 514.731 353.555 503.808 342.641L275.762 113.775C270.492 108.505 263.47 104.792 255.902 104.792H255.815C248.31 104.792 241.287 108.509 236.017 113.775L8.18377 342.021C2.90555 347.291 0.00834047 354.525 1.52033e-05 362.026C1.52033e-05 369.532 2.90555 376.666 8.18377 381.932Z" fill="#2D5275"/>
</svg>
