<svg width="512" height="512" viewBox="0 0 512 512" fill="none" xmlns="http://www.w3.org/2000/svg">
<g clip-path="url(#clip0)">
<path d="M498.872 415.388L97.6164 14.1312C80.1164 -3.36868 51.7448 -3.36868 34.2724 14.1312L13.1249 35.2459C-4.37496 52.7513 -4.37496 81.1229 13.1249 98.5953L414.38 499.852C431.884 517.352 460.256 517.352 477.728 499.852L498.844 478.736C516.376 461.264 516.376 432.888 498.872 415.388Z" fill="#F44336"/>
<path d="M414.38 14.1311L13.1249 415.388C-4.37496 432.888 -4.37496 461.264 13.1249 478.736L34.2396 499.852C51.7448 517.352 80.1164 517.352 97.5892 499.852L498.872 98.6223C516.376 81.1227 516.376 52.7511 498.872 35.2785L477.756 14.1639C460.256 -3.36881 431.884 -3.36881 414.38 14.1311Z" fill="#F44336"/>
</g>
<defs>
<clipPath id="clip0">
<rect width="512" height="512" fill="white"/>
</clipPath>
</defs>
</svg>
