<svg width="512" height="512" viewBox="0 0 512 512" fill="none" xmlns="http://www.w3.org/2000/svg">
<g clip-path="url(#clip0)">
<path d="M470.857 196.571V68.5714C470.857 48.3749 454.482 32 434.285 32H171.931C197.842 50.2126 214.857 80.2743 214.857 114.286C214.857 169.737 169.737 214.857 114.285 214.857C111.195 214.857 108.16 214.665 105.143 214.391V507.429C105.143 527.625 121.517 544 141.714 544H434.285C454.482 544 470.857 527.625 470.857 507.429V489.143H342.857V196.571H470.857Z" fill="#505050"/>
<path d="M210.962 86.8574C213.44 95.5889 214.857 104.768 214.857 114.286C214.857 138.579 206.198 160.887 191.808 178.286H434.285V86.8574H210.962Z" fill="#64C8F0"/>
<path d="M196.571 288H160C149.897 288 141.714 279.817 141.714 269.715V233.143C141.714 223.04 149.897 214.857 160 214.857H196.571C206.674 214.857 214.857 223.04 214.857 233.143V269.715C214.857 279.817 206.674 288 196.571 288Z" fill="#FAB400"/>
<path d="M306.286 288H269.714C259.612 288 251.429 279.817 251.429 269.715V233.143C251.429 223.04 259.612 214.857 269.714 214.857H306.286C316.389 214.857 324.572 223.04 324.572 233.143V269.715C324.572 279.817 316.389 288 306.286 288Z" fill="#FAB400"/>
<path d="M196.571 397.714H160C149.897 397.714 141.714 389.531 141.714 379.428V342.857C141.714 332.754 149.897 324.571 160 324.571H196.571C206.674 324.571 214.857 332.754 214.857 342.857V379.428C214.857 389.531 206.674 397.714 196.571 397.714Z" fill="#FAB400"/>
<path d="M306.286 397.714H269.714C259.612 397.714 251.429 389.531 251.429 379.428V342.857C251.429 332.754 259.612 324.571 269.714 324.571H306.286C316.389 324.571 324.572 332.754 324.572 342.857V379.428C324.572 389.531 316.389 397.714 306.286 397.714Z" fill="#FAB400"/>
<path d="M196.571 507.429H160C149.897 507.429 141.714 499.246 141.714 489.143V452.572C141.714 442.469 149.897 434.286 160 434.286H196.571C206.674 434.286 214.857 442.469 214.857 452.572V489.143C214.857 499.246 206.674 507.429 196.571 507.429Z" fill="#FAB400"/>
<path d="M306.286 507.429H269.714C259.612 507.429 251.429 499.246 251.429 489.143V452.572C251.429 442.469 259.612 434.286 269.714 434.286H306.286C316.389 434.286 324.572 442.469 324.572 452.572V489.143C324.572 499.246 316.389 507.429 306.286 507.429Z" fill="#FAB400"/>
<path d="M361.143 105.143V160H416V105.143H361.143ZM397.714 141.714H379.428V123.428H397.714V141.714Z" fill="#288CB4"/>
<path d="M288 105.143V160H342.857V105.143H288ZM324.571 141.714H306.286V123.428H324.571V141.714Z" fill="#288CB4"/>
<path d="M214.857 105.143V160H269.715V105.143H214.857ZM251.429 141.714H233.143V123.428H251.429V141.714Z" fill="#288CB4"/>
<path d="M507.428 214.857H361.143V470.857H544V251.429L507.428 214.857Z" fill="#F0F0F0"/>
<path d="M361.143 214.857H379.428V470.857H361.143V214.857Z" fill="#D2D2D2"/>
<path d="M544 251.429H507.429V214.857L544 251.429Z" fill="#D2D2D2"/>
<path d="M470.858 277.55V264.494H458.67V251.429H446.474V264.494H434.286V303.671H458.67V316.736H434.286V329.792H446.474V342.857H458.67V329.792H470.858V290.615H446.474V277.55H470.858Z" fill="#FAB400"/>
<path d="M397.714 374.857H507.428V384H397.714V374.857Z" fill="#505050"/>
<path d="M397.714 393.143H507.428V402.285H397.714V393.143Z" fill="#505050"/>
<path d="M397.714 411.429H507.428V420.572H397.714V411.429Z" fill="#505050"/>
<path d="M172.682 32.5669C174.52 32.2834 176.367 32 178.287 32H171.933C172.189 32.1829 172.426 32.384 172.682 32.5669Z" fill="#3C3C3C"/>
<path d="M141.715 507.428V210.962C132.984 213.44 123.804 214.857 114.286 214.857C111.196 214.857 108.161 214.665 105.144 214.39V507.428C105.144 527.625 121.518 544 141.715 544H178.286C158.09 544 141.715 527.625 141.715 507.428Z" fill="#3C3C3C"/>
<path d="M114.286 196.571C68.8366 196.571 32 159.735 32 114.286C32 68.8366 68.8366 32 114.286 32C159.735 32 196.571 68.8366 196.571 114.286C196.571 159.735 159.735 196.571 114.286 196.571Z" fill="#3CC8B4"/>
<path d="M50.2857 114.286C50.2857 71.936 82.2949 37.0926 123.429 32.5394C120.421 32.2011 117.376 32 114.286 32C68.8366 32 32 68.8366 32 114.286C32 159.735 68.8366 196.571 114.286 196.571C117.376 196.571 120.421 196.37 123.429 196.032C82.2949 191.479 50.2857 156.635 50.2857 114.286V114.286Z" fill="#1EAA96"/>
<path d="M160 105.143L105.143 160L68.5713 123.429L86.857 105.143L105.143 123.429L141.714 86.8574L160 105.143Z" fill="#F0F0F0"/>
</g>
<defs>
<clipPath id="clip0">
<rect width="512" height="512" fill="white"/>
</clipPath>
</defs>
</svg>
