<svg width="512" height="512" viewBox="0 0 512 512" fill="none" xmlns="http://www.w3.org/2000/svg">
<path d="M176.551 317.793H194.206V335.448H176.551V317.793Z" fill="#2D5275"/>
<path d="M211.863 317.793H229.518V335.448H211.863V317.793Z" fill="#2D5275"/>
<path d="M353.103 97.1039C353.103 82.5047 341.22 70.6211 326.621 70.6211H317.793V123.586H353.103V97.1039Z" fill="#2D5275"/>
<path d="M247.172 317.793H264.827V335.448H247.172V317.793Z" fill="#2D5275"/>
<path d="M158.896 70.6211H150.068C135.47 70.6211 123.586 82.5047 123.586 97.1039V123.586H158.896V70.6211Z" fill="#2D5275"/>
<path d="M300.137 0L273.654 17.6552L238.344 0L203.034 17.6552L176.551 0V123.586H300.137V0ZM282.482 105.931H194.206V88.276H282.482V105.931ZM282.482 70.6208H194.206V52.9656H282.482V70.6208Z" fill="#2D5275"/>
<path d="M153.087 507.116C154.591 510.128 157.617 512 160.979 512H315.712C319.074 512 322.1 510.128 323.604 507.116L329.992 494.344H146.699L153.087 507.116Z" fill="#2D5275"/>
<path d="M158.895 176.552H317.791V264.828H158.895V176.552Z" fill="#2D5275"/>
<path d="M353.103 141.241H123.586V266.565C123.586 275.228 126.129 283.612 130.931 290.823C137.676 300.948 141.241 312.724 141.241 324.884V476.688H335.448V324.884C335.448 312.724 339.012 300.948 345.758 290.832C350.56 283.612 353.103 275.228 353.103 266.565V141.241ZM194.206 459.036H176.551V441.38H194.206V459.036ZM194.206 423.724H176.551V406.068H194.206V423.724ZM194.206 388.414H176.551V370.759H194.206V388.414ZM247.172 459.036H229.517V441.38H247.172V459.036ZM247.172 423.724H229.517V406.068H247.172V423.724ZM247.172 388.414H229.517V370.759H247.172V388.414ZM300.138 459.036H282.482V441.38H300.138V459.036ZM300.138 423.724H282.482V406.068H300.138V423.724ZM300.138 388.414H282.482V370.759H300.138V388.414ZM317.793 335.448C317.793 345.185 309.875 353.104 300.138 353.104H176.551C166.814 353.104 158.896 345.185 158.896 335.448V317.793C158.896 308.056 166.814 300.138 176.551 300.138H300.138C309.875 300.138 317.793 308.056 317.793 317.793V335.448ZM335.448 282.483H141.241V158.896H335.448V282.483Z" fill="#2D5275"/>
<path d="M282.484 317.793H300.148V335.448H282.484V317.793Z" fill="#2D5275"/>
<path d="M383.532 197.224L370.761 190.836V266.565C370.761 278.724 367.196 290.5 360.45 300.616C355.648 307.836 353.105 316.22 353.105 324.884V446.788L382.377 437.036C385.989 435.828 388.415 432.464 388.415 428.66V205.116C388.415 201.754 386.545 198.728 383.532 197.224Z" fill="#2D5275"/>
</svg>
