<svg width="512" height="512" viewBox="0 0 512 512" fill="none" xmlns="http://www.w3.org/2000/svg">
<path d="M391.446 188.249H338.747V342.268H391.446C396.479 342.268 400.558 338.188 400.558 333.156V197.361C400.558 192.329 396.479 188.249 391.446 188.249V188.249Z" fill="#FEDA6F"/>
<path d="M366.102 188.249H382.966V342.268H366.102V188.249Z" fill="#344D5B"/>
<path d="M286.998 36.6611H178.248C173.858 36.6611 170.299 40.2202 170.299 44.6107V125.848H294.948V44.6107C294.948 40.2202 291.389 36.6611 286.998 36.6611Z" fill="#EBF0F3"/>
<path d="M282.557 53.7492C282.557 55.4351 280.915 56.8402 278.946 56.8402H186.3C184.331 56.8402 182.689 55.4351 182.689 53.7492C182.689 52.0633 184.331 50.6934 186.3 50.6934H278.946C280.915 50.6934 282.557 52.0633 282.557 53.7492Z" fill="#D5D6DB"/>
<path d="M282.557 75.8429C282.557 77.5288 280.915 78.9339 278.946 78.9339H186.3C184.331 78.9339 182.689 77.5288 182.689 75.8429C182.689 74.157 184.331 72.7871 186.3 72.7871H278.946C280.915 72.7871 282.557 74.157 282.557 75.8429Z" fill="#D5D6DB"/>
<path d="M282.557 97.9357C282.557 99.6216 280.915 101.027 278.946 101.027H186.3C184.331 101.027 182.689 99.6216 182.689 97.9357C182.689 96.2498 184.331 94.8799 186.3 94.8799H278.946C280.915 94.8799 282.557 96.2498 282.557 97.9357Z" fill="#D5D6DB"/>
<path d="M347.366 149.866C346.243 137.157 336.895 126.625 324.341 124.354C263.196 113.291 202.051 113.291 140.906 124.354C128.352 126.625 119.003 137.157 117.881 149.866C109.296 247.087 109.296 344.309 117.881 441.53C119.003 454.238 128.352 464.771 140.906 467.042C202.051 478.104 263.196 478.104 324.341 467.042C336.895 464.771 346.243 454.238 347.366 441.53C355.951 344.309 355.951 247.087 347.366 149.866V149.866Z" fill="#293B44"/>
<path d="M307.905 116.057H157.341C148.369 116.057 141.096 123.33 141.096 132.302V459.094C141.096 468.066 148.369 475.339 157.341 475.339H307.905C316.877 475.339 324.15 468.066 324.15 459.094V132.302C324.15 123.33 316.877 116.057 307.905 116.057V116.057Z" fill="#344D5B"/>
<path d="M156.597 146.527H308.65V238.339H156.597V146.527Z" fill="#EDEDED"/>
<path d="M183.095 262.874H161.228C158.905 262.874 157.022 264.757 157.022 267.079V279.01C157.022 281.333 158.905 283.215 161.228 283.215H183.095C185.418 283.215 187.301 281.333 187.301 279.01V267.079C187.301 264.757 185.418 262.874 183.095 262.874Z" fill="#EDEDED"/>
<path d="M223.619 262.874H201.751C199.429 262.874 197.546 264.757 197.546 267.079V279.01C197.546 281.333 199.429 283.215 201.751 283.215H223.619C225.941 283.215 227.824 281.333 227.824 279.01V267.079C227.824 264.757 225.941 262.874 223.619 262.874Z" fill="#EDEDED"/>
<path d="M264.142 262.874H242.275C239.952 262.874 238.069 264.757 238.069 267.079V279.01C238.069 281.333 239.952 283.215 242.275 283.215H264.142C266.465 283.215 268.348 281.333 268.348 279.01V267.079C268.348 264.757 266.465 262.874 264.142 262.874Z" fill="#EDEDED"/>
<path d="M304.019 262.874H282.152C279.829 262.874 277.946 264.757 277.946 267.079V279.01C277.946 281.333 279.829 283.215 282.152 283.215H304.019C306.342 283.215 308.225 281.333 308.225 279.01V267.079C308.225 264.757 306.342 262.874 304.019 262.874Z" fill="#EDEDED"/>
<path d="M183.095 294.504H161.228C158.905 294.504 157.022 296.387 157.022 298.709V310.64C157.022 312.962 158.905 314.845 161.228 314.845H183.095C185.418 314.845 187.301 312.962 187.301 310.64V298.709C187.301 296.387 185.418 294.504 183.095 294.504Z" fill="#EDEDED"/>
<path d="M223.619 294.504H201.751C199.429 294.504 197.546 296.387 197.546 298.709V310.64C197.546 312.962 199.429 314.845 201.751 314.845H223.619C225.941 314.845 227.824 312.962 227.824 310.64V298.709C227.824 296.387 225.941 294.504 223.619 294.504Z" fill="#EDEDED"/>
<path d="M264.142 294.504H242.275C239.952 294.504 238.069 296.387 238.069 298.709V310.64C238.069 312.962 239.952 314.845 242.275 314.845H264.142C266.465 314.845 268.348 312.962 268.348 310.64V298.709C268.348 296.387 266.465 294.504 264.142 294.504Z" fill="#EDEDED"/>
<path d="M304.019 294.504H282.152C279.829 294.504 277.946 296.387 277.946 298.709V310.64C277.946 312.962 279.829 314.845 282.152 314.845H304.019C306.342 314.845 308.225 312.962 308.225 310.64V298.709C308.225 296.387 306.342 294.504 304.019 294.504Z" fill="#EDEDED"/>
<path d="M183.095 326.134H161.228C158.905 326.134 157.022 328.017 157.022 330.339V342.27C157.022 344.592 158.905 346.475 161.228 346.475H183.095C185.418 346.475 187.301 344.592 187.301 342.27V330.339C187.301 328.017 185.418 326.134 183.095 326.134Z" fill="#EDEDED"/>
<path d="M223.619 326.134H201.751C199.429 326.134 197.546 328.017 197.546 330.339V342.27C197.546 344.592 199.429 346.475 201.751 346.475H223.619C225.941 346.475 227.824 344.592 227.824 342.27V330.339C227.824 328.017 225.941 326.134 223.619 326.134Z" fill="#EDEDED"/>
<path d="M264.142 326.134H242.275C239.952 326.134 238.069 328.017 238.069 330.339V342.27C238.069 344.592 239.952 346.475 242.275 346.475H264.142C266.465 346.475 268.348 344.592 268.348 342.27V330.339C268.348 328.017 266.465 326.134 264.142 326.134Z" fill="#EDEDED"/>
<path d="M304.019 326.134H282.152C279.829 326.134 277.946 328.017 277.946 330.339V342.27C277.946 344.592 279.829 346.475 282.152 346.475H304.019C306.342 346.475 308.225 344.592 308.225 342.27V330.339C308.225 328.017 306.342 326.134 304.019 326.134Z" fill="#EDEDED"/>
<path d="M183.095 357.764H161.228C158.905 357.764 157.022 359.646 157.022 361.969V373.9C157.022 376.222 158.905 378.105 161.228 378.105H183.095C185.418 378.105 187.301 376.222 187.301 373.9V361.969C187.301 359.646 185.418 357.764 183.095 357.764Z" fill="#EDEDED"/>
<path d="M223.619 357.764H201.751C199.429 357.764 197.546 359.646 197.546 361.969V373.9C197.546 376.222 199.429 378.105 201.751 378.105H223.619C225.941 378.105 227.824 376.222 227.824 373.9V361.969C227.824 359.646 225.941 357.764 223.619 357.764Z" fill="#EDEDED"/>
<path d="M264.142 357.764H242.275C239.952 357.764 238.069 359.646 238.069 361.969V373.9C238.069 376.222 239.952 378.105 242.275 378.105H264.142C266.465 378.105 268.348 376.222 268.348 373.9V361.969C268.348 359.646 266.465 357.764 264.142 357.764Z" fill="#EDEDED"/>
<path d="M304.019 357.764H282.152C279.829 357.764 277.946 359.646 277.946 361.969V373.9C277.946 376.222 279.829 378.105 282.152 378.105H304.019C306.342 378.105 308.225 376.222 308.225 373.9V361.969C308.225 359.646 306.342 357.764 304.019 357.764Z" fill="#EDEDED"/>
<path d="M186.024 435.931H165.554C163.649 435.931 162.104 437.475 162.104 439.381V444.783C162.104 446.689 163.649 448.233 165.554 448.233H186.024C187.929 448.233 189.473 446.689 189.473 444.783V439.381C189.473 437.475 187.929 435.931 186.024 435.931Z" fill="#DD584D"/>
<path d="M223.913 435.931H203.444C201.539 435.931 199.994 437.475 199.994 439.381V444.783C199.994 446.689 201.539 448.233 203.444 448.233H223.913C225.819 448.233 227.363 446.689 227.363 444.783V439.381C227.363 437.475 225.819 435.931 223.913 435.931Z" fill="#FEDA6F"/>
<path d="M261.803 435.931H241.333C239.428 435.931 237.884 437.475 237.884 439.381V444.783C237.884 446.689 239.428 448.233 241.333 448.233H261.803C263.708 448.233 265.253 446.689 265.253 444.783V439.381C265.253 437.475 263.708 435.931 261.803 435.931Z" fill="#DD584D"/>
<path d="M299.693 435.931H279.223C277.318 435.931 275.773 437.475 275.773 439.381V444.783C275.773 446.689 277.318 448.233 279.223 448.233H299.693C301.598 448.233 303.142 446.689 303.142 444.783V439.381C303.142 437.475 301.598 435.931 299.693 435.931Z" fill="#4ABBA4"/>
<path d="M172.161 168.113H294.948V175.407H172.161V168.113Z" fill="#DBD8DD"/>
<path d="M172.161 188.786H294.948V196.08H172.161V188.786Z" fill="#DBD8DD"/>
<path d="M172.161 209.459H245.926V216.753H172.161V209.459Z" fill="#DBD8DD"/>
</svg>
