<svg width="512" height="512" viewBox="0 0 512 512" fill="none" xmlns="http://www.w3.org/2000/svg">
<path d="M450 194.191C450 87.1133 362.973 0 256 0C149.027 0 62 87.1133 62 194.191C62 287.281 127.773 365.277 215.242 384.07V470.836C215.242 493.535 233.648 512 256.273 512C278.898 512 297.309 493.535 297.309 470.836V383.953C384.504 364.953 450 287.086 450 194.191ZM267.309 470.836C267.309 476.992 262.359 482 256.273 482C250.191 482 245.242 476.992 245.242 470.836V388.09C248.805 388.285 252.391 388.383 256 388.383C259.797 388.383 263.566 388.273 267.309 388.059V470.836ZM256 358.387C165.57 358.387 92 284.73 92 194.191C92 103.656 165.57 30 256 30C346.43 30 420 103.656 420 194.191C420 284.727 346.43 358.387 256 358.387Z" fill="#2D5275"/>
<path d="M256 67.4258C235.359 67.4258 218.57 84.2188 218.57 104.855V189.266C218.57 209.906 235.359 226.695 256 226.695C276.641 226.695 293.43 209.906 293.43 189.266V104.855C293.43 84.2188 276.641 67.4258 256 67.4258ZM263.43 189.266C263.43 193.363 260.098 196.695 256 196.695C251.902 196.695 248.57 193.363 248.57 189.266V104.855C248.57 100.758 251.902 97.4258 256 97.4258C260.098 97.4258 263.43 100.758 263.43 104.855V189.266Z" fill="#2D5275"/>
<path d="M256 246.051C235.359 246.051 218.57 262.852 218.57 283.504C218.57 304.156 235.359 320.961 256 320.961C276.641 320.961 293.43 304.156 293.43 283.504C293.43 262.852 276.641 246.051 256 246.051V246.051ZM256 290.961C251.902 290.961 248.57 287.613 248.57 283.504C248.57 279.395 251.902 276.051 256 276.051C260.098 276.051 263.43 279.395 263.43 283.504C263.43 287.613 260.098 290.961 256 290.961Z" fill="#2D5275"/>
</svg>
