<svg width="512" height="512" viewBox="0 0 512 512" fill="none" xmlns="http://www.w3.org/2000/svg">
<path d="M370.591 137.896C326.811 137.896 285.418 130.271 254.038 116.426C244.646 112.282 236.389 107.665 229.312 102.661V133.642C229.312 145.406 243.08 158.504 266.142 168.679C293.794 180.879 330.887 187.598 370.592 187.598C410.296 187.598 447.389 180.879 475.041 168.679C498.103 158.504 511.871 145.406 511.871 133.642V102.661C504.793 107.665 496.536 112.282 487.145 116.426C455.763 130.271 414.371 137.896 370.591 137.896V137.896Z" fill="#2D5275"/>
<path d="M370.591 426.657C410.295 426.657 447.388 419.938 475.04 407.738C498.102 397.563 511.87 384.465 511.87 372.702V341.72C504.792 346.724 496.535 351.341 487.144 355.485C455.763 369.331 414.371 376.955 370.591 376.955C352.786 376.955 335.492 375.704 318.937 373.261C318.397 389.903 315.514 405.96 310.611 421.119C329.372 424.756 349.798 426.657 370.591 426.657V426.657Z" fill="#2D5275"/>
<path d="M275.183 252.009C301.602 261.864 335.301 267.284 370.591 267.284C410.295 267.284 447.388 260.565 475.04 248.365C498.102 238.19 511.87 225.092 511.87 213.328V182.346C504.792 187.351 496.535 191.969 487.144 196.112C455.763 209.957 414.371 217.581 370.591 217.581C326.811 217.581 285.418 209.957 254.038 196.112C244.646 191.968 236.389 187.351 229.312 182.346V215.089C246.623 224.749 262.127 237.269 275.183 252.009V252.009Z" fill="#2D5275"/>
<path d="M370.591 346.97C410.295 346.97 447.388 340.252 475.04 328.051C498.102 317.876 511.87 304.779 511.87 293.015V262.033C504.792 267.038 496.535 271.654 487.144 275.799C455.763 289.644 414.371 297.268 370.591 297.268C346.352 297.268 322.657 294.876 301.024 290.389C309.028 306.554 314.599 324.126 317.255 342.629C334.163 345.497 352.044 346.97 370.591 346.97V346.97Z" fill="#2D5275"/>
<path d="M266.141 88.9922C293.793 101.192 330.886 107.911 370.591 107.911C410.295 107.911 447.388 101.192 475.04 88.9922C498.102 78.8171 511.87 65.7194 511.87 53.9561C511.87 42.1927 498.102 29.094 475.04 18.9189C447.388 6.71877 410.294 0 370.591 0C330.887 0 293.793 6.71877 266.141 18.9189C243.079 29.094 229.311 42.1917 229.311 53.9561C229.311 65.7204 243.079 78.8171 266.141 88.9922Z" fill="#2D5275"/>
<path d="M289.055 367.537C289.055 287.881 224.249 223.075 144.592 223.075C64.9357 223.075 0.129883 287.881 0.129883 367.537C0.129883 447.194 64.9357 512 144.592 512C224.249 512 289.055 447.194 289.055 367.537V367.537ZM167.115 447.085H159.585V471.717H129.6V447.085H89.1531V417.1H167.115C176.999 417.1 185.04 409.058 185.04 399.174C185.04 389.29 176.999 381.249 167.115 381.249H130.935C105.223 381.249 84.3054 360.331 84.3054 334.619C84.3054 309.354 104.505 288.734 129.6 288.023V263.356H159.585V287.989H192.019V317.974H130.935C121.757 317.974 114.291 325.441 114.291 334.619C114.291 343.797 121.757 351.263 130.935 351.263H167.115C193.533 351.263 215.026 372.756 215.026 399.174C215.025 425.593 193.532 447.085 167.115 447.085V447.085Z" fill="#2D5275"/>
</svg>
