<svg width="512" height="430" viewBox="0 0 512 430" fill="none" xmlns="http://www.w3.org/2000/svg">
<path d="M425.501 0.0758972C386.38 0.0758972 355.47 31.4693 355.47 70.59C355.47 109.711 386.863 140.622 425.501 140.622C464.139 140.622 496.016 109.228 496.016 70.107C496.016 30.9864 464.622 0.0758972 425.501 0.0758972ZM425.501 125.167C395.074 125.167 370.442 100.535 370.442 70.107C370.442 39.6799 395.557 15.5311 425.501 15.5311C455.929 15.5311 480.56 40.1629 480.56 70.59C480.56 101.018 455.929 125.167 425.501 125.167Z" fill="#2D5275"/>
<path d="M447.718 81.216C447.235 79.767 447.236 78.801 446.27 77.352C445.787 76.386 445.304 74.937 444.338 73.971C443.372 73.005 442.889 72.039 441.923 71.073C440.957 70.107 439.991 69.141 438.542 68.658C437.576 67.692 436.127 67.209 435.161 66.726C433.712 66.243 432.746 65.277 431.297 64.794C429.848 64.312 428.399 63.829 427.434 63.346C426.951 63.346 425.985 62.863 425.502 62.38C425.019 61.897 424.053 61.897 423.57 61.414C423.087 60.931 422.121 60.931 421.638 60.448C421.155 59.965 420.672 59.482 420.189 58.9988C419.706 58.5158 419.223 58.0328 419.223 57.0669C418.74 56.5839 418.74 55.618 418.74 55.135C418.74 54.169 418.74 53.6861 418.74 52.7201C418.74 52.2371 419.223 51.2712 419.223 50.7882C419.706 50.3052 419.706 49.3393 420.189 48.8563C420.672 48.3733 421.155 47.8904 421.638 47.4074C422.121 46.9244 423.087 46.4414 424.053 46.4414C425.019 45.9584 425.502 45.9584 426.468 45.9584C426.951 45.9584 427.434 45.9584 427.916 45.9584C428.399 45.9584 428.882 45.9584 429.365 45.9584C430.331 45.9584 430.814 45.9584 431.78 46.4414C432.746 46.4414 433.712 46.9244 434.195 46.9244C434.678 46.9244 435.644 47.4074 436.127 47.4074C437.093 47.4074 437.576 47.8904 438.059 47.8904L440.474 48.8563L440.957 45.9584L441.923 38.2308V36.2989L439.991 35.816C439.508 35.816 438.542 35.333 438.059 35.333C437.576 35.333 437.093 34.85 436.127 34.85C435.644 34.85 434.678 34.367 433.712 34.367C432.746 34.367 432.263 33.8841 431.297 33.8841H430.814V27.1224V24.7075H428.399H421.638H419.223V27.1224V34.367H418.74C417.291 34.85 415.842 35.333 414.393 36.2989C412.944 36.7819 411.978 37.7479 411.012 38.7138C410.046 39.6798 409.08 40.6457 408.114 42.0946C407.149 43.0606 406.666 44.5095 406.183 45.9584C405.7 47.4074 405.217 48.8563 404.734 50.3052C404.251 51.7542 404.251 53.6861 404.251 55.135C404.251 56.5839 404.251 57.5499 404.734 58.9988C405.217 60.448 405.217 61.414 406.183 62.863C406.666 63.829 407.632 65.277 408.114 66.243C409.08 67.209 409.563 68.175 410.529 69.141C411.495 70.107 412.461 71.073 413.91 71.556C414.876 72.522 416.325 73.005 417.291 73.488C418.74 73.971 420.189 74.937 421.155 75.42C422.604 75.903 424.053 76.386 425.019 76.869C425.502 76.869 426.468 77.352 426.951 77.835C427.434 78.318 428.399 78.318 428.882 78.801C429.365 79.284 429.848 79.767 430.331 79.767C430.814 80.25 431.297 80.733 431.78 81.216C432.263 81.699 432.263 82.182 432.746 83.148C432.746 83.631 433.229 84.596 433.229 85.562C433.229 86.528 433.229 87.011 433.229 87.977C433.229 88.46 432.746 89.426 432.263 89.909C431.78 90.392 431.297 90.875 430.814 91.358C430.331 91.841 429.848 92.324 428.882 92.807C428.399 93.29 427.434 93.29 426.951 93.773C426.468 93.773 425.502 94.256 424.536 94.256C424.053 94.256 423.57 94.256 422.604 94.256C422.121 94.256 421.155 94.256 420.672 94.256C419.706 94.256 418.74 94.256 418.257 94.256C417.291 94.256 416.325 93.773 415.842 93.773C414.876 93.773 413.91 93.29 412.944 92.807C411.978 92.324 411.012 92.324 410.046 91.841C409.563 91.841 409.08 91.358 408.597 91.358C408.114 91.358 407.632 90.875 407.149 90.875L404.251 89.426L403.768 92.807L402.802 101.501V102.95L404.251 103.433C406.183 102.95 407.149 103.433 408.597 103.916C409.563 104.398 411.012 104.881 411.978 104.881C412.944 105.364 414.393 105.364 415.842 105.847C417.291 106.33 418.257 106.33 419.706 106.33H420.672V113.575V115.99H423.087H429.848H432.263V113.575V105.847H432.746C434.195 105.364 435.644 104.881 437.093 103.916C438.542 103.433 439.508 102.467 440.957 101.501C441.923 100.535 442.889 99.569 443.855 98.12C444.821 97.154 445.304 95.705 446.27 94.256C446.753 92.807 447.235 91.358 447.718 89.909C448.201 88.46 448.201 87.011 448.201 85.079C448.201 83.631 448.201 82.665 447.718 81.216Z" fill="#2D5275"/>
<path d="M391.693 149.798C389.278 146.417 383.966 145.935 380.585 148.349L302.343 210.653L201.401 168.634C198.986 167.668 196.088 168.151 194.156 169.6L85.9696 246.876C82.5888 249.291 81.6229 254.121 84.0377 257.502C85.4867 259.917 87.9015 260.883 90.3164 260.883C91.7654 260.883 93.2143 260.4 94.6632 259.434L199.469 184.573L300.894 226.591C303.309 227.557 306.689 227.074 308.621 225.625L390.244 160.907C393.625 158.492 394.108 153.179 391.693 149.798Z" fill="#2D5275"/>
<path d="M504.709 414.469H468.969V190.851C468.969 186.504 465.588 183.124 461.242 183.124H390.244C385.898 183.124 382.517 186.504 382.517 190.851V414.469H356.436V268.127C356.436 263.78 353.055 260.4 348.708 260.4H277.228C272.881 260.4 269.5 263.78 269.5 268.127V414.469H243.42V256.536C243.42 252.189 240.039 248.808 235.692 248.808H164.695C160.348 248.808 156.967 252.189 156.967 256.536V414.469H130.886V301.936C130.886 297.589 127.506 294.208 123.159 294.208H51.6784C47.3316 294.208 43.9508 297.589 43.9508 301.936V414.469H7.72761C3.38083 414.469 0 417.85 0 422.196C0 426.543 3.38083 429.924 7.72761 429.924H51.1954H122.193H164.695H235.692H277.228H348.225H389.761H460.759H504.227C508.573 429.924 511.954 426.543 511.954 422.196C512.437 417.85 509.056 414.469 504.709 414.469ZM114.948 414.469H59.406V309.663H114.948V414.469ZM227.964 414.469H172.422V264.263H227.964V414.469ZM340.498 414.469H284.956V275.855H340.498V414.469ZM453.514 414.469H397.972V198.579H453.514V414.469Z" fill="#2D5275"/>
</svg>
