<svg width="512" height="512" viewBox="0 0 512 512" fill="none" xmlns="http://www.w3.org/2000/svg">
<g clip-path="url(#clip0)">
<path d="M425.501 41.0759C386.38 41.0759 355.47 72.4693 355.47 111.59C355.47 150.711 386.863 181.622 425.501 181.622C464.139 181.622 496.016 150.228 496.016 111.107C496.016 71.9864 464.622 41.0759 425.501 41.0759ZM425.501 166.167C395.074 166.167 370.442 141.535 370.442 111.107C370.442 80.6799 395.557 56.5311 425.501 56.5311C455.929 56.5311 480.56 81.1629 480.56 111.59C480.56 142.018 455.929 166.167 425.501 166.167Z" fill="#2D5275"/>
<path d="M447.718 122.216C447.235 120.767 447.236 119.801 446.27 118.352C445.787 117.386 445.304 115.937 444.338 114.971C443.372 114.005 442.889 113.039 441.923 112.073C440.957 111.107 439.991 110.141 438.542 109.658C437.576 108.692 436.127 108.209 435.161 107.726C433.712 107.243 432.746 106.277 431.297 105.794C429.848 105.312 428.399 104.829 427.434 104.346C426.951 104.346 425.985 103.863 425.502 103.38C425.019 102.897 424.053 102.897 423.57 102.414C423.087 101.931 422.121 101.931 421.638 101.448C421.155 100.965 420.672 100.482 420.189 99.9988C419.706 99.5158 419.223 99.0328 419.223 98.0669C418.74 97.5839 418.74 96.618 418.74 96.135C418.74 95.169 418.74 94.6861 418.74 93.7201C418.74 93.2371 419.223 92.2712 419.223 91.7882C419.706 91.3052 419.706 90.3393 420.189 89.8563C420.672 89.3733 421.155 88.8904 421.638 88.4074C422.121 87.9244 423.087 87.4414 424.053 87.4414C425.019 86.9584 425.502 86.9584 426.468 86.9584C426.951 86.9584 427.434 86.9584 427.916 86.9584C428.399 86.9584 428.882 86.9584 429.365 86.9584C430.331 86.9584 430.814 86.9584 431.78 87.4414C432.746 87.4414 433.712 87.9244 434.195 87.9244C434.678 87.9244 435.644 88.4074 436.127 88.4074C437.093 88.4074 437.576 88.8904 438.059 88.8904L440.474 89.8563L440.957 86.9584L441.923 79.2308V77.2989L439.991 76.816C439.508 76.816 438.542 76.333 438.059 76.333C437.576 76.333 437.093 75.85 436.127 75.85C435.644 75.85 434.678 75.367 433.712 75.367C432.746 75.367 432.263 74.8841 431.297 74.8841H430.814V68.1224V65.7075H428.399H421.638H419.223V68.1224V75.367H418.74C417.291 75.85 415.842 76.333 414.393 77.2989C412.944 77.7819 411.978 78.7479 411.012 79.7138C410.046 80.6798 409.08 81.6457 408.114 83.0946C407.149 84.0606 406.666 85.5095 406.183 86.9584C405.7 88.4074 405.217 89.8563 404.734 91.3052C404.251 92.7542 404.251 94.6861 404.251 96.135C404.251 97.5839 404.251 98.5499 404.734 99.9988C405.217 101.448 405.217 102.414 406.183 103.863C406.666 104.829 407.632 106.277 408.114 107.243C409.08 108.209 409.563 109.175 410.529 110.141C411.495 111.107 412.461 112.073 413.91 112.556C414.876 113.522 416.325 114.005 417.291 114.488C418.74 114.971 420.189 115.937 421.155 116.42C422.604 116.903 424.053 117.386 425.019 117.869C425.502 117.869 426.468 118.352 426.951 118.835C427.434 119.318 428.399 119.318 428.882 119.801C429.365 120.284 429.848 120.767 430.331 120.767C430.814 121.25 431.297 121.733 431.78 122.216C432.263 122.699 432.263 123.182 432.746 124.148C432.746 124.631 433.229 125.596 433.229 126.562C433.229 127.528 433.229 128.011 433.229 128.977C433.229 129.46 432.746 130.426 432.263 130.909C431.78 131.392 431.297 131.875 430.814 132.358C430.331 132.841 429.848 133.324 428.882 133.807C428.399 134.29 427.434 134.29 426.951 134.773C426.468 134.773 425.502 135.256 424.536 135.256C424.053 135.256 423.57 135.256 422.604 135.256C422.121 135.256 421.155 135.256 420.672 135.256C419.706 135.256 418.74 135.256 418.257 135.256C417.291 135.256 416.325 134.773 415.842 134.773C414.876 134.773 413.91 134.29 412.944 133.807C411.978 133.324 411.012 133.324 410.046 132.841C409.563 132.841 409.08 132.358 408.597 132.358C408.114 132.358 407.632 131.875 407.149 131.875L404.251 130.426L403.768 133.807L402.802 142.501V143.95L404.251 144.433C406.183 143.95 407.149 144.433 408.597 144.916C409.563 145.398 411.012 145.881 411.978 145.881C412.944 146.364 414.393 146.364 415.842 146.847C417.291 147.33 418.257 147.33 419.706 147.33H420.672V154.575V156.99H423.087H429.848H432.263V154.575V146.847H432.746C434.195 146.364 435.644 145.881 437.093 144.916C438.542 144.433 439.508 143.467 440.957 142.501C441.923 141.535 442.889 140.569 443.855 139.12C444.821 138.154 445.304 136.705 446.27 135.256C446.753 133.807 447.235 132.358 447.718 130.909C448.201 129.46 448.201 128.011 448.201 126.079C448.201 124.631 448.201 123.665 447.718 122.216Z" fill="#2D5275"/>
<path d="M391.693 190.798C389.278 187.417 383.966 186.935 380.585 189.349L302.343 251.653L201.401 209.634C198.986 208.668 196.088 209.151 194.156 210.6L85.9696 287.876C82.5888 290.291 81.6229 295.121 84.0377 298.502C85.4867 300.917 87.9015 301.883 90.3164 301.883C91.7654 301.883 93.2143 301.4 94.6632 300.434L199.469 225.573L300.894 267.591C303.309 268.557 306.689 268.074 308.621 266.625L390.244 201.907C393.625 199.492 394.108 194.179 391.693 190.798Z" fill="#2D5275"/>
<path d="M504.709 455.469H468.969V231.851C468.969 227.504 465.588 224.124 461.242 224.124H390.244C385.898 224.124 382.517 227.504 382.517 231.851V455.469H356.436V309.127C356.436 304.78 353.055 301.4 348.708 301.4H277.228C272.881 301.4 269.5 304.78 269.5 309.127V455.469H243.42V297.536C243.42 293.189 240.039 289.808 235.692 289.808H164.695C160.348 289.808 156.967 293.189 156.967 297.536V455.469H130.886V342.936C130.886 338.589 127.506 335.208 123.159 335.208H51.6784C47.3316 335.208 43.9508 338.589 43.9508 342.936V455.469H7.72761C3.38083 455.469 0 458.85 0 463.196C0 467.543 3.38083 470.924 7.72761 470.924H51.1954H122.193H164.695H235.692H277.228H348.225H389.761H460.759H504.227C508.573 470.924 511.954 467.543 511.954 463.196C512.437 458.85 509.056 455.469 504.709 455.469ZM114.948 455.469H59.406V350.663H114.948V455.469ZM227.964 455.469H172.422V305.263H227.964V455.469ZM340.498 455.469H284.956V316.855H340.498V455.469ZM453.514 455.469H397.972V239.579H453.514V455.469Z" fill="#2D5275"/>
</g>
<defs>
<clipPath id="clip0">
<rect width="512" height="512" fill="white"/>
</clipPath>
</defs>
</svg>
