<svg width="512" height="512" viewBox="0 0 512 512" fill="none" xmlns="http://www.w3.org/2000/svg">
<path d="M440 104H56C38.3269 104 24 118.327 24 136V376C24 393.673 38.3269 408 56 408H440C457.673 408 472 393.673 472 376V136C472 118.327 457.673 104 440 104Z" fill="#FFDAAA"/>
<path d="M440 104H416C424.487 104 432.626 107.371 438.627 113.373C444.629 119.374 448 127.513 448 136V376C448 384.487 444.629 392.626 438.627 398.627C432.626 404.629 424.487 408 416 408H440C448.487 408 456.626 404.629 462.627 398.627C468.629 392.626 472 384.487 472 376V136C472 127.513 468.629 119.374 462.627 113.373C456.626 107.371 448.487 104 440 104V104Z" fill="#FFC477"/>
<path d="M152 184V168C152 163.757 150.314 159.687 147.314 156.686C144.313 153.686 140.243 152 136 152H120V184H152Z" fill="#FFB655"/>
<path d="M120 216V152H88C83.7565 152 79.6869 153.686 76.6863 156.686C73.6857 159.687 72 163.757 72 168V200C72 204.243 73.6857 208.313 76.6863 211.314C79.6869 214.314 83.7565 216 88 216H120Z" fill="#FF9811"/>
<path d="M120 216H136C140.243 216 144.313 214.314 147.314 211.314C150.314 208.313 152 204.243 152 200V184H120V216Z" fill="#EE8700"/>
<path d="M232 312H312V344H232V312Z" fill="#808285"/>
<path d="M152 360C169.673 360 184 345.673 184 328C184 310.327 169.673 296 152 296C134.327 296 120 310.327 120 328C120 345.673 134.327 360 152 360Z" fill="#F7941D"/>
<path d="M408 488C452.183 488 488 452.183 488 408C488 363.817 452.183 328 408 328C363.817 328 328 363.817 328 408C328 452.183 363.817 488 408 488Z" fill="#D80027"/>
<path d="M408 328C403.981 328.032 399.969 328.367 396 329C414.917 331.844 432.185 341.382 444.665 355.879C457.146 370.376 464.01 388.871 464.01 408C464.01 427.129 457.146 445.624 444.665 460.121C432.185 474.618 414.917 484.156 396 487C406.889 488.666 418.004 488.065 428.65 485.233C439.295 482.401 449.24 477.4 457.862 470.544C466.484 463.688 473.596 455.124 478.752 445.39C483.909 435.656 486.999 424.962 487.828 413.978C488.657 402.993 487.207 391.956 483.57 381.559C479.933 371.161 474.186 361.627 466.691 353.554C459.196 345.482 450.114 339.045 440.015 334.648C429.915 330.25 419.015 327.987 408 328V328Z" fill="#BD0022"/>
<path d="M104 360C121.673 360 136 345.673 136 328C136 310.327 121.673 296 104 296C86.3269 296 72 310.327 72 328C72 345.673 86.3269 360 104 360Z" fill="#F15A29"/>
<path d="M288 160H304V192H288V160Z" fill="#FF9811"/>
<path d="M320 160H336V192H320V160Z" fill="#FF9811"/>
<path d="M352 160H368V192H352V160Z" fill="#FF9811"/>
<path d="M192 240H224V256H192V240Z" fill="#A7A9AC"/>
<path d="M256 240H288V256H256V240Z" fill="#A7A9AC"/>
<path d="M320 240H352V256H320V240Z" fill="#A7A9AC"/>
<path d="M384 240H416V256H384V240Z" fill="#A7A9AC"/>
<path d="M436.288 379.712C434.788 378.213 432.753 377.37 430.632 377.37C428.511 377.37 426.476 378.213 424.976 379.712L408 396.688L391.024 379.712C389.515 378.255 387.494 377.449 385.397 377.467C383.299 377.485 381.293 378.327 379.809 379.81C378.326 381.293 377.485 383.3 377.466 385.397C377.448 387.495 378.255 389.516 379.712 391.024L396.688 408L379.712 424.976C378.948 425.714 378.338 426.597 377.919 427.573C377.5 428.549 377.279 429.599 377.27 430.661C377.261 431.723 377.463 432.777 377.865 433.76C378.268 434.743 378.862 435.636 379.613 436.388C380.364 437.139 381.257 437.733 382.24 438.135C383.223 438.537 384.277 438.74 385.339 438.73C386.401 438.721 387.451 438.5 388.427 438.081C389.403 437.662 390.286 437.052 391.024 436.288L408 419.312L424.976 436.288C426.485 437.746 428.505 438.552 430.603 438.534C432.701 438.516 434.707 437.674 436.19 436.191C437.674 434.708 438.515 432.701 438.533 430.604C438.551 428.506 437.745 426.485 436.288 424.976L419.312 408L436.288 391.024C437.788 389.524 438.63 387.49 438.63 385.368C438.63 383.247 437.788 381.213 436.288 379.712V379.712Z" fill="#F1F2F2"/>
<path d="M384 160H400V192H384V160Z" fill="#FF9811"/>
<path d="M416 160H432V192H416V160Z" fill="#FF9811"/>
<path d="M256 160H272V192H256V160Z" fill="#FF9811"/>
</svg>
