<svg width="476" height="476" viewBox="0 0 476 476" fill="none" xmlns="http://www.w3.org/2000/svg">
<g clip-path="url(#clip0)">
<path d="M405.6 69.6C360.7 24.7 301.1 0 237.6 0C174.1 0 114.5 24.7 69.6 69.6C24.7 114.5 0 174.1 0 237.6C0 301.1 24.7 360.7 69.6 405.6C114.5 450.5 174.1 475.2 237.6 475.2C301.1 475.2 360.7 450.5 405.6 405.6C450.5 360.7 475.2 301.1 475.2 237.6C475.2 174.1 450.5 114.5 405.6 69.6ZM386.5 386.5C346.7 426.3 293.8 448.2 237.6 448.2C181.4 448.2 128.5 426.3 88.7 386.5C6.6 304.4 6.6 170.8 88.7 88.7C128.5 48.9 181.4 27 237.6 27C293.8 27 346.7 48.9 386.5 88.7C468.6 170.8 468.6 304.4 386.5 386.5Z" fill="#2D5275"/>
<path d="M342.3 132.9C337 127.6 328.5 127.6 323.2 132.9L237.6 218.5L152 132.9C146.7 127.6 138.2 127.6 132.9 132.9C127.6 138.2 127.6 146.7 132.9 152L218.5 237.6L132.9 323.2C127.6 328.5 127.6 337 132.9 342.3C135.5 344.9 139 346.3 142.4 346.3C145.8 346.3 149.3 345 151.9 342.3L237.5 256.7L323.1 342.3C325.7 344.9 329.2 346.3 332.6 346.3C336.1 346.3 339.5 345 342.1 342.3C347.4 337 347.4 328.5 342.1 323.2L256.7 237.6L342.3 152C347.6 146.7 347.6 138.2 342.3 132.9Z" fill="#2D5275"/>
</g>
<defs>
<clipPath id="clip0">
<rect width="475.2" height="475.2" fill="white"/>
</clipPath>
</defs>
</svg>
