<svg width="512" height="512" viewBox="0 0 512 512" fill="none" xmlns="http://www.w3.org/2000/svg">
<path d="M448 432C456.837 432 464 424.837 464 416C464 407.163 456.837 400 448 400C439.163 400 432 407.163 432 416C432 424.837 439.163 432 448 432Z" fill="#B4DD7F"/>
<path d="M448 496C456.837 496 464 488.837 464 480C464 471.163 456.837 464 448 464C439.163 464 432 471.163 432 480C432 488.837 439.163 496 448 496Z" fill="#B4DD7F"/>
<path d="M472 208V344C472 350.64 469.28 356.64 464.96 360.96C460.64 365.28 454.64 368 448 368C434.72 368 424 357.28 424 344V208C424 168.24 407.84 132.24 381.84 106.16C355.76 80.16 319.76 64 280 64C200.48 64 136 128.48 136 208V368H184L112 488L40 368H88V208C88 155.04 109.52 107.04 144.24 72.24C179.04 37.52 227.04 16 280 16C386 16 472 102 472 208Z" fill="#B4DD7F"/>
<path d="M280 352C333.019 352 376 309.019 376 256C376 202.981 333.019 160 280 160C226.981 160 184 202.981 184 256C184 309.019 226.981 352 280 352Z" fill="#FCD770"/>
<path d="M280 216C288.824 216 296 223.176 296 232H312C312 217.128 301.76 204.712 288 201.136V184H272V201.136C258.24 204.712 248 217.128 248 232C248 249.648 262.352 264 280 264C288.824 264 296 271.176 296 280C296 288.824 288.824 296 280 296C271.176 296 264 288.824 264 280H248C248 294.872 258.24 307.288 272 310.864V328H288V310.864C301.76 307.288 312 294.872 312 280C312 262.352 297.648 248 280 248C271.176 248 264 240.824 264 232C264 223.176 271.176 216 280 216Z" fill="black"/>
<path d="M280 8C169.72 8 80.0001 97.72 80.0001 208V360H25.8721L112 503.544L198.128 360H144V208C144 133.008 205.008 72 280 72C354.992 72 416 133.008 416 208V344C416 361.648 430.352 376 448 376C465.648 376 480 361.648 480 344V208C480 97.72 390.28 8 280 8ZM464 344C464 352.824 456.824 360 448 360C439.176 360 432 352.824 432 344V208C432 124.184 363.816 56 280 56C196.184 56 128 124.184 128 208V376H169.872L112 472.456L54.1281 376H96.0001V208C96.0001 106.536 178.544 24 280 24C381.456 24 464 106.536 464 208V344Z" fill="black"/>
<path d="M448 456C434.768 456 424 466.768 424 480C424 493.232 434.768 504 448 504C461.232 504 472 493.232 472 480C472 466.768 461.232 456 448 456ZM448 488C443.592 488 440 484.416 440 480C440 475.584 443.592 472 448 472C452.408 472 456 475.584 456 480C456 484.416 452.408 488 448 488Z" fill="black"/>
<path d="M448 392C434.768 392 424 402.768 424 416C424 429.232 434.768 440 448 440C461.232 440 472 429.232 472 416C472 402.768 461.232 392 448 392ZM448 424C443.592 424 440 420.416 440 416C440 411.584 443.592 408 448 408C452.408 408 456 411.584 456 416C456 420.416 452.408 424 448 424Z" fill="black"/>
<path d="M336 248H352V264H336V248Z" fill="black"/>
<path d="M208 248H224V264H208V248Z" fill="black"/>
<path d="M280 152C222.656 152 176 198.656 176 256C176 313.344 222.656 360 280 360C337.344 360 384 313.344 384 256C384 198.656 337.344 152 280 152ZM280 344C231.48 344 192 304.52 192 256C192 207.48 231.48 168 280 168C328.52 168 368 207.48 368 256C368 304.52 328.52 344 280 344Z" fill="black"/>
</svg>
