<svg width="512" height="512" viewBox="0 0 512 512" fill="none" xmlns="http://www.w3.org/2000/svg">
<path d="M280 16C173.96 16 88 101.96 88 208V368H40L112 488L184 368H136V208C136 128.472 200.472 64 280 64C359.528 64 424 128.472 424 208V344C424 357.256 434.744 368 448 368C461.256 368 472 357.256 472 344V208C472 101.96 386.04 16 280 16Z" fill="#2D5275"/>
<path d="M448 504C461.255 504 472 493.255 472 480C472 466.745 461.255 456 448 456C434.745 456 424 466.745 424 480C424 493.255 434.745 504 448 504Z" fill="#2D5275"/>
<path d="M448 440C461.255 440 472 429.255 472 416C472 402.745 461.255 392 448 392C434.745 392 424 402.745 424 416C424 429.255 434.745 440 448 440Z" fill="#2D5275"/>
<path d="M280 152C222.656 152 176 198.656 176 256C176 313.344 222.656 360 280 360C337.344 360 384 313.344 384 256C384 198.656 337.344 152 280 152ZM224 264H208V248H224V264ZM280 248C297.648 248 312 262.352 312 280C312 294.872 301.76 307.288 288 310.864V328H272V310.864C258.24 307.288 248 294.872 248 280H264C264 288.824 271.176 296 280 296C288.824 296 296 288.824 296 280C296 271.176 288.824 264 280 264C262.352 264 248 249.648 248 232C248 217.128 258.24 204.712 272 201.136V184H288V201.136C301.76 204.712 312 217.128 312 232H296C296 223.176 288.824 216 280 216C271.176 216 264 223.176 264 232C264 240.824 271.176 248 280 248ZM352 264H336V248H352V264Z" fill="#2D5275"/>
</svg>
