<svg width="512" height="512" viewBox="0 0 512 512" fill="none" xmlns="http://www.w3.org/2000/svg">
<path d="M208.376 319.299L189.56 313.044C183.371 310.982 179.197 305.189 179.2 298.665C179.2 289.239 186.841 281.599 196.267 281.599C205.693 281.599 213.334 289.239 213.334 298.665H230.4C230.342 283.149 219.825 269.623 204.8 265.744V247.466H187.734V265.744C172.71 269.623 162.192 283.149 162.134 298.665C162.123 312.535 170.998 324.852 184.158 329.232L202.974 335.487C209.163 337.548 213.337 343.341 213.334 349.865C213.334 359.291 205.693 366.932 196.267 366.932C186.841 366.932 179.2 359.291 179.2 349.865H162.134C162.192 365.382 172.71 378.907 187.734 382.787V401.065H204.8V382.787C219.825 378.907 230.342 365.382 230.4 349.865C230.411 335.995 221.536 323.679 208.376 319.299Z" fill="#2D5275"/>
<path d="M503.466 187.733H330.956C312.923 165.51 290.254 147.494 264.533 134.946V98.1329L295.253 75.093C297.401 73.4813 298.666 70.9522 298.666 68.2664V8.5333C298.666 3.82078 294.846 0 290.133 0H256C253.736 0 251.567 0.900263 249.967 2.50026L238.933 13.5338L227.9 2.50026C226.3 0.900263 224.13 0 221.867 0H170.667C168.403 0 166.234 0.900263 164.634 2.50026L153.6 13.5338L142.567 2.50026C140.967 0.900263 138.797 0 136.534 0H102.401C97.688 0 93.8672 3.82078 93.8672 8.5333V68.2664C93.8672 70.9522 95.1323 73.4813 97.2806 75.093L128 98.1329V135.031C63.4034 166.288 0.000976562 250.247 0.000976562 357.929C0.000976562 455.84 71.5356 511.998 196.267 511.998C216.513 512.07 236.723 510.276 256.64 506.639C257.934 509.867 261.056 511.986 264.533 511.998H503.466C508.178 511.998 511.999 508.177 511.999 503.465V196.266C511.999 191.553 508.178 187.733 503.466 187.733ZM110.934 63.9997V17.0666H133.001L147.567 31.6329C150.9 34.9641 156.301 34.9641 159.633 31.6329L174.2 17.0666H218.334L232.9 31.6329C236.233 34.9641 241.634 34.9641 244.966 31.6329L259.533 17.0666H281.6V63.9997L253.158 85.333H139.375L110.934 63.9997ZM247.467 102.4V127.999H145.067V102.4H247.467ZM256 396.568C216.07 429.63 156.9 424.064 123.836 384.135C90.7739 344.205 96.3398 285.035 136.269 251.971C170.999 223.214 221.269 223.214 255.999 251.971V396.568H256ZM256 196.266V230.885C204.43 197.808 135.809 212.799 102.732 264.369C69.6551 315.939 84.646 384.559 136.216 417.637C172.713 441.047 219.504 441.047 256.001 417.637V489.402C236.315 493.167 216.31 495.019 196.268 494.931C142.389 494.931 17.0686 481.585 17.0686 357.929C17.0686 276.291 65.9986 174.711 147.918 145.066H244.677C268.816 154.229 290.519 168.828 308.105 187.733H264.534C259.821 187.733 256 191.553 256 196.266ZM494.932 494.931H273.066V273.066H494.932V494.931ZM494.932 255.999H273.066V204.799H494.932V255.999Z" fill="#2D5275"/>
<path d="M332.799 290.132H298.666C293.954 290.132 290.133 293.953 290.133 298.665V332.799C290.133 337.511 293.954 341.332 298.666 341.332H332.799C337.512 341.332 341.333 337.511 341.333 332.799V298.665C341.333 293.953 337.512 290.132 332.799 290.132ZM324.266 324.265H307.199V307.199H324.266V324.265Z" fill="#2D5275"/>
<path d="M401.066 290.132H366.933C362.22 290.132 358.399 293.953 358.399 298.665V332.799C358.399 337.511 362.22 341.332 366.933 341.332H401.066C405.778 341.332 409.599 337.511 409.599 332.799V298.665C409.599 293.953 405.778 290.132 401.066 290.132ZM392.533 324.265H375.466V307.199H392.533V324.265Z" fill="#2D5275"/>
<path d="M469.332 290.132H435.199C430.487 290.132 426.666 293.953 426.666 298.665V332.799C426.666 337.511 430.487 341.332 435.199 341.332H469.332C474.045 341.332 477.866 337.511 477.866 332.799V298.665C477.866 293.953 474.045 290.132 469.332 290.132ZM460.799 324.265H443.733V307.199H460.799V324.265Z" fill="#2D5275"/>
<path d="M332.799 358.398H298.666C293.954 358.398 290.133 362.219 290.133 366.932V401.065C290.133 405.777 293.954 409.598 298.666 409.598H332.799C337.512 409.598 341.333 405.777 341.333 401.065V366.932C341.333 362.219 337.512 358.398 332.799 358.398ZM324.266 392.532H307.199V375.465H324.266V392.532Z" fill="#2D5275"/>
<path d="M401.066 358.398H366.933C362.22 358.398 358.399 362.219 358.399 366.932V401.065C358.399 405.777 362.22 409.598 366.933 409.598H401.066C405.778 409.598 409.599 405.777 409.599 401.065V366.932C409.599 362.219 405.778 358.398 401.066 358.398ZM392.533 392.532H375.466V375.465H392.533V392.532Z" fill="#2D5275"/>
<path d="M332.799 426.665H298.666C293.954 426.665 290.133 430.486 290.133 435.198V469.331C290.133 474.044 293.954 477.865 298.666 477.865H332.799C337.512 477.865 341.333 474.044 341.333 469.331V435.198C341.333 430.486 337.512 426.665 332.799 426.665ZM324.266 460.798H307.199V443.731H324.266V460.798Z" fill="#2D5275"/>
<path d="M401.066 426.665H366.933C362.22 426.665 358.399 430.486 358.399 435.198V469.331C358.399 474.044 362.22 477.865 366.933 477.865H401.066C405.778 477.865 409.599 474.044 409.599 469.331V435.198C409.599 430.486 405.778 426.665 401.066 426.665ZM392.533 460.798H375.466V443.731H392.533V460.798Z" fill="#2D5275"/>
<path d="M469.332 358.398H435.199C430.487 358.398 426.666 362.219 426.666 366.932V469.331C426.666 474.044 430.487 477.865 435.199 477.865H469.332C474.045 477.865 477.866 474.044 477.866 469.331V366.932C477.866 362.219 474.045 358.398 469.332 358.398ZM460.799 460.798H443.733V375.465H460.799V460.798Z" fill="#2D5275"/>
<path d="M477.865 221.866H460.799V238.932H477.865V221.866Z" fill="#2D5275"/>
<path d="M443.733 221.866H426.666V238.932H443.733V221.866Z" fill="#2D5275"/>
<path d="M409.6 221.866H392.533V238.932H409.6V221.866Z" fill="#2D5275"/>
</svg>
