<svg width="128" height="128" viewBox="0 0 128 128" fill="none" xmlns="http://www.w3.org/2000/svg">
<path d="M44.1379 79.4483H48.5517V83.8621H44.1379V79.4483Z" fill="#2D5275"/>
<path d="M52.9655 79.4483H57.3793V83.8621H52.9655V79.4483Z" fill="#2D5275"/>
<path d="M88.2759 24.2759C88.2759 20.6261 85.305 17.6552 81.6552 17.6552H79.4483V30.8965H88.2759V24.2759Z" fill="#2D5275"/>
<path d="M61.7931 79.4483H66.2069V83.8621H61.7931V79.4483Z" fill="#2D5275"/>
<path d="M39.7241 17.6552H37.5172C33.8675 17.6552 30.8966 20.6261 30.8966 24.2759V30.8965H39.7241V17.6552Z" fill="#2D5275"/>
<path d="M75.0345 0L68.4138 4.41379L59.5862 0L50.7586 4.41379L44.1379 0V30.8966H75.0345V0ZM70.6207 26.4828H48.5517V22.069H70.6207V26.4828ZM70.6207 17.6552H48.5517V13.2414H70.6207V17.6552Z" fill="#2D5275"/>
<path d="M38.2716 126.779C38.6476 127.532 39.4041 128 40.2446 128H78.9278C79.7683 128 80.5248 127.532 80.9009 126.779L82.4978 123.586H36.6746L38.2716 126.779Z" fill="#2D5275"/>
<path d="M39.7241 44.1379H79.4483V66.2069H39.7241V44.1379Z" fill="#2D5275"/>
<path d="M88.2759 35.3103H30.8966V66.6412C30.8966 68.8071 31.5323 70.903 32.7328 72.7058C34.4192 75.2371 35.3103 78.181 35.3103 81.2209V119.172H83.8621V81.2209C83.8621 78.181 84.7532 75.2371 86.4397 72.708C87.6401 70.903 88.2759 68.8071 88.2759 66.6412V35.3103ZM48.5517 114.759H44.1379V110.345H48.5517V114.759ZM48.5517 105.931H44.1379V101.517H48.5517V105.931ZM48.5517 97.1035H44.1379V92.6897H48.5517V97.1035ZM61.7931 114.759H57.3793V110.345H61.7931V114.759ZM61.7931 105.931H57.3793V101.517H61.7931V105.931ZM61.7931 97.1035H57.3793V92.6897H61.7931V97.1035ZM75.0345 114.759H70.6207V110.345H75.0345V114.759ZM75.0345 105.931H70.6207V101.517H75.0345V105.931ZM75.0345 97.1035H70.6207V92.6897H75.0345V97.1035ZM79.4483 83.8621C79.4483 86.2963 77.4688 88.2759 75.0345 88.2759H44.1379C41.7037 88.2759 39.7241 86.2963 39.7241 83.8621V79.4483C39.7241 77.014 41.7037 75.0345 44.1379 75.0345H75.0345C77.4688 75.0345 79.4483 77.014 79.4483 79.4483V83.8621ZM83.8621 70.6207H35.3103V39.7241H83.8621V70.6207Z" fill="#2D5275"/>
<path d="M70.6207 79.4483H75.0366V83.8621H70.6207V79.4483Z" fill="#2D5275"/>
<path d="M95.8825 49.306L92.6897 47.709V66.6412C92.6897 69.681 91.7985 72.625 90.1121 75.1541C88.9116 76.959 88.2759 79.055 88.2759 81.2209V111.697L95.5937 109.259C96.4968 108.957 97.1034 108.116 97.1034 107.165V51.2791C97.1034 50.4386 96.6358 49.6821 95.8825 49.306V49.306Z" fill="#2D5275"/>
</svg>
