<svg width="512" height="512" viewBox="0 0 512 512" fill="none" xmlns="http://www.w3.org/2000/svg">
<path d="M461.84 135C461.84 110.186 441.654 90 416.84 90C392.026 90 371.84 110.186 371.84 135V180H461.84V135Z" fill="#2D5275"/>
<path d="M371.84 441.211L401.84 471.211V512H431.84V471.211L461.84 441.211V390H371.84V441.211Z" fill="#2D5275"/>
<path d="M500.16 302.52C476.166 286.524 461.84 259.761 461.84 230.918V210H371.84V360H461.84V308.809C468.192 315.815 475.448 322.102 483.52 327.48L500.16 302.52Z" fill="#2D5275"/>
<path d="M101.84 8.789L20.629 90H101.84V8.789Z" fill="#2D5275"/>
<path d="M131.84 120H11.84V512H341.84V0H131.84V120ZM101.84 450H71.84V420H101.84V450ZM101.84 390H71.84V360H101.84V390ZM101.84 330H71.84V300H101.84V330ZM281.84 450H131.84V420H281.84V450ZM281.84 390H131.84V360H281.84V390ZM281.84 330H131.84V300H281.84V330ZM206.84 180C182.026 180 161.84 159.814 161.84 135C161.84 115.47 174.418 98.976 191.84 92.763V60H221.84V92.763C239.262 98.976 251.84 115.47 251.84 135H221.84C221.84 126.724 215.116 120 206.84 120C198.564 120 191.84 126.724 191.84 135C191.84 143.276 198.564 150 206.84 150C231.654 150 251.84 170.186 251.84 195C251.84 214.53 239.262 231.024 221.84 237.237V270H191.84V237.237C174.418 231.024 161.84 214.53 161.84 195H191.84C191.84 203.276 198.564 210 206.84 210C215.116 210 221.84 203.276 221.84 195C221.84 186.724 215.116 180 206.84 180Z" fill="#2D5275"/>
</svg>
