<svg id="Layer_1" height="512" viewBox="0 0 512 512" width="512" xmlns="http://www.w3.org/2000/svg" data-name="Layer 1"><path d="m161.52 443.88v1.37a17.509 17.509 0 0 1 -17.5 17.51h-110.51a17.511 17.511 0 0 1 -17.51-17.51v-1.37a17.5 17.5 0 0 1 15.28-17.36 18.63 18.63 0 0 0 2.91.23h109.14a18.887 18.887 0 0 0 2.93-.23 17.5 17.5 0 0 1 15.26 17.36z" fill="#edb740"/><path d="m160.68 414.05a18.233 18.233 0 0 1 -14.42 12.47 16.524 16.524 0 0 0 -2.24-.15h-110.51a16.377 16.377 0 0 0 -2.23.15 18.192 18.192 0 0 1 2.91-36.15h88.32l.07-.05a61.4 61.4 0 0 0 38.1 23.73z" fill="#d8a43d"/><path d="m122.54 390.26-.03.02h-88.32a18.19 18.19 0 0 1 0-36.38h76.26a61.075 61.075 0 0 0 12.09 36.36z" fill="#edb740"/><g fill="#c69439"><path d="m146.26 426.52a18.887 18.887 0 0 1 -2.93.23h4.251c-.436-.09-.874-.173-1.321-.23z"/><path d="m38 445.25v-1.37a17.5 17.5 0 0 1 13.957-17.13h-17.767a18.63 18.63 0 0 1 -2.91-.23 17.5 17.5 0 0 0 -15.28 17.36v1.37a17.511 17.511 0 0 0 17.51 17.51h22a17.511 17.511 0 0 1 -17.51-17.51z"/><path d="m122.58 390.32-.07.05h.109z"/><path d="m43.33 421.42a18.187 18.187 0 0 1 12.86-31.05h-22a18.193 18.193 0 0 0 -2.91 36.15 16.377 16.377 0 0 1 2.23-.15h19.029a18.149 18.149 0 0 1 -9.209-4.95z"/><path d="m144.02 426.37a16.524 16.524 0 0 1 2.24.15c.254-.041.5-.1.752-.15z"/><path d="m38 372.09a18.185 18.185 0 0 1 18.19-18.19h-22a18.19 18.19 0 0 0 0 36.38h22a18.2 18.2 0 0 1 -18.19-18.19z"/></g><path d="m327.69 444.79v1.37a17.5 17.5 0 0 1 -17.51 17.5h-110.51a17.5 17.5 0 0 1 -17.51-17.5v-1.37a17.511 17.511 0 0 1 17.51-17.51h110.51a17.511 17.511 0 0 1 17.51 17.51z" fill="#edb740"/><path d="m327.69 262.1v1.36a17.511 17.511 0 0 1 -17.51 17.51h-110.51a17.511 17.511 0 0 1 -17.51-17.51v-1.36a17.511 17.511 0 0 1 17.51-17.51h110.51a17.511 17.511 0 0 1 17.51 17.51z" fill="#d8a43d"/><path d="m322.36 286.3a18.187 18.187 0 0 1 -12.86 31.05h-88.16a61.328 61.328 0 0 0 -38.22-24.03 18.21 18.21 0 0 1 17.24-12.35h109.14a18.1 18.1 0 0 1 12.86 5.33z" fill="#edb740"/><path d="m322.36 322.77a18.187 18.187 0 0 1 -12.86 31.05h-76.26v-.15a61.077 61.077 0 0 0 -11.83-36.23h88.09a18.139 18.139 0 0 1 12.86 5.33z" fill="#d8a43d"/><path d="m322.36 359.23a18.187 18.187 0 0 1 -12.86 31.05h-88.36a61.7 61.7 0 0 0 4.48-6.97c.2-.35.39-.7.57-1.06.12-.21.23-.43.34-.64.15-.3.3-.6.45-.91.56-1.14 1.09-2.3 1.58-3.47.14-.34.28-.69.41-1.03.1-.24.19-.48.27-.71.14-.33.26-.66.38-1 .55-1.54 1.05-3.11 1.48-4.71.11-.38.21-.76.3-1.15s.2-.8.29-1.2c.04-.15.07-.29.1-.43.07-.32.14-.64.2-.96.1-.48.19-.96.28-1.44.09-.52.18-1.05.26-1.58.06-.38.11-.76.16-1.14.03-.2.06-.39.08-.59.19-1.52.32-3.06.4-4.61.02-.48.04-.95.05-1.43.01-.45.02-.9.02-1.35h76.26a18.139 18.139 0 0 1 12.86 5.33z" fill="#edb740"/><path d="m322.36 395.7a18.187 18.187 0 0 1 -12.86 31.05h-109.14a18.2 18.2 0 0 1 -17.35-12.7c.55-.09 1.09-.2 1.63-.32.05-.01.09-.02.13-.03.52-.1 1.03-.22 1.55-.35l.26-.06c.55-.13 1.09-.28 1.63-.43.58-.15 1.15-.32 1.72-.5.54-.16 1.07-.34 1.6-.52.26-.08.52-.17.77-.27q.48-.15.93-.33c.64-.24 1.28-.49 1.91-.75.5-.2.99-.41 1.48-.63.95-.41 1.89-.86 2.81-1.33.68-.33 1.35-.69 2.02-1.06.45-.25.91-.5 1.35-.77 1.05-.61 2.08-1.25 3.09-1.93.29-.19.57-.38.85-.58q.75-.51 1.47-1.05c.18-.13.36-.26.54-.4.47-.35.93-.71 1.39-1.08.45-.35.89-.72 1.33-1.1a.054.054 0 0 0 .04-.03c.44-.36.87-.74 1.3-1.13.87-.78 1.72-1.58 2.54-2.41.42-.41.83-.83 1.22-1.26.41-.43.8-.85 1.18-1.29.32-.35.63-.7.93-1.06.44-.53.89-1.07 1.32-1.62.36-.44.7-.89 1.04-1.35.01-.01.02-.03.03-.04h88.43a18.1 18.1 0 0 1 12.86 5.33z" fill="#d8a43d"/><path d="m204.16 446.16v-1.37a17.511 17.511 0 0 1 17.51-17.51h-22a17.511 17.511 0 0 0 -17.51 17.51v1.37a17.5 17.5 0 0 0 17.51 17.5h22a17.5 17.5 0 0 1 -17.51-17.5z" fill="#c69439"/><path d="m205.12 293.32a18.21 18.21 0 0 1 17.24-12.35h-22a18.21 18.21 0 0 0 -17.24 12.35 61.328 61.328 0 0 1 38.22 24.03h22a61.328 61.328 0 0 0 -38.22-24.03z" fill="#c69439"/><path d="m243.41 317.44h-22a61.077 61.077 0 0 1 11.83 36.23v.15h22v-.15a61.077 61.077 0 0 0 -11.83-36.23z" fill="#c69439"/><path d="m248.19 382.25c.12-.21.23-.43.34-.64.15-.3.3-.6.45-.91.56-1.14 1.09-2.3 1.58-3.47.14-.34.28-.69.41-1.03.1-.24.19-.48.27-.71.14-.33.26-.66.38-1 .55-1.54 1.05-3.11 1.48-4.71.11-.38.21-.76.3-1.15s.2-.8.29-1.2c.04-.15.07-.29.1-.43.07-.32.14-.64.2-.96.1-.48.19-.96.28-1.44.09-.52.18-1.05.26-1.58.06-.38.11-.76.16-1.14.03-.2.06-.39.08-.59.19-1.52.32-3.06.4-4.61.02-.48.04-.95.05-1.43.01-.45.02-.9.02-1.35h-22c0 .45-.01.9-.02 1.35-.01.48-.03.95-.05 1.43-.08 1.55-.21 3.09-.4 4.61-.02.2-.05.39-.08.59-.05.38-.1.76-.16 1.14-.08.53-.17 1.06-.26 1.58-.09.48-.18.96-.28 1.44-.06.32-.13.64-.2.96-.03.14-.06.28-.1.43-.09.4-.19.8-.29 1.2s-.19.77-.3 1.15c-.43 1.6-.93 3.17-1.48 4.71-.12.34-.24.67-.38 1-.08.23-.17.47-.27.71-.13.34-.27.69-.41 1.03-.49 1.17-1.02 2.33-1.58 3.47-.15.31-.3.61-.45.91-.11.21-.22.43-.34.64-.18.36-.37.71-.57 1.06a61.7 61.7 0 0 1 -4.48 6.97h22a61.7 61.7 0 0 0 4.48-6.97c.2-.35.39-.7.57-1.06z" fill="#c69439"/><path d="m205.01 414.05c.55-.09 1.09-.2 1.63-.32.05-.01.09-.02.13-.03.52-.1 1.03-.22 1.55-.35l.26-.06c.55-.13 1.09-.28 1.63-.43.58-.15 1.15-.32 1.72-.5.54-.16 1.07-.34 1.6-.52.26-.08.52-.17.77-.27q.48-.15.93-.33c.64-.24 1.28-.49 1.91-.75.5-.2.99-.41 1.48-.63.95-.41 1.89-.86 2.81-1.33.68-.33 1.35-.69 2.02-1.06.45-.25.91-.5 1.35-.77 1.05-.61 2.08-1.25 3.09-1.93.29-.19.57-.38.85-.58q.75-.51 1.47-1.05c.18-.13.36-.26.54-.4.47-.35.93-.71 1.39-1.08.45-.35.89-.72 1.33-1.1a.054.054 0 0 0 .04-.03c.44-.36.87-.74 1.3-1.13.87-.78 1.72-1.58 2.54-2.41.42-.41.83-.83 1.22-1.26.41-.43.8-.85 1.18-1.29.32-.35.63-.7.93-1.06.44-.53.89-1.07 1.32-1.62.36-.44.7-.89 1.04-1.35.01-.01.02-.03.03-.04h-22c-.01.01-.02.03-.03.04-.34.46-.68.91-1.04 1.35-.43.55-.88 1.09-1.32 1.62-.3.36-.61.71-.93 1.06-.38.44-.77.86-1.18 1.29-.39.43-.8.85-1.22 1.26-.82.83-1.67 1.63-2.54 2.41-.43.39-.86.77-1.3 1.13a.054.054 0 0 1 -.04.03c-.44.38-.88.75-1.33 1.1-.46.37-.92.73-1.39 1.08-.18.14-.36.27-.54.4q-.72.54-1.47 1.05c-.28.2-.56.39-.85.58-1.01.68-2.04 1.32-3.09 1.93-.44.27-.9.52-1.35.77-.67.37-1.34.73-2.02 1.06-.92.47-1.86.92-2.81 1.33-.49.22-.98.43-1.48.63-.63.26-1.27.51-1.91.75q-.45.18-.93.33c-.25.1-.51.19-.77.27-.53.18-1.06.36-1.6.52-.57.18-1.14.35-1.72.5-.54.15-1.08.3-1.63.43l-.26.06c-.52.13-1.03.25-1.55.35-.04.01-.08.02-.13.03-.54.12-1.08.23-1.63.32a18.2 18.2 0 0 0 17.35 12.7h22a18.2 18.2 0 0 1 -17.35-12.7z" fill="#c69439"/><path d="m212.16 263.46v-1.36a17.511 17.511 0 0 1 17.51-17.51h-30a17.511 17.511 0 0 0 -17.51 17.51v1.36a17.511 17.511 0 0 0 17.51 17.51h30a17.511 17.511 0 0 1 -17.51-17.51z" fill="#c69439"/><path d="m496 444.79v1.37a17.5 17.5 0 0 1 -17.51 17.5h-110.51a17.5 17.5 0 0 1 -17.5-17.5v-1.37a17.507 17.507 0 0 1 17.05-17.5c.15.01.3.01.45.01h110.51c.15 0 .3 0 .45-.01a17.509 17.509 0 0 1 17.06 17.5z" fill="#edb740"/><path d="m496 408.43v1.36a17.509 17.509 0 0 1 -17.06 17.5c-.15-.01-.3-.01-.45-.01h-110.51c-.15 0-.3 0-.45.01a17.507 17.507 0 0 1 -17.05-17.5v-1.36a17.507 17.507 0 0 1 17.05-17.5c.15.01.3.01.45.01h110.51c.15 0 .3 0 .45-.01a17.509 17.509 0 0 1 17.06 17.5z" fill="#d8a43d"/><path d="m496 372.06v1.37a17.509 17.509 0 0 1 -17.06 17.5c-.15-.01-.3-.01-.45-.01h-110.51c-.15 0-.3 0-.45.01a17.507 17.507 0 0 1 -17.05-17.5v-1.37a17.491 17.491 0 0 1 17.28-17.49h110.96a17.5 17.5 0 0 1 17.28 17.49z" fill="#edb740"/><path d="m496 335.7v1.37a17.519 17.519 0 0 1 -17.28 17.5 1.77 1.77 0 0 0 -.23-.01h-110.51a1.62 1.62 0 0 0 -.22.01 17.506 17.506 0 0 1 -17.28-17.5v-1.37a17.507 17.507 0 0 1 17.05-17.5c.15.01.3.01.45.01h110.51c.15 0 .3 0 .45-.01a17.509 17.509 0 0 1 17.06 17.5z" fill="#d8a43d"/><path d="m496 299.34v1.36a17.509 17.509 0 0 1 -17.06 17.5c-.15-.01-.3-.01-.45-.01h-110.51c-.15 0-.3 0-.45.01a17.507 17.507 0 0 1 -17.05-17.5v-1.36a17.507 17.507 0 0 1 17.05-17.5c.15.01.3.01.45.01h110.51c.15 0 .3 0 .45-.01a17.509 17.509 0 0 1 17.06 17.5z" fill="#edb740"/><path d="m496 262.97v1.37a17.509 17.509 0 0 1 -17.06 17.5c-.15-.01-.3-.01-.45-.01h-110.51c-.15 0-.3 0-.45.01a17.507 17.507 0 0 1 -17.05-17.5v-1.37a17.484 17.484 0 0 1 17.28-17.49h110.96a17.5 17.5 0 0 1 17.28 17.49z" fill="#d8a43d"/><path d="m496 226.61v1.36a17.521 17.521 0 0 1 -17.28 17.51 1.77 1.77 0 0 0 -.23-.01h-110.51a1.62 1.62 0 0 0 -.22.01 17.508 17.508 0 0 1 -17.28-17.51v-1.36a17.507 17.507 0 0 1 17.05-17.5c.15.01.3.01.45.01h110.51c.15 0 .3 0 .45-.01a17.509 17.509 0 0 1 17.06 17.5z" fill="#edb740"/><path d="m496 190.25v1.36a17.509 17.509 0 0 1 -17.06 17.5c-.15-.01-.3-.01-.45-.01h-110.51c-.15 0-.3 0-.45.01a17.507 17.507 0 0 1 -17.05-17.5v-1.36a17.509 17.509 0 0 1 17.5-17.51h110.51a17.511 17.511 0 0 1 17.51 17.51z" fill="#d8a43d"/><g fill="#c69439"><path d="m478.94 427.29c-.15.01-.3.01-.45.01h.583c-.045 0-.088-.009-.133-.01z"/><path d="m372.48 446.16v-1.37a17.5 17.5 0 0 1 16.92-17.49h-21.42c-.15 0-.3 0-.45-.01a17.507 17.507 0 0 0 -17.05 17.5v1.37a17.5 17.5 0 0 0 17.5 17.5h22a17.5 17.5 0 0 1 -17.5-17.5z"/><path d="m478.94 390.93c-.15.01-.3.01-.45.01h.583c-.045-.002-.088-.009-.133-.01z"/><path d="m478.49 427.28c.15 0 .3 0 .45.01.045 0 .088-.009.133-.01z"/><path d="m372.48 409.79v-1.36a17.5 17.5 0 0 1 16.92-17.49h-21.42c-.15 0-.3 0-.45-.01a17.507 17.507 0 0 0 -17.05 17.5v1.36a17.507 17.507 0 0 0 17.05 17.5c.15-.01.3-.01.45-.01h21.42a17.5 17.5 0 0 1 -16.92-17.49z"/><path d="m372.48 373.43v-1.37a17.491 17.491 0 0 1 17.28-17.49h-22a17.491 17.491 0 0 0 -17.28 17.49v1.37a17.507 17.507 0 0 0 17.05 17.5c.15-.01.3-.01.45-.01h21.42a17.5 17.5 0 0 1 -16.92-17.49z"/><path d="m478.49 390.92c.15 0 .3 0 .45.01.045 0 .088-.009.133-.01z"/><path d="m478.49 354.56a1.77 1.77 0 0 1 .23.01c.053 0 .1-.009.157-.01z"/><path d="m478.94 318.2c-.15.01-.3.01-.45.01h.583c-.045-.002-.088-.01-.133-.01z"/><path d="m372.48 337.07v-1.37a17.5 17.5 0 0 1 16.92-17.49h-21.42c-.15 0-.3 0-.45-.01a17.507 17.507 0 0 0 -17.05 17.5v1.37a17.506 17.506 0 0 0 17.28 17.5 1.62 1.62 0 0 1 .22-.01h21.62a17.5 17.5 0 0 1 -17.12-17.49z"/><path d="m478.94 281.84c-.15.01-.3.01-.45.01h.583c-.045-.001-.088-.009-.133-.01z"/><path d="m478.49 318.19c.15 0 .3 0 .45.01.045 0 .088-.009.133-.01z"/><path d="m372.48 300.7v-1.36a17.5 17.5 0 0 1 16.92-17.49h-21.42c-.15 0-.3 0-.45-.01a17.507 17.507 0 0 0 -17.05 17.5v1.36a17.507 17.507 0 0 0 17.05 17.5c.15-.01.3-.01.45-.01h21.42a17.5 17.5 0 0 1 -16.92-17.49z"/><path d="m372.48 264.34v-1.37a17.484 17.484 0 0 1 17.28-17.49h-22a17.484 17.484 0 0 0 -17.28 17.49v1.37a17.507 17.507 0 0 0 17.05 17.5c.15-.01.3-.01.45-.01h21.42a17.5 17.5 0 0 1 -16.92-17.49z"/><path d="m478.49 281.83c.15 0 .3 0 .45.01.045 0 .088-.009.133-.01z"/><path d="m478.49 245.47a1.77 1.77 0 0 1 .23.01c.053 0 .1-.009.157-.01z"/><path d="m478.94 209.11c-.15.01-.3.01-.45.01h.583c-.045-.001-.088-.009-.133-.01z"/><path d="m372.48 227.97v-1.36a17.5 17.5 0 0 1 16.92-17.49h-21.42c-.15 0-.3 0-.45-.01a17.507 17.507 0 0 0 -17.05 17.5v1.36a17.508 17.508 0 0 0 17.28 17.51 1.62 1.62 0 0 1 .22-.01h21.62a17.5 17.5 0 0 1 -17.12-17.5z"/><path d="m372.48 191.61v-1.36a17.509 17.509 0 0 1 17.5-17.51h-22a17.509 17.509 0 0 0 -17.5 17.51v1.36a17.507 17.507 0 0 0 17.05 17.5c.15-.01.3-.01.45-.01h21.42a17.5 17.5 0 0 1 -16.92-17.49z"/><path d="m478.49 209.1c.15 0 .3 0 .45.01.045 0 .088-.009.133-.01z"/></g><path d="m465.39 51.88-3.55 50.9-47.35-54.44z" fill="#49c160"/><path d="m183.01 414.05c-.6.12-1.21.22-1.82.31-.22.04-.45.07-.68.1-.41.06-.82.11-1.23.16-.44.06-.89.11-1.33.15-.38.04-.75.07-1.13.1-.19.02-.39.03-.58.04-.34.03-.67.05-1.01.07q-.78.045-1.56.06-.915.03-1.83.03a61.359 61.359 0 0 1 -49.26-24.75.209.209 0 0 1 -.04-.06 61.075 61.075 0 0 1 -12.09-36.36v-.23a61.392 61.392 0 0 1 110.89-36.32.55.55 0 0 1 .07.09 61.077 61.077 0 0 1 11.83 36.23v.23c0 .45-.01.9-.02 1.35-.01.48-.03.96-.05 1.43-.08 1.55-.21 3.09-.4 4.61-.02.2-.05.39-.08.59-.05.38-.1.76-.16 1.14-.08.53-.17 1.06-.26 1.58-.09.48-.18.96-.28 1.44-.06.32-.13.64-.2.96-.03.14-.06.28-.1.43-.09.4-.19.8-.29 1.2-.09.38-.19.77-.3 1.15-.43 1.6-.93 3.17-1.48 4.71-.12.34-.25.67-.38 1-.08.23-.17.47-.27.71-.13.35-.27.69-.41 1.03-.49 1.17-1.02 2.33-1.58 3.47-.14.31-.3.61-.45.91-.11.21-.22.43-.34.64-.18.36-.37.71-.57 1.06a61.7 61.7 0 0 1 -4.48 6.97.55.55 0 0 0 -.07.09c-.01.01-.02.03-.03.04-.34.45-.69.9-1.04 1.35-.43.55-.88 1.09-1.32 1.62-.31.36-.62.71-.93 1.06-.39.44-.78.87-1.18 1.29s-.81.85-1.22 1.26c-.82.83-1.67 1.63-2.54 2.41-.43.38-.86.76-1.3 1.13a.054.054 0 0 1 -.04.03c-.44.38-.88.75-1.33 1.1-.46.37-.92.73-1.39 1.08-.18.14-.36.27-.54.4q-.72.54-1.47 1.05c-.28.2-.56.39-.85.58-1.01.68-2.04 1.32-3.09 1.93-.45.27-.9.52-1.35.77-.67.37-1.34.73-2.02 1.06-.92.47-1.86.91-2.81 1.33-.49.22-.98.43-1.48.63-.63.26-1.27.51-1.91.75-.31.11-.62.23-.93.33-.25.1-.51.19-.77.27-.53.18-1.06.36-1.6.52-.57.18-1.14.34-1.72.5-.54.15-1.08.29-1.63.43l-.26.06c-.51.13-1.03.24-1.55.35-.04.01-.08.02-.13.03-.54.12-1.08.23-1.63.32z" fill="#edb740"/><path d="m310.18 238.59h-110.507a23.534 23.534 0 0 0 -23.508 23.51v1.364a23.451 23.451 0 0 0 8.054 17.692 24.11 24.11 0 0 0 -4.612 5.586 67.267 67.267 0 0 0 -74.892 61.16h-70.525a24.174 24.174 0 0 0 -15.871 42.423 24.144 24.144 0 0 0 -.473 36.048 23.453 23.453 0 0 0 -7.846 17.51v1.364a23.535 23.535 0 0 0 23.508 23.508h110.507a23.534 23.534 0 0 0 23.508-23.508v-1.364a23.456 23.456 0 0 0 -7.83-17.5 24.05 24.05 0 0 0 4.6-5.753 65.99 65.99 0 0 0 15.1 0 24.047 24.047 0 0 0 5.1 6.228 23.462 23.462 0 0 0 -8.331 17.932v1.364a23.535 23.535 0 0 0 23.508 23.509h110.51a23.535 23.535 0 0 0 23.508-23.509v-1.364a23.461 23.461 0 0 0 -8.366-17.962 24.142 24.142 0 0 0 .048-36.507 24.141 24.141 0 0 0 0-36.465 24.14 24.14 0 0 0 0-36.464 24.145 24.145 0 0 0 .262-36.238 23.452 23.452 0 0 0 8.056-17.694v-1.36a23.534 23.534 0 0 0 -23.508-23.51zm-109.825 48.381h109.145a12.191 12.191 0 0 1 0 24.381h-85.261a67.612 67.612 0 0 0 -31.468-21.73 12.179 12.179 0 0 1 7.584-2.651zm38.583 72.929h70.562a12.191 12.191 0 0 1 0 24.381h-77.646a66.823 66.823 0 0 0 7.084-24.381zm-6.893-36.464h77.455a12.19 12.19 0 0 1 0 24.38h-70.534a66.848 66.848 0 0 0 -6.921-24.38zm-197.855 36.464h70.56a66.842 66.842 0 0 0 7.084 24.381h-77.644a12.191 12.191 0 0 1 0-24.381zm121.333 83.983v1.364a11.52 11.52 0 0 1 -11.508 11.508h-110.507a11.521 11.521 0 0 1 -11.508-11.508v-1.364a11.523 11.523 0 0 1 9.387-11.305 24.248 24.248 0 0 0 2.8.168h109.146a24.48 24.48 0 0 0 2.762-.174 11.52 11.52 0 0 1 9.428 11.311zm-9.58-23.424c-.637-.051-1.278-.085-1.928-.085h-110.507c-.647 0-1.287.033-1.922.085a12.187 12.187 0 0 1 2.6-24.094h85.551a67.607 67.607 0 0 0 31.515 21.472 12.117 12.117 0 0 1 -5.309 2.622zm-29.492-66.786a55.393 55.393 0 1 1 55.393 55.392 55.456 55.456 0 0 1 -55.393-55.392zm107.5 42.692h85.549a12.191 12.191 0 0 1 0 24.381h-109.145a12.161 12.161 0 0 1 -7.924-2.908 67.617 67.617 0 0 0 31.516-21.473zm97.741 49.791a11.521 11.521 0 0 1 -11.508 11.509h-110.511a11.522 11.522 0 0 1 -11.508-11.509v-1.364a11.521 11.521 0 0 1 11.508-11.508h110.507a11.52 11.52 0 0 1 11.508 11.508zm-121.337-171.185h-.682a11.522 11.522 0 0 1 -11.508-11.509v-1.362a11.521 11.521 0 0 1 11.508-11.508h110.507a11.52 11.52 0 0 1 11.508 11.508v1.364a11.521 11.521 0 0 1 -11.508 11.509h-109.825z" fill="#284268"/><path d="m171.844 324.561a11.371 11.371 0 0 1 11.356 11.358 6 6 0 0 0 12 0 23.4 23.4 0 0 0 -17.359-22.574v-4.322a6 6 0 0 0 -12 0v4.322a23.358 23.358 0 0 0 6 45.932 11.356 11.356 0 0 1 .125 22.711c-.042 0-.083-.007-.125-.007s-.083.006-.125.007a11.368 11.368 0 0 1 -11.233-11.352 6 6 0 0 0 -12 0 23.4 23.4 0 0 0 17.358 22.573v5.112a6 6 0 0 0 12 0v-5.112a23.358 23.358 0 0 0 -6-45.932 11.358 11.358 0 1 1 0-22.716z" fill="#284268"/><path d="m502 191.611v-1.364a23.535 23.535 0 0 0 -23.508-23.509h-110.507a23.535 23.535 0 0 0 -23.508 23.509v1.364a23.452 23.452 0 0 0 7.832 17.5 23.449 23.449 0 0 0 -7.832 17.5v1.365a23.451 23.451 0 0 0 7.831 17.5 23.453 23.453 0 0 0 -7.831 17.5v1.364a23.451 23.451 0 0 0 7.832 17.5 23.451 23.451 0 0 0 -7.832 17.5v1.36a23.449 23.449 0 0 0 7.832 17.5 23.452 23.452 0 0 0 -7.832 17.5v1.364a23.449 23.449 0 0 0 7.832 17.5 23.449 23.449 0 0 0 -7.832 17.5v1.365a23.452 23.452 0 0 0 7.832 17.5 23.449 23.449 0 0 0 -7.832 17.5v1.364a23.449 23.449 0 0 0 7.832 17.5 23.452 23.452 0 0 0 -7.832 17.5v1.364a23.535 23.535 0 0 0 23.508 23.509h110.507a23.535 23.535 0 0 0 23.508-23.51v-1.364a23.453 23.453 0 0 0 -7.833-17.5 23.449 23.449 0 0 0 7.833-17.5v-1.364a23.453 23.453 0 0 0 -7.832-17.5 23.456 23.456 0 0 0 7.832-17.5v-1.365a23.449 23.449 0 0 0 -7.833-17.5 23.45 23.45 0 0 0 7.833-17.5v-1.363a23.456 23.456 0 0 0 -7.832-17.5 23.452 23.452 0 0 0 7.832-17.5v-1.364a23.454 23.454 0 0 0 -7.832-17.5 23.454 23.454 0 0 0 7.832-17.5v-1.364a23.454 23.454 0 0 0 -7.832-17.5 23.452 23.452 0 0 0 7.832-17.5v-1.362a23.452 23.452 0 0 0 -7.832-17.5 23.456 23.456 0 0 0 7.832-17.499zm-12 253.181v1.364a11.522 11.522 0 0 1 -11.508 11.509h-110.507a11.521 11.521 0 0 1 -11.508-11.509v-1.364a11.515 11.515 0 0 1 11.29-11.5c.073 0 .145.006.218.006h110.507c.073 0 .145 0 .218-.006a11.516 11.516 0 0 1 11.29 11.5zm0-36.363v1.364a11.516 11.516 0 0 1 -11.29 11.5c-.073 0-.145-.006-.218-.006h-110.507c-.073 0-.145 0-.218.006a11.515 11.515 0 0 1 -11.29-11.5v-1.364a11.515 11.515 0 0 1 11.277-11.5c.077 0 .153.006.231.006h110.507c.077 0 .154-.006.231-.006a11.516 11.516 0 0 1 11.277 11.5zm0-36.365v1.365a11.517 11.517 0 0 1 -11.277 11.5c-.077 0-.154-.006-.231-.006h-110.507c-.078 0-.154 0-.231.006a11.516 11.516 0 0 1 -11.277-11.5v-1.365a11.514 11.514 0 0 1 11.29-11.5h.218 110.507.218a11.515 11.515 0 0 1 11.29 11.5zm0-36.363v1.364a11.516 11.516 0 0 1 -11.29 11.5c-.073 0-.145 0-.218 0h-110.507c-.073 0-.145 0-.218 0a11.515 11.515 0 0 1 -11.29-11.5v-1.365a11.516 11.516 0 0 1 11.277-11.5c.077 0 .153.006.231.006h110.507c.077 0 .154 0 .231-.006a11.517 11.517 0 0 1 11.277 11.5zm0-36.363v1.362a11.515 11.515 0 0 1 -11.277 11.5c-.077 0-.154-.006-.231-.006h-110.507c-.078 0-.154.006-.231.006a11.515 11.515 0 0 1 -11.277-11.5v-1.364a11.515 11.515 0 0 1 11.277-11.5c.077 0 .153.006.231.006h110.507c.077 0 .154 0 .231-.006a11.516 11.516 0 0 1 11.277 11.502zm0-36.364v1.364a11.517 11.517 0 0 1 -11.277 11.5c-.077 0-.154-.006-.231-.006h-110.507c-.078 0-.154 0-.231.006a11.516 11.516 0 0 1 -11.277-11.5v-1.364a11.515 11.515 0 0 1 11.277-11.5c.077 0 .153.006.231.006h110.507c.077 0 .154 0 .231-.006a11.516 11.516 0 0 1 11.277 11.5zm0-36.364v1.365a11.516 11.516 0 0 1 -11.277 11.5c-.077 0-.154-.006-.231-.006h-110.507c-.078 0-.154 0-.231.006a11.515 11.515 0 0 1 -11.277-11.5v-1.365a11.515 11.515 0 0 1 11.283-11.5h.225 110.507.225a11.515 11.515 0 0 1 11.283 11.5zm-11.508-23.51h-110.507c-.076 0-.15 0-.225.006a11.516 11.516 0 0 1 -11.283-11.5v-1.364a11.521 11.521 0 0 1 11.508-11.509h110.507a11.522 11.522 0 0 1 11.508 11.514v1.364a11.516 11.516 0 0 1 -11.283 11.5c-.076-.004-.15-.011-.225-.011z" fill="#284268"/><path d="m59.262 248.781a5.973 5.973 0 0 0 3.495-1.127l170.289-122.292 56.421 66.782a6 6 0 0 0 8.248.879l140.457-108.316 19.145 22.015a6 6 0 0 0 10.513-3.52l3.549-50.9a6 6 0 0 0 -5.568-6.4l-50.9-3.548a6 6 0 0 0 -4.945 9.923l20.318 23.363-135.353 104.377-56.3-66.636a6 6 0 0 0 -8.083-1l-174.791 125.526a6 6 0 0 0 3.505 10.874zm399.729-191.329-2.124 30.465-28.342-32.589z" fill="#284268"/></svg>