<svg width="512" height="512" viewBox="0 0 512 512" fill="none" xmlns="http://www.w3.org/2000/svg">
<g clip-path="url(#clip0)">
<path d="M14.9988 476.983H44.9964C53.2797 476.983 59.9952 470.267 59.9952 461.984V296.997H14.9988C6.71546 296.997 0 303.713 0 311.996V461.984C0 470.266 6.71546 476.983 14.9988 476.983Z" fill="#2D5275"/>
<path d="M391.969 27.0178C325.699 27.0178 271.978 80.7385 271.978 147.008C271.978 213.276 325.699 266.999 391.969 266.999C458.238 266.999 511.959 213.276 511.959 147.008C511.959 80.7385 458.238 27.0178 391.969 27.0178V27.0178ZM417.105 200.99C413.856 202.614 410.45 203.893 406.965 204.861V209.005C406.965 217.289 400.25 224.004 391.967 224.004C383.683 224.004 376.968 217.289 376.968 209.005V205.33C370.724 203.758 364.902 201.115 359.969 197.416C353.343 192.447 351.999 183.045 356.969 176.418C361.94 169.792 371.341 168.448 377.968 173.418C383.967 177.918 395.506 178.252 403.689 174.16C406.977 172.515 408.752 170.535 408.752 169.508C408.752 167.714 408.752 167.437 406.756 166.372C402.843 164.283 395.923 162.999 389.231 161.758C380.297 160.1 371.058 158.386 363.053 154.114C351.363 147.874 345.183 137.638 345.183 124.512C345.183 111.371 353.064 99.894 366.804 93.0245C370.06 91.3957 373.474 90.1068 376.968 89.1378V85.0152C376.968 76.7318 383.683 70.0164 391.967 70.0164C400.25 70.0164 406.965 76.7318 406.965 85.0152V88.6879C413.21 90.2608 419.031 92.9055 423.964 96.6042C430.592 101.575 431.934 110.976 426.964 117.603C421.993 124.229 412.594 125.573 405.966 120.602C399.957 116.096 388.408 115.762 380.219 119.854C376.911 121.508 375.181 123.449 375.181 124.511C375.181 126.307 375.181 126.583 377.177 127.649C381.091 129.738 388.011 131.021 394.702 132.262C403.637 133.92 412.875 135.634 420.881 139.907C432.57 146.146 438.75 156.382 438.75 169.508C438.751 182.636 430.861 194.111 417.105 200.99V200.99Z" fill="#2D5275"/>
<path d="M270.779 484.982H274.079C324.475 484.381 372.77 470.084 415.369 444.284L499.061 385.79C513.159 375.89 515.86 357.292 506.56 344.093C496.961 330.293 478.363 326.995 464.864 336.594L384.47 392.989C358.672 407.988 327.176 411.288 298.677 401.688L206.185 371.089C198.385 368.69 194.184 359.99 196.885 352.193C199.284 344.693 207.083 340.494 214.883 342.593C215.183 342.593 318.774 376.191 318.774 376.191C336.219 381.419 351.718 371.549 356.571 356.992C361.67 341.093 352.972 324.294 337.373 319.195L196.284 272.999C165.425 261.765 123.839 264.086 89.9928 283.012V450.921L207.683 477.583C229.243 482.325 250.397 484.982 270.779 484.982V484.982Z" fill="#2D5275"/>
</g>
<defs>
<clipPath id="clip0">
<rect width="512" height="512" fill="white"/>
</clipPath>
</defs>
</svg>
