<svg width="128" height="128" viewBox="0 0 128 128" fill="none" xmlns="http://www.w3.org/2000/svg">
<path d="M106.145 13.8617H102.289V9.65786C102.289 4.33375 98.0782 0 92.9121 0C87.739 0 83.5352 4.33375 83.5352 9.65786V13.8617H73.9054V9.65786C73.9054 4.33375 69.7052 0 64.5356 0C59.366 0 55.1622 4.33375 55.1622 9.65786V13.8617H45.5359V9.65786C45.5359 4.33375 41.3286 0 36.159 0C30.9894 0 26.7821 4.33375 26.7821 9.65786V13.8617H21.8584C13.6299 13.8617 6.93258 20.5589 6.93258 28.7874V113.074C6.93258 121.303 13.6299 128 21.8584 128H106.145C114.374 128 121.071 121.303 121.071 113.074V28.7874C121.071 20.5589 114.37 13.8617 106.145 13.8617ZM88.8031 9.65786C88.8031 7.23813 90.6434 5.26792 92.9121 5.26792C95.1773 5.26792 97.0211 7.23813 97.0211 9.65786V26.8489C97.0211 29.2686 95.1773 31.2388 92.9121 31.2388C90.6434 31.2388 88.8031 29.2686 88.8031 26.8489V9.65786ZM60.4301 9.65786C60.4301 7.23813 62.2704 5.26792 64.5356 5.26792C66.8008 5.26792 68.6375 7.23813 68.6375 9.65786V26.8489C68.6375 29.2686 66.8008 31.2388 64.5356 31.2388C62.2704 31.2388 60.4301 29.2686 60.4301 26.8489V9.65786ZM32.0465 9.65786C32.0465 7.23813 33.8903 5.26792 36.1555 5.26792C38.4207 5.26792 40.2645 7.23813 40.2645 9.65786V26.8489C40.2645 29.2686 38.4207 31.2388 36.1555 31.2388C33.8903 31.2388 32.0465 29.2686 32.0465 26.8489V9.65786ZM112.291 113.074C112.291 116.463 109.534 119.22 106.145 119.22H21.8584C18.4693 119.22 15.7125 116.463 15.7125 113.074V49.8591H112.291V113.074Z" fill="#2D5275"/>
<path d="M58.042 107.146L88.6521 85.5827L58.042 63.9982V77.4806H40.419V93.6637H58.042V107.146Z" fill="#2D5275"/>
</svg>
