<svg width="512" height="512" viewBox="0 0 512 512" fill="none" xmlns="http://www.w3.org/2000/svg">
<path d="M436.989 360.931C421.917 360.931 407.914 353.446 399.55 340.893L379.92 311.452C362.306 350.054 325.919 379.475 283.01 388.219C282.673 388.278 282.351 388.351 282.029 388.439C265.067 391.779 247.358 391.808 229.576 388.41C182.323 378.933 143.356 345.464 127.698 300.935H135.008C146.943 300.935 154.128 287.593 147.487 277.616L87.491 187.622C81.925 179.273 68.097 179.273 62.532 187.622L2.53599 277.617C-4.08201 287.511 3.01499 300.936 15.015 300.936H34.526C55.036 401.515 145.764 480.925 256.901 480.925C317.71 480.925 377.758 455.78 420.791 410.129C435.905 393.953 448.564 375.451 458.514 355.416C452.006 358.963 444.646 360.931 436.989 360.931Z" fill="#2D5275"/>
<path d="M496.985 210.94H477.489C454.259 96.601 343.768 17.666 225.709 32.973C147.186 44.521 85.617 92.651 53.753 157.007C73.267 147.437 99.854 152.074 112.451 170.982L132.159 200.544C149.441 162.724 184.755 133.731 226.562 124.364C296.682 109.646 362.02 148.491 384.257 210.94H376.991C364.99 210.94 357.894 224.364 364.512 234.259L424.508 324.253C430.44 333.15 443.536 333.15 449.467 324.253L509.463 234.259C516.106 224.283 508.92 210.94 496.985 210.94Z" fill="#2D5275"/>
<path d="M287.829 254.135C279.349 245.625 268.04 240.938 256 240.938C251.986 240.938 248.222 239.385 245.381 236.529C239.63 230.808 239.438 221.26 245.41 215.319C251.035 209.665 260.966 209.665 266.591 215.319C272.436 221.208 281.927 221.178 287.801 215.348C293.675 209.503 293.675 199.997 287.83 194.138C283.067 189.359 277.215 186.266 271 184.174V165.941C271 157.652 264.291 150.943 256.001 150.943C247.711 150.943 241.002 157.652 241.002 165.942V184.171C234.793 186.262 228.949 189.346 224.201 194.109C206.554 211.695 206.597 240.224 224.172 257.738C232.652 266.248 243.961 270.935 256.001 270.935C260.015 270.935 263.779 272.488 266.62 275.344C272.371 281.065 272.563 290.613 266.591 296.554C260.966 302.208 251.035 302.208 245.41 296.554C239.551 290.68 230.059 290.68 224.2 296.525C218.326 302.37 218.326 311.876 224.171 317.735C228.981 322.562 234.755 325.996 241.001 328.206V345.931C241.001 354.221 247.71 360.93 256 360.93C264.29 360.93 270.999 354.221 270.999 345.931V328.21C277.241 326.004 283.008 322.572 287.8 317.765C305.447 300.179 305.404 271.649 287.829 254.135Z" fill="#2D5275"/>
</svg>
