<svg width="512" height="512" viewBox="0 0 512 512" fill="none" xmlns="http://www.w3.org/2000/svg">
<path fill-rule="evenodd" clip-rule="evenodd" d="M105.595 50V70C105.595 81 114.595 90 125.595 90C136.595 90 145.595 81 145.595 70V50V30C145.595 19 136.596 10 125.595 10C114.595 10 105.595 19 105.595 30V50Z" fill="#A2C0C1"/>
<path fill-rule="evenodd" clip-rule="evenodd" d="M225.594 50V70C225.594 81 234.594 90 245.594 90C256.594 90 265.594 81 265.594 70V50V30C265.594 19 256.595 10 245.594 10C234.594 10 225.594 19 225.594 30V50Z" fill="#A2C0C1"/>
<path fill-rule="evenodd" clip-rule="evenodd" d="M345.594 50V70C345.594 81 354.594 90 365.594 90C376.594 90 385.594 81 385.594 70V50V30C385.594 19 376.595 10 365.594 10C354.594 10 345.594 19 345.594 30V50Z" fill="#A2C0C1"/>
<path fill-rule="evenodd" clip-rule="evenodd" d="M365.595 89.999C354.594 89.999 345.595 80.999 345.595 69.999V50H265.595V70C265.595 81 256.596 90 245.595 90C234.594 90 225.595 81 225.595 70V50H145.595V70C145.595 81 136.596 90 125.595 90C114.594 90 105.595 81 105.595 70V50H65.5947C54.5947 50 45.5947 58.999 45.5947 70L45.5957 130.002H445.595V69.999C445.595 58.999 436.595 49.999 425.595 49.999H385.595V69.999C385.594 81 376.595 89.999 365.595 89.999V89.999Z" fill="#88DF8E"/>
<path fill-rule="evenodd" clip-rule="evenodd" d="M445.595 130.001H45.5947L45.5938 482.002C45.5938 493.002 54.5938 502.002 65.5938 502.002H425.595C436.595 502.002 445.595 493.003 445.595 482.002V130.001Z" fill="white"/>
<path fill-rule="evenodd" clip-rule="evenodd" d="M175.596 170.002C125.89 170.002 85.5957 210.296 85.5957 260.002C85.5957 309.708 125.89 350.002 175.596 350.002C193.796 350.002 210.734 344.6 224.894 335.312C236.444 327.736 246.146 317.574 253.177 305.65C261.068 292.267 265.595 276.664 265.595 260.003C265.596 210.296 225.302 170.002 175.596 170.002V170.002Z" fill="#FFEA60"/>
<path fill-rule="evenodd" clip-rule="evenodd" d="M253.178 305.649C246.147 317.573 236.445 327.735 224.895 335.311L280.85 391.266C288.851 399.266 301.822 399.266 309.823 391.266L334.266 366.823L398.523 431.08C391.707 434.408 387.011 441.406 387.011 449.501C387.011 460.817 396.184 469.99 407.5 469.99H445.594H445.917C457.233 469.99 466.406 460.817 466.406 449.501V411.084C466.406 399.768 457.233 390.595 445.917 390.595C445.809 390.595 445.702 390.596 445.594 390.598C437.636 390.721 430.779 395.382 427.495 402.107L348.751 323.363C340.751 315.363 327.778 315.363 319.778 323.363L295.335 347.806L253.178 305.649Z" fill="#FF5A58"/>
<path d="M455.594 382.179V69.9989C455.594 53.4569 442.136 39.9999 425.594 39.9999H395.593V29.9999C395.593 13.458 382.136 0 365.594 0H365.593C349.051 0 335.593 13.458 335.593 29.9999V39.9999H275.594V29.9999C275.594 13.458 262.136 0 245.594 0H245.593C229.051 0 215.593 13.458 215.593 29.9999V39.9999H155.594V29.9999C155.594 13.458 142.136 0 125.594 0H125.593C109.051 0 95.5927 13.458 95.5927 29.9999V39.9999H65.5927C49.0508 39.9999 35.5928 53.4569 35.5928 69.9989V482.001C35.5928 498.542 49.0508 512 65.5927 512H425.592C442.134 512 455.592 498.542 455.592 482.001V478.407C467.673 474.351 476.404 462.93 476.404 449.501V411.084C476.405 397.656 467.675 386.235 455.594 382.179V382.179ZM355.593 29.9999C355.593 24.486 360.079 20 365.594 20C371.108 20 375.593 24.486 375.593 29.9999V69.9999C375.593 75.5139 371.107 79.9988 365.593 79.9988C360.079 79.9988 355.593 75.5139 355.593 69.9999V29.9999ZM235.593 29.9999C235.593 24.486 240.079 20 245.593 20C251.107 20 255.593 24.486 255.593 29.9999V69.9999C255.593 75.5139 251.107 79.9988 245.592 79.9988C240.078 79.9988 235.592 75.5139 235.592 69.9999V29.9999H235.593ZM115.594 29.9999C115.594 24.486 120.08 20 125.594 20C131.108 20 135.594 24.486 135.594 29.9999V69.9999C135.594 75.5139 131.108 79.9988 125.594 79.9988C120.08 79.9988 115.594 75.5139 115.594 69.9999V29.9999ZM425.594 492H65.5947C60.0807 492 55.5947 487.515 55.5947 482.001V140.001H200.591C206.114 140.001 210.591 135.523 210.591 130.001C210.591 124.479 206.114 120.001 200.591 120.001H55.5937V69.9989C55.5937 64.4849 60.0797 59.9999 65.5937 59.9999H95.5937V69.9999C95.5937 86.5418 109.052 99.9988 125.594 99.9988C142.136 99.9988 155.594 86.5418 155.594 69.9999V59.9999H215.593V69.9999C215.593 86.5418 229.051 99.9988 245.593 99.9988C262.135 99.9988 275.593 86.5418 275.593 69.9999V59.9999H335.592V69.9999C335.592 86.5418 349.05 99.9988 365.593 99.9988C382.135 99.9988 395.592 86.5418 395.592 69.9999V59.9999H425.593C431.107 59.9999 435.593 64.4849 435.593 69.9989V120.001H290.59C285.068 120.001 280.59 124.479 280.59 130.001C280.59 135.523 285.068 140.001 290.59 140.001H435.594V382.371C432.403 383.508 429.437 385.166 426.811 387.281L355.823 316.295C350.065 310.536 342.409 307.364 334.265 307.364C326.121 307.364 318.465 310.536 312.707 316.294L295.335 333.666L265.476 303.807C271.953 290.57 275.596 275.704 275.596 260.002C275.596 204.862 230.736 160.003 175.596 160.003C120.457 160.003 75.5967 204.862 75.5967 260.002C75.5967 315.143 120.457 360.003 175.596 360.003C192.862 360.003 209.12 355.603 223.308 347.868L273.778 398.337C279.536 404.096 287.192 407.268 295.336 407.268C303.48 407.268 311.136 404.096 316.894 398.338L334.266 380.966L383.697 430.397C379.431 435.695 377.011 442.37 377.011 449.503C377.011 466.315 390.689 479.992 407.5 479.992H435.595V482.002C435.594 487.515 431.108 492 425.594 492V492ZM175.595 340.002C131.484 340.002 95.5957 304.113 95.5957 260.002C95.5957 215.89 131.484 180.002 175.595 180.002C219.707 180.002 255.595 215.89 255.595 260.002C255.595 304.113 219.708 340.002 175.595 340.002V340.002ZM456.405 449.502C456.405 455.286 451.7 459.991 445.916 459.991H407.499C401.715 459.991 397.01 455.286 397.01 449.502C397.01 445.459 399.271 441.843 402.91 440.066C405.813 438.648 407.853 435.915 408.386 432.728C408.919 429.541 407.878 426.293 405.594 424.008L341.336 359.751C337.431 355.846 331.101 355.847 327.193 359.751L302.75 384.194C300.77 386.174 298.136 387.265 295.335 387.265C292.534 387.265 289.9 386.174 287.92 384.193L240.087 336.36C245.437 331.835 250.307 326.76 254.608 321.222L288.264 354.877C292.17 358.783 298.5 358.782 302.407 354.877L326.85 330.434C328.83 328.454 331.464 327.363 334.265 327.363C337.066 327.363 339.7 328.454 341.68 330.435L420.424 409.178C422.709 411.463 425.962 412.502 429.144 411.97C432.332 411.437 435.065 409.398 436.482 406.493C438.258 402.855 441.874 400.595 445.917 400.595C451.701 400.595 456.406 405.3 456.406 411.084V449.502H456.405Z" fill="black"/>
<path d="M182.75 234.159C186.655 238.063 192.987 238.063 196.893 234.159C200.798 230.254 200.798 223.922 196.893 220.016C193.634 216.757 189.734 214.521 185.596 213.305V210.001C185.596 204.479 181.119 200.001 175.596 200.001C170.073 200.001 165.596 204.479 165.596 210.001V215.283C163.287 216.499 161.12 218.076 159.18 220.015C154.143 225.052 151.369 231.748 151.369 238.871C151.369 245.994 154.143 252.69 159.18 257.727L177.868 276.415C179.127 277.674 179.821 279.349 179.821 281.129C179.821 282.909 179.128 284.584 177.868 285.843C176.609 287.103 174.935 287.796 173.155 287.796C171.374 287.796 169.7 287.102 168.441 285.843C164.537 281.938 158.205 281.938 154.298 285.842C150.393 289.746 150.392 296.078 154.297 299.984C157.498 303.186 161.37 305.468 165.595 306.711V310C165.595 315.522 170.072 320 175.595 320C181.118 320 185.595 315.522 185.595 310V304.728C187.929 303.494 190.091 301.906 192.011 299.986C202.408 289.589 202.408 272.671 192.011 262.273L173.323 243.585C170.723 240.985 170.723 236.757 173.323 234.157C175.921 231.56 180.151 231.56 182.75 234.159V234.159Z" fill="black"/>
<path d="M245.594 140.001C251.117 140.001 255.594 135.523 255.594 130.001C255.594 124.479 251.117 120.001 245.594 120.001H245.587C240.064 120.001 235.591 124.479 235.591 130.001C235.591 135.523 240.072 140.001 245.594 140.001Z" fill="black"/>
</svg>
