<svg width="512" height="512" viewBox="0 0 512 512" fill="none" xmlns="http://www.w3.org/2000/svg">
<path d="M256 331C346.98 331 421 256.98 421 166C421 75.0195 346.98 0 256 0C165.02 0 91 75.0195 91 166C91 256.98 165.02 331 256 331ZM256.16 176.605C231.348 176.605 211.16 156.418 211.16 131.605C211.16 112.137 223.66 95.6758 241 89.418V76C241 67.7109 247.711 61 256 61C264.293 61 271 67.7109 271 76V89.3203C288.504 95.4844 301.16 112.016 301.16 131.605C301.16 139.895 294.453 146.605 286.16 146.605C277.871 146.605 271.16 139.895 271.16 131.605C271.16 123.328 264.438 116.605 256.16 116.605C247.887 116.605 241.16 123.328 241.16 131.605C241.16 139.883 247.887 146.605 256.16 146.605C280.977 146.605 301.16 166.789 301.16 191.605C301.16 211.195 288.504 227.723 271 233.891V256C271 264.289 264.293 271 256 271C247.711 271 241 264.289 241 256V233.789C223.66 227.535 211.16 211.074 211.16 191.605C211.16 183.312 217.871 176.605 226.16 176.605C234.453 176.605 241.16 183.312 241.16 191.605C241.16 199.883 247.887 206.605 256.16 206.605C264.438 206.605 271.16 199.883 271.16 191.605C271.16 183.328 264.438 176.605 256.16 176.605Z" fill="#2D5275"/>
<path d="M329.855 431.257C327.539 425.648 322.062 421.999 315.996 421.999H286V358.445C276.195 359.972 266.226 360.999 256 360.999C245.773 360.999 235.804 359.972 226 358.445V421.999H196.004C189.941 421.999 184.461 425.648 182.148 431.257C179.82 436.866 181.109 443.312 185.398 447.605L245.394 507.605C248.324 510.534 252.164 511.999 256 511.999C259.836 511.999 263.676 510.534 266.605 507.605L326.601 447.605C330.894 443.312 332.183 436.866 329.855 431.257Z" fill="#2D5275"/>
</svg>
