<svg width="512" height="512" viewBox="0 0 512 512" fill="none" xmlns="http://www.w3.org/2000/svg">
<path d="M356.815 425.37L431.733 389.985C448.254 381.643 468.406 387.759 477.506 403.867L325.228 502.372C304.809 511.794 281.897 514.387 259.89 509.768L154.865 480.29C145.201 477.58 134.859 478.71 126.008 483.45L104.047 495.202L107.003 388.084L107.878 388.105C139.261 365.806 180.478 362.921 214.662 380.635L220.949 383.89C230.779 388.981 241.63 391.786 252.699 392.086L314.439 393.791C333.811 394.321 350.77 406.956 356.815 425.37V425.37Z" fill="#F7CAA5"/>
<path d="M377.371 237.456C377.371 301.118 325.761 352.728 262.099 352.728C198.437 352.728 146.831 301.118 146.831 237.456C146.831 173.794 198.437 122.184 262.099 122.184C325.761 122.184 377.371 173.794 377.371 237.456V237.456Z" fill="#FEDB41"/>
<path d="M262.099 228.255C251.397 228.255 242.718 219.58 242.718 208.874C242.718 198.173 251.397 189.494 262.099 189.494C272.804 189.494 281.48 198.173 281.48 208.874C281.48 213.589 285.302 217.412 290.017 217.412C294.732 217.412 298.555 213.589 298.555 208.874C298.534 191.628 286.449 176.749 269.569 173.193V165.419C269.569 160.704 265.746 156.881 261.032 156.881C256.317 156.881 252.494 160.704 252.494 165.419V173.715C234.881 178.521 223.537 195.626 225.968 213.723C228.394 231.824 243.839 245.335 262.099 245.331C272.721 245.247 281.434 253.731 281.63 264.349C281.826 274.971 273.43 283.767 262.812 284.072C261.853 283.863 260.869 283.826 259.902 283.963C250.097 282.892 242.68 274.588 242.718 264.724C242.718 260.009 238.895 256.186 234.18 256.186C229.465 256.186 225.642 260.009 225.642 264.724C225.588 281.178 236.606 295.611 252.494 299.896V308.426C252.494 313.141 256.317 316.964 261.032 316.964C265.746 316.964 269.569 313.141 269.569 308.426V300.405C287.854 296.578 300.285 279.544 298.363 260.964C296.437 242.383 280.783 228.259 262.099 228.255Z" fill="#00ACEA"/>
<path d="M359.078 449.491H358.844L257.363 446.694C252.648 446.564 248.933 442.637 249.063 437.927C249.192 433.212 253.119 429.497 257.83 429.627L349.802 432.161C349.519 430.769 349.152 429.397 348.706 428.047C343.77 413.064 329.975 402.779 314.205 402.329L252.46 400.62C240.112 400.27 227.998 397.139 217.021 391.469L210.739 388.218C179.41 371.888 141.57 374.536 112.821 395.067C108.978 397.798 103.646 396.893 100.915 393.049C98.1846 389.206 99.0893 383.874 102.933 381.143C136.888 356.897 181.586 353.771 218.589 373.056L224.875 376.307C233.563 380.797 243.151 383.269 252.927 383.553L314.671 385.258C329.112 385.646 342.807 391.757 352.737 402.25C362.667 412.739 368.02 426.75 367.611 441.187C367.486 445.814 363.701 449.495 359.074 449.491H359.078Z" fill="#EDB288"/>
<path d="M262.099 98.1841C257.384 98.1841 253.562 94.3613 253.562 89.6463V8.53774C253.562 3.82281 257.384 0 262.099 0C266.814 0 270.637 3.82281 270.637 8.53774V89.6463C270.637 94.3613 266.814 98.1841 262.099 98.1841Z" fill="#00ACEA"/>
<path d="M326.132 98.1838C321.418 98.1838 317.595 94.361 317.595 89.6461V51.2262C317.595 46.5113 321.418 42.6885 326.132 42.6885C330.847 42.6885 334.67 46.5113 334.67 51.2262V89.6461C334.67 94.361 330.847 98.1838 326.132 98.1838Z" fill="#00ACEA"/>
<path d="M198.066 98.1838C193.351 98.1838 189.528 94.361 189.528 89.6461V51.2262C189.528 46.5113 193.351 42.6885 198.066 42.6885C202.781 42.6885 206.604 46.5113 206.604 51.2262V89.6461C206.604 94.361 202.781 98.1838 198.066 98.1838Z" fill="#00ACEA"/>
<path d="M104.046 495.201L103.713 507.258L36.0195 505.402L40.1091 356.834L107.811 358.693L107.002 388.083L104.046 495.201Z" fill="#00EFD1"/>
</svg>
