<svg width="128" height="128" viewBox="0 0 128 128" fill="none" xmlns="http://www.w3.org/2000/svg">
<path d="M24 94H32.002V100H24V94Z" fill="#2D5275"/>
<path d="M98 76C93.6488 76 89.3954 77.2903 85.7775 79.7077C82.1596 82.1251 79.3398 85.561 77.6747 89.581C76.0095 93.6009 75.5739 98.0244 76.4227 102.292C77.2716 106.56 79.3669 110.48 82.4437 113.556C85.5204 116.633 89.4404 118.728 93.708 119.577C97.9756 120.426 102.399 119.99 106.419 118.325C110.439 116.66 113.875 113.84 116.292 110.223C118.71 106.605 120 102.351 120 98C119.993 92.1673 117.673 86.5756 113.549 82.4512C109.424 78.3269 103.833 76.0069 98 76ZM112.384 92.444L95.414 109.414C95.039 109.789 94.5303 110 94 110C93.4697 110 92.9611 109.789 92.586 109.414L84.102 100.928C83.7377 100.551 83.5361 100.046 83.5407 99.5212C83.5452 98.9968 83.7556 98.4952 84.1264 98.1244C84.4972 97.7535 84.9988 97.5432 85.5232 97.5386C86.0476 97.5341 86.5528 97.7357 86.93 98.1L94 105.172L109.556 89.616C109.933 89.2517 110.438 89.0501 110.963 89.0546C111.487 89.0592 111.989 89.2695 112.36 89.6404C112.73 90.0112 112.941 90.5128 112.945 91.0372C112.95 91.5616 112.748 92.0668 112.384 92.444Z" fill="#2D5275"/>
<path d="M48 58H56.002V64H48V58Z" fill="#2D5275"/>
<path d="M72 58H80V64H72V58Z" fill="#2D5275"/>
<path d="M24 76H32.002V82H24V76Z" fill="#2D5275"/>
<path d="M48 76H56.002V82H48V76Z" fill="#2D5275"/>
<path d="M24 58H32.002V64H24V58Z" fill="#2D5275"/>
<path d="M32 28C33.0599 27.9968 34.0755 27.5744 34.8249 26.8249C35.5744 26.0755 35.9968 25.0599 36 24V12C36 10.9391 35.5786 9.92172 34.8284 9.17157C34.0783 8.42143 33.0609 8 32 8C30.9391 8 29.9217 8.42143 29.1716 9.17157C28.4214 9.92172 28 10.9391 28 12V24C28.0032 25.0599 28.4256 26.0755 29.1751 26.8249C29.9245 27.5744 30.9401 27.9968 32 28V28Z" fill="#2D5275"/>
<path d="M64 28C65.0599 27.9968 66.0755 27.5744 66.8249 26.8249C67.5744 26.0755 67.9968 25.0599 68 24V12C68 10.9391 67.5786 9.92172 66.8284 9.17157C66.0783 8.42143 65.0609 8 64 8C62.9391 8 61.9217 8.42143 61.1716 9.17157C60.4214 9.92172 60 10.9391 60 12V24C60.0032 25.0599 60.4256 26.0755 61.1751 26.8249C61.9245 27.5744 62.9401 27.9968 64 28V28Z" fill="#2D5275"/>
<path d="M96 28C97.0599 27.9968 98.0755 27.5744 98.8249 26.8249C99.5744 26.0755 99.9968 25.0599 100 24V12C100 10.9391 99.5786 9.92172 98.8284 9.17157C98.0783 8.42143 97.0609 8 96 8C94.9391 8 93.9217 8.42143 93.1716 9.17157C92.4214 9.92172 92 10.9391 92 12V24C92.0032 25.0599 92.4256 26.0755 93.1751 26.8249C93.9245 27.5744 94.9401 27.9968 96 28Z" fill="#2D5275"/>
<path d="M96 58H104V64H96V58Z" fill="#2D5275"/>
<path d="M114 20H104V24C104 26.1217 103.157 28.1566 101.657 29.6569C100.157 31.1571 98.1217 32 96 32C93.8783 32 91.8434 31.1571 90.3431 29.6569C88.8429 28.1566 88 26.1217 88 24V20H72V24C72 26.1217 71.1571 28.1566 69.6569 29.6569C68.1566 31.1571 66.1217 32 64 32C61.8783 32 59.8434 31.1571 58.3431 29.6569C56.8429 28.1566 56 26.1217 56 24V20H40V24C40 26.1217 39.1571 28.1566 37.6569 29.6569C36.1566 31.1571 34.1217 32 32 32C29.8783 32 27.8434 31.1571 26.3431 29.6569C24.8429 28.1566 24 26.1217 24 24V20H14C12.4102 20.0047 10.8868 20.6384 9.7626 21.7626C8.63841 22.8868 8.00475 24.4102 8 26V40H120V26C119.995 24.4102 119.362 22.8868 118.237 21.7626C117.113 20.6384 115.59 20.0047 114 20V20Z" fill="#2D5275"/>
<path d="M48 94H56.002V100H48V94Z" fill="#2D5275"/>
<path d="M8 44V106C8.00475 107.59 8.63841 109.113 9.7626 110.237C10.8868 111.362 12.4102 111.995 14 112H76.126C74.3006 109.119 73.0605 105.907 72.4766 102.547C71.8926 99.1869 71.9761 95.7448 72.7224 92.417C73.4687 89.0892 74.8632 85.941 76.8261 83.1522C78.7891 80.3633 81.2822 77.9884 84.163 76.163C87.0438 74.3376 90.2559 73.0975 93.616 72.5136C96.9761 71.9296 100.418 72.0131 103.746 72.7594C107.074 73.5057 110.222 74.9002 113.011 76.8632C115.8 78.8261 118.175 81.3192 120 84.2V44H8ZM36 100C36 101.061 35.5786 102.078 34.8284 102.828C34.0783 103.579 33.0609 104 32 104H24C22.9391 104 21.9217 103.579 21.1716 102.828C20.4214 102.078 20 101.061 20 100V94C20 92.9391 20.4214 91.9217 21.1716 91.1716C21.9217 90.4214 22.9391 90 24 90H32C33.0609 90 34.0783 90.4214 34.8284 91.1716C35.5786 91.9217 36 92.9391 36 94V100ZM36 82C36 83.0609 35.5786 84.0783 34.8284 84.8284C34.0783 85.5786 33.0609 86 32 86H24C22.9391 86 21.9217 85.5786 21.1716 84.8284C20.4214 84.0783 20 83.0609 20 82V76C20 74.9391 20.4214 73.9217 21.1716 73.1716C21.9217 72.4214 22.9391 72 24 72H32C33.0609 72 34.0783 72.4214 34.8284 73.1716C35.5786 73.9217 36 74.9391 36 76V82ZM36 64C36 65.0609 35.5786 66.0783 34.8284 66.8284C34.0783 67.5786 33.0609 68 32 68H24C22.9391 68 21.9217 67.5786 21.1716 66.8284C20.4214 66.0783 20 65.0609 20 64V58C20 56.9391 20.4214 55.9217 21.1716 55.1716C21.9217 54.4214 22.9391 54 24 54H32C33.0609 54 34.0783 54.4214 34.8284 55.1716C35.5786 55.9217 36 56.9391 36 58V64ZM60 100C60 101.061 59.5786 102.078 58.8284 102.828C58.0783 103.579 57.0609 104 56 104H48C46.9391 104 45.9217 103.579 45.1716 102.828C44.4214 102.078 44 101.061 44 100V94C44 92.9391 44.4214 91.9217 45.1716 91.1716C45.9217 90.4214 46.9391 90 48 90H56C57.0609 90 58.0783 90.4214 58.8284 91.1716C59.5786 91.9217 60 92.9391 60 94V100ZM60 82C60 83.0609 59.5786 84.0783 58.8284 84.8284C58.0783 85.5786 57.0609 86 56 86H48C46.9391 86 45.9217 85.5786 45.1716 84.8284C44.4214 84.0783 44 83.0609 44 82V76C44 74.9391 44.4214 73.9217 45.1716 73.1716C45.9217 72.4214 46.9391 72 48 72H56C57.0609 72 58.0783 72.4214 58.8284 73.1716C59.5786 73.9217 60 74.9391 60 76V82ZM60 64C60 65.0609 59.5786 66.0783 58.8284 66.8284C58.0783 67.5786 57.0609 68 56 68H48C46.9391 68 45.9217 67.5786 45.1716 66.8284C44.4214 66.0783 44 65.0609 44 64V58C44 56.9391 44.4214 55.9217 45.1716 55.1716C45.9217 54.4214 46.9391 54 48 54H56C57.0609 54 58.0783 54.4214 58.8284 55.1716C59.5786 55.9217 60 56.9391 60 58V64ZM80 76H72V82C72.5304 82 73.0391 82.2107 73.4142 82.5858C73.7893 82.9609 74 83.4696 74 84C74 84.5304 73.7893 85.0391 73.4142 85.4142C73.0391 85.7893 72.5304 86 72 86C70.9391 86 69.9217 85.5786 69.1716 84.8284C68.4214 84.0783 68 83.0609 68 82V76C68 74.9391 68.4214 73.9217 69.1716 73.1716C69.9217 72.4214 70.9391 72 72 72H80C80.5304 72 81.0391 72.2107 81.4142 72.5858C81.7893 72.9609 82 73.4696 82 74C82 74.5304 81.7893 75.0391 81.4142 75.4142C81.0391 75.7893 80.5304 76 80 76ZM84 64C84 65.0609 83.5786 66.0783 82.8284 66.8284C82.0783 67.5786 81.0609 68 80 68H72C70.9391 68 69.9217 67.5786 69.1716 66.8284C68.4214 66.0783 68 65.0609 68 64V58C68 56.9391 68.4214 55.9217 69.1716 55.1716C69.9217 54.4214 70.9391 54 72 54H80C81.0609 54 82.0783 54.4214 82.8284 55.1716C83.5786 55.9217 84 56.9391 84 58V64ZM108 64C108 65.0609 107.579 66.0783 106.828 66.8284C106.078 67.5786 105.061 68 104 68H96C94.9391 68 93.9217 67.5786 93.1716 66.8284C92.4214 66.0783 92 65.0609 92 64V58C92 56.9391 92.4214 55.9217 93.1716 55.1716C93.9217 54.4214 94.9391 54 96 54H104C105.061 54 106.078 54.4214 106.828 55.1716C107.579 55.9217 108 56.9391 108 58V64Z" fill="#2D5275"/>
</svg>
