<svg width="512" height="512" viewBox="0 0 512 512" fill="none" xmlns="http://www.w3.org/2000/svg">
<path d="M504.936 7.13604C495.556 -2.25596 480.336 -2.25596 470.956 7.13604L7.20409 470.888C-2.18391 480.272 -2.18391 495.48 7.20409 504.864C11.8961 509.56 18.0481 511.908 24.1961 511.908C30.3441 511.908 36.4961 509.56 41.1841 504.864L504.936 41.112C514.324 31.728 514.324 16.52 504.936 7.13604Z" fill="#2D5275"/>
<path d="M114.144 0.256104C51.208 0.256104 0 51.4681 0 114.404C0 177.34 51.208 228.548 114.144 228.548C177.084 228.548 228.288 177.336 228.288 114.4C228.288 51.4641 177.08 0.256104 114.144 0.256104ZM114.144 180.484C77.704 180.484 48.06 150.836 48.06 114.4C48.06 77.9641 77.708 48.3161 114.144 48.3161C150.584 48.3161 180.228 77.9641 180.228 114.4C180.228 150.836 150.584 180.484 114.144 180.484Z" fill="#2D5275"/>
<path d="M397.856 283.596C334.92 283.596 283.712 334.804 283.712 397.74C283.712 460.676 334.92 511.884 397.856 511.884C460.792 511.884 512 460.68 512 397.74C512 334.8 460.792 283.596 397.856 283.596ZM397.856 463.82C361.416 463.82 331.772 434.172 331.772 397.736C331.772 361.3 361.42 331.652 397.856 331.652C434.292 331.652 463.94 361.3 463.94 397.736C463.94 434.172 434.296 463.82 397.856 463.82Z" fill="#2D5275"/>
</svg>
