<svg width="286" height="300" viewBox="0 0 286 300" fill="none" xmlns="http://www.w3.org/2000/svg">
<g clip-path="url(#clip0)">
<mask id="mask0" mask-type="alpha" maskUnits="userSpaceOnUse" x="0" y="0" width="125" height="192">
<path d="M0 0.665039H124.934V191.315H0V0.665039Z" fill="white"/>
</mask>
<g mask="url(#mask0)">
<path fill-rule="evenodd" clip-rule="evenodd" d="M25.0877 77.2837C25.9635 75.7162 27.2691 73.6757 29.0106 71.1361C30.7522 68.6219 33.2757 66.1322 36.5973 63.6896C39.8937 61.2538 44.0784 59.1567 49.1409 57.4205C54.1914 55.667 60.4638 54.7886 67.9568 54.7886C74.5714 54.7886 81.6286 55.891 89.1189 58.0631C96.612 60.2471 103.405 64.7401 109.508 71.5322C111.078 73.4511 112.773 75.766 114.609 78.4584C116.435 81.166 118.129 84.4837 119.706 88.4006C121.273 92.3262 122.528 96.9534 123.492 102.259C124.451 107.584 124.934 113.813 124.934 120.966C124.934 133.697 123.666 143.757 121.142 151.173C118.606 158.585 115.69 164.471 112.381 168.826C107.155 176.323 100.454 181.947 92.2625 185.686C84.0684 189.443 75.4472 191.316 66.3807 191.316C63.2492 191.316 58.9807 190.88 53.5748 190.001C48.1781 189.144 42.6917 186.785 37.1083 182.953C33.4532 180.51 30.7522 178.161 29.0106 175.884C27.2691 173.628 25.7017 171.528 24.3023 169.609L23.7914 189.49H0L0.530233 165.941V0.665039H25.0877V77.2837ZM98.7934 122.533C98.7934 119.231 98.4844 114.726 97.8804 109.064C97.2757 103.397 95.7083 97.782 93.194 92.1953C90.6764 86.6092 86.9847 81.7767 82.1209 77.673C77.2664 73.5913 70.5834 71.5322 62.0744 71.5322C55.8213 71.5322 50.5681 72.6192 46.315 74.8039C42.0651 76.9847 38.5442 79.7734 35.7688 83.1694C32.9894 86.584 30.8179 90.3694 29.2631 94.5474C27.6957 98.7322 26.5681 102.751 25.8698 106.575C25.1781 110.419 24.7887 113.896 24.7043 117.04C24.6113 120.181 24.5641 122.449 24.5641 123.848C24.5641 125.234 24.6113 127.456 24.7043 130.506C24.7887 133.563 25.1781 136.922 25.8698 140.586C26.5681 144.24 27.6485 148.029 29.1229 151.955C30.6027 155.88 32.6811 159.405 35.3761 162.548C38.0711 165.682 41.4983 168.303 45.6638 170.391C49.8299 172.478 54.9455 173.534 61.0306 173.534C68.4957 173.534 74.7023 171.873 79.6531 168.561C84.6007 165.253 88.4678 161.065 91.2346 156.011C94.0133 150.955 95.9701 145.464 97.0977 139.533C98.2259 133.6 98.7934 127.942 98.7934 122.533Z" fill="#3C3C3B"/>
</g>
<mask id="mask1" mask-type="alpha" maskUnits="userSpaceOnUse" x="0" y="0" width="286" height="297">
<path d="M0 296.462H285.639V0.665039H0V296.462Z" fill="white"/>
</mask>
<g mask="url(#mask1)">
<path fill-rule="evenodd" clip-rule="evenodd" d="M134.338 189.483H158.902V58.1963H134.338V189.483Z" fill="#3C3C3B"/>
<path fill-rule="evenodd" clip-rule="evenodd" d="M170.928 73.3624L170.666 58.1982H195.233L195.492 79.3883C196.18 77.9856 197.368 75.9736 199.025 73.3624C200.677 70.7511 203.116 68.1311 206.341 65.5198C209.566 62.8999 213.703 60.5976 218.754 58.5909C223.805 56.5843 230.077 55.5776 237.573 55.5776C240.532 55.5776 244.671 56.0175 249.983 56.8833C255.295 57.759 260.57 59.7185 265.798 62.769C271.026 65.8188 275.556 70.3119 279.395 76.2441C283.215 82.167 285.134 90.1962 285.134 100.304V189.485H260.047V106.059C260.047 101.703 259.61 97.6089 258.744 93.767C257.865 89.9225 255.959 86.5291 252.996 83.563C249.852 80.5969 246.237 78.3816 242.147 76.8952C238.053 75.4122 233.918 74.6773 229.73 74.6773C225.194 74.6773 220.888 75.4627 216.798 77.0268C212.697 78.6029 209.079 81.0361 205.952 84.3484C202.808 87.6574 200.281 91.7604 198.374 96.6368C196.455 101.525 195.492 107.28 195.492 113.901V189.485H170.928V73.3624Z" fill="#3C3C3B"/>
<path fill-rule="evenodd" clip-rule="evenodd" d="M131.716 30.7003H161.249V1.17871H131.716V30.7003Z" fill="#FF6600"/>
<path fill-rule="evenodd" clip-rule="evenodd" d="M54.4798 237.118C54.1994 237.096 53.8911 237.077 53.5516 237.064C53.2147 237.052 52.8812 237.048 52.5542 237.048C51.8778 237.048 51.3642 237.124 51.0154 237.276C50.6632 237.429 50.4014 237.626 50.2267 237.872C50.0526 238.118 49.9529 238.392 49.9277 238.694C49.9057 238.999 49.8938 239.302 49.8938 239.604V242.373H53.9908V244.757H49.8938V259.962H46.6373V244.757H43.1729V242.373H46.6373V240.377C46.6373 239.769 46.6499 239.248 46.6719 238.816C46.6938 238.385 46.731 238.012 46.7775 237.697C46.8247 237.382 46.8991 237.108 47.0047 236.874C47.1111 236.638 47.2327 236.404 47.3729 236.173C47.7469 235.609 48.2891 235.151 49.0021 234.787C49.713 234.429 50.6413 234.245 51.7848 234.245C52.2519 234.245 52.729 234.276 53.2207 234.335C53.7104 234.391 54.131 234.444 54.4798 234.491V237.118Z" fill="#3C3C3B"/>
<path fill-rule="evenodd" clip-rule="evenodd" d="M56.6855 245.947C56.6855 245.34 56.6669 244.739 56.6323 244.143C56.5984 243.549 56.5579 242.959 56.5107 242.373H59.8357L59.9074 245.773C60.0689 245.165 60.3094 244.652 60.6237 244.23C60.9386 243.81 61.2968 243.468 61.6928 243.199C62.0881 242.928 62.4994 242.725 62.9167 242.585C63.3373 242.442 63.7333 242.349 64.1068 242.302C64.5998 242.233 65.0297 242.199 65.4031 242.199C65.7772 242.199 66.1041 242.212 66.3845 242.233V245.458C66.2443 245.408 66.0323 245.361 65.7553 245.315C65.637 245.294 65.4968 245.28 65.3347 245.28H64.8084C63.8297 245.28 63.0257 245.418 62.4091 245.686C61.7925 245.954 61.3061 246.327 60.9573 246.804C60.6084 247.288 60.3619 247.851 60.2217 248.506C60.0815 249.16 60.0131 249.861 60.0131 250.609V259.962H56.6855V245.947Z" fill="#3C3C3B"/>
<path fill-rule="evenodd" clip-rule="evenodd" d="M67.9873 251.38C67.9873 250.304 68.1275 249.207 68.4079 248.086C68.6883 246.964 69.1714 245.948 69.8597 245.039C70.5481 244.126 71.4644 243.378 72.6106 242.795C73.7547 242.213 75.1873 241.92 76.9169 241.92C78.6644 241.92 80.1009 242.229 81.2225 242.849C82.3415 243.469 83.2232 244.235 83.865 245.158C84.5069 246.083 84.9461 247.083 85.18 248.154C85.4132 249.23 85.5288 250.223 85.5288 251.133C85.5288 252.417 85.3481 253.632 84.9866 254.776C84.6252 255.922 84.0763 256.919 83.3415 257.773C82.6059 258.627 81.6777 259.302 80.5561 259.805C79.4371 260.306 78.1288 260.558 76.6365 260.558C75.1873 260.558 73.9229 260.318 72.8351 259.838C71.7514 259.362 70.8478 258.71 70.1248 257.898C69.3986 257.078 68.8624 256.109 68.5135 254.987C68.1614 253.869 67.9873 252.663 67.9873 251.38ZM71.4205 251.168C71.4205 252.081 71.5169 252.95 71.7169 253.778C71.9162 254.607 72.2305 255.343 72.6611 255.985C73.0943 256.629 73.6425 257.14 74.3056 257.527C74.9727 257.913 75.7733 258.106 76.7049 258.106C77.3341 258.106 77.9667 257.982 78.5959 257.738C79.2258 257.492 79.7926 257.094 80.2943 256.548C80.7959 255.997 81.2099 255.274 81.5375 254.374C81.8644 253.476 82.0265 252.358 82.0265 251.031C82.0265 248.834 81.5594 247.167 80.6278 246.036C79.693 244.902 78.4557 244.334 76.9169 244.334C76.378 244.334 75.7953 244.438 75.166 244.634C74.5361 244.833 73.9415 245.182 73.3807 245.687C72.8192 246.186 72.3521 246.883 71.9787 247.768C71.6046 248.656 71.4205 249.79 71.4205 251.168Z" fill="#3C3C3B"/>
<path fill-rule="evenodd" clip-rule="evenodd" d="M89.7999 244.723L89.7314 242.376H93.0557V244.931C93.4763 244.234 93.9314 243.682 94.4231 243.286C94.9128 242.887 95.4079 242.591 95.9095 242.392C96.4112 242.192 96.8976 242.065 97.3613 242.008C97.8291 241.949 98.2497 241.918 98.6238 241.918C99.6052 241.918 100.421 242.03 101.076 242.252C101.727 242.473 102.275 242.747 102.721 243.074C103.163 243.404 103.509 243.76 103.752 244.143C103.999 244.529 104.201 244.884 104.366 245.211C104.506 244.978 104.715 244.676 104.995 244.301C105.276 243.928 105.643 243.566 106.098 243.214C106.553 242.865 107.12 242.563 107.796 242.304C108.472 242.046 109.301 241.918 110.283 241.918C110.912 241.918 111.601 241.999 112.349 242.164C113.096 242.329 113.794 242.634 114.448 243.093C115.103 243.547 115.644 244.183 116.078 245C116.511 245.819 116.725 246.869 116.725 248.156V259.962H113.399V248.679C113.399 247.91 113.339 247.331 113.224 246.947C113.106 246.561 112.965 246.252 112.803 246.018C112.523 245.622 112.106 245.264 111.545 244.95C110.983 244.632 110.283 244.476 109.442 244.476C108.906 244.476 108.432 244.548 108.024 244.688C107.615 244.825 107.254 244.99 106.939 245.178C106.624 245.364 106.366 245.564 106.17 245.772C105.97 245.981 105.814 246.168 105.696 246.333C105.51 246.614 105.363 246.928 105.26 247.281C105.154 247.63 105.076 247.988 105.029 248.346C104.983 248.711 104.955 249.05 104.942 249.364C104.93 249.679 104.927 249.929 104.927 250.115V259.962H101.599V248.331C101.599 247.234 101.284 246.315 100.655 245.579C100.026 244.844 99.057 244.476 97.7481 244.476C97.1873 244.476 96.6922 244.551 96.2617 244.704C95.8291 244.856 95.455 245.038 95.1401 245.249C94.8251 245.458 94.564 245.666 94.352 245.878C94.1434 246.087 93.9906 246.264 93.8969 246.404C93.5235 246.916 93.3022 247.502 93.2331 248.156C93.162 248.81 93.1275 249.418 93.1275 249.975V259.962H89.7999V244.723Z" fill="#3C3C3B"/>
<path fill-rule="evenodd" clip-rule="evenodd" d="M275.948 295.801H285.635V286.105H275.948V295.801Z" fill="#FF6600"/>
<path fill-rule="evenodd" clip-rule="evenodd" d="M267.824 242.946L262.072 286.267L256.302 242.946H247.304L255.635 295.801H268.4L276.813 242.946H267.824Z" fill="#FF6600"/>
<path fill-rule="evenodd" clip-rule="evenodd" d="M138.911 242.945H133.929V249.977H138.911V295.804H147.669V249.977H153.819V242.945H147.669V232.199C147.669 230.635 147.993 229.439 148.751 228.613C149.514 227.812 150.673 227.414 152.249 227.414H153.819V220.231H150.651C146.757 220.231 143.011 221.051 141.232 222.752C139.444 224.437 138.911 227.07 138.911 230.834V242.945Z" fill="#FF6600"/>
<path fill-rule="evenodd" clip-rule="evenodd" d="M156.565 295.801H165.349V242.953H156.565V295.801Z" fill="#FF6600"/>
<path fill-rule="evenodd" clip-rule="evenodd" d="M205.885 272.37H224.181V256.084C224.159 246.332 219.485 242.341 210.615 242.341C201.386 242.341 197.062 246.323 197.062 256.146V282.907C197.087 291.849 202.492 296.454 210.615 296.454C218.729 296.454 224.159 292.659 224.181 282.907V278.686H215.709L215.719 283.689C215.719 287.266 214.382 289.74 210.78 289.74C207.197 289.74 205.885 287.251 205.885 283.68V272.37ZM205.885 254.324C205.885 251.342 206.648 248.258 210.764 248.258C214.865 248.258 215.7 251.302 215.7 254.318V265.244H205.885V254.324Z" fill="#FF6600"/>
<path fill-rule="evenodd" clip-rule="evenodd" d="M185.092 265.757C178.471 259.917 177.907 259.123 177.907 254.814C177.907 251.137 178.225 248.903 181.531 248.903C184.821 248.903 185.257 251.106 185.257 254.852V259.734H193.716V251.773C193.691 245.523 188.89 242.351 181.34 242.351C173.91 242.351 169.071 244.816 169.03 254.814C169.021 256.515 169.03 256.515 169.03 255.861C169.036 258.998 169.052 263.974 176.811 270.639L179.035 272.549C184.759 277.375 185.388 277.957 185.363 283.69C185.353 287.23 185.132 289.912 181.428 289.912C177.717 289.912 177.477 287.208 177.477 285.535V278.783H168.601V285.765C168.601 294.34 174.181 296.462 181.422 296.462C188.653 296.462 194.24 294.324 194.24 283.276V282.363C194.224 274.642 192.831 272.574 185.092 265.757Z" fill="#FF6600"/>
<path fill-rule="evenodd" clip-rule="evenodd" d="M235.942 248.391V242.942H227.938V295.8H236.572V258.969C236.572 256.122 237.501 254.243 239.105 253.139C240.647 252.084 242.522 251.726 244.916 251.691V242.341C240.329 242.434 238.36 243.34 236.029 248.198L235.942 248.391Z" fill="#FF6600"/>
</g>
</g>
<defs>
<clipPath id="clip0">
<rect width="285.714" height="300" fill="white"/>
</clipPath>
</defs>
</svg>
