<svg width="100" height="35" viewBox="0 0 100 35" fill="none" xmlns="http://www.w3.org/2000/svg">
<g clip-path="url(#clip0)">
<path d="M66.35 1.58109C66.0516 1.58122 65.7562 1.64017 65.4805 1.75456C65.2049 1.86895 64.9546 2.03655 64.7438 2.24776C64.3271 2.66442 64.0771 3.25296 64.0771 3.85713V31.329C64.0771 31.9332 64.3167 32.5113 64.7438 32.9384C64.9547 33.1496 65.2051 33.3171 65.4808 33.4314C65.7566 33.5457 66.0521 33.6045 66.3505 33.6045C66.649 33.6045 66.9445 33.5457 67.2202 33.4314C67.4959 33.3171 67.7464 33.1496 67.9573 32.9384C68.374 32.5217 68.624 31.9332 68.624 31.329V3.85609C68.624 3.25192 68.3844 2.6738 67.9573 2.24671C67.7464 2.03538 67.4959 1.86772 67.2201 1.75332C66.9443 1.63893 66.6486 1.58005 66.35 1.58005V1.58109ZM31.7229 11.2644C31.7229 10.0082 30.7052 8.98942 29.4521 8.98942C28.199 8.98942 27.1813 10.0082 27.1813 11.2644V31.3269C27.1813 32.5832 28.199 33.6019 29.4521 33.6019C30.7052 33.6019 31.7229 32.5832 31.7229 31.3269V11.2644Z" fill="#5A646E"/>
<path d="M32.3645 3.86027C32.3498 4.62349 32.0364 5.35051 31.4916 5.88527C30.9468 6.41964 30.2145 6.7186 29.4521 6.7186C28.6896 6.7186 27.9573 6.4186 27.4125 5.88527C26.8677 5.35051 26.5543 4.62349 26.5396 3.86027C26.5392 3.08685 26.8461 2.34496 27.3927 1.79777C27.9375 1.2509 28.6771 0.943604 29.451 0.943604C30.225 0.943604 30.9645 1.2509 31.5104 1.79777C32.057 2.34496 32.3638 3.08685 32.3635 3.86027H32.3645Z" fill="#00AEEF"/>
<path d="M59.9709 16.2498C57.7875 11.3061 52.6219 7.81234 46.7282 8.41651C44.7411 8.62655 42.8297 9.29399 41.1438 10.3665C39.4572 11.4397 38.0418 12.8886 37.0084 14.5998C35.9744 16.312 35.3502 18.2399 35.1844 20.2332C35.0177 22.2269 35.3156 24.2332 36.0521 26.0915C36.7884 27.9504 37.9446 29.6139 39.4302 30.9519C40.9155 32.289 42.6898 33.2644 44.6146 33.8019C46.5386 34.3394 48.5729 34.4228 50.524 34.0467C52.475 33.6707 54.3344 32.8457 55.925 31.6353C56.1924 31.4302 56.4106 31.1679 56.5636 30.8675C56.7167 30.5675 56.8011 30.2363 56.8094 29.8988C56.8265 29.3003 56.6055 28.7194 56.1948 28.2837C55.784 27.848 55.2173 27.5931 54.6188 27.5748C54.1045 27.5584 53.6 27.7186 53.1896 28.029C51.6162 29.244 49.6604 29.8566 47.675 29.7561C46.0604 29.6728 44.5021 29.128 43.1959 28.1884C41.8783 27.2485 40.856 25.9523 40.249 24.4519C40.1662 24.2497 40.1611 24.0239 40.2348 23.8182C40.3085 23.6124 40.4556 23.4411 40.6479 23.3373C40.7754 23.2689 40.9178 23.2331 41.0625 23.2332H56.8386C57.3427 23.2353 57.8427 23.1373 58.3094 22.9457C58.7761 22.754 59.2 22.4717 59.5573 22.1155C59.9146 21.7592 60.199 21.3363 60.3927 20.8696C60.5866 20.4035 60.6868 19.9037 60.6875 19.3988C60.6563 18.3155 60.4167 17.2467 59.9854 16.253L59.9709 16.2498ZM48.0698 12.8623C49.7588 12.8628 51.4088 13.3701 52.8063 14.3186C54.2046 15.2682 55.286 16.6155 55.9104 18.1863C55.9632 18.3203 55.9828 18.465 55.9677 18.6082C55.9521 18.7512 55.9018 18.8883 55.8212 19.0076C55.7406 19.1269 55.6321 19.2247 55.5052 19.2925C55.3781 19.3603 55.2365 19.3967 55.0927 19.3967H41.0459C40.9018 19.3969 40.76 19.3611 40.6334 19.2925C40.5063 19.2238 40.3979 19.1259 40.3167 19.0082C40.2354 18.8905 40.1854 18.7519 40.1709 18.6082C40.1558 18.465 40.1754 18.3203 40.2281 18.1863C40.8526 16.6155 41.934 15.2682 43.3323 14.3186C44.7302 13.3811 46.3802 12.8623 48.0688 12.8623H48.0698ZM84.9688 29.7644C83.3495 29.7648 81.7644 29.2986 80.4031 28.4217C79.0417 27.5446 77.9604 26.2936 77.2781 24.8175C76.6068 23.342 76.3736 21.7047 76.6063 20.1004C76.839 18.4962 77.5278 16.9926 78.5906 15.7686L75.1532 12.8342C74.0403 14.1267 73.1941 15.6267 72.6636 17.2478C72.1317 18.8688 71.9246 20.5789 72.0542 22.28C72.1834 23.9811 72.6479 25.6405 73.4084 27.1623C74.1794 28.6835 75.2431 30.0375 76.5386 31.1467C77.8334 32.2561 79.3344 33.0978 80.9552 33.6259C82.5757 34.1536 84.2846 34.3554 85.9834 34.2196C87.6813 34.0842 89.3375 33.6134 90.8542 32.8342C92.3712 32.056 93.7196 30.9859 94.8219 29.6853L91.3844 26.7519C90.5934 27.6958 89.6048 28.4547 88.4886 28.9748C87.3719 29.4957 86.1573 29.7644 84.9261 29.7634L84.9688 29.7644Z" fill="#5A646E"/>
<path d="M84.9688 8.33942C83.1094 8.33734 81.2709 8.73734 79.5834 9.5113C77.8924 10.2859 76.3887 11.4165 75.175 12.8259L78.6021 15.7603C80.0626 14.0759 82.1282 13.0384 84.349 12.8748C86.5698 12.7113 88.7657 13.43 90.4584 14.88C92.1511 16.33 93.2021 18.3905 93.3855 20.6123C93.567 22.8344 92.864 25.0382 91.4292 26.7446L94.8563 29.678C96.45 27.7905 97.474 25.4863 97.8042 23.0363C98.1342 20.5863 97.7576 18.0931 96.7188 15.8498C95.6804 13.6076 94.0225 11.7091 91.9407 10.378C89.8542 9.05609 87.4376 8.33942 84.9688 8.33942Z" fill="#00AEEF"/>
<path d="M22.9938 28.1311C22.6021 27.7915 22.1063 27.5957 21.5875 27.577C21.0688 27.5582 20.5615 27.7176 20.1469 28.028C18.8969 28.9842 17.4052 29.5717 15.8396 29.7238C14.274 29.8759 12.6969 29.5884 11.2875 28.8905C9.87814 28.1926 8.68959 27.1155 7.8573 25.779C7.02534 24.4419 6.58317 22.8991 6.5806 21.3243C6.57802 19.7495 7.01513 18.2053 7.84272 16.8655C8.66964 15.5267 9.85407 14.4454 11.2625 13.7436C12.6708 13.0426 14.2469 12.7488 15.8125 12.8957C17.3781 13.0426 18.8719 13.6249 20.125 14.578C20.5353 14.8942 21.0417 15.06 21.5596 15.0474C22.0774 15.0349 22.5753 14.8449 22.9698 14.5092C23.225 14.2905 23.4281 14.0197 23.5636 13.7145C23.699 13.4092 23.7677 13.0759 23.7615 12.7405C23.7552 12.4051 23.6719 12.0759 23.5219 11.777C23.3719 11.478 23.1552 11.2145 22.8917 11.0103C20.9726 9.54126 18.6805 8.63913 16.275 8.40612C13.8688 8.17278 11.4479 8.61862 9.2823 9.69258C7.11668 10.7665 5.29584 12.429 4.02293 14.4853C2.75001 16.5415 2.07813 18.9155 2.08334 21.3342C2.08855 23.753 2.76772 26.1238 4.04688 28.1759C5.32605 30.228 7.15314 31.8811 9.32189 32.9467C11.4906 34.0124 13.9156 34.4509 16.3188 34.2103C18.7232 33.9692 21.0121 33.0595 22.9261 31.5842C23.1862 31.3802 23.3977 31.1209 23.5452 30.8251C23.6928 30.5293 23.7727 30.2043 23.7792 29.8738C23.7858 29.5434 23.7189 29.2156 23.5832 28.9142C23.4476 28.6127 23.2466 28.3453 22.9948 28.1311H22.9938Z" fill="#5A646E"/>
</g>
<defs>
<clipPath id="clip0">
<rect width="100" height="33.3333" fill="white" transform="translate(0 0.943604)"/>
</clipPath>
</defs>
</svg>
