<svg width="869" height="182" viewBox="0 0 869 182" fill="none" xmlns="http://www.w3.org/2000/svg">
<path fill-rule="evenodd" clip-rule="evenodd" d="M260.145 97.6914C270.133 89.3203 270.02 74.1289 263.164 69.7656C256.309 65.4023 240.805 68.8828 235.754 81.3672C230.707 93.8516 230.297 101.461 227.535 108.254C233.316 107.828 250.152 106.062 260.145 97.6914ZM194.781 145.777C204.586 115.992 213.926 85.7695 220.973 54.5938C226.473 54.5938 232.746 54.7266 238.242 54.7266L236.168 66.4961C250.125 57.4414 259.316 55.0938 268.469 55.8438C301.562 58.5469 283.77 102.027 266.281 112.477C256.02 118.613 242.117 121.348 222.914 118.617C220.648 127.672 218.387 136.727 216.125 145.777C209.008 145.777 201.895 145.777 194.781 145.777Z" fill="#221F20"/>
<path fill-rule="evenodd" clip-rule="evenodd" d="M319.277 76.9727C310.59 85.3398 310.688 100.535 316.652 104.898C322.613 109.262 336.102 105.781 340.492 93.2969C344.887 80.8164 345.242 73.2031 347.645 66.4102C342.617 66.8359 327.965 68.6055 319.277 76.9727ZM356.57 120.246C350.344 120.246 344.898 120.375 338.676 120.375L339.836 106.887C327.039 118.98 306.297 126.973 296.781 115.578C283.746 97.7695 296.094 74.6094 310.785 65.0977C327.09 54.5352 348.738 55.082 370.313 54.625C362.59 76.0898 357.402 98.0977 356.57 120.246Z" fill="#221F20"/>
<path fill-rule="evenodd" clip-rule="evenodd" d="M396.465 76.9727C387.773 85.3398 387.871 100.535 393.836 104.898C399.801 109.262 413.289 105.781 417.68 93.2969C422.074 80.8164 422.43 73.2031 424.832 66.4102C419.805 66.8359 405.156 68.6055 396.465 76.9727ZM363.66 146.281L366.793 129.637C380.699 134.141 392.773 136.309 401.844 131.758C408.898 128.219 414.145 120.613 417.023 106.887C404.23 118.98 383.484 126.973 373.973 115.578C360.934 97.7695 373.281 74.6094 387.973 65.0977C404.277 54.5352 425.93 55.082 447.504 54.625C440.82 73.1914 440.695 102.324 431.824 123.055C427.145 134 419.273 141.027 409.855 145.051C396.086 150.926 378.996 150.387 363.66 146.281Z" fill="#221F20"/>
<path fill-rule="evenodd" clip-rule="evenodd" d="M610.191 76.9727C601.508 85.3398 601.602 100.535 607.562 104.898C613.531 109.262 627.016 105.781 631.41 93.2969C635.801 80.8164 636.156 73.2031 638.562 66.4102C633.531 66.8359 618.883 68.6055 610.191 76.9727ZM450.809 103.891C448.73 108.379 446.398 113.129 444.328 117.617C469.633 123.125 489.008 119.801 496.648 111.66C504.113 102.453 502.863 92.0313 489.914 84.4609C487.156 82.543 479.352 78.6758 479.555 74.1016C479.922 63.6914 495.75 66.168 505.465 69.1797L508.562 54.9297C501.773 53.3555 493.152 52.8867 486.227 53.5664C477.797 54.3906 468.723 58.0352 461.688 65.0313C456.223 70.707 455.098 78.3516 457.098 83.0039C459.5 88.5859 467.293 90.9297 471.27 93.2617C477.918 96.3594 481.879 98.6992 480.75 103.406C479.805 107.363 474.984 110.598 466.363 109.059C461.008 108.102 454.75 106.195 450.809 103.891ZM534.082 82.1328C537.207 75.2148 542.496 68.2188 553.25 66.8477C561.715 66.0273 562.617 74.9492 557.645 78.3828C548.613 82.2734 547.605 76.9375 534.082 82.1328ZM569.176 105.184C568.66 109.5 567.102 113.816 566.59 118.137C546.473 120.898 524.887 125.555 513.746 109.848C502.215 87.6133 518.848 67.2461 533.43 59.5977C559.035 48.1133 576.816 53.9609 580.574 65.2969C588.164 85.1758 564.691 98.293 530.84 94.3047C527.312 111.59 544.973 111.332 569.176 105.184ZM675.375 54.4141C681.59 54.5898 687.809 54.7617 694.023 54.9336C690.738 68.7461 685.387 82.043 682.109 95.8594C677.25 112.664 697.289 110.918 705.938 100.52C713.637 86.9844 717.082 70.7383 722 54.4141C728.215 54.4141 734.43 54.4141 740.648 54.4141C733.609 76 727.477 97.5859 724.586 119.172C719.062 118.824 712.496 118.48 706.977 118.137C707.148 114.68 707.316 111.227 707.492 107.773C688.809 124.938 658.055 129.469 661.902 100.52C664.113 85.1523 670.352 69.7852 675.375 54.4141ZM735.984 118.137C744.316 96.9766 749.922 69.9727 754.113 54.9336H769.141L768.617 68.4023C775.18 59.3398 787.098 54.332 799.188 54.9336L793.488 72.0313C778.461 70.0586 767.867 82.082 762.012 101.953C760.52 107.016 759.328 112.59 758.461 118.566L735.984 118.137ZM812.66 62.9648C793.66 75.6953 786.039 97.1523 795.648 110.883C805.254 124.613 828.449 125.426 847.441 112.695C866.441 99.9688 874.059 78.5078 864.461 64.7773C854.852 51.0469 831.66 50.2344 812.66 62.9648ZM818.125 82.4922C811.992 93.457 812.762 105.09 819.848 108.469C826.934 111.844 837.648 105.691 843.789 94.7227C849.926 83.7578 849.156 72.1289 842.07 68.7461C834.984 65.3711 824.262 71.5234 818.125 82.4922ZM577.391 146.281L580.52 129.637C594.426 134.141 606.5 136.309 615.57 131.758C622.625 128.219 627.871 120.613 630.746 106.887C617.953 118.98 597.211 126.973 587.699 115.578C574.66 97.7695 587.012 74.6094 601.699 65.0977C618.004 54.5352 639.656 55.082 661.23 54.625C654.547 73.1914 654.426 102.324 645.551 123.055C640.867 134 633.004 141.027 623.586 145.051C609.812 150.926 592.723 150.387 577.391 146.281Z" fill="#A5CE39"/>
<path fill-rule="evenodd" clip-rule="evenodd" d="M21.0312 31.5625C14.5547 39.1758 9.67188 47.8359 6.09766 57.3086C2.34766 67.1602 0.34375 77.2852 0.34375 88.082C0.34375 100.316 2.95313 111.648 7.44141 122.355C11.9102 132.984 18.0195 142.121 26.0625 150.148C33.8867 157.973 43.0547 164.23 53.6523 168.785C64.2461 173.41 75.7656 175.957 87.7109 175.957C99.8633 175.957 111.195 173.52 121.98 168.785C132.301 164.281 141.613 158.121 149.57 150.148C157.453 142.254 163.531 132.93 167.902 122.355C172.488 111.539 175.09 100.316 175.09 88.082C175.09 77.2852 173.066 67.1602 169.328 57.3086C165.672 47.8359 160.828 39.3633 154.395 31.5625C147.957 23.9297 140.508 17.6133 132.066 12.7305C118.809 5.07812 105.133 0.5 89.2812 0.5C88.5117 0.5 87.7617 0.5 87.0078 0.5C71.3633 0.5 57.0312 4.98047 43.5547 12.7305C35.0234 17.5781 27.4961 23.9609 21.0312 31.5625Z" fill="#221F20"/>
<path fill-rule="evenodd" clip-rule="evenodd" d="M808.367 150.145C810.586 150.145 812.352 150.855 813.66 152.434C814.992 153.934 815.707 155.875 815.707 158.434C815.707 160.809 814.992 162.852 813.66 164.27C812.352 165.742 810.586 166.453 808.367 166.453C806.187 166.453 804.5 165.773 803.188 164.27C801.77 162.852 801.145 160.809 801.145 158.434C801.145 155.875 801.77 153.934 803.188 152.434C804.5 150.855 806.187 150.145 808.367 150.145ZM808.367 135.691C805.129 135.691 802.133 136.207 799.289 137.355C796.48 138.508 794.004 140.078 791.902 142.211C789.777 144.336 788.113 146.711 787.047 149.438C785.898 152.191 785.387 155.191 785.387 158.434C785.387 161.516 785.898 164.516 787.047 167.27C788.113 169.887 789.777 172.375 791.902 174.5C794.113 176.516 796.566 178.18 799.402 179.324C802.133 180.387 805.211 181.012 808.367 181.012C811.648 181.012 814.562 180.387 817.484 179.324C820.207 178.18 822.742 176.516 824.871 174.5C827.074 172.375 828.66 169.887 829.809 167.156C830.953 164.434 831.496 161.52 831.496 158.434C831.496 155.191 830.953 152.191 829.809 149.438C828.746 146.711 827.16 144.336 824.949 142.211C822.855 140.078 820.285 138.508 817.484 137.355C814.648 136.207 811.648 135.691 808.367 135.691Z" fill="#221F20"/>
<path fill-rule="evenodd" clip-rule="evenodd" d="M778.242 167.707C778.598 165.656 778.75 163.125 778.75 160.02V136.641H763.238V160.207C763.238 162.852 762.965 164.707 762.262 165.855C761.555 166.918 760.516 167.434 758.902 167.434C757.32 167.434 756.266 166.918 755.578 165.855C754.949 164.867 754.594 162.938 754.594 160.207V136.641H739.168V160.02C739.078 163.289 739.348 165.773 739.703 167.707C740.031 169.727 740.746 171.305 741.535 172.645C743.313 175.363 745.68 177.391 748.68 178.809C751.602 180.309 755.035 181.012 758.902 181.012C762.805 181.012 766.16 180.309 769.133 178.809C772.133 177.391 774.531 175.363 776.191 172.645C777.063 171.305 777.777 169.641 778.242 167.707Z" fill="#221F20"/>
<path fill-rule="evenodd" clip-rule="evenodd" d="M853.535 136.641H838.012V179.867H868.609V165.855H853.535V136.641Z" fill="#221F20"/>
<path fill-rule="evenodd" clip-rule="evenodd" d="M146.09 32.2852C135.266 19.1328 121.262 10.6641 103.977 7.39453C87.0078 4.19922 70.9336 6.75781 55.7148 15.0117C47.8945 19.4062 41.2852 24.8906 35.957 31.3555C30.4766 37.9687 26.2852 45.5742 23.5859 54.1055C20.8125 62.8516 20.1016 72.0312 21.0313 80.9805C23.3047 75.2266 26.7852 69.9492 30.9219 64.9102C36.8828 57.7969 44.2813 52.4687 52.5313 48.5586C60.7656 44.8594 69.8008 42.7969 79.1836 42.5859C88.6289 42.5859 97.8086 44.4297 106.324 48.1367C115.301 51.7656 123.121 57.3086 129.789 64.7031C132.285 67.1914 134.355 70.1719 136.402 73.1602C139.383 73.1602 142.379 73.3672 144.938 74.0898C151.621 75.9336 156.891 79.3437 161.012 84.4648L161.211 81.1875C161.938 72.2305 161.012 63.7734 158.527 55.4531C155.961 47.2031 151.824 39.3828 146.09 32.2852Z" fill="#F3A935"/>
<path fill-rule="evenodd" clip-rule="evenodd" d="M19.1719 115.031C20.3086 121.93 22.3789 128.535 25.8437 134.578C29.0625 140.559 33.4609 146.023 38.9375 150.863L41.7109 153.141C51.1719 159.613 61.2539 164.23 72.2891 166.508C79.4023 167.852 86.5742 167.426 93.4727 165.797C100.789 164.23 107.699 161.246 114.164 156.836C108.187 155.484 102.859 152.277 98.7227 147.449L97.0977 145.605C88.4219 146.527 79.6836 146.246 70.9336 144.469C59.832 141.914 50.2422 137.285 41.2852 130.891C32.75 124.418 25.6523 116.164 20.3086 106.508L18.957 103.723C18.7461 107.422 18.7461 111.324 19.1719 115.031Z" fill="#F3A935"/>
<path fill-rule="evenodd" clip-rule="evenodd" d="M100.996 57.0938C92.9727 53.6094 84.2109 52.0469 75.2695 52.0469C66.5234 52.2539 58.2695 54.1055 50.668 57.7969C43.0547 61.2188 36.457 66.2656 30.9219 72.7383C26.9961 77.5742 23.793 82.8359 21.7422 88.375C23.3047 95.2695 25.8438 101.664 29.5625 108.141C34.8203 117.094 41.7109 124.695 50.2422 130.672C58.4922 136.641 67.9531 140.559 78.0312 142.82C84.2109 143.969 90.6953 144.469 97.0977 144.172C94.6094 140.062 92.9727 135.723 92.2617 130.672C91.4023 125.562 91.6289 120.508 92.5391 115.031C93.6758 108.348 96.1719 102.16 99.6367 96.4023C103.359 90.6445 108.188 85.3867 113.863 81.1875C117.57 78.4961 121.48 76.4336 125.395 74.7891L123.324 72.4453C116.859 65.8398 109.531 60.5039 100.996 57.0938Z" fill="#D94937"/>
<path fill-rule="evenodd" clip-rule="evenodd" d="M162.422 96.4023L160.375 92.9219C157.379 103.297 151.824 112.48 144.727 120.797C143.09 127.684 140.316 133.871 136.699 139.633C132.996 145.316 128.152 150.437 122.617 154.777C126.531 154.984 130.441 154.355 134.355 152.922C138.039 151.574 141.453 149.516 144.938 146.73C149.57 142.402 153.906 137.285 157.598 132.027L158.23 131.105C159.867 127.684 161.512 124.211 162.633 121C163.781 117.52 164.492 114.109 164.711 110.922C164.922 107.422 164.922 104.434 164.281 101.453C163.781 99.6133 163.07 97.9727 162.422 96.4023Z" fill="#EE8A30"/>
<path fill-rule="evenodd" clip-rule="evenodd" d="M11.1289 55.9414C8.14844 64.2109 6.52344 72.9375 6.09766 82.4062C5.88672 94.5469 8.14844 106.285 12.7812 117.316C15.0391 122.563 17.832 127.684 21.2266 132.527C24.5195 137.074 28.1328 141.488 32.25 145.316C23.3047 135.434 18.0195 123.988 16.4141 111.125C15.9766 106.723 15.9766 102.598 16.1914 98.2578C13.2109 89.9258 11.5742 81.6914 11.5742 73.1602C11.5742 65.1328 12.9844 57.3086 15.4805 49.2617C17.6094 43.7305 20.3086 38.4609 23.3047 33.6445C18.0195 40.5352 14.1406 47.9219 11.1289 55.9414Z" fill="#E36B34"/>
<path fill-rule="evenodd" clip-rule="evenodd" d="M168.121 60.7891C166.055 54.1055 163.355 47.6328 159.867 41.6641C156.461 35.9062 152.254 30.6367 147.223 25.8203C142.664 20.9727 137.336 16.8477 131.367 13.3711C136.402 16.8477 141.02 20.9727 145.152 25.5977C151.621 32.9219 156.461 40.7422 159.441 49.4883C162.422 58.4375 163.781 67.6914 163.07 77.2852C162.863 80.2734 162.422 83.0391 161.938 86.0273C163.07 87.875 164.281 90.1445 165.211 92.4922C167.473 99.1797 167.902 106.285 166.766 113.398C170.25 103.527 172.02 93.125 171.809 82.4062C171.379 75.0117 170.25 67.6914 168.121 60.7891Z" fill="#E36B34"/>
<path fill-rule="evenodd" clip-rule="evenodd" d="M141.02 82.6133C143.301 87.4453 144.727 92.7148 145.359 97.9727C146.09 103.297 146.289 108.348 145.863 113.398L144.938 118.449C151.824 110.422 156.461 101.453 159.164 91.0664C157.598 89.5117 155.961 87.875 154.098 86.5312C150.406 83.9648 146.09 82.6133 141.02 82.6133Z" fill="#E36B34"/>
<path fill-rule="evenodd" clip-rule="evenodd" d="M127.242 143.258C130.016 139.34 132.285 135.02 133.922 130.672C124.672 137.285 114.59 141.914 103.566 144.172C105.133 146.73 107.254 148.805 109.531 150.438C111.816 152 114.367 153.141 117.348 154.066C121.055 150.863 124.461 147.16 127.242 143.258Z" fill="#D94937"/>
<path fill-rule="evenodd" clip-rule="evenodd" d="M81.0156 167.852L90.918 168.348C99.4453 168.141 107.461 166.508 115.301 163.941C122.617 161.453 129.789 157.973 135.992 153.633C132.066 155.484 127.945 156.836 123.551 157.043C122.191 157.324 120.551 157.324 118.992 157.324C107.699 164.656 95.0195 168.141 81.0156 167.852Z" fill="#D94937"/>
<path fill-rule="evenodd" clip-rule="evenodd" d="M135.766 101.238C134.355 95.2695 132.285 89.7344 129.305 84.4648C124.035 86.0273 119.414 88.8047 115.074 92.4922C110.457 96.4023 106.551 101.238 103.566 106.723C100.996 112.254 99.4453 117.52 98.9453 123.059C98.3086 128.32 98.9453 133.164 100.363 137.781C100.996 139.34 101.5 140.762 102.434 142.121C108.187 141.488 113.441 139.844 118.711 137.566C124.242 135.434 129.305 132.527 134.133 128.832L134.559 128.535C135.492 125.121 136.199 121.645 136.699 118.219C137.109 112.48 136.902 106.992 135.766 101.238Z" fill="#FBE638"/>
</svg>
