<svg width="1000" height="1000" viewBox="0 0 1000 1000" fill="none" xmlns="http://www.w3.org/2000/svg">
<g clip-path="url(#clip0)">
<path d="M146.553 344.345H857.536V861.587H146.553V344.345Z" fill="#95A5A5"/>
<path d="M793.106 374.52H913.795V825.676H793.106V374.52Z" fill="#D1D4D1"/>
<path d="M206.894 817.643H86.2046V390.312H206.894V817.643Z" fill="#D1D4D1"/>
<path d="M758.621 335.724H948.273V378.83C948.273 397.873 932.838 413.307 913.795 413.307H793.106C774.055 413.307 758.621 397.873 758.621 378.83V335.724Z" fill="#BDC3C7"/>
<path d="M793.106 792.617H913.795C932.838 792.617 948.273 808.059 948.273 827.102V870.208H758.621V827.102C758.621 808.059 774.055 792.617 793.106 792.617Z" fill="#BDC3C7"/>
<path d="M206.894 413.307H86.2045C67.1616 413.307 51.7273 397.873 51.7273 378.83V335.724H241.379V378.83C241.379 397.873 225.945 413.307 206.894 413.307Z" fill="#BDC3C7"/>
<path d="M241.379 870.208H51.7273V827.102C51.7273 808.059 67.1616 792.617 86.2045 792.617H206.894C225.945 792.617 241.379 808.059 241.379 827.102V870.208Z" fill="#BDC3C7"/>
<path d="M34.4849 252.968H982.758V327.103C982.758 336.624 975.037 344.345 965.515 344.345H51.7273C42.2058 344.345 34.4849 336.624 34.4849 327.103V252.968Z" fill="#285680"/>
<path d="M51.7273 861.588H965.515C975.037 861.588 982.758 869.309 982.758 878.83V965.035H34.4849V878.83C34.4849 869.309 42.2058 861.588 51.7273 861.588V861.588Z" fill="#285680"/>
<path d="M982.758 275.383H17.2424C7.72096 275.383 8.91407e-06 267.662 8.91407e-06 258.141V167.397C-0.00762048 159.859 4.88282 153.191 12.0697 150.932L484.673 4.28005C494.659 1.17488 505.341 1.17488 515.327 4.28005L987.93 150.932C995.117 153.191 1000.01 159.859 1000 167.397V258.141C1000 267.662 992.279 275.383 982.758 275.383V275.383Z" fill="#4482C3"/>
<path d="M68.9622 206.413V205.497L494.827 73.3106C498.154 72.2806 501.709 72.2806 505.035 73.3106L931.038 205.497V206.413H68.9622Z" fill="#285680"/>
<path d="M689.652 602.967C689.652 707.711 604.744 792.618 500 792.618C395.256 792.618 310.349 707.711 310.349 602.967C310.349 498.223 395.256 413.308 500 413.308C604.744 413.308 689.652 498.223 689.652 602.967Z" fill="#7ED09E"/>
<path d="M500 620.209C461.914 620.209 431.038 589.333 431.038 551.239C431.038 513.154 461.914 482.277 500 482.277C538.086 482.277 568.962 513.154 568.962 551.239C568.962 560.761 561.249 568.482 551.727 568.482C542.206 568.482 534.485 560.761 534.485 551.239C534.485 532.196 519.043 516.762 500 516.762C480.957 516.762 465.515 532.196 465.515 551.239C465.515 570.29 480.957 585.724 500 585.724C509.521 585.724 517.242 593.445 517.242 602.967C517.242 612.488 509.521 620.209 500 620.209Z" fill="#24AE5F"/>
<path d="M500 723.655C461.914 723.655 431.038 692.779 431.038 654.693C431.038 645.164 438.751 637.451 448.273 637.451C457.802 637.451 465.515 645.164 465.515 654.693C465.515 673.736 480.957 689.171 500 689.171C519.043 689.171 534.485 673.736 534.485 654.693C534.485 635.643 519.043 620.208 500 620.208C490.478 620.208 482.758 612.488 482.758 602.966C482.758 593.445 490.478 585.724 500 585.724C538.086 585.724 568.962 616.6 568.962 654.693C568.962 692.779 538.086 723.655 500 723.655V723.655Z" fill="#24AE5F"/>
<path d="M500 740.898C490.479 740.898 482.758 733.177 482.758 723.655V482.277C482.758 472.755 490.479 465.034 500 465.034C509.521 465.034 517.242 472.755 517.242 482.277V723.655C517.242 733.177 509.521 740.898 500 740.898Z" fill="#24AE5F"/>
<path d="M17.2424 930.55H982.758C992.279 930.55 1000 938.271 1000 947.792V982.277C1000 991.799 992.279 999.52 982.758 999.52H17.2424C7.72095 999.52 0 991.799 0 982.277V947.792C0 938.271 7.72095 930.55 17.2424 930.55Z" fill="#4482C3"/>
</g>
<defs>
<clipPath id="clip0">
<rect width="1000" height="1000" fill="white"/>
</clipPath>
</defs>
</svg>
