<svg width="128" height="128" viewBox="0 0 128 128" fill="none" xmlns="http://www.w3.org/2000/svg">
<g clip-path="url(#clip0)">
<path d="M124.718 103.847L24.4041 3.53278C20.0291 -0.842185 12.9362 -0.842185 8.56809 3.53278L3.28122 8.81145C-1.09374 13.1878 -1.09374 20.2807 3.28122 24.6488L103.595 124.963C107.971 129.338 115.064 129.338 119.432 124.963L124.711 119.684C129.094 115.316 129.094 108.222 124.718 103.847V103.847Z" fill="#f44336"/>
<path d="M103.595 3.53278L3.28122 103.847C-1.09374 108.222 -1.09374 115.316 3.28122 119.684L8.55989 124.963C12.9362 129.338 20.0291 129.338 24.3973 124.963L124.718 24.6556C129.094 20.2807 129.094 13.1878 124.718 8.81965L119.439 3.54098C115.064 -0.842187 107.971 -0.842187 103.595 3.53278V3.53278Z" fill="#f44336"/>
</g>
<defs>
<clipPath id="clip0">
<rect width="128" height="128" fill="white"/>
</clipPath>
</defs>
</svg>
