<svg width="50" height="50" viewBox="0 0 50 50" fill="none" xmlns="http://www.w3.org/2000/svg">
<path d="M13.8185 25.8304C14.0683 25.8304 14.3182 25.7351 14.5089 25.5443L25.5441 14.5092C25.9255 14.1277 25.9255 13.5093 25.5441 13.1279C25.163 12.7468 24.5446 12.7468 24.1632 13.1279L13.1276 24.1634C12.7465 24.5449 12.7465 25.1632 13.1276 25.5443C13.3183 25.7351 13.5686 25.8304 13.8185 25.8304V25.8304Z" fill="#2D5275"/>
<path d="M15.627 16.7485C17.2425 16.7485 18.557 15.4344 18.557 13.8188C18.557 12.2033 17.2425 10.8892 15.627 10.8892C14.0118 10.8892 12.6973 12.2033 12.6973 13.8188C12.6973 15.4344 14.0118 16.7485 15.627 16.7485ZM15.627 12.8423C16.1656 12.8423 16.6035 13.2802 16.6035 13.8188C16.6035 14.3571 16.1656 14.7954 15.627 14.7954C15.0887 14.7954 14.6504 14.3571 14.6504 13.8188C14.6504 13.2802 15.0887 12.8423 15.627 12.8423Z" fill="#2D5275"/>
<path d="M18.8486 24.854C18.8486 26.4695 20.1632 27.7837 21.7783 27.7837C23.3938 27.7837 24.7084 26.4695 24.7084 24.854C24.7084 23.2385 23.3938 21.9243 21.7783 21.9243C20.1632 21.9243 18.8486 23.2385 18.8486 24.854V24.854ZM22.7549 24.854C22.7549 25.3926 22.317 25.8306 21.7783 25.8306C21.2401 25.8306 20.8018 25.3926 20.8018 24.854C20.8018 24.3158 21.2401 23.8774 21.7783 23.8774C22.317 23.8774 22.7549 24.3158 22.7549 24.854V24.854Z" fill="#2D5275"/>
<path d="M10.848 27.6968C10.4696 27.3127 9.85086 27.3081 9.46672 27.6869C9.08258 28.0653 9.07839 28.6837 9.45681 29.0678L9.53119 29.143C9.72193 29.3333 9.97141 29.4283 10.2213 29.4283C10.4715 29.4283 10.7218 29.3326 10.9125 29.1415C11.2936 28.7596 11.2928 28.1416 10.911 27.7606L10.848 27.6968Z" fill="#2D5275"/>
<path d="M29.1415 9.53056C23.7345 4.1236 14.9371 4.1236 9.53014 9.53056C5.26836 13.7923 4.24106 20.2613 6.97391 25.6282C7.21881 26.1088 7.80666 26.3 8.28731 26.0554C8.76796 25.8105 8.95946 25.2227 8.71456 24.742C6.36661 20.1312 7.24971 14.5732 10.9111 10.9115C15.5566 6.26632 23.115 6.26632 27.7606 10.9115C30.0109 13.1618 31.2503 16.154 31.2503 19.3362C31.2503 22.5188 30.0109 25.5107 27.7606 27.761C24.2362 31.2858 18.8323 32.2433 14.3141 30.1444C13.8247 29.9171 13.2441 30.1295 13.0168 30.6186C12.7898 31.108 13.0023 31.6886 13.4913 31.916C15.3498 32.7792 17.3362 33.1981 19.3099 33.1981C22.9216 33.1977 26.4891 31.7943 29.1415 29.1419C31.761 26.5227 33.2034 23.0407 33.2034 19.3362C33.2034 15.6322 31.7607 12.1497 29.1415 9.53056V9.53056Z" fill="#2D5275"/>
<path d="M49.1425 42.8856L35.7704 29.5135C37.6091 26.5556 38.6726 23.0679 38.6726 19.3363C38.6726 8.67424 29.9984 0 19.3363 0C8.67424 0 0 8.67424 0 19.3363C0 29.9984 8.67424 38.6726 19.3363 38.6726C23.0675 38.6726 26.5549 37.6091 29.5124 35.7712L42.8848 49.1432C43.4563 49.7147 44.2062 50 44.9566 50C45.7069 50 46.4569 49.7143 47.0284 49.1432L49.1425 47.0291C50.285 45.8866 50.285 44.0281 49.1425 42.8856V42.8856ZM1.95312 19.3363C1.95312 9.75113 9.75113 1.95312 19.3363 1.95312C28.9215 1.95312 36.7195 9.75113 36.7195 19.3363C36.7195 28.9215 28.9215 36.7195 19.3363 36.7195C9.75113 36.7195 1.95312 28.9215 1.95312 19.3363ZM34.6382 31.1436L36.7996 33.305L33.3042 36.8004L31.1424 34.6386C32.4509 33.6269 33.6262 32.4516 34.6382 31.1436V31.1436ZM47.7615 45.6478L45.647 47.7623C45.2663 48.143 44.6468 48.143 44.2657 47.7623L34.6855 38.1817L38.1809 34.6859L47.7615 44.2665C48.1422 44.6476 48.1422 45.2671 47.7615 45.6478V45.6478Z" fill="#2D5275"/>
</svg>
