<svg width="40" height="40" viewBox="0 0 40 40" fill="none" xmlns="http://www.w3.org/2000/svg">
<rect y="7" width="40" height="26" rx="4" fill="#CAD459"/>
<path d="M24.5181 11.5C22.7901 11.4998 21.1009 11.9963 19.6643 12.9267C19.5647 12.987 18.8779 13.4572 18.853 13.4828C17.7174 14.3027 16.9564 14.4503 15.9208 14.1961C15.8586 14.184 15.559 14.075 15.4589 14.0514C14.5693 13.7292 13.6175 13.6002 12.6708 13.6735C11.7241 13.7468 10.8056 14.0207 9.98003 14.4757C9.1545 14.9308 8.44213 15.5559 7.89324 16.3071C7.34434 17.0582 6.9723 17.9169 6.80338 18.8227C6.63447 19.7284 6.67281 20.659 6.91569 21.5488C7.15858 22.4386 7.60008 23.2659 8.20902 23.9722C8.81796 24.6785 9.57949 25.2466 10.4398 25.6365C11.3002 26.0263 12.2383 26.2283 13.188 26.2282C13.8843 26.232 14.5762 26.1216 15.2345 25.9017C16.7817 25.4541 17.6303 25.5752 18.6032 26.2393C18.8023 26.3725 19.2646 26.6628 19.3642 26.7352C20.4729 27.5252 21.7591 28.0493 23.1173 28.2645C24.4754 28.4796 25.8669 28.3797 27.1775 27.9729C28.4881 27.566 29.6805 26.8639 30.657 25.924C31.6334 24.9842 32.366 23.8334 32.7947 22.566C33.2235 21.2987 33.3361 19.9509 33.1234 18.6332C32.9106 17.3156 32.3786 16.0655 31.5709 14.9857C30.7633 13.9058 29.703 13.0269 28.477 12.421C27.251 11.8151 25.8943 11.4994 24.5181 11.5Z" fill="#00765E"/>
<path d="M21.3876 21.2456C21.241 21.3844 21.0673 21.4933 20.8766 21.566C20.6859 21.6386 20.4821 21.6735 20.2772 21.6686C19.9942 21.67 19.7172 21.5901 19.481 21.439L18.9047 22.3216C19.3114 22.5721 19.7829 22.7058 20.2648 22.7075C20.6126 22.7132 20.9581 22.6523 21.2815 22.5281C21.6048 22.404 21.8997 22.219 22.149 21.984L21.3876 21.2456Z" fill="white"/>
<path d="M20.3395 17.6194C19.6418 17.6103 18.9689 17.8701 18.4687 18.3415C17.9684 18.8129 17.6817 19.4575 17.6715 20.1336C17.6604 20.6398 17.8083 21.1374 18.0955 21.5603L22.8617 19.5891C22.728 19.0353 22.4072 18.5407 21.9502 18.1838C21.4932 17.8269 20.9263 17.6283 20.3395 17.6194ZM18.7664 20.327C18.756 20.2671 18.7518 20.2064 18.7539 20.1457C18.7561 19.9485 18.7986 19.7536 18.879 19.5724C18.9594 19.3912 19.0761 19.2273 19.2223 19.0901C19.3685 18.9529 19.5414 18.8451 19.7308 18.7731C19.9203 18.701 20.1226 18.6661 20.3261 18.6703C20.5467 18.6767 20.7637 18.7272 20.9634 18.8185C21.163 18.9097 21.3412 19.0399 21.4866 19.2009L18.7664 20.327Z" fill="white"/>
<path d="M24.3577 16.4697V21.3893L25.2435 21.7399L24.832 22.7074L23.9566 22.3587C23.782 22.2859 23.6342 22.1637 23.5326 22.0081C23.4125 21.8283 23.3515 21.6174 23.3579 21.4033V16.4697H24.3577Z" fill="white"/>
<path d="M16.6839 16.4697V21.3893L17.5698 21.7399L17.1582 22.7074L16.2828 22.3587C16.1082 22.2859 15.9604 22.1637 15.8588 22.0081C15.7392 21.8281 15.6788 21.6172 15.6856 21.4033V16.4697H16.6839Z" fill="white"/>
<path d="M28.6875 18.8152C28.8713 18.9006 29.0359 19.0204 29.1718 19.1677C29.3077 19.3149 29.4123 19.4867 29.4795 19.6732C29.5468 19.8597 29.5753 20.0573 29.5636 20.2545C29.5519 20.4517 29.5 20.6448 29.4111 20.8226L30.3846 21.2822C30.6481 20.7489 30.7123 20.1434 30.5659 19.5694C30.4196 18.9954 30.0719 18.4885 29.5825 18.1355C29.093 17.7825 28.4921 17.6054 27.8827 17.6344C27.2733 17.6635 26.6933 17.8969 26.2419 18.2948L26.9656 19.0665C27.1926 18.8606 27.4788 18.7263 27.7862 18.6815C28.0937 18.6366 28.408 18.6832 28.6875 18.8152Z" fill="#CAD459"/>
<path d="M27.3522 21.5241C27.1684 21.4387 27.0039 21.3189 26.8679 21.1717C26.732 21.0244 26.6274 20.8526 26.5602 20.6661C26.493 20.4796 26.4644 20.2821 26.4761 20.0848C26.4879 19.8876 26.5397 19.6945 26.6286 19.5168L25.6552 19.0571C25.3919 19.5904 25.328 20.1957 25.4744 20.7696C25.6208 21.3435 25.9685 21.8502 26.4579 22.2031C26.9473 22.556 27.548 22.7331 28.1573 22.704C28.7665 22.675 29.3465 22.4417 29.7978 22.0441L29.0742 21.2724C28.8456 21.4757 28.5597 21.6083 28.2529 21.6531C27.9461 21.698 27.6325 21.6531 27.3522 21.5241Z" fill="white"/>
<path d="M14.6875 21.5971V20.1579C14.6863 19.6182 14.5079 19.093 14.1781 18.6582C13.8483 18.2234 13.3842 17.9016 12.8531 17.7396C12.3379 17.5826 11.7861 17.5784 11.2685 17.7275C10.8628 17.8473 10.4941 18.0628 10.1955 18.3545C9.82733 18.709 9.57608 19.1615 9.47359 19.6545C9.37111 20.1475 9.42201 20.659 9.61985 21.124C9.81768 21.5889 10.1535 21.9865 10.5848 22.2662C11.0161 22.546 11.5234 22.6953 12.0423 22.6953C12.4494 22.6961 12.851 22.605 13.2154 22.4291L12.8172 21.4857C12.5886 21.6074 12.3315 21.6698 12.0707 21.667C11.8675 21.6671 11.6663 21.6283 11.4785 21.553C11.2908 21.4777 11.1202 21.3672 10.9765 21.228C10.8328 21.0887 10.7188 20.9234 10.6411 20.7414C10.5634 20.5595 10.5234 20.3645 10.5235 20.1675C10.5202 19.9218 10.5848 19.6797 10.7106 19.4663C10.8172 19.2773 10.9632 19.112 11.1394 18.9808C11.3156 18.8496 11.518 18.7554 11.7338 18.7042C11.8482 18.6797 11.965 18.6675 12.0822 18.668C12.3017 18.6677 12.5188 18.7131 12.7187 18.8011C12.9891 18.921 13.2186 19.1133 13.38 19.3554C13.5413 19.5975 13.6279 19.8793 13.6294 20.1675V21.5821C13.6211 21.7965 13.6822 22.0079 13.8041 22.187C13.9089 22.3399 14.0558 22.4614 14.2281 22.5376L14.7149 22.7305L15.1264 21.763L14.6875 21.5971Z" fill="white"/>
</svg>
