<svg width="100" height="65" viewBox="0 0 100 65" fill="none" xmlns="http://www.w3.org/2000/svg">
<path d="M90 0H10C4.47715 0 0 4.47715 0 10V55C0 60.5228 4.47715 65 10 65H90C95.5229 65 100 60.5228 100 55V10C100 4.47715 95.5229 0 90 0Z" fill="#CAD459"/>
<path d="M61.2953 11.25C56.9753 11.2495 52.7523 12.4908 49.1608 14.8168C48.9118 14.9675 47.1948 16.143 47.1325 16.207C44.2935 18.2568 42.391 18.6258 39.802 17.9903C39.6465 17.96 38.8975 17.6875 38.6473 17.6285C36.4233 16.823 34.0438 16.5005 31.677 16.6838C29.3103 16.867 27.014 17.5518 24.9501 18.6893C22.8863 19.827 21.1053 21.3898 19.7331 23.2678C18.3609 25.1455 17.4308 27.2923 17.0085 29.5568C16.5862 31.821 16.682 34.1475 17.2892 36.372C17.8965 38.5965 19.0002 40.6648 20.5226 42.4305C22.0449 44.1963 23.9487 45.6165 26.0995 46.5913C28.2505 47.5658 30.5958 48.0708 32.97 48.0705C34.7108 48.08 36.4405 47.804 38.0863 47.2543C41.9543 46.1353 44.0758 46.438 46.508 48.0983C47.0058 48.4313 48.1615 49.157 48.4105 49.338C51.1823 51.313 54.3978 52.6233 57.7933 53.1613C61.1885 53.699 64.6673 53.4493 67.9438 52.4323C71.2203 51.415 74.2013 49.6598 76.6425 47.31C79.0835 44.9605 80.915 42.0835 81.9868 38.915C83.0588 35.7468 83.3403 32.3773 82.8085 29.083C82.2765 25.789 80.9465 22.6638 78.9273 19.9643C76.9083 17.2645 74.2575 15.0673 71.1925 13.5525C68.1275 12.0378 64.7358 11.2485 61.2953 11.25Z" fill="#00765E"/>
<path d="M53.469 35.614C53.1025 35.961 52.6682 36.2333 52.1915 36.415C51.7147 36.5965 51.2052 36.6838 50.693 36.6715C49.9855 36.675 49.293 36.4753 48.7025 36.0975L47.2617 38.304C48.2785 38.9303 49.4572 39.2645 50.662 39.2688C51.5315 39.283 52.3952 39.1308 53.2037 38.8203C54.012 38.51 54.7492 38.0475 55.3724 37.46L53.469 35.614Z" fill="white"/>
<path d="M50.8487 26.5484C49.1045 26.5257 47.4222 27.1752 46.1717 28.3537C44.921 29.5322 44.2042 31.1437 44.1787 32.8339C44.151 34.0995 44.5207 35.3435 45.2387 36.4007L57.1542 31.4727C56.82 30.0882 56.018 28.8517 54.8755 27.9594C53.733 27.0672 52.3157 26.5707 50.8487 26.5484ZM46.916 33.3174C46.89 33.1677 46.8795 33.0159 46.8847 32.8642C46.8902 32.3712 46.9965 31.8839 47.1975 31.4309C47.3985 30.9779 47.6902 30.5682 48.0557 30.2252C48.4212 29.8822 48.8535 29.6127 49.327 29.4327C49.8007 29.2524 50.3065 29.1652 50.8152 29.1757C51.3667 29.1917 51.9092 29.3179 52.4085 29.5462C52.9075 29.7742 53.353 30.0997 53.7165 30.5022L46.916 33.3174Z" fill="white"/>
<path d="M60.8943 23.6743V35.9733L63.1088 36.8498L62.0801 39.2686L59.8916 38.3968C59.4551 38.2148 59.0856 37.9093 58.8316 37.5203C58.5313 37.0708 58.3788 36.5436 58.3948 36.0083V23.6743H60.8943Z" fill="white"/>
<path d="M41.7098 23.6743V35.9733L43.9246 36.8498L42.8956 39.2686L40.7071 38.3968C40.2706 38.2148 39.9011 37.9093 39.6471 37.5203C39.3481 37.0703 39.1971 36.5431 39.2141 36.0083V23.6743H41.7098Z" fill="white"/>
<path d="M71.7187 29.538C72.1782 29.7515 72.5897 30.051 72.9295 30.4193C73.2692 30.7873 73.5307 31.2168 73.6987 31.683C73.867 32.1493 73.9382 32.6433 73.909 33.1363C73.8797 33.6293 73.75 34.112 73.5277 34.5565L75.9615 35.7055C76.6202 34.3723 76.7807 32.8585 76.4147 31.4235C76.049 29.9885 75.1797 28.7213 73.9562 27.8388C72.7325 26.9563 71.2302 26.5135 69.7067 26.586C68.1832 26.6588 66.7332 27.2423 65.6047 28.237L67.414 30.1663C67.9815 29.6515 68.697 29.3158 69.4655 29.2038C70.2342 29.0915 71.02 29.208 71.7187 29.538Z" fill="#CAD459"/>
<path d="M68.3805 36.3103C67.921 36.0968 67.5098 35.7973 67.1698 35.4293C66.83 35.0611 66.5685 34.6316 66.4005 34.1653C66.2325 33.6991 66.161 33.2053 66.1903 32.7121C66.2198 32.2191 66.3493 31.7363 66.5715 31.2921L64.138 30.1428C63.4798 31.4761 63.32 32.9893 63.686 34.4241C64.052 35.8588 64.9213 37.1256 66.1448 38.0078C67.3683 38.8901 68.87 39.3328 70.3933 39.2601C71.9163 39.1876 73.3663 38.6043 74.4945 37.6103L72.6855 35.6811C72.114 36.1893 71.3993 36.5208 70.6323 36.6328C69.8653 36.7451 69.0813 36.6328 68.3805 36.3103Z" fill="white"/>
<path d="M36.7187 36.4927V32.8947C36.7157 31.5454 36.2697 30.2324 35.4452 29.1454C34.6207 28.0584 33.4604 27.2539 32.1327 26.8489C30.8447 26.4564 29.4652 26.4459 28.1712 26.8187C27.1569 27.1182 26.2352 27.6569 25.4887 28.3862C24.5683 29.2724 23.9401 30.4037 23.6839 31.6362C23.4277 32.8687 23.555 34.1474 24.0496 35.3099C24.5441 36.4722 25.3837 37.4662 26.4619 38.1654C27.5402 38.8649 28.8084 39.2382 30.1057 39.2382C31.1234 39.2402 32.1274 39.0124 33.0384 38.5727L32.0429 36.2142C31.4714 36.5184 30.8287 36.6744 30.1767 36.6674C29.6687 36.6677 29.1657 36.5707 28.6962 36.3824C28.2269 36.1942 27.8004 35.9179 27.4412 35.5699C27.0819 35.2217 26.7969 34.8084 26.6027 34.3534C26.4084 33.8987 26.3084 33.4112 26.3087 32.9187C26.3004 32.3044 26.4619 31.6992 26.7764 31.1657C27.0429 30.6932 27.4079 30.2799 27.8484 29.9519C28.2889 29.6239 28.7949 29.3884 29.3344 29.2604C29.6204 29.1992 29.9124 29.1687 30.2054 29.1699C30.7542 29.1692 31.2969 29.2827 31.7967 29.5027C32.4727 29.8024 33.0464 30.2832 33.4499 30.8884C33.8532 31.4937 34.0697 32.1982 34.0734 32.9187V36.4552C34.0527 36.9912 34.2054 37.5197 34.5102 37.9674C34.7722 38.3497 35.1394 38.6534 35.5702 38.8439L36.7872 39.3262L37.8159 36.9074L36.7187 36.4927Z" fill="white"/>
</svg>
