<svg width="40" height="40" viewBox="0 0 40 40" fill="none" xmlns="http://www.w3.org/2000/svg">
<rect y="7" width="40" height="26" rx="4" fill="#3285D2"/>
<path d="M27.6152 15.8553L26.996 17.2291H28.2377L27.6152 15.8553ZM20.4704 16.7066C20.5871 16.6508 20.6558 16.5296 20.6558 16.379C20.6558 16.2314 20.5836 16.1245 20.4669 16.0743C20.3606 16.0186 20.1971 16.0122 20.0403 16.0122H18.9326V16.7776H20.0255C20.2005 16.7777 20.3467 16.7753 20.4704 16.7066ZM6.27644 15.8553L5.66428 17.2291H6.89229L6.27644 15.8553ZM34.7776 24.6559H33.0403V23.9168H34.7706C34.9421 23.9168 35.0622 23.8962 35.1345 23.8314C35.2029 23.7736 35.2416 23.692 35.2409 23.6066C35.2409 23.5062 35.1973 23.4264 35.1309 23.3787C35.0658 23.3261 34.9706 23.3022 34.814 23.3022C33.9693 23.2759 32.9155 23.326 32.9155 22.2353C32.9155 21.7355 33.2623 21.2092 34.2063 21.2092H35.9982V20.5234H34.3333C33.8309 20.5234 33.4659 20.6336 33.2074 20.805V20.5234H30.7449C30.3512 20.5234 29.889 20.6128 29.6704 20.805V20.5234H25.2728V20.805C24.9229 20.5738 24.3323 20.5234 24.0598 20.5234H21.1592V20.805C20.8824 20.5595 20.2665 20.5234 19.8914 20.5234H16.6451L15.9023 21.2595L15.2066 20.5234H10.3572V25.3332H15.1151L15.8804 24.5853L16.6015 25.3332L19.5342 25.3356V24.2041H19.8226C20.2117 24.2099 20.6706 24.1954 21.0757 24.0351V25.3331H23.4947V24.0794H23.6113C23.7602 24.0794 23.775 24.0851 23.775 24.2214V25.3328H31.1236C31.5902 25.3328 32.0779 25.2236 32.3479 25.0249V25.3328H34.6789C35.1639 25.3328 35.6377 25.2705 35.9981 25.1112V24.2152C35.7796 24.5077 35.3537 24.6561 34.7775 24.6561L34.7776 24.6559ZM19.8611 23.5202H18.7387V24.6763H16.9902L15.8825 23.5353L14.7314 24.6763H11.168V21.2295H14.7862L15.8929 22.3594L17.0371 21.2295H19.9116C20.6255 21.2295 21.4276 21.4106 21.4276 22.3651C21.4276 23.3226 20.6475 23.5202 19.8611 23.5202ZM25.2586 23.3639C25.3857 23.5321 25.404 23.6892 25.4077 23.9931V24.6763H24.5044V24.2451C24.5044 24.0378 24.5263 23.7307 24.359 23.5705C24.2278 23.447 24.0273 23.4175 23.699 23.4175H22.7377V24.6763H21.8338V21.2296H23.9106C24.3662 21.2296 24.6978 21.2481 24.993 21.3922C25.2769 21.5493 25.4556 21.7644 25.4556 22.1576C25.4555 22.7077 25.0548 22.9884 24.818 23.0746C25.0181 23.1422 25.1818 23.2635 25.2586 23.3639ZM28.9746 21.9424H26.868V22.569H28.9231V23.2723H26.868V23.958L28.9746 23.9611V24.6763H25.9722V21.2295H28.9746V21.9424ZM31.2862 24.6763H29.5341V23.9371H31.2792C31.4499 23.9371 31.5709 23.9165 31.6467 23.8518C31.7085 23.7985 31.753 23.721 31.753 23.6271C31.753 23.5266 31.7048 23.4468 31.6432 23.399C31.5743 23.3465 31.4794 23.3227 31.3228 23.3227C30.4815 23.2962 29.428 23.3464 29.428 22.2558C29.428 21.7558 29.7711 21.2296 30.7141 21.2296H32.5177V21.9631H30.8674C30.7038 21.9631 30.5975 21.9688 30.507 22.0255C30.4084 22.0813 30.3719 22.1641 30.3719 22.2734C30.3719 22.4034 30.4555 22.4919 30.5687 22.5301C30.6636 22.5604 30.7655 22.5692 30.9187 22.5692L31.4031 22.5813C31.8912 22.592 32.2266 22.6695 32.4304 22.8584C32.6054 23.0243 32.6995 23.2339 32.6995 23.5886C32.6994 24.3301 32.1934 24.6763 31.2862 24.6763ZM24.3092 21.998C24.2005 21.9389 24.0401 21.9357 23.88 21.9357H22.7723V22.7098H23.8652C24.0402 22.7098 24.189 22.7041 24.3092 22.6388C24.4258 22.5742 24.4956 22.4554 24.4956 22.3079C24.4956 22.1605 24.4258 22.0538 24.3092 21.998ZM34.3603 21.9356C34.1967 21.9356 34.0878 21.9413 33.9963 21.9979C33.9013 22.0538 33.8649 22.1366 33.8649 22.2459C33.8649 22.3758 33.945 22.4644 34.0616 22.5027C34.1566 22.5329 34.2583 22.5417 34.4082 22.5417L34.8959 22.5536C35.3878 22.5648 35.7163 22.6423 35.9166 22.8312C35.953 22.8574 35.9749 22.8869 36 22.9164V21.9357H34.3604L34.3603 21.9356ZM19.8923 21.9356H18.7193V22.8135H19.8819C20.2275 22.8135 20.4424 22.6564 20.4426 22.3583C20.4424 22.0569 20.2171 21.9356 19.8923 21.9356ZM12.064 21.9356V22.5623H14.0389V23.2656H12.064V23.9513H14.2757L15.3033 22.9401L14.3194 21.9356H12.064ZM17.8393 24.346V21.5827L16.4582 22.9421L17.8393 24.346ZM12.1395 18.8121V19.406H19.6552L19.6517 18.1496H19.7971C19.899 18.1528 19.9286 18.1614 19.9286 18.3154V19.406H23.8158V19.1135C24.1293 19.2673 24.6169 19.406 25.2586 19.406H26.8939L27.2439 18.6406H28.0198L28.3621 19.406H31.5134V18.679L31.9905 19.406H34.5159V14.6001H32.0167V15.1677L31.6668 14.6001H29.1023V15.1677L28.781 14.6001H25.3169C24.737 14.6001 24.2275 14.6742 23.8157 14.8807V14.6001H21.4252V14.8807C21.1632 14.6678 20.8062 14.6001 20.4093 14.6001H11.676L11.09 15.8414L10.4883 14.6001H7.73756V15.1677L7.43532 14.6001H5.08942L4.00004 16.8852V18.713L5.61091 15.267H6.94751L8.47739 18.5296V15.267H9.94569L11.1229 17.6047L12.2045 15.267H13.7022V18.713H12.7802L12.7768 16.0142L11.4723 18.713H10.6825L9.37468 16.0118V18.713H7.5449L7.19925 17.9444H5.32622L4.97701 18.713H4V19.4062H5.5371L5.88365 18.6408H6.65963L7.00528 19.4062H10.0295V18.821L10.2994 19.4087H11.8693L12.1393 18.8122L12.1395 18.8121ZM23.9826 15.6687C24.2733 15.3937 24.7288 15.2668 25.3487 15.2668H26.2196V16.0052H25.367C25.0389 16.0052 24.8533 16.0499 24.6748 16.2094C24.5214 16.3544 24.4162 16.6287 24.4162 16.9899C24.4162 17.3591 24.4964 17.6253 24.6635 17.7991C24.802 17.9355 25.0538 17.9769 25.2905 17.9769H25.6947L26.9625 15.267H28.3103L29.8334 18.5263V15.267H31.2031L32.7844 17.6669V15.267H33.7058V18.7128H32.4311L30.7259 16.1265V18.7128H28.8938L28.5438 17.9442H26.675L26.3354 18.7128H25.2827C24.8455 18.7128 24.2918 18.6243 23.9783 18.3317C23.6621 18.0391 23.4978 17.6428 23.4978 17.0162C23.4976 16.5051 23.5958 16.0379 23.9826 15.6687ZM22.1323 15.2669H23.0501V18.7128H22.1323V15.2669ZM17.9939 15.2669H20.063C20.5226 15.2669 20.8615 15.278 21.1524 15.4319C21.4369 15.5859 21.6076 15.8106 21.6076 16.1949C21.6076 16.7443 21.207 17.0282 20.9738 17.1134C21.1705 17.182 21.3388 17.3032 21.4189 17.4036C21.5459 17.575 21.5678 17.7281 21.5678 18.0358V18.7128H20.6605L20.6571 18.2782C20.6571 18.0708 20.6787 17.7726 20.5151 17.607C20.3837 17.4858 20.1832 17.4594 19.8593 17.4594H18.8937V18.7128H17.9941L17.9939 15.2669ZM14.3675 15.2669H17.3726V15.9845H15.2672V16.6056H17.3221V17.312H15.2672V18.0002H17.3726V18.7128H14.3675V15.2669Z" fill="white"/>
</svg>
