<svg width="100" height="66" viewBox="0 0 100 66" fill="none" xmlns="http://www.w3.org/2000/svg">
<path d="M90 0.680237H10C4.47715 0.680237 0 5.15739 0 10.6802V55.6802C0 61.2031 4.47715 65.6802 10 65.6802H90C95.5229 65.6802 100 61.2031 100 55.6802V10.6802C100 5.15739 95.5229 0.680237 90 0.680237Z" fill="#3285D2"/>
<path d="M69.038 22.8185L67.49 26.253H70.5942L69.038 22.8185ZM51.176 24.9467C51.4677 24.8072 51.6395 24.5042 51.6395 24.1277C51.6395 23.7587 51.459 23.4915 51.1672 23.366C50.9015 23.2267 50.4928 23.2107 50.1008 23.2107H47.3315V25.1242H50.0637C50.5012 25.1245 50.8667 25.1185 51.176 24.9467ZM15.6911 22.8185L14.1607 26.253H17.2307L15.6911 22.8185ZM86.944 44.82H82.6007V42.9722H86.9265C87.3552 42.9722 87.6555 42.9207 87.8362 42.7587C88.0072 42.6142 88.104 42.4102 88.1022 42.1967C88.1022 41.9457 87.9933 41.7462 87.8273 41.627C87.6645 41.4955 87.4265 41.4357 87.035 41.4357C84.9232 41.37 82.2888 41.4952 82.2888 38.7685C82.2888 37.519 83.1557 36.2032 85.5157 36.2032H89.9955V34.4887H85.8333C84.5773 34.4887 83.6648 34.7642 83.0185 35.1927V34.4887H76.8622C75.878 34.4887 74.7225 34.7122 74.176 35.1927V34.4887H63.182V35.1927C62.3073 34.6147 60.8307 34.4887 60.1495 34.4887H52.898V35.1927C52.206 34.579 50.6662 34.4887 49.7285 34.4887H41.6127L39.7557 36.329L38.0165 34.4887H25.893V46.5132H37.7877L39.701 44.6435L41.5037 46.5132L48.8355 46.5192V43.6905H49.5565C50.5292 43.705 51.6765 43.6687 52.6893 43.268V46.513H58.7367V43.3787H59.0282C59.4005 43.3787 59.4375 43.393 59.4375 43.7337V46.5122H77.809C78.9755 46.5122 80.1948 46.2392 80.8698 45.7425V46.5122H86.6973C87.9098 46.5122 89.0943 46.3565 89.9953 45.9582V43.7182C89.449 44.4495 88.3843 44.8205 86.9438 44.8205L86.944 44.82ZM49.6527 41.9807H46.8468V44.871H42.4755L39.7062 42.0185L36.8285 44.871H27.92V36.254H36.9655L39.7323 39.0787L42.5927 36.254H49.779C51.5638 36.254 53.569 36.7067 53.569 39.093C53.569 41.4867 51.6187 41.9807 49.6527 41.9807ZM63.1465 41.59C63.4643 42.0105 63.51 42.4032 63.5192 43.163V44.871H61.261V43.793C61.261 43.2747 61.3157 42.507 60.8975 42.1065C60.5695 41.7977 60.0682 41.724 59.2475 41.724H56.8442V44.871H54.5845V36.2542H59.7765C60.9155 36.2542 61.7445 36.3005 62.4825 36.6607C63.1923 37.0535 63.639 37.5912 63.639 38.5742C63.6388 39.9495 62.637 40.6512 62.045 40.8667C62.5453 41.0357 62.9545 41.339 63.1465 41.59ZM72.4365 38.0362H67.17V39.6027H72.3077V41.361H67.17V43.0752L72.4365 43.083V44.871H64.9305V36.254H72.4365V38.0362ZM78.2155 44.871H73.8352V43.023H78.198C78.6247 43.023 78.9272 42.9715 79.1167 42.8097C79.2712 42.6765 79.3825 42.4827 79.3825 42.248C79.3825 41.9967 79.262 41.7972 79.108 41.6777C78.9357 41.5465 78.6985 41.487 78.307 41.487C76.2037 41.4207 73.57 41.5462 73.57 38.8197C73.57 37.5697 74.4277 36.2542 76.7852 36.2542H81.2943V38.088H77.1685C76.7595 38.088 76.4937 38.1022 76.2675 38.244C76.021 38.3835 75.9298 38.5905 75.9298 38.8637C75.9298 39.1887 76.1388 39.41 76.4218 39.5055C76.659 39.5812 76.9137 39.6032 77.2967 39.6032L78.5077 39.6335C79.728 39.6602 80.5665 39.854 81.076 40.3262C81.5135 40.741 81.7488 41.265 81.7488 42.1517C81.7485 44.0055 80.4835 44.871 78.2155 44.871ZM60.773 38.1752C60.5013 38.0275 60.1002 38.0195 59.7 38.0195H56.9308V39.9547H59.663C60.1005 39.9547 60.4725 39.9405 60.773 39.7772C61.0645 39.6157 61.239 39.3187 61.239 38.95C61.239 38.5815 61.0645 38.3147 60.773 38.1752ZM85.9007 38.0192C85.4917 38.0192 85.2195 38.0335 84.9907 38.175C84.7532 38.3147 84.6622 38.5217 84.6622 38.795C84.6622 39.1197 84.8625 39.3412 85.154 39.437C85.3915 39.5125 85.6457 39.5345 86.0205 39.5345L87.2398 39.5642C88.4695 39.5922 89.2907 39.786 89.7915 40.2582C89.8825 40.3237 89.9372 40.3975 90 40.4712V38.0195H85.901L85.9007 38.0192ZM49.7307 38.0192H46.7982V40.214H49.7048C50.5688 40.214 51.106 39.8212 51.1065 39.076C51.106 38.3225 50.5427 38.0192 49.7307 38.0192ZM30.16 38.0192V39.586H35.0973V41.3442H30.16V43.0585H35.6892L38.2582 40.5305L35.7985 38.0192H30.16ZM44.5983 44.0452V37.137L41.1455 40.5355L44.5983 44.0452ZM30.3487 30.2105V31.6952H49.138L49.1292 28.5542H49.4928C49.7475 28.5622 49.8215 28.5837 49.8215 28.9687V31.6952H59.5395V30.964C60.3232 31.3485 61.5423 31.6952 63.1465 31.6952H67.2347L68.1098 29.7817H70.0495L70.9053 31.6952H78.7835V29.8777L79.9762 31.6952H86.2897V19.6805H80.0418V21.0995L79.167 19.6805H72.7558V21.0995L71.9525 19.6805H63.2923C61.8425 19.6805 60.5688 19.8657 59.5393 20.382V19.6805H53.563V20.382C52.908 19.8497 52.0155 19.6805 51.0232 19.6805H29.19L27.725 22.7837L26.2208 19.6805H19.3439V21.0995L18.5883 19.6805H12.7235L10.0001 25.3932V29.9627L14.0273 21.3477H17.3688L21.1935 29.5042V21.3477H24.8642L27.8073 27.192L30.5113 21.3477H34.2555V29.9627H31.9505L31.942 23.2157L28.6807 29.9627H26.7062L23.4367 23.2097V29.9627H18.8622L17.9981 28.0412H13.3156L12.4425 29.9627H10V31.6957H13.8427L14.7091 29.7822H16.6491L17.5132 31.6957H25.0738V30.2327L25.7485 31.702H29.6732L30.3483 30.2107L30.3487 30.2105ZM59.9565 22.352C60.6832 21.6645 61.822 21.3472 63.3717 21.3472H65.549V23.1932H63.4175C62.5973 23.1932 62.1333 23.305 61.687 23.7037C61.3035 24.0662 61.0405 24.752 61.0405 25.655C61.0405 26.578 61.241 27.2435 61.6587 27.678C62.005 28.019 62.6345 28.1225 63.2263 28.1225H64.2368L67.4062 21.3477H70.7758L74.5835 29.496V21.3477H78.0078L81.961 27.3475V21.3477H84.2645V29.9622H81.0777L76.8148 23.4965V29.9622H72.2345L71.3595 28.0407H66.6875L65.8385 29.9622H63.2067C62.1137 29.9622 60.7295 29.741 59.9458 29.0095C59.1553 28.278 58.7445 27.2872 58.7445 25.7207C58.744 24.443 58.9895 23.275 59.9565 22.352ZM55.3307 21.3475H57.6253V29.9622H55.3307V21.3475ZM44.9848 21.3475H50.1575C51.3065 21.3475 52.1537 21.3752 52.881 21.76C53.5922 22.145 54.019 22.7067 54.019 23.6675C54.019 25.041 53.0175 25.7507 52.4345 25.9637C52.9263 26.1352 53.347 26.4382 53.5472 26.6892C53.8647 27.1177 53.9195 27.5005 53.9195 28.2697V29.9622H51.6512L51.6428 28.8757C51.6428 28.3572 51.6968 27.6117 51.2878 27.1977C50.9593 26.8947 50.458 26.8287 49.6483 26.8287H47.2342V29.9622H44.9853L44.9848 21.3475ZM35.9188 21.3475H43.4315V23.1415H38.168V24.6942H43.3052V26.4602H38.168V28.1807H43.4315V29.9622H35.9188V21.3475Z" fill="white"/>
</svg>
