<?xml version="1.0" encoding="UTF-8" standalone="no"?>
<!-- Created with Inkscape (http://www.inkscape.org/) -->

<svg
   xmlns:dc="http://purl.org/dc/elements/1.1/"
   xmlns:cc="http://creativecommons.org/ns#"
   xmlns:rdf="http://www.w3.org/1999/02/22-rdf-syntax-ns#"
   xmlns:svg="http://www.w3.org/2000/svg"
   xmlns="http://www.w3.org/2000/svg"
   xmlns:sodipodi="http://sodipodi.sourceforge.net/DTD/sodipodi-0.dtd"
   xmlns:inkscape="http://www.inkscape.org/namespaces/inkscape"
   version="1.1"
   id="svg2"
   xml:space="preserve"
   width="700"
   height="700"
   viewBox="0 0 700 700"
   sodipodi:docname="banescard-logo.svg"
   inkscape:export-filename="G:\Users\suitedoalex\sites\banescard-logo-0.png"
   inkscape:export-xdpi="561.73712"
   inkscape:export-ydpi="561.73712"
   inkscape:version="0.92.4 (5da689c313, 2019-01-14)"><metadata
     id="metadata8"><rdf:RDF><cc:Work
         rdf:about=""><dc:format>image/svg+xml</dc:format><dc:type
           rdf:resource="http://purl.org/dc/dcmitype/StillImage" /><dc:title></dc:title></cc:Work></rdf:RDF></metadata><defs
     id="defs6"><clipPath
       clipPathUnits="userSpaceOnUse"
       id="clipPath18"><path
         d="M 0,558.72 H 419.04 V 0 H 0 Z"
         id="path16"
         inkscape:connector-curvature="0" /></clipPath></defs><sodipodi:namedview
     pagecolor="#ffffff"
     bordercolor="#666666"
     borderopacity="1"
     objecttolerance="10"
     gridtolerance="10"
     guidetolerance="10"
     inkscape:pageopacity="0"
     inkscape:pageshadow="2"
     inkscape:window-width="1600"
     inkscape:window-height="837"
     id="namedview4"
     showgrid="false"
     inkscape:zoom="0.31679552"
     inkscape:cx="279.35999"
     inkscape:cy="372.48001"
     inkscape:window-x="-8"
     inkscape:window-y="-8"
     inkscape:window-maximized="1"
     inkscape:current-layer="g10" /><g
     id="g10"
     inkscape:groupmode="layer"
     inkscape:label="banescard-logo"
     transform="matrix(1.3333333,0,0,-1.3333333,0,699.99998)"><g
       id="g12"
       transform="matrix(1.1643811,0,0,1.1643811,18.89448,-62.54285)"
       inkscape:export-filename="G:\Users\suitedoalex\sites\banescard-logo-4.png"
       inkscape:export-xdpi="78.933784"
       inkscape:export-ydpi="78.933784"><g
         id="g14"
         clip-path="url(#clipPath18)"><g
           id="g20"
           transform="translate(305.2686,372.7695)"><path
             d="m 0,0 h -252.685 v -49.806 c 0.122,-75.983 64.934,-137.516 144.46,-137.423 H 60.577 V -57.27 c 0,15.364 -4.657,29.692 -16.093,40.614 C 33.028,-5.771 16.136,0.036 0,0"
             style="fill:#b5dc19;fill-opacity:1;fill-rule:evenodd;stroke:none"
             id="path22"
             inkscape:connector-curvature="0" /></g><g
           id="g24"
           transform="translate(112.1108,249.4951)"><path
             d="m 0,0 -0.208,0.586 -8.963,25.435 -0.207,0.585 0.586,0.207 26.184,9.214 c 0.929,0.329 1.879,0.493 2.857,0.493 3.628,0 6.872,-2.292 8.064,-5.728 L 34.642,12.856 34.849,12.278 34.256,12.07 0.585,0.214 Z"
             style="fill:#a3ca3f;fill-opacity:1;fill-rule:evenodd;stroke:none"
             id="path26"
             inkscape:connector-curvature="0" /></g><g
           id="g28"
           transform="translate(124.8457,254.6445)"><path
             d="M 0,0 -12.371,-4.343 -21.313,21.093 0,28.592 4.872,30.299 c 0.878,0.307 1.764,0.45 2.642,0.45 3.279,0 6.329,-2.035 7.479,-5.3 L 21.328,7.507 Z m 0,29.906 -21.735,-7.664 -1.164,-0.407 0.407,-1.171 8.964,-25.428 0.407,-1.172 1.157,0.415 11.964,4.2 21.728,7.657 1.171,0.407 -0.414,1.178 -6.314,17.943 c -1.293,3.671 -4.764,6.135 -8.657,6.135 -1.042,0 -2.064,-0.192 -3.057,-0.535 z"
             style="fill:#ffffff;fill-opacity:1;fill-rule:evenodd;stroke:none"
             id="path30"
             inkscape:connector-curvature="0" /></g><g
           id="g32"
           transform="translate(136.2314,224.8096)"><path
             d="m 0,0 h -0.007 c -9.185,0 -17.4,5.822 -20.457,14.485 L -22.75,21 l -0.207,0.586 0.586,0.207 35.621,12.549 c 0.935,0.314 1.921,0.493 2.914,0.493 3.728,0 7.057,-2.371 8.314,-5.871 L 31.027,10.286 31.242,9.7 30.656,9.493 7.214,1.229 C 4.878,0.415 2.457,0 0,0"
             style="fill:#194084;fill-opacity:1;fill-rule:evenodd;stroke:none"
             id="path34"
             inkscape:connector-curvature="0" /></g><g
           id="g36"
           transform="translate(140.374,225.8389)"><path
             d="m 0,0 c -1.386,-0.286 -2.771,-0.414 -4.15,-0.414 -8.685,0 -16.821,5.421 -19.871,14.078 l -2.292,6.521 26.313,9.256 9.307,3.28 c 0.9,0.32 1.814,0.457 2.714,0.457 3.378,0 6.528,-2.094 7.714,-5.457 L 26.313,9.042 2.864,0.785 C 1.907,0.442 0.957,0.192 0,0 m 0,30.749 -26.721,-9.393 -1.178,-0.428 0.407,-1.157 2.3,-6.515 c 3.143,-8.928 11.6,-14.899 21.042,-14.899 1.4,0 2.786,0.122 4.15,0.385 1.1,0.207 2.2,0.5 3.278,0.886 l 23.435,8.257 1.172,0.407 -0.407,1.165 -6.579,18.67 c -1.314,3.786 -4.878,6.293 -8.878,6.293 -1.064,0 -2.114,-0.179 -3.121,-0.528 z"
             style="fill:#ffffff;fill-opacity:1;fill-rule:evenodd;stroke:none"
             id="path38"
             inkscape:connector-curvature="0" /></g><g
           id="g40"
           transform="translate(188.4512,224.3604)"><path
             d="m 0,0 c -12.035,0 -18.399,6.135 -18.399,17.777 0,7.043 2.157,13.479 6.071,18.1 4.221,4.986 10.164,7.607 17.199,7.607 5.3,0 9.764,-1.243 12.95,-3.592 3.621,-2.701 5.521,-6.686 5.628,-11.886 V 27.678 H 23.113 11.95 11.628 v 0.328 c 0,4.429 -2.207,6.414 -7.135,6.414 -8.764,0 -11.064,-11.043 -11.064,-16.878 0,-3.864 1.271,-8.464 7.364,-8.464 5.585,0 7.864,4.571 8.714,7.3 l 0.078,0.243 h 0.243 11.157 0.472 l -0.15,-0.443 C 17.778,5.6 10.407,0 0,0 m 41.842,8.399 c 4.664,1.029 6.421,4.9 7.5,8.693 l 0.885,3.164 c -2.45,-1.193 -5.229,-1.393 -7.928,-1.565 L 41.842,18.663 41.37,18.621 c -4.765,-0.521 -7.942,-1.793 -7.942,-6.258 0,-3.128 3.114,-4.228 5.793,-4.228 0.949,0 1.813,0.086 2.621,0.264 m 0,17.249 0.442,0.058 c 7.1,0.7 10.35,1.028 10.35,5.043 0,4.285 -5.157,4.621 -6.742,4.621 -1.55,0 -2.914,-0.286 -4.05,-0.765 -2.101,-0.942 -3.472,-2.634 -3.871,-4.942 L 27.199,29.392 c 0.336,5.228 2.636,8.849 6.529,11.171 2.25,1.329 4.957,2.214 8.114,2.642 1.442,0.2 2.971,0.279 4.599,0.279 7,0 11.943,-1.421 14.714,-4.228 1.643,-1.664 2.493,-3.85 2.522,-6.443 0,-1.835 -0.308,-4.15 -0.879,-7.236 L 59.184,9.214 C 58.819,7.871 58.648,5.464 58.648,3.8 c 0,-0.687 0.143,-1.586 0.372,-2.257 L 59.17,1.106 H 58.698 47.549 L 47.213,4.6 C 45.741,3.149 43.898,2.007 41.842,1.207 39.771,0.421 37.478,0 35.127,0 25.792,0 21.6,5.528 21.6,11.014 c 0,7.778 5.778,12.949 15.849,14.164 z M 75.705,1.106 H 75.44 64.276 63.869 l 0.093,0.386 8.485,40.642 0.051,0.257 h 0.264 10.621 0.414 l -0.085,-0.407 -1.286,-5.635 c 2.728,4.45 7.728,7.135 13.45,7.135 1.178,0 2.285,-0.064 3.492,-0.228 L 99.732,43.22 99.661,42.855 97.383,32.02 97.312,31.685 96.976,31.749 c -0.257,0.064 -0.543,0.121 -0.815,0.186 -1.257,0.256 -2.557,0.528 -3.835,0.528 -8.814,0 -11.472,-7.014 -12.786,-13.1 L 75.762,1.371 Z m 39.777,8.222 c 6.643,1.586 9.771,10.457 9.771,16.635 0,5.371 -2.814,8.457 -7.692,8.457 -0.722,0 -1.421,-0.078 -2.079,-0.221 -6.721,-1.493 -9.764,-10.129 -9.764,-16.422 0,-4.006 1.993,-8.699 7.607,-8.699 0.757,0 1.472,0.086 2.157,0.25 m 0,34.142 0.914,0.014 c 3.986,0 9.214,-1.579 11.378,-5.993 l 4.315,20.121 11.492,0.264 -11.55,-56.505 -11.078,-0.265 0.508,4.244 C 120.004,3.343 117.946,1.843 115.482,0.971 113.739,0.336 111.797,0 109.696,0 99.954,0 93.883,6.271 93.883,16.371 c 0,7.107 1.978,13.721 5.528,18.599 3.879,5.336 9.436,8.278 16.071,8.5 m 6.372,22.742 c -4.651,0 -8.943,1.021 -12.072,2.871 -3.907,2.322 -5.964,5.921 -5.964,10.436 v 1.685 0.343 h 0.336 10.621 0.329 V 81.204 79.84 c 0,-3.479 3.963,-5.293 7.885,-5.293 1.621,0 6.9,0.329 6.9,4.65 0,2.565 -1.257,3.407 -3.871,4.25 l -8.779,2.828 c -5.857,1.893 -9.25,4.293 -9.25,10.957 0,9.336 9.436,13.529 18.779,13.529 6.707,0 11.342,-1.401 14.185,-4.286 2.199,-2.228 3.272,-5.364 3.214,-9.343 V 96.79 h -0.343 -10.614 -0.343 l -0.007,0.342 c -0.086,3.514 -2.129,5.293 -6.092,5.293 -3.037,0 -6.664,-0.65 -6.664,-3.75 0,-1.414 0.828,-2.578 4.992,-3.864 l 5.728,-1.85 c 5.8,-1.914 11.164,-4.729 11.164,-12.242 0,-4.815 -2.235,-8.7 -6.47,-11.229 -3.508,-2.107 -8.358,-3.278 -13.664,-3.278 M 52.506,67.333 H 52.248 40.813 40.392 l 0.086,0.429 5.063,24.385 c 0.344,1.235 0.722,3.921 0.722,4.985 0,2.315 -2.693,3.929 -5.128,3.929 -8.108,0 -10.629,-7.914 -11.343,-11.314 L 25.143,67.612 25.085,67.333 H 24.807 13.378 12.95 l 0.092,0.429 8.686,41.606 0.057,0.264 h 0.278 10.943 0.422 l -0.093,-0.422 -1.043,-4.707 c 3.686,4.158 8.436,6.258 14.149,6.258 8.065,0 12.5,-4.093 12.5,-11.522 0,-1.192 -0.415,-3.621 -1.221,-7.242 L 52.577,67.612 Z m -110.797,25.6 h -9.257 l -3.236,-15.1 h 12.493 2.936 c 5.985,0 9.556,3.335 9.556,8.914 0,5.707 -4.971,6.186 -9.635,6.186 z m 0,22.07 h -4.664 l -2.686,-12.778 h 7.35 6.557 c 4.086,0 8.192,2.236 8.192,7.221 0,3.786 -2.014,5.557 -6.335,5.557 z m 0,-47.67 h -27.156 l 11.728,57.898 15.428,0.258 h 9.05 c 6.571,0 10.842,-0.836 13.835,-2.665 3.478,-2.164 5.185,-5.785 5.185,-11.114 0,-3.364 -1.05,-6.564 -2.935,-9.042 -1.786,-2.336 -4.221,-3.893 -7.057,-4.493 4.8,-1.714 7.742,-6.092 7.742,-11.656 0,-5.936 -2.357,-10.922 -6.806,-14.365 -3.993,-3.099 -9.507,-4.821 -15.514,-4.821 z M 83.74,93.297 h 9.128 c -0.056,3.878 -1.035,8.157 -7.392,8.157 -0.6,0 -1.164,-0.022 -1.736,-0.1 -4.2,-0.572 -7.263,-3.279 -9.128,-8.057 z m 0,17.435 1.093,0.029 c 5.921,0 10.864,-1.615 14.271,-4.657 3.622,-3.229 5.471,-7.907 5.471,-13.872 0,-2.185 -0.235,-4.471 -0.649,-6.585 L 83.74,85.375 h -10.5 l -0.056,-2.092 c 0,-4.95 3.213,-7.779 8.835,-7.779 0.607,0 1.2,0.058 1.721,0.158 3.236,0.657 5.065,3.085 6.529,5.414 l 11.713,0.135 h 0.5 l -0.185,-0.449 C 98.747,71.604 93.104,67.169 83.74,66.348 c -1.064,-0.086 -2.172,-0.136 -3.328,-0.136 -11.814,0 -18.857,6.921 -18.857,18.535 0,6.793 2.208,13.207 6.228,18.042 4.058,4.857 9.694,7.65 15.957,7.943 M -9.614,92.49 l 0.45,0.042 c 7.286,0.729 10.607,1.051 10.607,5.172 0,4.378 -5.278,4.721 -6.907,4.721 -1.572,0 -2.972,-0.264 -4.157,-0.793 -2.143,-0.943 -3.543,-2.685 -3.95,-5.028 l -11.042,-0.286 c 0.349,5.357 2.714,9.05 6.699,11.435 2.286,1.372 5.064,2.272 8.293,2.707 1.478,0.186 3.064,0.301 4.721,0.301 7.178,0 12.243,-1.472 15.071,-4.343 1.679,-1.707 2.543,-3.914 2.579,-6.557 0.007,-1.936 -0.293,-4.243 -0.893,-7.443 L 8.164,75.662 C 7.771,74.276 7.6,71.819 7.6,70.09 7.6,69.397 7.757,68.476 7.979,67.798 L 8.143,67.333 H 7.657 -3.764 l -0.35,3.607 c -1.5,-1.5 -3.379,-2.671 -5.507,-3.492 -2.114,-0.801 -4.464,-1.236 -6.864,-1.236 -9.572,0 -13.864,5.678 -13.864,11.278 0,7.964 5.921,13.242 16.235,14.507 z m 0.379,-17.628 c 4.778,1.05 6.207,4.956 7.314,8.849 L -1,86.976 C -3.536,85.74 -6.371,85.533 -9.143,85.354 l -0.95,-0.071 c -4.878,-0.536 -8.149,-1.836 -8.149,-6.414 0,-3.2 3.2,-4.322 5.942,-4.322 0.993,0 2.265,0.122 3.065,0.315"
             style="fill:#194084;fill-opacity:1;fill-rule:evenodd;stroke:none"
             id="path42"
             inkscape:connector-curvature="0" /></g></g></g></g></svg>