<svg width="100" height="61" viewBox="0 0 100 61" fill="none" xmlns="http://www.w3.org/2000/svg">
<path fill-rule="evenodd" clip-rule="evenodd" d="M80.6625 0.912658H0V16.8118C0.038945 41.0672 20.7283 60.7099 46.1148 60.6802H100V19.1945C100 14.29 98.5134 9.71615 94.8628 6.22961C91.2058 2.75489 85.8135 0.901166 80.6625 0.912658Z" fill="#B5DC19"/>
<path fill-rule="evenodd" clip-rule="evenodd" d="M19.0024 40.2645L18.936 40.0774L16.0748 31.958L16.0087 31.7713L16.1958 31.7052L24.5543 28.7639C24.8508 28.6589 25.1541 28.6065 25.4663 28.6065C26.6244 28.6065 27.66 29.3382 28.0405 30.435L30.0609 36.1606L30.1269 36.3451L29.9376 36.4115L19.1891 40.1962L19.0024 40.2645Z" fill="#A3CA3F"/>
<path fill-rule="evenodd" clip-rule="evenodd" d="M23.0676 38.6207L19.1185 40.0071L16.264 31.8874L23.0676 29.4935L24.6229 28.9486C24.9031 28.8506 25.186 28.8049 25.4662 28.8049C26.513 28.8049 27.4866 29.4546 27.8537 30.4968L29.876 36.2243L23.0676 38.6207ZM23.0676 29.0741L16.1293 31.5206L15.7578 31.6505L15.8877 32.0243L18.7492 40.1415L18.8791 40.5156L19.2484 40.3831L23.0676 39.0424L30.0037 36.5981L30.3775 36.4682L30.2453 36.0921L28.2297 30.3643C27.817 29.1925 26.709 28.4059 25.4662 28.4059C25.1336 28.4059 24.8074 28.4672 24.4904 28.5767L23.0676 29.0741Z" fill="white"/>
<path fill-rule="evenodd" clip-rule="evenodd" d="M26.7022 48.1447H26.6999C23.7679 48.1447 21.1455 46.2861 20.1696 43.5207L19.4399 41.441L19.3738 41.2539L19.5608 41.1879L30.9318 37.1819C31.2303 37.0817 31.5451 37.0246 31.862 37.0246C33.0521 37.0246 34.1148 37.7814 34.5161 38.8987L36.6066 44.8611L36.6753 45.0482L36.4882 45.1143L29.005 47.7523C28.2593 48.0122 27.4865 48.1447 26.7022 48.1447Z" fill="#194084"/>
<path fill-rule="evenodd" clip-rule="evenodd" d="M28.0246 47.8161C27.5821 47.9074 27.14 47.9483 26.6998 47.9483C23.9273 47.9483 21.3302 46.2178 20.3565 43.4543L19.6249 41.3726L28.0246 38.4179L30.9956 37.3708C31.2828 37.2687 31.5746 37.225 31.8619 37.225C32.9402 37.225 33.9458 37.8934 34.3244 38.967L36.4242 44.9297L28.9388 47.5655C28.6333 47.675 28.33 47.7548 28.0246 47.8161ZM28.0246 38.0003L19.4946 40.9988L19.1186 41.1354L19.2485 41.5048L19.9827 43.5845C20.986 46.4345 23.6857 48.3406 26.6998 48.3406C27.1467 48.3406 27.5891 48.3016 28.0246 48.2177C28.3757 48.1516 28.7268 48.0581 29.071 47.9348L36.5519 45.299L36.926 45.1691L36.7961 44.7972L34.696 38.8373C34.2765 37.6288 33.1388 36.8285 31.8619 36.8285C31.5223 36.8285 31.1871 36.8856 30.8656 36.997L28.0246 38.0003Z" fill="white"/>
<path fill-rule="evenodd" clip-rule="evenodd" d="M43.3719 48.2881C39.53 48.2881 37.4985 46.3296 37.4985 42.6133C37.4985 40.365 38.1871 38.3105 39.4365 36.8353C40.7839 35.2437 42.6811 34.407 44.9268 34.407C46.6187 34.407 48.0437 34.8038 49.0607 35.5537C50.2166 36.4159 50.8231 37.688 50.8573 39.3479V39.4526H50.75H47.1866H47.0838V39.3479C47.0838 37.9341 46.3793 37.3004 44.8061 37.3004C42.0085 37.3004 41.2743 40.8256 41.2743 42.6883C41.2743 43.9217 41.68 45.3902 43.625 45.3902C45.4079 45.3902 46.1354 43.931 46.4067 43.0598L46.4316 42.9823H46.5092H50.0707H50.2214L50.1735 43.1237C49.047 46.5004 46.694 48.2881 43.3719 48.2881ZM56.7287 45.6069C58.2176 45.2784 58.7785 44.0427 59.1229 42.8319L59.4054 41.8219C58.6233 42.2027 57.7362 42.2666 56.8746 42.3215L56.7287 42.3304L56.5781 42.3438C55.057 42.5101 54.0428 42.9162 54.0428 44.3415C54.0428 45.34 55.0369 45.6912 55.8921 45.6912C56.195 45.6912 56.4708 45.6637 56.7287 45.6069ZM56.7287 40.1007L56.8698 40.0821C59.1363 39.8587 60.1738 39.754 60.1738 38.4723C60.1738 37.1044 58.5275 36.9972 58.0216 36.9972C57.5268 36.9972 57.0914 37.0885 56.7287 37.2414C56.0581 37.5421 55.6204 38.0822 55.493 38.819L52.0544 38.9055C52.1616 37.2366 52.8958 36.0807 54.1386 35.3395C54.8568 34.9152 55.721 34.6327 56.7287 34.4961C57.1891 34.4322 57.6771 34.407 58.1968 34.407C60.4314 34.407 62.0093 34.8606 62.8939 35.7567C63.4183 36.2879 63.6897 36.9857 63.6989 37.8134C63.6989 38.3992 63.6006 39.1382 63.4183 40.1233L62.2647 45.3467C62.1482 45.7755 62.0936 46.5438 62.0936 47.075C62.0936 47.2943 62.1392 47.5813 62.2123 47.7955L62.2602 47.935H62.1095H58.5505L58.4433 46.8196C57.9734 47.2828 57.3851 47.6474 56.7287 47.9028C56.0676 48.1537 55.3357 48.2881 54.5852 48.2881C51.6052 48.2881 50.2671 46.5234 50.2671 44.7721C50.2671 42.2892 52.1115 40.6385 55.3264 40.2507L56.7287 40.1007ZM67.5385 47.935H67.4539H63.8902H63.7602L63.7899 47.8118L66.4985 34.838L66.5148 34.7559H66.5991H69.9895H70.1217L70.0945 34.8859L69.684 36.6847C70.5549 35.2641 72.151 34.407 73.9776 34.407C74.3536 34.407 74.707 34.4275 75.0923 34.4798L75.2085 34.4913L75.1858 34.6078L74.4586 38.0666L74.436 38.1735L74.3287 38.1531C74.2467 38.1327 74.1554 38.1145 74.0685 38.0937C73.6673 38.012 73.2523 37.9252 72.8443 37.9252C70.0307 37.9252 69.1822 40.1642 68.7628 42.107L67.5567 47.8504L67.5385 47.935ZM80.2362 45.3104C82.3568 44.8041 83.3553 41.9723 83.3553 40.0001C83.3553 38.2856 82.457 37.3004 80.8999 37.3004C80.6694 37.3004 80.4463 37.3253 80.2362 37.371C78.0907 37.8476 77.1193 40.6044 77.1193 42.6133C77.1193 43.8921 77.7555 45.3902 79.5477 45.3902C79.7893 45.3902 80.0176 45.3627 80.2362 45.3104V45.3104ZM80.2362 34.4115L80.528 34.407C81.8004 34.407 83.4693 34.9111 84.1601 36.3201L85.5375 29.8971L89.206 29.8128L85.519 47.8504L81.9827 47.935L82.1448 46.5802C81.6797 47.2209 81.0228 47.6997 80.2362 47.9781C79.6798 48.1808 79.0599 48.2881 78.3892 48.2881C75.2793 48.2881 73.3413 46.2862 73.3413 43.0621C73.3413 40.7934 73.9728 38.682 75.106 37.1249C76.3443 35.4215 78.1182 34.4824 80.2362 34.4115V34.4115ZM82.2703 27.1518C80.7856 27.1518 79.4155 26.8258 78.4167 26.2353C77.1695 25.494 76.5128 24.3452 76.5128 22.9039V22.366V22.2565H76.6201H80.0105H80.1155V22.366V22.8014C80.1155 23.912 81.3806 24.491 82.6326 24.491C83.1501 24.491 84.8352 24.386 84.8352 23.0067C84.8352 22.1879 84.434 21.9191 83.5995 21.65L80.7971 20.7472C78.9274 20.1429 77.8443 19.3768 77.8443 17.2495C77.8443 14.2692 80.8565 12.9307 83.839 12.9307C85.98 12.9307 87.4596 13.378 88.3671 14.2989C89.0691 15.0102 89.4116 16.0112 89.3931 17.2814V17.3906H89.2836H85.8954H85.7859L85.7837 17.2814C85.7562 16.1597 85.104 15.5918 83.839 15.5918C82.8695 15.5918 81.7117 15.7993 81.7117 16.7889C81.7117 17.2402 81.976 17.6118 83.3052 18.0223L85.1337 18.6129C86.9852 19.2239 88.6975 20.1225 88.6975 22.5208C88.6975 24.0579 87.984 25.298 86.6321 26.1053C85.5123 26.7779 83.9641 27.1518 82.2703 27.1518V27.1518ZM60.1329 26.7939H60.0506H56.4003H56.2659L56.2933 26.657L57.9095 18.8727C58.0194 18.4785 58.14 17.6211 58.14 17.2814C58.14 16.5424 57.2804 16.0272 56.503 16.0272C53.9148 16.0272 53.11 18.5535 52.8821 19.6389L51.3981 26.7048L51.3795 26.7939H51.2908H47.6424H47.5058L47.5352 26.657L50.3079 13.3754L50.3261 13.2912H50.4149H53.9081H54.0428L54.0131 13.4259L53.6802 14.9284C54.8568 13.6011 56.3731 12.9307 58.1968 12.9307C60.7714 12.9307 62.1871 14.2373 62.1871 16.6088C62.1871 16.9893 62.0546 17.7647 61.7973 18.9206L60.1556 26.7048L60.1329 26.7939ZM24.7641 18.6218H21.8091L20.7761 23.4421H24.7641H25.7014C27.6119 23.4421 28.7518 22.3775 28.7518 20.5965C28.7518 18.7747 27.165 18.6218 25.6761 18.6218H24.7641ZM24.7641 11.5766H23.2753L22.4178 15.6556H24.7641H26.8573C28.1616 15.6556 29.4723 14.9418 29.4723 13.3505C29.4723 12.142 28.8294 11.5766 27.45 11.5766H24.7641ZM24.7641 26.7939H16.0953L19.8392 8.31161L24.7641 8.22925H27.6531C29.7507 8.22925 31.1141 8.49612 32.0695 9.07998C33.1798 9.77078 33.7247 10.9267 33.7247 12.6278C33.7247 13.7017 33.3895 14.7232 32.7878 15.5142C32.2176 16.2599 31.4403 16.7569 30.535 16.9485C32.0673 17.4956 33.0064 18.8932 33.0064 20.6693C33.0064 22.5642 32.254 24.1559 30.8338 25.2549C29.5591 26.2442 27.799 26.7939 25.8814 26.7939H24.7641ZM70.1035 18.5056H73.0173C72.9995 17.2677 72.6869 15.9017 70.6577 15.9017C70.4661 15.9017 70.2861 15.9088 70.1035 15.9337C68.7628 16.1163 67.785 16.9804 67.1896 18.5056H70.1035ZM70.1035 12.94L70.4524 12.9307C72.3425 12.9307 73.9204 13.4463 75.008 14.4174C76.1642 15.4481 76.7545 16.9414 76.7545 18.8456C76.7545 19.5431 76.6795 20.2728 76.5473 20.9477L70.1035 21.0345H66.7517L66.7338 21.7023C66.7338 23.2825 67.7594 24.1855 69.5541 24.1855C69.7479 24.1855 69.9372 24.167 70.1035 24.1351C71.1365 23.9254 71.7203 23.1503 72.1877 22.4068L75.9267 22.3637H76.0863L76.0273 22.5071C74.894 25.4305 73.0927 26.8463 70.1035 27.1083C69.7638 27.1358 69.4101 27.1518 69.0411 27.1518C65.2698 27.1518 63.0216 24.9424 63.0216 21.235C63.0216 19.0665 63.7264 17.019 65.0097 15.4756C66.3051 13.9251 68.1042 13.0335 70.1035 12.94V12.94ZM40.3029 18.7632L40.4465 18.7498C42.7724 18.5171 43.8325 18.4143 43.8325 17.0988C43.8325 15.7013 42.1477 15.5918 41.6276 15.5918C41.1258 15.5918 40.6789 15.6761 40.3006 15.8449C39.6165 16.1459 39.1696 16.702 39.0397 17.45L35.5149 17.5413C35.6263 15.8312 36.3812 14.6523 37.6533 13.891C38.3831 13.453 39.2699 13.1657 40.3006 13.0268C40.7724 12.9675 41.2787 12.9307 41.8077 12.9307C44.0991 12.9307 45.7159 13.4006 46.6187 14.3171C47.1546 14.862 47.4304 15.5666 47.4419 16.4103C47.4442 17.0283 47.3484 17.7647 47.1569 18.7862L45.978 24.1351C45.8525 24.5775 45.7979 25.3619 45.7979 25.9138C45.7979 26.135 45.8481 26.429 45.9189 26.6455L45.9713 26.7939H45.8161H42.1703L42.0586 25.6425C41.5798 26.1213 40.9799 26.4951 40.3006 26.7572C39.6258 27.0129 38.8756 27.1518 38.1095 27.1518C35.0539 27.1518 33.6838 25.3392 33.6838 23.5516C33.6838 21.0093 35.5739 19.3244 38.8664 18.9206L40.3029 18.7632ZM40.4239 24.3905C41.9491 24.0553 42.4053 22.8084 42.7586 21.5657L43.0526 20.5234C42.2431 20.918 41.3381 20.9841 40.4532 21.0412L40.15 21.0639C38.5928 21.235 37.5486 21.65 37.5486 23.1114C37.5486 24.1329 38.5701 24.491 39.4454 24.491C39.7624 24.491 40.1685 24.4521 40.4239 24.3905" fill="#194084"/>
</svg>
