<svg width="40" height="40" viewBox="0 0 40 40" fill="none" xmlns="http://www.w3.org/2000/svg">
<rect y="7" width="40" height="26" rx="4" fill="#00437A"/>
<g clip-path="url(#clip0)">
<mask id="path-4-inside-1" fill="white">
<path d="M26.1659 29H12V11H28.7586V26.3918C28.7586 26.7344 28.6916 27.0736 28.5613 27.3901C28.431 27.7066 28.24 27.9942 27.9992 28.2364C27.7584 28.4786 27.4726 28.6707 27.158 28.8017C26.8435 28.9327 26.5064 29.0001 26.1659 29Z"/>
</mask>
<path d="M26.1659 29H12V11H28.7586V26.3918C28.7586 26.7344 28.6916 27.0736 28.5613 27.3901C28.431 27.7066 28.24 27.9942 27.9992 28.2364C27.7584 28.4786 27.4726 28.6707 27.158 28.8017C26.8435 28.9327 26.5064 29.0001 26.1659 29Z" fill="#00437A"/>
<path d="M12 29H11.8V29.2H12V29ZM12 11V10.8H11.8V11H12ZM28.7586 11H28.9586V10.8H28.7586V11ZM28.7586 26.3918H28.5586V26.3918L28.7586 26.3918ZM26.1659 28.8H12V29.2H26.1659V28.8ZM12.2 29V11H11.8V29H12.2ZM12 11.2H28.7586V10.8H12V11.2ZM28.5586 11V26.3918H28.9586V11H28.5586ZM28.5586 26.3918C28.5586 26.7083 28.4967 27.0216 28.3763 27.314L28.7462 27.4662C28.8865 27.1256 28.9586 26.7605 28.9586 26.3918L28.5586 26.3918ZM28.3763 27.314C28.256 27.6063 28.0796 27.8718 27.8574 28.0954L28.141 28.3774C28.4003 28.1165 28.6059 27.8069 28.7462 27.4662L28.3763 27.314ZM27.8574 28.0954C27.6351 28.3189 27.3713 28.4962 27.0811 28.6171L27.2349 28.9863C27.5739 28.8452 27.8817 28.6382 28.141 28.3774L27.8574 28.0954ZM27.0811 28.6171C26.7909 28.738 26.48 28.8001 26.166 28.8L26.1658 29.2C26.5327 29.2001 26.896 29.1275 27.2349 28.9863L27.0811 28.6171Z" fill="white" mask="url(#path-4-inside-1)"/>
<path d="M20.7721 13.1948L25.0302 17.4028C25.0867 17.4586 25.1315 17.5252 25.1621 17.5986C25.1928 17.672 25.2085 17.7508 25.2086 17.8305C25.2086 17.9101 25.1928 17.9889 25.1623 18.0623C25.1317 18.1358 25.0869 18.2024 25.0304 18.2582L20.7738 22.4653L20.7744 20.1134L22.7734 18.128C22.8126 18.0891 22.8437 18.0427 22.8649 17.9916C22.8861 17.9405 22.8971 17.8857 22.8971 17.8303C22.8971 17.7749 22.8862 17.7201 22.865 17.669C22.8438 17.6179 22.8128 17.5715 22.7736 17.5326L20.7721 15.5407V13.1948Z" fill="white"/>
<path d="M19.9866 13.1948L15.7285 17.4028C15.672 17.4586 15.6272 17.5252 15.5966 17.5986C15.5659 17.672 15.5502 17.7509 15.5502 17.8305C15.5502 17.9101 15.5659 17.989 15.5966 18.0624C15.6272 18.1358 15.672 18.2024 15.7285 18.2582L19.9849 22.4653L19.9843 20.1134L17.9852 18.128C17.9461 18.0891 17.915 18.0427 17.8938 17.9916C17.8726 17.9405 17.8617 17.8857 17.8617 17.8303C17.8617 17.7749 17.8726 17.7201 17.8938 17.669C17.915 17.6179 17.9461 17.5715 17.9852 17.5326L19.9868 15.5407L19.9866 13.1948Z" fill="white"/>
<path d="M18.2794 25.7578L17.8625 24.4339L17.4545 25.7579L18.2794 25.7578ZM18.2569 23.9966L19.1984 26.796H18.6066L18.4183 26.2159H17.3112L17.1182 26.796H16.5265L17.396 24.2103C17.417 24.148 17.4568 24.0939 17.51 24.0556C17.5631 24.0172 17.6268 23.9966 17.6922 23.9966L18.2569 23.9966Z" fill="white"/>
<path d="M20.943 26.0854C20.943 26.2913 20.8355 26.3586 20.5798 26.3586H20.0015V25.5937H20.6293C20.8534 25.5937 20.943 25.686 20.943 25.8753V26.0854ZM20.0015 24.4334H20.5439C20.7502 24.4334 20.84 24.5051 20.84 24.6605V24.9084C20.84 25.0724 20.7594 25.1691 20.5396 25.1691H20.0015V24.4334ZM21.0729 25.3372C21.3016 25.2447 21.4049 25.1145 21.4049 24.8833V24.5934C21.4049 24.2151 21.1761 23.9966 20.6111 23.9966H19.4364V26.7959H20.6917C21.2342 26.7959 21.5076 26.5478 21.5076 26.1528V25.8542C21.5076 25.581 21.3463 25.3919 21.0727 25.3372" fill="white"/>
<path d="M15.4978 24.3906H16.3095V24.1877C16.3095 24.1513 16.3024 24.1152 16.2885 24.0815C16.2747 24.0478 16.2544 24.0172 16.2288 23.9915C16.2032 23.9657 16.1728 23.9452 16.1393 23.9313C16.1059 23.9173 16.07 23.9102 16.0338 23.9102H15.4978C14.7724 23.9172 14.4607 24.2141 14.4607 24.7206V25.9818C14.4607 26.4884 14.7724 26.7852 15.4978 26.7922V26.7941H16.2787V26.5905C16.2787 26.517 16.2497 26.4466 16.1981 26.3946C16.1464 26.3427 16.0764 26.3135 16.0034 26.3135H15.4978V26.3116C15.1438 26.3017 15.0257 26.1754 15.0257 25.889V24.8132C15.0257 24.5269 15.1439 24.4005 15.4978 24.3906Z" fill="white"/>
<path d="M25.0697 26.3294V23.9551H24.8176C24.7766 23.9551 24.7359 23.9632 24.698 23.9791C24.66 23.9949 24.6256 24.0181 24.5965 24.0473C24.5675 24.0765 24.5445 24.1112 24.5288 24.1494C24.5131 24.1876 24.505 24.2286 24.505 24.2699V26.796H26.2979V26.3294H25.0697Z" fill="white"/>
<path d="M23.3859 25.7578L22.969 24.4339L22.561 25.7579L23.3859 25.7578ZM23.3634 23.9966L24.305 26.7959H23.7131L23.5249 26.2159H22.4177L22.2248 26.7959H21.6331L22.4761 24.2893C22.5048 24.204 22.5593 24.1299 22.6321 24.0774C22.7048 24.0249 22.7921 23.9966 22.8816 23.9966H23.3634Z" fill="white"/>
</g>
<defs>
<clipPath id="clip0">
<rect x="12" y="11" width="16.7586" height="18" fill="white"/>
</clipPath>
</defs>
</svg>
