<svg width="100" height="66" viewBox="0 0 100 66" fill="none" xmlns="http://www.w3.org/2000/svg">
<path d="M90 0.912598H10C4.47715 0.912598 0 5.38975 0 10.9126V55.9126C0 61.4354 4.47715 65.9126 10 65.9126H90C95.5229 65.9126 100 61.4354 100 55.9126V10.9126C100 5.38975 95.5229 0.912598 90 0.912598Z" fill="#00437A"/>
<mask id="mask0" mask-type="alpha" maskUnits="userSpaceOnUse" x="30" y="10" width="42" height="46">
<path d="M65.4147 55.9126H30V10.9126H71.8965V49.3921C71.8965 50.2486 71.729 51.0966 71.4032 51.8878C71.0775 52.6791 70.6 53.3981 69.998 54.0036C69.396 54.6091 68.6815 55.0893 67.895 55.4168C67.1087 55.7443 66.266 55.9128 65.4147 55.9126Z" fill="white"/>
</mask>
<g mask="url(#mask0)">
<path d="M65.4147 55.9126H30V10.9126H71.8965V49.3921C71.8965 50.2486 71.729 51.0966 71.4032 51.8878C71.0775 52.6791 70.6 53.3981 69.998 54.0036C69.396 54.6091 68.6815 55.0893 67.895 55.4168C67.1087 55.7443 66.266 55.9128 65.4147 55.9126Z" fill="#00437A"/>
<path d="M30 55.9126H29.5V56.4126H30V55.9126ZM30 10.9126V10.4126H29.5V10.9126H30ZM71.8965 10.9126H72.3965V10.4126H71.8965V10.9126ZM71.8965 49.3921H71.3965H71.8965ZM65.4148 55.4126H30V56.4126H65.4148V55.4126ZM30.5 55.9126V10.9126H29.5V55.9126H30.5ZM30 11.4126H71.8965V10.4126H30V11.4126ZM71.3965 10.9126V49.3921H72.3965V10.9126H71.3965ZM71.3965 49.3921C71.3965 50.1833 71.2418 50.9666 70.9408 51.6976L71.8655 52.0781C72.2163 51.2266 72.3965 50.3138 72.3965 49.3921H71.3965ZM70.9408 51.6976C70.64 52.4283 70.199 53.0921 69.6435 53.6511L70.3525 54.3561C71.0008 53.7038 71.5148 52.9298 71.8655 52.0781L70.9408 51.6976ZM69.6435 53.6511C69.0878 54.2098 68.4283 54.6531 67.7028 54.9553L68.0873 55.8783C68.9348 55.5256 69.7043 55.0081 70.3525 54.3561L69.6435 53.6511ZM67.7028 54.9553C66.9773 55.2576 66.2 55.4128 65.415 55.4126L65.4145 56.4126C66.3318 56.4128 67.24 56.2313 68.0873 55.8783L67.7028 54.9553Z" fill="white"/>
<path d="M51.9302 16.3997L62.5755 26.9197C62.7167 27.0592 62.8287 27.2257 62.9052 27.4092C62.982 27.5927 63.0212 27.7897 63.0215 27.9889C63.0215 28.1879 62.982 28.3849 62.9057 28.5684C62.8292 28.7522 62.7172 28.9187 62.576 29.0582L51.9345 39.5759L51.936 33.6962L56.9335 28.7327C57.0315 28.6354 57.1092 28.5194 57.1622 28.3917C57.2152 28.2639 57.2427 28.1269 57.2427 27.9884C57.2427 27.8499 57.2155 27.7129 57.1625 27.5852C57.1095 27.4574 57.032 27.3414 56.934 27.2442L51.9302 22.2644V16.3997Z" fill="white"/>
<path d="M49.9664 16.3997L39.3212 26.9197C39.1799 27.0592 39.0679 27.2257 38.9914 27.4092C38.9147 27.5927 38.8754 27.7899 38.8754 27.9889C38.8754 28.1879 38.9147 28.3852 38.9914 28.5687C39.0679 28.7522 39.1799 28.9187 39.3212 29.0582L49.9622 39.5759L49.9607 33.6962L44.9629 28.7327C44.8652 28.6354 44.7874 28.5194 44.7344 28.3917C44.6814 28.2639 44.6542 28.1269 44.6542 27.9884C44.6542 27.8499 44.6814 27.7129 44.7344 27.5852C44.7874 27.4574 44.8652 27.3414 44.9629 27.2442L49.9669 22.2644L49.9664 16.3997Z" fill="white"/>
<path d="M45.6985 47.8071L44.6562 44.4973L43.6362 47.8073L45.6985 47.8071ZM45.6422 43.4041L47.996 50.4026H46.5165L46.0457 48.9523H43.278L42.7955 50.4026H41.3162L43.49 43.9383C43.5425 43.7826 43.642 43.6473 43.775 43.5516C43.9077 43.4556 44.067 43.4041 44.2305 43.4041H45.6422Z" fill="white"/>
<path d="M52.3575 48.6261C52.3575 49.1408 52.0888 49.3091 51.4495 49.3091H50.0038V47.3968H51.5733C52.1335 47.3968 52.3575 47.6276 52.3575 48.1008V48.6261ZM50.0038 44.4961H51.3598C51.8755 44.4961 52.1 44.6753 52.1 45.0638V45.6836C52.1 46.0936 51.8985 46.3353 51.349 46.3353H50.0038V44.4961ZM52.6823 46.7556C53.254 46.5243 53.5123 46.1988 53.5123 45.6208V44.8961C53.5123 43.9503 52.9403 43.4041 51.5278 43.4041H48.591V50.4023H51.7293C53.0855 50.4023 53.769 49.7821 53.769 48.7946V48.0481C53.769 47.3651 53.3658 46.8923 52.6818 46.7556" fill="white"/>
<path d="M38.7445 44.3891H40.7737V43.8819C40.7737 43.7909 40.756 43.7006 40.7212 43.6164C40.6867 43.5321 40.636 43.4556 40.572 43.3914C40.508 43.3269 40.432 43.2756 40.3482 43.2409C40.2647 43.2059 40.175 43.1881 40.0845 43.1881H38.7445C36.931 43.2056 36.1517 43.9479 36.1517 45.2141V48.3671C36.1517 49.6336 36.931 50.3756 38.7445 50.3931V50.3979H40.6967V49.8889C40.6967 49.7051 40.6242 49.5291 40.4952 49.3991C40.366 49.2694 40.191 49.1964 40.0085 49.1964H38.7445V49.1916C37.8595 49.1669 37.5642 48.8511 37.5642 48.1351V45.4456C37.5642 44.7299 37.8597 44.4139 38.7445 44.3891Z" fill="white"/>
<path d="M62.6743 49.236V43.3003H62.044C61.9415 43.3003 61.8398 43.3205 61.745 43.3603C61.65 43.3998 61.564 43.4578 61.4913 43.5308C61.4188 43.6038 61.3613 43.6905 61.322 43.786C61.2828 43.8815 61.2625 43.984 61.2625 44.0873V50.4025H65.7448V49.236H62.6743Z" fill="white"/>
<path d="M58.4648 47.8071L57.4225 44.4973L56.4025 47.8073L58.4648 47.8071ZM58.4085 43.4041L60.7625 50.4023H59.2828L58.8123 48.9523H56.0443L55.562 50.4023H54.0828L56.1903 44.1358C56.262 43.9226 56.3983 43.7373 56.5803 43.6061C56.762 43.4748 56.9803 43.4041 57.204 43.4041H58.4085Z" fill="white"/>
</g>
</svg>
