<svg width="100" height="26" viewBox="0 0 100 26" fill="none" xmlns="http://www.w3.org/2000/svg">
<g clip-path="url(#clip0)">
<path d="M19.1614 25.9126C26.2437 25.9465 32.708 20.1367 32.708 13.0689C32.708 5.33983 26.2437 -0.00258503 19.1614 -1.43315e-05H13.0663C5.89923 -0.00258503 0 5.34143 0 13.0689C0 20.1382 5.89923 25.9465 13.0663 25.9126H19.1614Z" fill="#0079BE"/>
<path d="M13.0952 1.07095C6.54609 1.07301 1.23915 6.38149 1.23761 12.9332C1.23915 19.4838 6.54604 24.7918 13.0952 24.7938C19.6458 24.7918 24.9539 19.4838 24.9548 12.9332C24.9538 6.38149 19.6458 1.07301 13.0952 1.07095ZM5.579 12.9332C5.58517 9.73167 7.58465 7.00159 10.4042 5.91671V19.9481C7.58465 18.8638 5.58512 16.1352 5.579 12.9332ZM15.7852 19.9511V5.91625C18.6057 6.99851 20.6083 9.73012 20.6134 12.9332C20.6083 16.1373 18.6057 18.8668 15.7852 19.9511Z" fill="white"/>
<path d="M36.8613 5.57485C36.8613 4.34909 36.2222 4.42981 35.6093 4.4165V4.06226C36.1404 4.08848 36.6849 4.08848 37.2171 4.08848C37.7893 4.08848 38.5662 4.06226 39.5749 4.06226C43.1029 4.06226 45.0242 6.41907 45.0242 8.83238C45.0242 10.182 44.2345 13.5748 39.4108 13.5748C38.7162 13.5748 38.0751 13.548 37.435 13.548C36.8222 13.548 36.2222 13.5614 35.6093 13.5748V13.2211C36.4263 13.1388 36.8222 13.1116 36.8612 12.1846V5.57485H36.8613ZM38.197 11.9671C38.197 13.0164 38.9471 13.1388 39.6145 13.1388C42.5585 13.1388 43.525 10.9172 43.525 8.88637C43.525 6.33881 41.8896 4.49922 39.2603 4.49922C38.7009 4.49922 38.4439 4.53933 38.1971 4.55377L38.197 11.9671Z" fill="#211E1F"/>
<path d="M45.5024 13.2211H45.7605C46.1415 13.2211 46.4146 13.2211 46.4146 12.7702V9.07769C46.4146 8.47877 46.2104 8.39543 45.7061 8.12448V7.90597C46.3462 7.71368 47.1103 7.45661 47.1637 7.41548C47.2598 7.36098 47.3411 7.34659 47.4094 7.34659C47.4768 7.34659 47.5051 7.42885 47.5051 7.53836V12.7702C47.5051 13.2211 47.8048 13.2211 48.1863 13.2211H48.4177V13.5754C47.9539 13.5754 47.4768 13.5482 46.9873 13.5482C46.4968 13.5482 46.0058 13.5615 45.5025 13.5754V13.2211H45.5024ZM46.96 5.24834C46.6053 5.24834 46.2927 4.9214 46.2927 4.5671C46.2927 4.22571 46.6197 3.91158 46.96 3.91158C47.3132 3.91158 47.6279 4.19903 47.6279 4.5671C47.6279 4.93523 47.3272 5.24834 46.96 5.24834Z" fill="#211E1F"/>
<path d="M49.7122 9.15893C49.7122 8.65507 49.5615 8.51934 48.9225 8.26021V8.00165C49.5081 7.81091 50.066 7.63353 50.7204 7.34664C50.7611 7.34664 50.8011 7.3744 50.8011 7.48289V8.36921C51.5791 7.81091 52.2469 7.34659 53.161 7.34659C54.3179 7.34659 54.7265 8.19178 54.7265 9.25451V12.7702C54.7265 13.2211 55.0263 13.2211 55.4083 13.2211H55.6536V13.5754C55.1754 13.5754 54.6988 13.5482 54.2094 13.5482C53.7183 13.5482 53.2273 13.5615 52.7373 13.5754V13.2211H52.9821C53.3645 13.2211 53.6356 13.2211 53.6356 12.7702V9.24165C53.6356 8.46376 53.161 8.08278 52.3831 8.08278C51.9477 8.08278 51.2525 8.43708 50.8011 8.73728V12.7701C50.8011 13.2211 51.1023 13.2211 51.4844 13.2211H51.7291V13.5753C51.2525 13.5753 50.7748 13.5481 50.2844 13.5481C49.7944 13.5481 49.3029 13.5615 48.8129 13.5753V13.2211H49.0586C49.4401 13.2211 49.7121 13.2211 49.7121 12.7701V9.15893H49.7122Z" fill="#211E1F"/>
<path d="M56.6895 9.81388C56.6611 9.93681 56.6611 10.1409 56.6895 10.6046C56.7697 11.8987 57.6031 12.9615 58.6915 12.9615C59.4416 12.9615 60.0287 12.5527 60.5321 12.0489L60.7223 12.2402C60.0951 13.071 59.3187 13.7794 58.202 13.7794C56.0349 13.7794 55.5989 11.6802 55.5989 10.8088C55.5989 8.13727 57.3973 7.34653 58.3505 7.34653C59.4549 7.34653 60.6411 8.04118 60.6539 9.48586C60.6539 9.56863 60.6539 9.64935 60.6411 9.73213L60.5177 9.81388H56.6895ZM59.1018 9.37743C59.4416 9.37743 59.4818 9.20005 59.4818 9.03707C59.4818 8.3419 59.0596 7.78303 58.2962 7.78303C57.4658 7.78303 56.8935 8.39537 56.73 9.37743H59.1018Z" fill="#211E1F"/>
<path d="M60.9677 13.2211H61.3358C61.7161 13.2211 61.9887 13.2211 61.9887 12.7702V8.94139C61.9887 8.51928 61.4854 8.43702 61.2802 8.32802V8.12442C62.2751 7.70128 62.8206 7.34653 62.9445 7.34653C63.0252 7.34653 63.0653 7.38766 63.0653 7.52442V8.75064H63.0941C63.4339 8.21953 64.0072 7.34653 64.8376 7.34653C65.1784 7.34653 65.6139 7.57789 65.6139 8.06889C65.6139 8.43702 65.3558 8.76504 64.9744 8.76504C64.5502 8.76504 64.5502 8.43702 64.0741 8.43702C63.8422 8.43702 63.0798 8.75064 63.0798 9.56864V12.7702C63.0798 13.2211 63.3517 13.2211 63.7337 13.2211H64.4962V13.5754C63.7466 13.5614 63.1764 13.5481 62.5892 13.5481C62.0309 13.5481 61.4581 13.5615 60.9677 13.5754V13.2211H60.9677Z" fill="#211E1F"/>
<path d="M66.2138 11.6802C66.3912 12.58 66.9357 13.3435 67.931 13.3435C68.733 13.3435 69.0332 12.853 69.0332 12.3759C69.0332 10.7677 66.0636 11.2854 66.0636 9.09157C66.0636 8.32808 66.6774 7.34659 68.1757 7.34659C68.6112 7.34659 69.1967 7.46998 69.7278 7.74299L69.8245 9.13173H69.5104C69.3746 8.27409 68.8981 7.78314 68.025 7.78314C67.48 7.78314 66.9628 8.09682 66.9628 8.68237C66.9628 10.2783 70.1237 9.78623 70.1237 11.9256C70.1237 12.8248 69.4013 13.7795 67.7798 13.7795C67.2348 13.7795 66.5946 13.5888 66.1181 13.3168L65.968 11.7493L66.2138 11.6802Z" fill="#211E1F"/>
<path d="M82.428 6.52905H82.0881C81.829 4.93522 80.6979 4.29409 79.1724 4.29409C77.6043 4.29409 75.3287 5.34288 75.3287 8.61337C75.3287 11.3681 77.2922 13.3434 79.3899 13.3434C80.7385 13.3434 81.8567 12.4169 82.1292 10.9856L82.4418 11.0668L82.1292 13.0565C81.5569 13.4118 80.0171 13.7794 79.1169 13.7794C75.9292 13.7794 73.9132 11.7214 73.9132 8.65502C73.9132 5.86119 76.4063 3.85707 79.0767 3.85707C80.1801 3.85707 81.2428 4.21286 82.2922 4.58098L82.428 6.52905Z" fill="#211E1F"/>
<path d="M82.9194 13.2211H83.1775C83.5595 13.2211 83.833 13.2211 83.833 12.7702V5.18052C83.833 4.29415 83.6284 4.26685 83.1101 4.11723V3.89924C83.6551 3.72242 84.2273 3.47661 84.5138 3.31266C84.6623 3.23142 84.7723 3.16248 84.8124 3.16248C84.8958 3.16248 84.923 3.24479 84.923 3.35425V12.7702C84.923 13.2211 85.2222 13.2211 85.6042 13.2211H85.8341V13.5754C85.3728 13.5754 84.8958 13.5481 84.4047 13.5481C83.9148 13.5481 83.4242 13.5615 82.9193 13.5754V13.2211H82.9194Z" fill="#211E1F"/>
<path d="M91.6683 12.8247C91.6683 13.071 91.8174 13.0844 92.0487 13.0844C92.2127 13.0844 92.4163 13.071 92.5942 13.071V13.3579C92.0076 13.4119 90.8904 13.6983 90.6312 13.7795L90.5628 13.7383V12.6355C89.7464 13.3028 89.1186 13.7795 88.1505 13.7795C87.4148 13.7795 86.6519 13.3028 86.6519 12.1589V8.6689C86.6519 8.31466 86.5978 7.97373 85.8359 7.90592V7.64679C86.3269 7.63343 87.4148 7.55163 87.5927 7.55163C87.7439 7.55163 87.7439 7.64679 87.7439 7.94654V11.4617C87.7439 11.8715 87.7439 13.0431 88.9284 13.0431C89.3917 13.0431 90.0045 12.6889 90.5763 12.2133V8.54546C90.5763 8.27399 89.9228 8.12438 89.4334 7.98756V7.74232C90.658 7.66006 91.4225 7.55157 91.5578 7.55157C91.6682 7.55157 91.6682 7.64669 91.6682 7.79733V12.8247H91.6683Z" fill="#211E1F"/>
<path d="M94.3795 8.32808C94.924 7.86479 95.6596 7.34659 96.4098 7.34659C97.9907 7.34659 98.9435 8.72448 98.9435 10.2087C98.9435 11.9939 97.636 13.7794 95.6863 13.7794C94.6786 13.7794 94.1475 13.4519 93.7928 13.3028L93.3846 13.6154L93.0993 13.4663C93.2201 12.6622 93.2895 11.8715 93.2895 11.0406V5.18047C93.2895 4.29415 93.0838 4.26685 92.5665 4.11723V3.89924C93.1131 3.72242 93.6838 3.47661 93.9702 3.3126C94.1203 3.23137 94.2287 3.16248 94.2709 3.16248C94.3522 3.16248 94.3794 3.24479 94.3794 3.35425V8.32803H94.3795V8.32808ZM94.3795 12.0345C94.3795 12.5528 94.8695 13.4258 95.7826 13.4258C97.2406 13.4258 97.8535 11.9939 97.8535 10.7806C97.8535 9.30911 96.7373 8.08289 95.6741 8.08289C95.1687 8.08289 94.747 8.41039 94.3795 8.72448V12.0345H94.3795Z" fill="#211E1F"/>
<path d="M35.5938 21.4987H35.6981C35.9644 21.4987 36.2462 21.4628 36.2462 21.0766V17.1918C36.2462 16.8051 35.9644 16.7686 35.6981 16.7686H35.5938V16.546C35.8832 16.546 36.3279 16.5753 36.6925 16.5753C37.0626 16.5753 37.5069 16.546 37.8554 16.546V16.7686H37.7511C37.4853 16.7686 37.2031 16.8051 37.2031 17.1918V21.0766C37.2031 21.4628 37.4853 21.4987 37.7511 21.4987H37.8554V21.7224C37.4997 21.7224 37.0539 21.6931 36.6842 21.6931C36.3208 21.6931 35.8832 21.7224 35.5938 21.7224V21.4987Z" fill="#211E1F"/>
<path d="M37.8557 21.7538C37.4973 21.7538 37.0531 21.724 36.6839 21.724C36.3215 21.724 35.8855 21.7538 35.594 21.7538H35.5621V21.7219V21.4993V21.4669H35.594H35.6979C35.9667 21.4607 36.2115 21.4391 36.2141 21.0767V17.1918C36.2115 16.8293 35.9668 16.8051 35.6979 16.8H35.5621V16.7687V16.5131H35.594C35.8855 16.5131 36.3297 16.5424 36.6922 16.5424C37.0613 16.5424 37.5051 16.5131 37.8557 16.5131H37.8886V16.547V16.8H37.8557H37.7518C37.4829 16.8051 37.2366 16.8293 37.2351 17.1918V21.0767C37.2366 21.4391 37.4829 21.4607 37.7518 21.4669H37.8886V21.4993V21.7538H37.8557ZM37.8238 21.6905V21.5321H37.7518C37.4871 21.5321 37.1719 21.4864 37.1703 21.0767V17.1918C37.1718 16.782 37.487 16.7357 37.7518 16.7357H37.8238V16.5784C37.4814 16.5784 37.0521 16.6072 36.6922 16.6072C36.34 16.6072 35.9138 16.5805 35.6269 16.5784V16.7357H35.6978C35.9621 16.7357 36.2783 16.782 36.2783 17.1918V21.0767C36.2783 21.4864 35.9621 21.5321 35.6978 21.5321H35.6269V21.6905C35.9138 21.6874 36.3327 21.6607 36.6839 21.6607C37.0449 21.6607 37.4742 21.6884 37.8238 21.6905Z" fill="#211E1F"/>
<path d="M42.9493 20.2607L42.9642 20.2463V17.4658C42.9642 16.8571 42.5411 16.7686 42.319 16.7686H42.1554V16.546C42.5045 16.546 42.8454 16.5753 43.1935 16.5753C43.4973 16.5753 43.8027 16.546 44.1061 16.546V16.7686H43.995C43.6829 16.7686 43.3343 16.8277 43.3343 17.71V21.0848C43.3343 21.344 43.342 21.6031 43.3785 21.833H43.0963L39.2788 17.5764V20.6319C39.2788 21.2772 39.4037 21.4988 39.9755 21.4988H40.1009V21.7224C39.7827 21.7224 39.4644 21.6931 39.1451 21.6931C38.8124 21.6931 38.4711 21.7224 38.1369 21.7224V21.4988H38.2408C38.7523 21.4988 38.9076 21.1512 38.9076 20.5584V17.435C38.9076 17.0201 38.5657 16.7687 38.2336 16.7687H38.137V16.5461C38.4186 16.5461 38.7076 16.5753 38.9889 16.5753C39.2115 16.5753 39.4269 16.5461 39.649 16.5461L42.9493 20.2607Z" fill="#211E1F"/>
<path d="M43.3783 21.8653L43.0725 21.854L39.31 17.6602V20.6319C39.3187 21.2767 39.4169 21.4597 39.9753 21.4669H40.1341V21.4988V21.7538H40.1012C39.7804 21.7538 39.4611 21.724 39.1449 21.724C38.8127 21.724 38.4724 21.7538 38.1361 21.7538H38.1037V21.7219V21.4669H38.1361H38.2405C38.7305 21.4643 38.8703 21.1497 38.876 20.5584V17.4355C38.8749 17.0407 38.5511 16.8011 38.2333 16.8001H38.1037V16.7671V16.5142H38.1361C38.4194 16.5142 38.7099 16.5425 38.988 16.5425C39.2086 16.5425 39.4235 16.5142 39.6734 16.525L42.932 20.1934V17.4664C42.9279 16.8762 42.5346 16.8052 42.3186 16.8001H42.1222V16.7671V16.5142H42.1551C42.5053 16.5142 42.8466 16.5425 43.1932 16.5425C43.495 16.5425 43.7988 16.5142 44.1052 16.5142H44.1376V16.5461V16.8H44.1052H43.9947C43.6888 16.8088 43.3746 16.8355 43.366 17.71V21.0843C43.366 21.3434 43.3736 21.6026 43.4097 21.8273L43.4169 21.8653H43.3783V21.8653ZM43.0967 21.8H43.3419C43.3085 21.5774 43.3028 21.3306 43.3028 21.0843V17.71C43.3028 16.8201 43.6756 16.7358 43.9949 16.7358H44.073V16.5784C43.781 16.5805 43.4879 16.6072 43.1934 16.6072C42.854 16.6072 42.524 16.5805 42.1882 16.5784L42.1877 16.7358H42.3188C42.5466 16.7358 42.9964 16.8375 42.9964 17.4664L42.9862 20.2684L42.9713 20.2839L42.9461 20.307L39.6489 16.5784C39.4289 16.5784 39.2139 16.6072 38.9882 16.6072C38.7162 16.6072 38.4381 16.5805 38.1692 16.5784L38.1677 16.7357H38.2335C38.5815 16.7357 38.9389 17.0015 38.9389 17.4355V20.5584C38.9389 21.1511 38.7738 21.5305 38.2407 21.5326L38.1692 21.5305V21.6904C38.4905 21.6874 38.8206 21.6606 39.145 21.6606C39.4545 21.6606 39.7625 21.6874 40.0689 21.6904V21.5326H39.9754C39.3918 21.5305 39.2468 21.2766 39.2463 20.6318V17.493L43.0967 21.8ZM42.949 20.2602L42.9727 20.2386L42.949 20.2602ZM42.9321 20.2458V20.2432L42.9259 20.238L42.9321 20.2458Z" fill="#211E1F"/>
<path d="M45.2159 16.9162C44.6591 16.9162 44.638 17.0499 44.5269 17.5907H44.3043C44.3336 17.3836 44.3706 17.1764 44.3933 16.9604C44.423 16.7527 44.4374 16.546 44.4374 16.3311H44.6158C44.6755 16.5537 44.8606 16.546 45.0616 16.546H48.8863C49.0868 16.546 49.2719 16.5388 49.2874 16.3157L49.4642 16.3456C49.4354 16.546 49.4056 16.7461 49.3829 16.9465C49.3696 17.1466 49.3696 17.347 49.3696 17.5465L49.1464 17.6293C49.131 17.3553 49.094 16.9162 48.5978 16.9162H47.3819V20.8617C47.3819 21.4334 47.6416 21.4988 47.9963 21.4988H48.1377V21.7224C47.8487 21.7224 47.329 21.6931 46.9295 21.6931C46.4848 21.6931 45.9649 21.7224 45.6755 21.7224V21.4988H45.8169C46.2256 21.4988 46.4323 21.4622 46.4323 20.8771V16.9162H45.2159V16.9162Z" fill="#211E1F"/>
<path d="M48.1389 21.7538C47.8468 21.7538 47.328 21.724 46.9295 21.724C46.4853 21.724 45.9666 21.7538 45.6756 21.7538H45.6447V21.7224V21.4669H45.6756H45.8169C46.2257 21.4571 46.3902 21.452 46.3995 20.8771V16.9486H45.2159V16.9162V16.8833H46.4638V20.8771C46.4638 21.472 46.2242 21.5321 45.817 21.5326H45.708V21.6889C46.0005 21.6874 46.4993 21.6607 46.9296 21.6607C47.3163 21.6607 47.8119 21.6874 48.1049 21.6889V21.5326H47.9964C47.6381 21.5321 47.3496 21.4442 47.3496 20.8617V16.8833H48.598C49.0957 16.8853 49.1604 17.3085 49.1769 17.5835L49.3368 17.5244C49.3368 17.3311 49.3378 17.1373 49.3512 16.9419C49.3728 16.7511 49.4 16.5619 49.4278 16.3727L49.3146 16.3537C49.2802 16.5697 49.072 16.5805 48.8853 16.5784H45.0617H45.0231C44.8488 16.5784 44.6581 16.5702 44.5918 16.363H44.4694C44.4683 16.5682 44.4539 16.7671 44.4256 16.9645C44.404 17.1682 44.3701 17.3641 44.3423 17.5599H44.5013C44.5989 17.0432 44.6627 16.8756 45.2159 16.8833V16.9162V16.9486C44.6678 16.9584 44.6792 17.0509 44.5583 17.599L44.5527 17.6242H44.527H44.2673L44.2714 17.5856C44.3013 17.3779 44.3389 17.1712 44.3609 16.9553C44.3918 16.7496 44.4062 16.544 44.4062 16.3311V16.2987H44.4375H44.6411L44.6463 16.3218C44.6972 16.509 44.8344 16.51 45.0231 16.5131H45.0617H48.8853C49.0921 16.51 49.2421 16.5069 49.255 16.3131L49.2581 16.2781L49.2915 16.2853L49.5008 16.3182L49.4961 16.3506C49.4663 16.5491 49.437 16.7496 49.4154 16.9486C49.4005 17.146 49.4005 17.3465 49.4005 17.5465V17.5697L49.3799 17.5779L49.1172 17.6735L49.1152 17.6303C49.0956 17.3516 49.0663 16.9485 48.5979 16.9485H47.4144V20.8616C47.4211 21.421 47.6431 21.4596 47.9963 21.4668H48.1701V21.4987V21.7537L48.1389 21.7538Z" fill="#211E1F"/>
<path d="M49.7014 21.4987H49.8058C50.0722 21.4987 50.3543 21.4628 50.3543 21.0766V17.1918C50.3543 16.8051 50.0722 16.7686 49.8058 16.7686H49.7014V16.546C50.1528 16.546 50.9251 16.5753 51.5466 16.5753C52.1709 16.5753 52.9405 16.546 53.4444 16.546C53.4321 16.8643 53.4388 17.3548 53.4608 17.6803L53.2371 17.7399C53.2017 17.2582 53.1127 16.8731 52.3338 16.8731H51.304V18.815H52.1853C52.6299 18.815 52.7272 18.5636 52.7709 18.1621H52.993C52.9786 18.4525 52.9709 18.7415 52.9709 19.0304C52.9709 19.3127 52.9786 19.5939 52.993 19.8757L52.7709 19.9199C52.7272 19.4752 52.7046 19.1862 52.1925 19.1862H51.3041V20.9132C51.3041 21.3959 51.7323 21.3959 52.2074 21.3959C53.0974 21.3959 53.4896 21.3358 53.7123 20.4916L53.9201 20.5425C53.8229 20.9363 53.7344 21.3286 53.6686 21.7224C53.1936 21.7224 52.3406 21.6931 51.6742 21.6931C51.0058 21.6931 50.1241 21.7224 49.7014 21.7224V21.4987V21.4987Z" fill="#211E1F"/>
<path d="M53.6678 21.7538C53.1917 21.7538 52.3392 21.7234 51.6735 21.7234C51.0056 21.7234 50.1243 21.7538 49.7012 21.7538H49.6699V21.7224V21.4988V21.4669H49.7012H49.8051C50.0739 21.4628 50.3176 21.4391 50.3213 21.0767V17.1918C50.3177 16.8298 50.0739 16.8057 49.8051 16.8H49.6699V16.7687V16.5142H49.7012C50.1536 16.5142 50.9248 16.5425 51.5464 16.5425C52.17 16.5425 52.9392 16.5142 53.4441 16.5142H53.4775L53.4759 16.5471C53.4708 16.6587 53.4688 16.7902 53.4688 16.9301C53.4688 17.1866 53.4759 17.4668 53.4909 17.6782L53.4919 17.7049L53.4672 17.7122L53.2066 17.7801L53.2051 17.742C53.1614 17.2608 53.0971 16.9117 52.3337 16.9045H51.3347L51.3336 18.7816H52.1851C52.6119 18.7775 52.6884 18.559 52.7388 18.1595L52.7414 18.1302H52.7702H53.0257L53.0252 18.1635C53.0109 18.4525 53.0015 18.7414 53.0015 19.0304C53.0015 19.3111 53.0109 19.5923 53.0252 19.8746L53.0257 19.9009L52.999 19.907L52.7414 19.9584L52.7388 19.9234C52.6879 19.471 52.6843 19.2232 52.1917 19.2176L51.3346 19.217V20.9132C51.3353 21.3635 51.7238 21.361 52.2072 21.3635C53.0997 21.3584 53.4576 21.3153 53.6812 20.4823L53.6885 20.4525L53.7198 20.4581L53.9574 20.5193L53.9501 20.5502C53.8545 20.943 53.7655 21.3348 53.6992 21.7275L53.693 21.7538H53.6678V21.7538ZM53.6406 21.689C53.7048 21.3152 53.7896 20.9399 53.8807 20.5666L53.7341 20.5296C53.512 21.3594 53.0821 21.4334 52.2071 21.4278C51.7402 21.4278 51.2724 21.4278 51.2703 20.9131V19.1537H52.1917C52.7093 19.1481 52.7624 19.4607 52.7989 19.8828L52.9593 19.8494C52.9449 19.5764 52.9382 19.3023 52.9382 19.0303C52.9382 18.7512 52.9449 18.4736 52.9593 18.1943H52.7989C52.7578 18.5805 52.6369 18.8519 52.185 18.8468H51.2703V16.8396H52.3337C53.1049 16.8344 53.2328 17.2324 53.2657 17.6987L53.4257 17.6555C53.4128 17.4463 53.404 17.1779 53.404 16.9301C53.404 16.8031 53.4071 16.6833 53.4112 16.5784C52.9074 16.5805 52.1567 16.6072 51.5465 16.6072C50.9372 16.6072 50.1871 16.5805 49.7331 16.5784V16.7357H49.805C50.0693 16.7357 50.385 16.782 50.386 17.1918V21.0767C50.385 21.4854 50.0693 21.5306 49.805 21.5327H49.7331V21.689C50.1655 21.6884 51.0221 21.6607 51.6734 21.6607C52.3274 21.6607 53.1624 21.6884 53.6406 21.689Z" fill="#211E1F"/>
<path d="M54.9204 17.3316C54.9204 16.7907 54.6243 16.7686 54.3934 16.7686H54.2603V16.5455C54.4977 16.5455 54.9569 16.5753 55.4094 16.5753C55.8541 16.5753 56.2104 16.5455 56.6027 16.5455C57.5363 16.5455 58.3678 16.7979 58.3678 17.8519C58.3678 18.5177 57.923 18.926 57.3374 19.1568L58.6047 21.054C58.8124 21.3676 58.96 21.4555 59.324 21.4987V21.7224C59.0793 21.7224 58.8417 21.6931 58.5975 21.6931C58.3677 21.6931 58.1296 21.7224 57.9008 21.7224C57.3301 20.9733 56.8396 20.1722 56.3578 19.3188H55.87V20.9064C55.87 21.4782 56.1358 21.4987 56.4766 21.4987H56.6103V21.7224C56.1867 21.7224 55.7585 21.6931 55.3353 21.6931C54.979 21.6931 54.6304 21.7224 54.2603 21.7224V21.4987H54.3934C54.6689 21.4987 54.9204 21.3743 54.9204 21.0992V17.3316V17.3316ZM55.8699 19.0519H56.2319C56.9738 19.0519 57.3733 18.7702 57.3733 17.8951C57.3733 17.236 56.9512 16.8129 56.2905 16.8129C56.0679 16.8129 55.9733 16.836 55.8699 16.8427V19.0519H55.8699Z" fill="#211E1F"/>
<path d="M59.324 21.7538C59.0757 21.7538 58.8397 21.724 58.596 21.724C58.3698 21.724 58.1333 21.7538 57.8747 21.7414C57.306 20.9954 56.8186 20.199 56.3395 19.3517H55.9014V20.9055C55.9091 21.4633 56.1333 21.4587 56.4762 21.4669H56.6423V21.4988V21.7538H56.6093C56.1857 21.7538 55.7554 21.724 55.3343 21.724C54.98 21.724 54.6325 21.7538 54.2602 21.7538H54.2278V21.7219V21.4669H54.2602H54.3934C54.6607 21.4654 54.8859 21.3492 54.887 21.0993V17.3318C54.8814 16.8053 54.6238 16.8083 54.3934 16.8007H54.2278V16.7688V16.5133H54.2602C54.5003 16.5133 54.9579 16.5425 55.4093 16.5425C55.852 16.5425 56.2083 16.5133 56.6032 16.5133C57.5374 16.5153 58.3981 16.7734 58.4006 17.85C58.4006 18.5199 57.958 18.9379 57.3857 19.1714L58.6314 21.0366C58.8387 21.3441 58.9677 21.4207 59.3287 21.4669L59.3559 21.471V21.4988V21.7538H59.324V21.7538ZM55.8691 19.2869H56.376L56.3847 19.3033C56.868 20.1553 57.3548 20.9553 57.9009 21.6905C58.1271 21.6905 58.3651 21.6601 58.596 21.6601C58.833 21.6601 59.0612 21.6859 59.2921 21.6895V21.527C58.944 21.4838 58.7811 21.3799 58.5785 21.072L57.2886 19.1413L57.325 19.1264C57.905 18.8982 58.3343 18.5018 58.3348 17.8498C58.3343 16.821 57.5353 16.5825 56.6032 16.5784C56.2119 16.5784 55.8561 16.6077 55.4093 16.6077C54.9739 16.6077 54.5343 16.5805 54.2916 16.5784V16.7357H54.3934C54.6237 16.7363 54.9517 16.7743 54.9517 17.3317V21.0992C54.9517 21.3969 54.6725 21.5326 54.3934 21.5332H54.2916V21.6894C54.6484 21.6884 54.9862 21.6601 55.3343 21.6601C55.7491 21.6601 56.1672 21.6884 56.5775 21.6894V21.5332H56.4762C56.1379 21.5326 55.8366 21.4905 55.8366 20.9054V19.2869H55.869H55.8691ZM55.8691 19.0833H55.8366V16.8128L55.8649 16.8103C55.9662 16.8026 56.0665 16.7815 56.2906 16.7815C56.9662 16.7815 57.4053 17.2206 57.4062 17.8966C57.4042 18.7819 56.9796 19.0827 56.232 19.0832H55.8691V19.0833ZM56.232 19.0196C56.9661 19.0134 57.3353 18.7584 57.3431 17.8967C57.3389 17.2488 56.9364 16.8468 56.2906 16.8442C56.09 16.8442 55.996 16.8627 55.9014 16.871V19.0196H56.232V19.0196Z" fill="#211E1F"/>
<path d="M64.358 20.2607L64.3714 20.2463V17.4658C64.3714 16.8571 63.9494 16.7686 63.7272 16.7686H63.5648V16.546C63.9128 16.546 64.2533 16.5753 64.6023 16.5753C64.9067 16.5753 65.2096 16.546 65.5154 16.546V16.7686H65.4039C65.0923 16.7686 64.7437 16.8277 64.7437 17.71V21.0848C64.7437 21.344 64.7509 21.6031 64.7874 21.833H64.5062L60.6882 17.5764V20.6319C60.6882 21.2772 60.8141 21.4988 61.3848 21.4988H61.5108V21.7224C61.1925 21.7224 60.8733 21.6931 60.5551 21.6931C60.2202 21.6931 59.8794 21.7224 59.5463 21.7224V21.4988H59.6491C60.1612 21.4988 60.317 21.1512 60.317 20.5584V17.435C60.317 17.0201 59.976 16.7687 59.643 16.7687H59.5463V16.5461C59.827 16.5461 60.1175 16.5753 60.3987 16.5753C60.6198 16.5753 60.8357 16.5461 61.0583 16.5461L64.358 20.2607Z" fill="#211E1F"/>
<path d="M64.7876 21.8648L64.4822 21.8545L60.7193 17.6602V20.6314C60.728 21.2767 60.8257 21.4596 61.3851 21.4669H61.5419V21.4988V21.7538H61.5095C61.1888 21.7538 60.8709 21.7234 60.5532 21.7234C60.2221 21.7234 59.8797 21.7538 59.546 21.7538H59.5126V21.7224V21.4669H59.546H59.6488C60.1383 21.4648 60.2786 21.1497 60.2833 20.5564V17.435C60.2828 17.0401 59.9594 16.8006 59.6427 16.8H59.5126V16.7687V16.5132H59.546C59.8288 16.5132 60.1188 16.5424 60.3984 16.5424C60.6164 16.5424 60.8313 16.5132 61.0802 16.5234L64.3394 20.1934V17.4653C64.3372 16.8761 63.9424 16.8031 63.727 16.8001H63.5311V16.7687V16.5132H63.5635C63.9142 16.5132 64.2555 16.5424 64.602 16.5424C64.9044 16.5424 65.2082 16.5132 65.5136 16.5132H65.5459V16.5466V16.8001H65.5136H65.4035C65.0977 16.8083 64.7824 16.8355 64.7747 17.7101V21.0843C64.7747 21.3434 64.7815 21.6005 64.819 21.8288L64.8231 21.8648H64.7876ZM64.5059 21.8H64.7496C64.7171 21.5774 64.7099 21.3306 64.7099 21.0843V17.71C64.7105 16.82 65.0858 16.7378 65.4035 16.7352H65.4812V16.5784C65.1902 16.5805 64.8966 16.6072 64.602 16.6072C64.2617 16.6072 63.931 16.5805 63.5953 16.5784V16.7352H63.727C63.9552 16.7378 64.4046 16.8375 64.4046 17.4653L64.3944 20.2684L64.3799 20.2838L64.3573 20.3075L61.0576 16.5785C60.8375 16.5785 60.6226 16.6073 60.3985 16.6073C60.1239 16.6073 59.8468 16.5805 59.5769 16.5785V16.7353H59.6426C59.9908 16.7378 60.3481 17.0006 60.3481 17.435V20.5563C60.3481 21.1517 60.1805 21.5306 59.6489 21.5327L59.5769 21.5321V21.689C59.8972 21.6874 60.2278 21.6607 60.5532 21.6607C60.8643 21.6607 61.1723 21.6874 61.4787 21.689V21.5327H61.3851C60.8011 21.5321 60.6551 21.2767 60.6541 20.6314V17.4941L64.5059 21.8ZM64.3578 20.2602L64.3803 20.2391L64.3578 20.2602ZM64.3393 20.2463V20.2437L64.3336 20.2381L64.3393 20.2463Z" fill="#211E1F"/>
<path d="M66.7076 20.6617C66.6326 20.9131 66.5432 21.1074 66.5432 21.2396C66.5432 21.4627 66.8553 21.4987 67.099 21.4987H67.1817V21.7224C66.8846 21.7064 66.5817 21.6931 66.283 21.6931C66.0162 21.6931 65.7509 21.7065 65.4836 21.7224V21.4987H65.5283C65.8172 21.4987 66.0625 21.3285 66.172 21.0164L67.3596 17.6138C67.4553 17.3393 67.59 16.9686 67.6348 16.6936C67.8708 16.6128 68.1679 16.4648 68.3083 16.3753C68.3314 16.3677 68.3443 16.3599 68.3674 16.3599C68.3895 16.3599 68.4039 16.3599 68.4203 16.383C68.4419 16.4416 68.4635 16.509 68.4872 16.5681L69.8512 20.4468C69.9401 20.7059 70.028 20.9799 70.1242 21.2031C70.2137 21.4108 70.37 21.4987 70.6152 21.4987H70.6589V21.7224C70.3253 21.7064 69.9911 21.6931 69.6363 21.6931C69.2728 21.6931 68.9011 21.7065 68.5232 21.7224V21.4987H68.6055C68.7752 21.4987 69.0652 21.4699 69.0652 21.2843C69.0652 21.1882 68.9983 20.9882 68.9156 20.7501L68.6271 19.89H66.9444L66.7076 20.6617ZM67.7894 17.3763H67.7745L67.085 19.4751H68.4707L67.7894 17.3763Z" fill="#211E1F"/>
<path d="M70.6567 21.7538C70.323 21.7389 69.9893 21.7234 69.6361 21.7234C69.2726 21.7234 68.9034 21.7389 68.524 21.7538L68.4905 21.7558V21.7224V21.4659H68.523H68.6047C68.7765 21.4659 69.0314 21.4268 69.0314 21.2844C69.0335 21.2 68.9666 20.9964 68.8849 20.7605L68.6026 19.922H66.9672L66.7369 20.671C66.6617 20.924 66.5729 21.1198 66.5734 21.2407C66.5759 21.4217 66.853 21.4659 67.0988 21.4659H67.213V21.4993V21.7558L67.1795 21.7538C66.8829 21.7389 66.5801 21.7234 66.2844 21.7234C66.0186 21.7234 65.7513 21.7389 65.4855 21.7538L65.451 21.7558V21.7224V21.4659H65.4834H65.5277C65.8037 21.4648 66.0341 21.3081 66.141 21.0063L67.3282 17.6032C67.4254 17.3281 67.559 16.9585 67.6233 16.6628C67.8557 16.5842 68.1533 16.4351 68.2963 16.3446C68.3169 16.3379 68.3375 16.3276 68.3678 16.3276C68.3858 16.3271 68.4259 16.3317 68.4496 16.3709C68.4706 16.432 68.4937 16.4978 68.5163 16.558L69.882 20.4362C69.9694 20.6963 70.0578 20.9704 70.1545 21.1894C70.2404 21.3873 70.3766 21.4649 70.6151 21.466H70.6908V21.4994V21.7559L70.6567 21.7538ZM68.5553 21.6875C68.9225 21.6746 69.2819 21.6602 69.6361 21.6602C69.9805 21.6602 70.3029 21.6746 70.6252 21.6875V21.5326H70.615C70.361 21.5342 70.1857 21.4345 70.0946 21.216C69.998 20.9908 69.9075 20.7157 69.8207 20.4561L68.4556 16.5785C68.433 16.5193 68.4114 16.452 68.3918 16.3995C68.3857 16.3923 68.3872 16.3923 68.3811 16.3923H68.3676C68.3522 16.3923 68.3435 16.397 68.3244 16.4021C68.1815 16.4952 67.8839 16.6407 67.6643 16.6988C67.6186 16.9795 67.4854 17.3497 67.3887 17.6242L66.2021 21.0278C66.089 21.3497 65.8294 21.5332 65.5276 21.5326H65.5158V21.6875C65.7697 21.6746 66.0268 21.6602 66.2844 21.6602C66.5707 21.6602 66.8638 21.6746 67.1466 21.6875V21.5326H67.0988C66.8577 21.5296 66.5204 21.5023 66.5111 21.2406C66.5116 21.0925 66.6027 20.9029 66.6751 20.6525L66.7075 20.6622L66.6751 20.6514L66.9193 19.8586H68.6479L68.9455 20.7399C69.0288 20.9779 69.0961 21.1754 69.0961 21.2844C69.0859 21.5121 68.7728 21.5281 68.6047 21.5327H68.5553V21.6875H68.5553ZM67.0397 19.5069L67.7497 17.344H67.7743H67.7898V17.3764L67.7816 17.3779L67.7898 17.3764V17.344H67.8119L68.5157 19.5069H67.0397ZM67.1286 19.4427H68.4263L67.781 17.4555L67.1286 19.4427ZM67.7574 17.3857L67.7743 17.38L67.7574 17.3857Z" fill="#211E1F"/>
<path d="M70.9848 16.9162C70.4285 16.9162 70.4064 17.0499 70.2948 17.5907H70.0721C70.1014 17.3836 70.139 17.1764 70.1622 16.9604C70.1919 16.7527 70.2054 16.546 70.2054 16.3311H70.3843C70.4434 16.5537 70.6296 16.546 70.8285 16.546H74.6553C74.8543 16.546 75.0394 16.5388 75.0548 16.3157L75.2321 16.3456C75.2038 16.546 75.1746 16.7461 75.1519 16.9465C75.136 17.1466 75.136 17.347 75.136 17.5465L74.9139 17.6293C74.9 17.3553 74.863 16.9162 74.3658 16.9162H73.1499V20.8617C73.1499 21.4334 73.4101 21.4988 73.7648 21.4988H73.9056V21.7224C73.6167 21.7224 73.0985 21.6931 72.6974 21.6931C72.2532 21.6931 71.7334 21.7224 71.4445 21.7224V21.4988H71.5848C71.9935 21.4988 72.2013 21.4622 72.2013 20.8771V16.9162H70.9848V16.9162Z" fill="#211E1F"/>
<path d="M73.9056 21.7538C73.6146 21.7538 73.0954 21.724 72.6974 21.724C72.2542 21.724 71.7349 21.7538 71.4444 21.7538H71.4116V21.7224V21.4669H71.4444H71.5848C71.9935 21.4571 72.1576 21.452 72.1678 20.8771L72.1668 16.9486H70.9848V16.9162V16.8833H72.2321V20.8771C72.2321 21.472 71.992 21.5306 71.5848 21.5321H71.4758V21.6905C71.7694 21.6874 72.267 21.6607 72.6974 21.6607C73.0845 21.6607 73.5802 21.6875 73.8732 21.6905V21.5321H73.7637C73.4073 21.5306 73.1185 21.4447 73.1175 20.8617V16.8833H74.3658C74.8634 16.8854 74.9287 17.3085 74.9427 17.5836L75.1046 17.5244C75.1046 17.3311 75.1051 17.1373 75.1195 16.9429C75.14 16.7522 75.1678 16.562 75.1951 16.3727L75.083 16.3537C75.0491 16.5696 74.8398 16.5815 74.6553 16.5784H70.8284H70.7909C70.6161 16.5804 70.4269 16.5701 70.3595 16.3619H70.2382C70.2361 16.5676 70.2223 16.7671 70.1929 16.9645C70.1735 17.1686 70.1369 17.365 70.1092 17.5599H70.2681C70.3663 17.0431 70.4305 16.8755 70.9847 16.8833V16.9162V16.9486C70.4352 16.9579 70.4475 17.0509 70.3261 17.599L70.3205 17.6242H70.2947H70.0345L70.0392 17.5871C70.07 17.3779 70.107 17.1712 70.1286 16.9568C70.159 16.7496 70.1734 16.5439 70.1734 16.3311V16.2987H70.2052H70.4078L70.414 16.3218C70.4659 16.509 70.6011 16.51 70.7908 16.5131L70.8283 16.5141H74.6552C74.8598 16.51 75.0094 16.5069 75.0222 16.3136L75.0243 16.2782L75.0593 16.2854L75.2696 16.3183L75.2639 16.3507C75.2336 16.5492 75.2053 16.7497 75.1827 16.9486C75.1678 17.1461 75.1678 17.3471 75.1678 17.5466V17.5697L75.1468 17.5779L74.884 17.6736L74.8825 17.6303C74.8634 17.3517 74.8341 16.9486 74.3658 16.9486H73.1817V20.8617C73.1895 21.4211 73.411 21.4596 73.7637 21.4668H73.9375V21.4987V21.7537L73.9056 21.7538Z" fill="#211E1F"/>
<path d="M75.5059 21.4987H75.6098C75.8776 21.4987 76.1578 21.4628 76.1578 21.0766V17.1918C76.1578 16.8051 75.8776 16.7686 75.6098 16.7686H75.5059V16.546C75.7954 16.546 76.2396 16.5753 76.6021 16.5753C76.9743 16.5753 77.4191 16.546 77.7676 16.546V16.7686H77.6638C77.397 16.7686 77.1142 16.8051 77.1142 17.1918V21.0766C77.1142 21.4628 77.397 21.4987 77.6638 21.4987H77.7676V21.7224C77.4113 21.7224 76.9661 21.6931 76.5965 21.6931C76.2324 21.6931 75.7954 21.7224 75.5059 21.7224V21.4987Z" fill="#211E1F"/>
<path d="M77.7679 21.7538C77.4096 21.7538 76.9658 21.7234 76.5962 21.7234C76.2337 21.7234 75.7957 21.7538 75.5062 21.7538H75.4738V21.7224V21.4988V21.4669H75.5062H75.6101C75.8779 21.4628 76.1237 21.4396 76.1247 21.0767V17.1918C76.1237 16.8298 75.8779 16.8051 75.6101 16.8H75.4738V16.7687V16.5142H75.5062C75.7957 16.5142 76.2409 16.5425 76.6023 16.5425C76.972 16.5425 77.4167 16.5142 77.7679 16.5142H77.7993V16.546V16.8H77.7679H77.664C77.393 16.8051 77.1499 16.8298 77.1463 17.1918V21.0767C77.1499 21.4396 77.3931 21.4628 77.664 21.4669H77.7993V21.4988V21.7538H77.7679ZM77.7345 21.689V21.5321H77.664C77.3982 21.5321 77.0836 21.4854 77.0836 21.0767V17.1918C77.0836 16.782 77.3982 16.7357 77.664 16.7357H77.7345V16.5784C77.3921 16.5805 76.9638 16.6072 76.6023 16.6072C76.2511 16.6072 75.826 16.5805 75.5386 16.5784V16.7357H75.6101C75.8738 16.7357 76.1896 16.782 76.1905 17.1918V21.0767C76.1895 21.4853 75.8738 21.5321 75.6101 21.5321H75.5386V21.689C75.8245 21.6859 76.244 21.6607 76.5962 21.6607C76.9556 21.6607 77.3849 21.6875 77.7344 21.689H77.7345Z" fill="#211E1F"/>
<path d="M80.7245 16.435C82.3049 16.435 83.5646 17.4149 83.5646 18.9938C83.5646 20.6998 82.3414 21.8334 80.763 21.8334C79.1898 21.8334 77.9898 20.7655 77.9898 19.1712C77.9898 17.6293 79.1826 16.435 80.7245 16.435ZM80.8365 21.5069C82.2751 21.5069 82.5255 20.2381 82.5255 19.1568C82.5255 18.073 81.9415 16.7609 80.7101 16.7609C79.4124 16.7609 79.0273 17.9177 79.0273 18.9105C79.0273 20.2381 79.635 21.5069 80.8365 21.5069Z" fill="#211E1F"/>
<path d="M77.9564 19.1712C77.9596 17.6113 79.1668 16.4046 80.724 16.4026V16.435V16.4663C79.2002 16.4663 78.0207 17.6452 78.0192 19.1712C78.0228 20.7475 79.2058 21.7994 80.7627 21.8C82.3256 21.7994 83.5313 20.6817 83.5338 18.9923C83.5323 17.4334 82.2916 16.4683 80.7241 16.4663V16.435V16.4026C82.3169 16.4036 83.5935 17.3933 83.5966 18.9923C83.5951 20.7161 82.3559 21.8617 80.7627 21.8647C79.177 21.8616 77.9596 20.783 77.9565 19.1712H77.9564V19.1712ZM78.9951 18.9105C78.9971 17.9132 79.3868 16.7275 80.7102 16.7275C81.9688 16.7306 82.5565 18.0674 82.5585 19.1568C82.5565 20.238 82.302 21.5378 80.8367 21.5378V21.507V21.4751C82.2465 21.4731 82.4907 20.238 82.4942 19.1568C82.4942 18.0818 81.9153 16.7949 80.7102 16.7933C79.4382 16.7949 79.0618 17.9229 79.0594 18.9105C79.0604 20.2314 79.6624 21.472 80.8367 21.4751V21.507V21.5378C79.6058 21.5362 78.9971 20.2458 78.9951 18.9105Z" fill="#211E1F"/>
<path d="M88.5608 20.2607L88.5758 20.2463V17.4658C88.5758 16.8571 88.1521 16.7686 87.9295 16.7686H87.769V16.546C88.1166 16.546 88.4575 16.5753 88.805 16.5753C89.1099 16.5753 89.4138 16.546 89.7181 16.546V16.7686H89.6061C89.2955 16.7686 88.9464 16.8277 88.9464 17.71V21.0848C88.9464 21.344 88.9537 21.6031 88.9912 21.833H88.7099L84.8908 17.5764V20.6319C84.8908 21.2772 85.0163 21.4988 85.587 21.4988H85.714V21.7224C85.3947 21.7224 85.0765 21.6931 84.7577 21.6931C84.424 21.6931 84.0822 21.7224 83.7485 21.7224V21.4988H83.8528C84.3654 21.4988 84.5192 21.1512 84.5192 20.5584V17.435C84.5192 17.0201 84.1797 16.7687 83.8451 16.7687H83.7485V16.5461C84.0302 16.5461 84.3196 16.5753 84.6009 16.5753C84.8235 16.5753 85.0379 16.5461 85.2611 16.5461L88.5608 20.2607Z" fill="#211E1F"/>
<path d="M88.9918 21.8648L88.6849 21.854L84.923 17.6602V20.6319C84.9311 21.2767 85.0293 21.4592 85.5861 21.4659H85.7466V21.4993V21.7538H85.7141C85.3928 21.7538 85.0746 21.724 84.7578 21.724C84.4251 21.724 84.0848 21.7538 83.748 21.7538H83.7172V21.7219V21.4659H83.748H83.8529C84.3419 21.4644 84.4823 21.1497 84.4884 20.5584V17.435C84.4873 17.0402 84.1639 16.8006 83.8452 16.8001H83.7172V16.7687V16.5142H83.748C84.0324 16.5142 84.3213 16.5425 84.601 16.5425C84.8211 16.5425 85.035 16.5142 85.2858 16.525L88.5434 20.1934V17.4664C88.5413 16.8762 88.1465 16.8052 87.9295 16.8001H87.7347V16.7688V16.5143H87.7681C88.1172 16.5143 88.4591 16.5426 88.804 16.5426C89.1084 16.5426 89.4107 16.5143 89.7182 16.5143H89.75V16.5461V16.8001H89.7182H89.606C89.3011 16.8088 88.9855 16.8366 88.9793 17.7101V21.0844C88.9793 21.3435 88.9849 21.6021 89.021 21.8288L89.0271 21.8648H88.9918V21.8648ZM88.7102 21.8H88.9528C88.9205 21.5774 88.9148 21.3306 88.9148 21.0843V17.71C88.9148 16.8185 89.2886 16.7378 89.6063 16.7352H89.6865V16.5784C89.394 16.5805 89.1009 16.6072 88.8043 16.6072C88.467 16.6072 88.1353 16.5805 87.7996 16.5784V16.7352H87.9297C88.1595 16.7378 88.6068 16.8391 88.6068 17.4663L88.5987 20.2684L88.5847 20.2839L88.5611 20.3075L85.2614 16.5785C85.0429 16.5785 84.8264 16.6072 84.6012 16.6072C84.3282 16.6072 84.05 16.5805 83.7801 16.5785V16.7353H83.8454C84.1935 16.7378 84.5518 17.0006 84.5518 17.435V20.5584C84.5518 21.1512 84.3863 21.5306 83.8531 21.5327L83.7801 21.5321V21.689C84.1019 21.6875 84.432 21.6607 84.758 21.6607C85.067 21.6607 85.3739 21.6875 85.6819 21.689V21.5327H85.5863C85.0044 21.5321 84.8589 21.2767 84.8589 20.6319V17.4931L88.7102 21.8ZM88.561 20.2602L88.5846 20.2391L88.561 20.2602ZM88.5435 20.2463V20.2437L88.5373 20.238L88.5435 20.2463Z" fill="#211E1F"/>
<path d="M90.9095 20.6617C90.837 20.9131 90.7471 21.1074 90.7471 21.2396C90.7471 21.4627 91.0591 21.4987 91.3024 21.4987H91.3851V21.7224C91.0884 21.7064 90.7841 21.6931 90.4875 21.6931C90.2195 21.6931 89.9537 21.7065 89.6879 21.7224V21.4987H89.7301C90.0206 21.4987 90.2663 21.3285 90.3759 21.0164L91.5636 17.6138C91.6591 17.3393 91.7933 16.9686 91.8366 16.6936C92.0741 16.6128 92.3702 16.4648 92.5126 16.3753C92.5337 16.3677 92.5486 16.3599 92.5713 16.3599C92.5934 16.3599 92.6072 16.3599 92.6222 16.383C92.6447 16.4416 92.668 16.509 92.69 16.5681L94.0535 20.4468C94.1425 20.7059 94.231 20.9799 94.3286 21.2031C94.4175 21.4108 94.5738 21.4987 94.8175 21.4987H94.8628V21.7224C94.5286 21.7064 94.195 21.6931 93.8387 21.6931C93.4762 21.6931 93.105 21.7065 92.7265 21.7224V21.4987H92.8089C92.978 21.4987 93.269 21.4699 93.269 21.2843C93.269 21.1882 93.2016 20.9882 93.1189 20.7501L92.831 19.89H91.1477L90.9095 20.6617ZM91.9933 17.3763H91.9785L91.288 19.4751H92.6755L91.9933 17.3763Z" fill="#211E1F"/>
<path d="M94.8597 21.7538C94.5261 21.7404 94.193 21.7239 93.8387 21.7239C93.4772 21.7239 93.1061 21.7404 92.7276 21.7538L92.6948 21.7558V21.7219V21.4669H92.7266H92.8073C92.98 21.4669 93.2356 21.4268 93.2361 21.2844C93.2376 21.2 93.1708 20.998 93.0881 20.7604L92.8063 19.9219H91.1698L90.9405 20.6709C90.8665 20.9249 90.778 21.1198 90.7796 21.2396C90.7796 21.4216 91.0571 21.4669 91.3025 21.4669H91.4155V21.4987V21.7558L91.3827 21.7538C91.086 21.7404 90.7826 21.7239 90.4876 21.7239C90.2217 21.7239 89.9553 21.7404 89.688 21.7538L89.6556 21.7558V21.7219V21.4669H89.688H89.7302C90.0067 21.4658 90.2381 21.307 90.3461 21.0062L91.5328 17.6031C91.6274 17.3281 91.761 16.9584 91.8268 16.6638C92.0597 16.5831 92.3574 16.435 92.5014 16.3445C92.5209 16.3378 92.541 16.329 92.5713 16.329C92.5908 16.327 92.6288 16.3316 92.6525 16.3722C92.6746 16.4304 92.6962 16.4977 92.7209 16.5578L94.0844 20.436C94.1729 20.6962 94.2618 20.9702 94.3579 21.1908C94.4447 21.3872 94.58 21.4648 94.8165 21.4669H94.8936V21.4987V21.7558L94.8597 21.7538ZM92.7585 21.6884C93.125 21.6745 93.486 21.6601 93.8387 21.6601C94.1837 21.6601 94.5071 21.6745 94.8299 21.6874L94.8289 21.5326H94.8166C94.5656 21.5331 94.3904 21.4344 94.2983 21.2159C94.2006 20.9907 94.1122 20.7157 94.0238 20.457L92.6592 16.5784C92.6371 16.5193 92.6145 16.4519 92.5965 16.4015C92.5903 16.3923 92.5909 16.3923 92.5851 16.3923H92.5713C92.5559 16.3923 92.5476 16.3974 92.5296 16.4026C92.3851 16.4936 92.0879 16.6416 91.8684 16.6987C91.8226 16.9794 91.688 17.3491 91.5924 17.6242L90.4052 21.0277C90.2926 21.3496 90.0335 21.5331 89.7301 21.5326H89.7193V21.6874C89.9743 21.6745 90.2293 21.6601 90.4875 21.6601C90.7749 21.6601 91.0674 21.6745 91.3528 21.6874V21.5326H91.3024C91.0613 21.5295 90.7229 21.5033 90.7142 21.2396C90.7157 21.0925 90.8077 20.9038 90.8792 20.6524L90.9096 20.6621L90.8792 20.6513L91.1234 19.8585H92.8526L93.1497 20.7398C93.2314 20.9784 93.2988 21.1753 93.2988 21.2843C93.2879 21.5121 92.9769 21.528 92.8072 21.5326H92.7584V21.6884H92.7585ZM91.2438 19.5065L91.9549 17.344H91.9774H91.9934V17.3763L91.9857 17.3779L91.9934 17.3763V17.344H92.0166L92.7173 19.5065H91.2438ZM91.3328 19.4427H92.6295L91.9847 17.4565L91.3328 19.4427ZM91.9626 17.3856L91.9774 17.38L91.9626 17.3856Z" fill="#211E1F"/>
<path d="M96.7311 20.9954C96.7311 21.2921 96.9368 21.3805 97.1744 21.4108C97.4782 21.4334 97.8119 21.4334 98.1544 21.3959C98.4648 21.3584 98.7323 21.1805 98.8648 20.9954C98.9831 20.8319 99.05 20.6242 99.0947 20.4612H99.3096C99.2283 20.8838 99.1245 21.3003 99.035 21.7224C98.3841 21.7224 97.7302 21.6931 97.0787 21.6931C96.4253 21.6931 95.7739 21.7224 95.1215 21.7224V21.4987H95.2232C95.4916 21.4987 95.7816 21.4627 95.7816 21.0026V17.1918C95.7816 16.8051 95.4916 16.7686 95.2232 16.7686H95.1215V16.546C95.5132 16.546 95.8993 16.5753 96.2916 16.5753C96.671 16.5753 97.0413 16.546 97.4196 16.546V16.7686H97.2329C96.9523 16.7686 96.7311 16.7769 96.7311 17.1686V20.9954V20.9954Z" fill="#211E1F"/>
<path d="M99.035 21.7538C98.3816 21.7538 97.7292 21.724 97.0788 21.724C96.4258 21.724 95.7733 21.7538 95.1199 21.7538H95.0885V21.7219V21.4669H95.1199H95.2233C95.4922 21.4607 95.7461 21.4422 95.7492 21.0026V17.1903C95.7461 16.8299 95.4936 16.8052 95.2233 16.8H95.0885V16.7687V16.5142H95.1199C95.5143 16.5142 95.9004 16.5425 96.2921 16.5425C96.6684 16.5425 97.0387 16.5142 97.4196 16.5142H97.45V16.5461V16.8H97.4196H97.2335C96.9461 16.8083 96.7672 16.7949 96.7616 17.1687V20.9955C96.7636 21.2716 96.9446 21.3461 97.176 21.3785C97.3071 21.3878 97.4443 21.3934 97.5873 21.3934C97.7688 21.3934 97.9574 21.3847 98.1488 21.3641C98.451 21.3287 98.7112 21.1543 98.8387 20.9775C98.9528 20.8191 99.0187 20.6155 99.0628 20.4536L99.0696 20.4289H99.0942H99.3488L99.342 20.468C99.2583 20.8922 99.1565 21.3066 99.0665 21.7287L99.0604 21.7539H99.0352H99.035V21.7538ZM99.0083 21.689C99.0942 21.2869 99.1914 20.8936 99.2711 20.4925H99.1188C99.0726 20.654 99.0067 20.8529 98.8901 21.0149C98.7517 21.2072 98.4772 21.3882 98.1559 21.4278C97.9616 21.4478 97.7692 21.4581 97.5873 21.4581C97.4438 21.4581 97.3045 21.4514 97.1703 21.4421C96.9292 21.4154 96.6952 21.3125 96.6963 20.9954V17.1686C96.6963 16.7568 96.9568 16.7357 97.2335 16.7357H97.3867V16.5784C97.0212 16.5805 96.6613 16.6077 96.292 16.6077C95.908 16.6077 95.5327 16.5805 95.1522 16.5784V16.7357H95.2232C95.488 16.7357 95.8118 16.782 95.8118 17.1902V21.0026C95.8118 21.4823 95.4895 21.5321 95.2232 21.5321H95.1522V21.6889C95.7934 21.6884 96.4345 21.6607 97.0787 21.6607C97.7229 21.6607 98.3668 21.6884 99.0083 21.689Z" fill="#211E1F"/>
<path d="M99.2196 16.3352C99.6663 16.3352 100 16.6787 100 17.1188C100 17.5568 99.6664 17.8972 99.2196 17.8972C98.7728 17.8972 98.4387 17.5568 98.4387 17.1188C98.4386 16.6787 98.7728 16.3352 99.2196 16.3352ZM99.2196 17.7517C99.5687 17.7517 99.8371 17.4535 99.8371 17.1188C99.8371 16.782 99.5728 16.4812 99.2196 16.4812C98.8685 16.4812 98.6001 16.7821 98.6001 17.1188C98.6001 17.4535 98.8685 17.7517 99.2196 17.7517ZM98.8309 17.5301V17.4915C98.927 17.4781 98.9445 17.4812 98.9445 17.4216V16.8437C98.9445 16.7625 98.9357 16.7348 98.8345 16.7388V16.6992H99.234C99.3717 16.6992 99.4977 16.7645 99.4977 16.9064C99.4977 17.0226 99.4205 17.1085 99.3131 17.1419L99.4411 17.3208C99.5013 17.402 99.5686 17.4781 99.6133 17.5048V17.53H99.4612C99.3882 17.53 99.3245 17.3763 99.1805 17.1701H99.0941V17.4298C99.0941 17.4812 99.1121 17.4781 99.2083 17.4915V17.53H98.8309V17.5301ZM99.0941 17.1188H99.1862C99.2869 17.1188 99.3342 17.0422 99.3342 16.9193C99.3342 16.7949 99.2612 16.7511 99.181 16.7511H99.0941V17.1188V17.1188Z" fill="#211E1F"/>
<path d="M19.1614 25.9126C26.2437 25.9465 32.708 20.1367 32.708 13.0689C32.708 5.33983 26.2437 -0.00258503 19.1614 -1.43315e-05H13.0663C5.89923 -0.00258503 0 5.34143 0 13.0689C0 20.1382 5.89923 25.9465 13.0663 25.9126H19.1614Z" fill="#0079BE"/>
<path d="M13.0952 1.07095C6.54609 1.07301 1.23915 6.38149 1.23761 12.9332C1.23915 19.4838 6.54604 24.7918 13.0952 24.7938C19.6458 24.7918 24.9539 19.4838 24.9548 12.9332C24.9538 6.38149 19.6458 1.07301 13.0952 1.07095ZM5.579 12.9332C5.58517 9.73167 7.58465 7.00159 10.4042 5.91671V19.9481C7.58465 18.8638 5.58512 16.1352 5.579 12.9332ZM15.7852 19.9511V5.91625C18.6057 6.99851 20.6083 9.73012 20.6134 12.9332C20.6083 16.1373 18.6057 18.8668 15.7852 19.9511Z" fill="white"/>
<path d="M36.8613 5.57485C36.8613 4.34909 36.2222 4.42981 35.6093 4.4165V4.06226C36.1404 4.08848 36.6849 4.08848 37.2171 4.08848C37.7893 4.08848 38.5662 4.06226 39.5749 4.06226C43.1029 4.06226 45.0242 6.41907 45.0242 8.83238C45.0242 10.182 44.2345 13.5748 39.4108 13.5748C38.7162 13.5748 38.0751 13.548 37.435 13.548C36.8222 13.548 36.2222 13.5614 35.6093 13.5748V13.2211C36.4263 13.1388 36.8222 13.1116 36.8612 12.1846V5.57485H36.8613ZM38.197 11.9671C38.197 13.0164 38.9471 13.1388 39.6145 13.1388C42.5585 13.1388 43.525 10.9172 43.525 8.88637C43.525 6.33881 41.8896 4.49922 39.2603 4.49922C38.7009 4.49922 38.4439 4.53933 38.1971 4.55377L38.197 11.9671Z" fill="#211E1F"/>
<path d="M45.5024 13.2211H45.7605C46.1415 13.2211 46.4146 13.2211 46.4146 12.7702V9.07769C46.4146 8.47877 46.2104 8.39543 45.7061 8.12448V7.90597C46.3462 7.71368 47.1103 7.45661 47.1637 7.41548C47.2598 7.36098 47.3411 7.34659 47.4094 7.34659C47.4768 7.34659 47.5051 7.42885 47.5051 7.53836V12.7702C47.5051 13.2211 47.8048 13.2211 48.1863 13.2211H48.4177V13.5754C47.9539 13.5754 47.4768 13.5482 46.9873 13.5482C46.4968 13.5482 46.0058 13.5615 45.5025 13.5754V13.2211H45.5024ZM46.96 5.24834C46.6053 5.24834 46.2927 4.9214 46.2927 4.5671C46.2927 4.22571 46.6197 3.91158 46.96 3.91158C47.3132 3.91158 47.6279 4.19903 47.6279 4.5671C47.6279 4.93523 47.3272 5.24834 46.96 5.24834Z" fill="#211E1F"/>
<path d="M49.7122 9.15893C49.7122 8.65507 49.5615 8.51934 48.9225 8.26021V8.00165C49.5081 7.81091 50.066 7.63353 50.7204 7.34664C50.7611 7.34664 50.8011 7.3744 50.8011 7.48289V8.36921C51.5791 7.81091 52.2469 7.34659 53.161 7.34659C54.3179 7.34659 54.7265 8.19178 54.7265 9.25451V12.7702C54.7265 13.2211 55.0263 13.2211 55.4083 13.2211H55.6536V13.5754C55.1754 13.5754 54.6988 13.5482 54.2094 13.5482C53.7183 13.5482 53.2273 13.5615 52.7373 13.5754V13.2211H52.9821C53.3645 13.2211 53.6356 13.2211 53.6356 12.7702V9.24165C53.6356 8.46376 53.161 8.08278 52.3831 8.08278C51.9477 8.08278 51.2525 8.43708 50.8011 8.73728V12.7701C50.8011 13.2211 51.1023 13.2211 51.4844 13.2211H51.7291V13.5753C51.2525 13.5753 50.7748 13.5481 50.2844 13.5481C49.7944 13.5481 49.3029 13.5615 48.8129 13.5753V13.2211H49.0586C49.4401 13.2211 49.7121 13.2211 49.7121 12.7701V9.15893H49.7122Z" fill="#211E1F"/>
<path d="M56.6895 9.81388C56.6611 9.93681 56.6611 10.1409 56.6895 10.6046C56.7697 11.8987 57.6031 12.9615 58.6915 12.9615C59.4416 12.9615 60.0287 12.5527 60.5321 12.0489L60.7223 12.2402C60.0951 13.071 59.3187 13.7794 58.202 13.7794C56.0349 13.7794 55.5989 11.6802 55.5989 10.8088C55.5989 8.13727 57.3973 7.34653 58.3505 7.34653C59.4549 7.34653 60.6411 8.04118 60.6539 9.48586C60.6539 9.56863 60.6539 9.64935 60.6411 9.73213L60.5177 9.81388H56.6895ZM59.1018 9.37743C59.4416 9.37743 59.4818 9.20005 59.4818 9.03707C59.4818 8.3419 59.0596 7.78303 58.2962 7.78303C57.4658 7.78303 56.8935 8.39537 56.73 9.37743H59.1018Z" fill="#211E1F"/>
<path d="M60.9677 13.2211H61.3358C61.7161 13.2211 61.9887 13.2211 61.9887 12.7702V8.94139C61.9887 8.51928 61.4854 8.43702 61.2802 8.32802V8.12442C62.2751 7.70128 62.8206 7.34653 62.9445 7.34653C63.0252 7.34653 63.0653 7.38766 63.0653 7.52442V8.75064H63.0941C63.4339 8.21953 64.0072 7.34653 64.8376 7.34653C65.1784 7.34653 65.6139 7.57789 65.6139 8.06889C65.6139 8.43702 65.3558 8.76504 64.9744 8.76504C64.5502 8.76504 64.5502 8.43702 64.0741 8.43702C63.8422 8.43702 63.0798 8.75064 63.0798 9.56864V12.7702C63.0798 13.2211 63.3517 13.2211 63.7337 13.2211H64.4962V13.5754C63.7466 13.5614 63.1764 13.5481 62.5892 13.5481C62.0309 13.5481 61.4581 13.5615 60.9677 13.5754V13.2211H60.9677Z" fill="#211E1F"/>
<path d="M66.2138 11.6802C66.3912 12.58 66.9357 13.3435 67.931 13.3435C68.733 13.3435 69.0332 12.853 69.0332 12.3759C69.0332 10.7677 66.0636 11.2854 66.0636 9.09157C66.0636 8.32808 66.6774 7.34659 68.1757 7.34659C68.6112 7.34659 69.1967 7.46998 69.7278 7.74299L69.8245 9.13173H69.5104C69.3746 8.27409 68.8981 7.78314 68.025 7.78314C67.48 7.78314 66.9628 8.09682 66.9628 8.68237C66.9628 10.2783 70.1237 9.78623 70.1237 11.9256C70.1237 12.8248 69.4013 13.7795 67.7798 13.7795C67.2348 13.7795 66.5946 13.5888 66.1181 13.3168L65.968 11.7493L66.2138 11.6802Z" fill="#211E1F"/>
<path d="M82.428 6.52905H82.0881C81.829 4.93522 80.6979 4.29409 79.1724 4.29409C77.6043 4.29409 75.3287 5.34288 75.3287 8.61337C75.3287 11.3681 77.2922 13.3434 79.3899 13.3434C80.7385 13.3434 81.8567 12.4169 82.1292 10.9856L82.4418 11.0668L82.1292 13.0565C81.5569 13.4118 80.0171 13.7794 79.1169 13.7794C75.9292 13.7794 73.9132 11.7214 73.9132 8.65502C73.9132 5.86119 76.4063 3.85707 79.0767 3.85707C80.1801 3.85707 81.2428 4.21286 82.2922 4.58098L82.428 6.52905Z" fill="#211E1F"/>
<path d="M82.9194 13.2211H83.1775C83.5595 13.2211 83.833 13.2211 83.833 12.7702V5.18052C83.833 4.29415 83.6284 4.26685 83.1101 4.11723V3.89924C83.6551 3.72242 84.2273 3.47661 84.5138 3.31266C84.6623 3.23142 84.7723 3.16248 84.8124 3.16248C84.8958 3.16248 84.923 3.24479 84.923 3.35425V12.7702C84.923 13.2211 85.2222 13.2211 85.6042 13.2211H85.8341V13.5754C85.3728 13.5754 84.8958 13.5481 84.4047 13.5481C83.9148 13.5481 83.4242 13.5615 82.9193 13.5754V13.2211H82.9194Z" fill="#211E1F"/>
<path d="M91.6683 12.8247C91.6683 13.071 91.8174 13.0844 92.0487 13.0844C92.2127 13.0844 92.4163 13.071 92.5942 13.071V13.3579C92.0076 13.4119 90.8904 13.6983 90.6312 13.7795L90.5628 13.7383V12.6355C89.7464 13.3028 89.1186 13.7795 88.1505 13.7795C87.4148 13.7795 86.6519 13.3028 86.6519 12.1589V8.6689C86.6519 8.31466 86.5978 7.97373 85.8359 7.90592V7.64679C86.3269 7.63343 87.4148 7.55163 87.5927 7.55163C87.7439 7.55163 87.7439 7.64679 87.7439 7.94654V11.4617C87.7439 11.8715 87.7439 13.0431 88.9284 13.0431C89.3917 13.0431 90.0045 12.6889 90.5763 12.2133V8.54546C90.5763 8.27399 89.9228 8.12438 89.4334 7.98756V7.74232C90.658 7.66006 91.4225 7.55157 91.5578 7.55157C91.6682 7.55157 91.6682 7.64669 91.6682 7.79733V12.8247H91.6683Z" fill="#211E1F"/>
<path d="M94.3795 8.32808C94.924 7.86479 95.6596 7.34659 96.4098 7.34659C97.9907 7.34659 98.9435 8.72448 98.9435 10.2087C98.9435 11.9939 97.636 13.7794 95.6863 13.7794C94.6786 13.7794 94.1475 13.4519 93.7928 13.3028L93.3846 13.6154L93.0993 13.4663C93.2201 12.6622 93.2895 11.8715 93.2895 11.0406V5.18047C93.2895 4.29415 93.0838 4.26685 92.5665 4.11723V3.89924C93.1131 3.72242 93.6838 3.47661 93.9702 3.3126C94.1203 3.23137 94.2287 3.16248 94.2709 3.16248C94.3522 3.16248 94.3794 3.24479 94.3794 3.35425V8.32803H94.3795V8.32808ZM94.3795 12.0345C94.3795 12.5528 94.8695 13.4258 95.7826 13.4258C97.2406 13.4258 97.8535 11.9939 97.8535 10.7806C97.8535 9.30911 96.7373 8.08289 95.6741 8.08289C95.1687 8.08289 94.747 8.41039 94.3795 8.72448V12.0345H94.3795Z" fill="#211E1F"/>
<path d="M35.5938 21.4987H35.6981C35.9644 21.4987 36.2462 21.4628 36.2462 21.0766V17.1918C36.2462 16.8051 35.9644 16.7686 35.6981 16.7686H35.5938V16.546C35.8832 16.546 36.3279 16.5753 36.6925 16.5753C37.0626 16.5753 37.5069 16.546 37.8554 16.546V16.7686H37.7511C37.4853 16.7686 37.2031 16.8051 37.2031 17.1918V21.0766C37.2031 21.4628 37.4853 21.4987 37.7511 21.4987H37.8554V21.7224C37.4997 21.7224 37.0539 21.6931 36.6842 21.6931C36.3208 21.6931 35.8832 21.7224 35.5938 21.7224V21.4987Z" fill="#211E1F"/>
<path d="M37.8557 21.7538C37.4973 21.7538 37.0531 21.724 36.6839 21.724C36.3215 21.724 35.8855 21.7538 35.594 21.7538H35.5621V21.7219V21.4993V21.4669H35.594H35.6979C35.9667 21.4607 36.2115 21.4391 36.2141 21.0767V17.1918C36.2115 16.8293 35.9668 16.8051 35.6979 16.8H35.5621V16.7687V16.5131H35.594C35.8855 16.5131 36.3297 16.5424 36.6922 16.5424C37.0613 16.5424 37.5051 16.5131 37.8557 16.5131H37.8886V16.547V16.8H37.8557H37.7518C37.4829 16.8051 37.2366 16.8293 37.2351 17.1918V21.0767C37.2366 21.4391 37.4829 21.4607 37.7518 21.4669H37.8886V21.4993V21.7538H37.8557ZM37.8238 21.6905V21.5321H37.7518C37.4871 21.5321 37.1719 21.4864 37.1703 21.0767V17.1918C37.1718 16.782 37.487 16.7357 37.7518 16.7357H37.8238V16.5784C37.4814 16.5784 37.0521 16.6072 36.6922 16.6072C36.34 16.6072 35.9138 16.5805 35.6269 16.5784V16.7357H35.6978C35.9621 16.7357 36.2783 16.782 36.2783 17.1918V21.0767C36.2783 21.4864 35.9621 21.5321 35.6978 21.5321H35.6269V21.6905C35.9138 21.6874 36.3327 21.6607 36.6839 21.6607C37.0449 21.6607 37.4742 21.6884 37.8238 21.6905Z" fill="#211E1F"/>
<path d="M42.9493 20.2607L42.9642 20.2463V17.4658C42.9642 16.8571 42.5411 16.7686 42.319 16.7686H42.1554V16.546C42.5045 16.546 42.8454 16.5753 43.1935 16.5753C43.4973 16.5753 43.8027 16.546 44.1061 16.546V16.7686H43.995C43.6829 16.7686 43.3343 16.8277 43.3343 17.71V21.0848C43.3343 21.344 43.342 21.6031 43.3785 21.833H43.0963L39.2788 17.5764V20.6319C39.2788 21.2772 39.4037 21.4988 39.9755 21.4988H40.1009V21.7224C39.7827 21.7224 39.4644 21.6931 39.1451 21.6931C38.8124 21.6931 38.4711 21.7224 38.1369 21.7224V21.4988H38.2408C38.7523 21.4988 38.9076 21.1512 38.9076 20.5584V17.435C38.9076 17.0201 38.5657 16.7687 38.2336 16.7687H38.137V16.5461C38.4186 16.5461 38.7076 16.5753 38.9889 16.5753C39.2115 16.5753 39.4269 16.5461 39.649 16.5461L42.9493 20.2607Z" fill="#211E1F"/>
<path d="M43.3783 21.8653L43.0725 21.854L39.31 17.6602V20.6319C39.3187 21.2767 39.4169 21.4597 39.9753 21.4669H40.1341V21.4988V21.7538H40.1012C39.7804 21.7538 39.4611 21.724 39.1449 21.724C38.8127 21.724 38.4724 21.7538 38.1361 21.7538H38.1037V21.7219V21.4669H38.1361H38.2405C38.7305 21.4643 38.8703 21.1497 38.876 20.5584V17.4355C38.8749 17.0407 38.5511 16.8011 38.2333 16.8001H38.1037V16.7671V16.5142H38.1361C38.4194 16.5142 38.7099 16.5425 38.988 16.5425C39.2086 16.5425 39.4235 16.5142 39.6734 16.525L42.932 20.1934V17.4664C42.9279 16.8762 42.5346 16.8052 42.3186 16.8001H42.1222V16.7671V16.5142H42.1551C42.5053 16.5142 42.8466 16.5425 43.1932 16.5425C43.495 16.5425 43.7988 16.5142 44.1052 16.5142H44.1376V16.5461V16.8H44.1052H43.9947C43.6888 16.8088 43.3746 16.8355 43.366 17.71V21.0843C43.366 21.3434 43.3736 21.6026 43.4097 21.8273L43.4169 21.8653H43.3783V21.8653ZM43.0967 21.8H43.3419C43.3085 21.5774 43.3028 21.3306 43.3028 21.0843V17.71C43.3028 16.8201 43.6756 16.7358 43.9949 16.7358H44.073V16.5784C43.781 16.5805 43.4879 16.6072 43.1934 16.6072C42.854 16.6072 42.524 16.5805 42.1882 16.5784L42.1877 16.7358H42.3188C42.5466 16.7358 42.9964 16.8375 42.9964 17.4664L42.9862 20.2684L42.9713 20.2839L42.9461 20.307L39.6489 16.5784C39.4289 16.5784 39.2139 16.6072 38.9882 16.6072C38.7162 16.6072 38.4381 16.5805 38.1692 16.5784L38.1677 16.7357H38.2335C38.5815 16.7357 38.9389 17.0015 38.9389 17.4355V20.5584C38.9389 21.1511 38.7738 21.5305 38.2407 21.5326L38.1692 21.5305V21.6904C38.4905 21.6874 38.8206 21.6606 39.145 21.6606C39.4545 21.6606 39.7625 21.6874 40.0689 21.6904V21.5326H39.9754C39.3918 21.5305 39.2468 21.2766 39.2463 20.6318V17.493L43.0967 21.8ZM42.949 20.2602L42.9727 20.2386L42.949 20.2602ZM42.9321 20.2458V20.2432L42.9259 20.238L42.9321 20.2458Z" fill="#211E1F"/>
<path d="M45.2159 16.9162C44.6591 16.9162 44.638 17.0499 44.5269 17.5907H44.3043C44.3336 17.3836 44.3706 17.1764 44.3933 16.9604C44.423 16.7527 44.4374 16.546 44.4374 16.3311H44.6158C44.6755 16.5537 44.8606 16.546 45.0616 16.546H48.8863C49.0868 16.546 49.2719 16.5388 49.2874 16.3157L49.4642 16.3456C49.4354 16.546 49.4056 16.7461 49.3829 16.9465C49.3696 17.1466 49.3696 17.347 49.3696 17.5465L49.1464 17.6293C49.131 17.3553 49.094 16.9162 48.5978 16.9162H47.3819V20.8617C47.3819 21.4334 47.6416 21.4988 47.9963 21.4988H48.1377V21.7224C47.8487 21.7224 47.329 21.6931 46.9295 21.6931C46.4848 21.6931 45.9649 21.7224 45.6755 21.7224V21.4988H45.8169C46.2256 21.4988 46.4323 21.4622 46.4323 20.8771V16.9162H45.2159V16.9162Z" fill="#211E1F"/>
<path d="M48.1389 21.7538C47.8468 21.7538 47.328 21.724 46.9295 21.724C46.4853 21.724 45.9666 21.7538 45.6756 21.7538H45.6447V21.7224V21.4669H45.6756H45.8169C46.2257 21.4571 46.3902 21.452 46.3995 20.8771V16.9486H45.2159V16.9162V16.8833H46.4638V20.8771C46.4638 21.472 46.2242 21.5321 45.817 21.5326H45.708V21.6889C46.0005 21.6874 46.4993 21.6607 46.9296 21.6607C47.3163 21.6607 47.8119 21.6874 48.1049 21.6889V21.5326H47.9964C47.6381 21.5321 47.3496 21.4442 47.3496 20.8617V16.8833H48.598C49.0957 16.8853 49.1604 17.3085 49.1769 17.5835L49.3368 17.5244C49.3368 17.3311 49.3378 17.1373 49.3512 16.9419C49.3728 16.7511 49.4 16.5619 49.4278 16.3727L49.3146 16.3537C49.2802 16.5697 49.072 16.5805 48.8853 16.5784H45.0617H45.0231C44.8488 16.5784 44.6581 16.5702 44.5918 16.363H44.4694C44.4683 16.5682 44.4539 16.7671 44.4256 16.9645C44.404 17.1682 44.3701 17.3641 44.3423 17.5599H44.5013C44.5989 17.0432 44.6627 16.8756 45.2159 16.8833V16.9162V16.9486C44.6678 16.9584 44.6792 17.0509 44.5583 17.599L44.5527 17.6242H44.527H44.2673L44.2714 17.5856C44.3013 17.3779 44.3389 17.1712 44.3609 16.9553C44.3918 16.7496 44.4062 16.544 44.4062 16.3311V16.2987H44.4375H44.6411L44.6463 16.3218C44.6972 16.509 44.8344 16.51 45.0231 16.5131H45.0617H48.8853C49.0921 16.51 49.2421 16.5069 49.255 16.3131L49.2581 16.2781L49.2915 16.2853L49.5008 16.3182L49.4961 16.3506C49.4663 16.5491 49.437 16.7496 49.4154 16.9486C49.4005 17.146 49.4005 17.3465 49.4005 17.5465V17.5697L49.3799 17.5779L49.1172 17.6735L49.1152 17.6303C49.0956 17.3516 49.0663 16.9485 48.5979 16.9485H47.4144V20.8616C47.4211 21.421 47.6431 21.4596 47.9963 21.4668H48.1701V21.4987V21.7537L48.1389 21.7538Z" fill="#211E1F"/>
<path d="M49.7014 21.4987H49.8058C50.0722 21.4987 50.3543 21.4628 50.3543 21.0766V17.1918C50.3543 16.8051 50.0722 16.7686 49.8058 16.7686H49.7014V16.546C50.1528 16.546 50.9251 16.5753 51.5466 16.5753C52.1709 16.5753 52.9405 16.546 53.4444 16.546C53.4321 16.8643 53.4388 17.3548 53.4608 17.6803L53.2371 17.7399C53.2017 17.2582 53.1127 16.8731 52.3338 16.8731H51.304V18.815H52.1853C52.6299 18.815 52.7272 18.5636 52.7709 18.1621H52.993C52.9786 18.4525 52.9709 18.7415 52.9709 19.0304C52.9709 19.3127 52.9786 19.5939 52.993 19.8757L52.7709 19.9199C52.7272 19.4752 52.7046 19.1862 52.1925 19.1862H51.3041V20.9132C51.3041 21.3959 51.7323 21.3959 52.2074 21.3959C53.0974 21.3959 53.4896 21.3358 53.7123 20.4916L53.9201 20.5425C53.8229 20.9363 53.7344 21.3286 53.6686 21.7224C53.1936 21.7224 52.3406 21.6931 51.6742 21.6931C51.0058 21.6931 50.1241 21.7224 49.7014 21.7224V21.4987V21.4987Z" fill="#211E1F"/>
<path d="M53.6678 21.7538C53.1917 21.7538 52.3392 21.7234 51.6735 21.7234C51.0056 21.7234 50.1243 21.7538 49.7012 21.7538H49.6699V21.7224V21.4988V21.4669H49.7012H49.8051C50.0739 21.4628 50.3176 21.4391 50.3213 21.0767V17.1918C50.3177 16.8298 50.0739 16.8057 49.8051 16.8H49.6699V16.7687V16.5142H49.7012C50.1536 16.5142 50.9248 16.5425 51.5464 16.5425C52.17 16.5425 52.9392 16.5142 53.4441 16.5142H53.4775L53.4759 16.5471C53.4708 16.6587 53.4688 16.7902 53.4688 16.9301C53.4688 17.1866 53.4759 17.4668 53.4909 17.6782L53.4919 17.7049L53.4672 17.7122L53.2066 17.7801L53.2051 17.742C53.1614 17.2608 53.0971 16.9117 52.3337 16.9045H51.3347L51.3336 18.7816H52.1851C52.6119 18.7775 52.6884 18.559 52.7388 18.1595L52.7414 18.1302H52.7702H53.0257L53.0252 18.1635C53.0109 18.4525 53.0015 18.7414 53.0015 19.0304C53.0015 19.3111 53.0109 19.5923 53.0252 19.8746L53.0257 19.9009L52.999 19.907L52.7414 19.9584L52.7388 19.9234C52.6879 19.471 52.6843 19.2232 52.1917 19.2176L51.3346 19.217V20.9132C51.3353 21.3635 51.7238 21.361 52.2072 21.3635C53.0997 21.3584 53.4576 21.3153 53.6812 20.4823L53.6885 20.4525L53.7198 20.4581L53.9574 20.5193L53.9501 20.5502C53.8545 20.943 53.7655 21.3348 53.6992 21.7275L53.693 21.7538H53.6678V21.7538ZM53.6406 21.689C53.7048 21.3152 53.7896 20.9399 53.8807 20.5666L53.7341 20.5296C53.512 21.3594 53.0821 21.4334 52.2071 21.4278C51.7402 21.4278 51.2724 21.4278 51.2703 20.9131V19.1537H52.1917C52.7093 19.1481 52.7624 19.4607 52.7989 19.8828L52.9593 19.8494C52.9449 19.5764 52.9382 19.3023 52.9382 19.0303C52.9382 18.7512 52.9449 18.4736 52.9593 18.1943H52.7989C52.7578 18.5805 52.6369 18.8519 52.185 18.8468H51.2703V16.8396H52.3337C53.1049 16.8344 53.2328 17.2324 53.2657 17.6987L53.4257 17.6555C53.4128 17.4463 53.404 17.1779 53.404 16.9301C53.404 16.8031 53.4071 16.6833 53.4112 16.5784C52.9074 16.5805 52.1567 16.6072 51.5465 16.6072C50.9372 16.6072 50.1871 16.5805 49.7331 16.5784V16.7357H49.805C50.0693 16.7357 50.385 16.782 50.386 17.1918V21.0767C50.385 21.4854 50.0693 21.5306 49.805 21.5327H49.7331V21.689C50.1655 21.6884 51.0221 21.6607 51.6734 21.6607C52.3274 21.6607 53.1624 21.6884 53.6406 21.689Z" fill="#211E1F"/>
<path d="M54.9204 17.3316C54.9204 16.7907 54.6243 16.7686 54.3934 16.7686H54.2603V16.5455C54.4977 16.5455 54.9569 16.5753 55.4094 16.5753C55.8541 16.5753 56.2104 16.5455 56.6027 16.5455C57.5363 16.5455 58.3678 16.7979 58.3678 17.8519C58.3678 18.5177 57.923 18.926 57.3374 19.1568L58.6047 21.054C58.8124 21.3676 58.96 21.4555 59.324 21.4987V21.7224C59.0793 21.7224 58.8417 21.6931 58.5975 21.6931C58.3677 21.6931 58.1296 21.7224 57.9008 21.7224C57.3301 20.9733 56.8396 20.1722 56.3578 19.3188H55.87V20.9064C55.87 21.4782 56.1358 21.4987 56.4766 21.4987H56.6103V21.7224C56.1867 21.7224 55.7585 21.6931 55.3353 21.6931C54.979 21.6931 54.6304 21.7224 54.2603 21.7224V21.4987H54.3934C54.6689 21.4987 54.9204 21.3743 54.9204 21.0992V17.3316V17.3316ZM55.8699 19.0519H56.2319C56.9738 19.0519 57.3733 18.7702 57.3733 17.8951C57.3733 17.236 56.9512 16.8129 56.2905 16.8129C56.0679 16.8129 55.9733 16.836 55.8699 16.8427V19.0519H55.8699Z" fill="#211E1F"/>
<path d="M59.324 21.7538C59.0757 21.7538 58.8397 21.724 58.596 21.724C58.3698 21.724 58.1333 21.7538 57.8747 21.7414C57.306 20.9954 56.8186 20.199 56.3395 19.3517H55.9014V20.9055C55.9091 21.4633 56.1333 21.4587 56.4762 21.4669H56.6423V21.4988V21.7538H56.6093C56.1857 21.7538 55.7554 21.724 55.3343 21.724C54.98 21.724 54.6325 21.7538 54.2602 21.7538H54.2278V21.7219V21.4669H54.2602H54.3934C54.6607 21.4654 54.8859 21.3492 54.887 21.0993V17.3318C54.8814 16.8053 54.6238 16.8083 54.3934 16.8007H54.2278V16.7688V16.5133H54.2602C54.5003 16.5133 54.9579 16.5425 55.4093 16.5425C55.852 16.5425 56.2083 16.5133 56.6032 16.5133C57.5374 16.5153 58.3981 16.7734 58.4006 17.85C58.4006 18.5199 57.958 18.9379 57.3857 19.1714L58.6314 21.0366C58.8387 21.3441 58.9677 21.4207 59.3287 21.4669L59.3559 21.471V21.4988V21.7538H59.324V21.7538ZM55.8691 19.2869H56.376L56.3847 19.3033C56.868 20.1553 57.3548 20.9553 57.9009 21.6905C58.1271 21.6905 58.3651 21.6601 58.596 21.6601C58.833 21.6601 59.0612 21.6859 59.2921 21.6895V21.527C58.944 21.4838 58.7811 21.3799 58.5785 21.072L57.2886 19.1413L57.325 19.1264C57.905 18.8982 58.3343 18.5018 58.3348 17.8498C58.3343 16.821 57.5353 16.5825 56.6032 16.5784C56.2119 16.5784 55.8561 16.6077 55.4093 16.6077C54.9739 16.6077 54.5343 16.5805 54.2916 16.5784V16.7357H54.3934C54.6237 16.7363 54.9517 16.7743 54.9517 17.3317V21.0992C54.9517 21.3969 54.6725 21.5326 54.3934 21.5332H54.2916V21.6894C54.6484 21.6884 54.9862 21.6601 55.3343 21.6601C55.7491 21.6601 56.1672 21.6884 56.5775 21.6894V21.5332H56.4762C56.1379 21.5326 55.8366 21.4905 55.8366 20.9054V19.2869H55.869H55.8691ZM55.8691 19.0833H55.8366V16.8128L55.8649 16.8103C55.9662 16.8026 56.0665 16.7815 56.2906 16.7815C56.9662 16.7815 57.4053 17.2206 57.4062 17.8966C57.4042 18.7819 56.9796 19.0827 56.232 19.0832H55.8691V19.0833ZM56.232 19.0196C56.9661 19.0134 57.3353 18.7584 57.3431 17.8967C57.3389 17.2488 56.9364 16.8468 56.2906 16.8442C56.09 16.8442 55.996 16.8627 55.9014 16.871V19.0196H56.232V19.0196Z" fill="#211E1F"/>
<path d="M64.358 20.2607L64.3714 20.2463V17.4658C64.3714 16.8571 63.9494 16.7686 63.7272 16.7686H63.5648V16.546C63.9128 16.546 64.2533 16.5753 64.6023 16.5753C64.9067 16.5753 65.2096 16.546 65.5154 16.546V16.7686H65.4039C65.0923 16.7686 64.7437 16.8277 64.7437 17.71V21.0848C64.7437 21.344 64.7509 21.6031 64.7874 21.833H64.5062L60.6882 17.5764V20.6319C60.6882 21.2772 60.8141 21.4988 61.3848 21.4988H61.5108V21.7224C61.1925 21.7224 60.8733 21.6931 60.5551 21.6931C60.2202 21.6931 59.8794 21.7224 59.5463 21.7224V21.4988H59.6491C60.1612 21.4988 60.317 21.1512 60.317 20.5584V17.435C60.317 17.0201 59.976 16.7687 59.643 16.7687H59.5463V16.5461C59.827 16.5461 60.1175 16.5753 60.3987 16.5753C60.6198 16.5753 60.8357 16.5461 61.0583 16.5461L64.358 20.2607Z" fill="#211E1F"/>
<path d="M64.7876 21.8648L64.4822 21.8545L60.7193 17.6602V20.6314C60.728 21.2767 60.8257 21.4596 61.3851 21.4669H61.5419V21.4988V21.7538H61.5095C61.1888 21.7538 60.8709 21.7234 60.5532 21.7234C60.2221 21.7234 59.8797 21.7538 59.546 21.7538H59.5126V21.7224V21.4669H59.546H59.6488C60.1383 21.4648 60.2786 21.1497 60.2833 20.5564V17.435C60.2828 17.0401 59.9594 16.8006 59.6427 16.8H59.5126V16.7687V16.5132H59.546C59.8288 16.5132 60.1188 16.5424 60.3984 16.5424C60.6164 16.5424 60.8313 16.5132 61.0802 16.5234L64.3394 20.1934V17.4653C64.3372 16.8761 63.9424 16.8031 63.727 16.8001H63.5311V16.7687V16.5132H63.5635C63.9142 16.5132 64.2555 16.5424 64.602 16.5424C64.9044 16.5424 65.2082 16.5132 65.5136 16.5132H65.5459V16.5466V16.8001H65.5136H65.4035C65.0977 16.8083 64.7824 16.8355 64.7747 17.7101V21.0843C64.7747 21.3434 64.7815 21.6005 64.819 21.8288L64.8231 21.8648H64.7876ZM64.5059 21.8H64.7496C64.7171 21.5774 64.7099 21.3306 64.7099 21.0843V17.71C64.7105 16.82 65.0858 16.7378 65.4035 16.7352H65.4812V16.5784C65.1902 16.5805 64.8966 16.6072 64.602 16.6072C64.2617 16.6072 63.931 16.5805 63.5953 16.5784V16.7352H63.727C63.9552 16.7378 64.4046 16.8375 64.4046 17.4653L64.3944 20.2684L64.3799 20.2838L64.3573 20.3075L61.0576 16.5785C60.8375 16.5785 60.6226 16.6073 60.3985 16.6073C60.1239 16.6073 59.8468 16.5805 59.5769 16.5785V16.7353H59.6426C59.9908 16.7378 60.3481 17.0006 60.3481 17.435V20.5563C60.3481 21.1517 60.1805 21.5306 59.6489 21.5327L59.5769 21.5321V21.689C59.8972 21.6874 60.2278 21.6607 60.5532 21.6607C60.8643 21.6607 61.1723 21.6874 61.4787 21.689V21.5327H61.3851C60.8011 21.5321 60.6551 21.2767 60.6541 20.6314V17.4941L64.5059 21.8ZM64.3578 20.2602L64.3803 20.2391L64.3578 20.2602ZM64.3393 20.2463V20.2437L64.3336 20.2381L64.3393 20.2463Z" fill="#211E1F"/>
<path d="M66.7076 20.6617C66.6326 20.9131 66.5432 21.1074 66.5432 21.2396C66.5432 21.4627 66.8553 21.4987 67.099 21.4987H67.1817V21.7224C66.8846 21.7064 66.5817 21.6931 66.283 21.6931C66.0162 21.6931 65.7509 21.7065 65.4836 21.7224V21.4987H65.5283C65.8172 21.4987 66.0625 21.3285 66.172 21.0164L67.3596 17.6138C67.4553 17.3393 67.59 16.9686 67.6348 16.6936C67.8708 16.6128 68.1679 16.4648 68.3083 16.3753C68.3314 16.3677 68.3443 16.3599 68.3674 16.3599C68.3895 16.3599 68.4039 16.3599 68.4203 16.383C68.4419 16.4416 68.4635 16.509 68.4872 16.5681L69.8512 20.4468C69.9401 20.7059 70.028 20.9799 70.1242 21.2031C70.2137 21.4108 70.37 21.4987 70.6152 21.4987H70.6589V21.7224C70.3253 21.7064 69.9911 21.6931 69.6363 21.6931C69.2728 21.6931 68.9011 21.7065 68.5232 21.7224V21.4987H68.6055C68.7752 21.4987 69.0652 21.4699 69.0652 21.2843C69.0652 21.1882 68.9983 20.9882 68.9156 20.7501L68.6271 19.89H66.9444L66.7076 20.6617ZM67.7894 17.3763H67.7745L67.085 19.4751H68.4707L67.7894 17.3763Z" fill="#211E1F"/>
<path d="M70.6567 21.7538C70.323 21.7389 69.9893 21.7234 69.6361 21.7234C69.2726 21.7234 68.9034 21.7389 68.524 21.7538L68.4905 21.7558V21.7224V21.4659H68.523H68.6047C68.7765 21.4659 69.0314 21.4268 69.0314 21.2844C69.0335 21.2 68.9666 20.9964 68.8849 20.7605L68.6026 19.922H66.9672L66.7369 20.671C66.6617 20.924 66.5729 21.1198 66.5734 21.2407C66.5759 21.4217 66.853 21.4659 67.0988 21.4659H67.213V21.4993V21.7558L67.1795 21.7538C66.8829 21.7389 66.5801 21.7234 66.2844 21.7234C66.0186 21.7234 65.7513 21.7389 65.4855 21.7538L65.451 21.7558V21.7224V21.4659H65.4834H65.5277C65.8037 21.4648 66.0341 21.3081 66.141 21.0063L67.3282 17.6032C67.4254 17.3281 67.559 16.9585 67.6233 16.6628C67.8557 16.5842 68.1533 16.4351 68.2963 16.3446C68.3169 16.3379 68.3375 16.3276 68.3678 16.3276C68.3858 16.3271 68.4259 16.3317 68.4496 16.3709C68.4706 16.432 68.4937 16.4978 68.5163 16.558L69.882 20.4362C69.9694 20.6963 70.0578 20.9704 70.1545 21.1894C70.2404 21.3873 70.3766 21.4649 70.6151 21.466H70.6908V21.4994V21.7559L70.6567 21.7538ZM68.5553 21.6875C68.9225 21.6746 69.2819 21.6602 69.6361 21.6602C69.9805 21.6602 70.3029 21.6746 70.6252 21.6875V21.5326H70.615C70.361 21.5342 70.1857 21.4345 70.0946 21.216C69.998 20.9908 69.9075 20.7157 69.8207 20.4561L68.4556 16.5785C68.433 16.5193 68.4114 16.452 68.3918 16.3995C68.3857 16.3923 68.3872 16.3923 68.3811 16.3923H68.3676C68.3522 16.3923 68.3435 16.397 68.3244 16.4021C68.1815 16.4952 67.8839 16.6407 67.6643 16.6988C67.6186 16.9795 67.4854 17.3497 67.3887 17.6242L66.2021 21.0278C66.089 21.3497 65.8294 21.5332 65.5276 21.5326H65.5158V21.6875C65.7697 21.6746 66.0268 21.6602 66.2844 21.6602C66.5707 21.6602 66.8638 21.6746 67.1466 21.6875V21.5326H67.0988C66.8577 21.5296 66.5204 21.5023 66.5111 21.2406C66.5116 21.0925 66.6027 20.9029 66.6751 20.6525L66.7075 20.6622L66.6751 20.6514L66.9193 19.8586H68.6479L68.9455 20.7399C69.0288 20.9779 69.0961 21.1754 69.0961 21.2844C69.0859 21.5121 68.7728 21.5281 68.6047 21.5327H68.5553V21.6875H68.5553ZM67.0397 19.5069L67.7497 17.344H67.7743H67.7898V17.3764L67.7816 17.3779L67.7898 17.3764V17.344H67.8119L68.5157 19.5069H67.0397ZM67.1286 19.4427H68.4263L67.781 17.4555L67.1286 19.4427ZM67.7574 17.3857L67.7743 17.38L67.7574 17.3857Z" fill="#211E1F"/>
<path d="M70.9848 16.9162C70.4285 16.9162 70.4064 17.0499 70.2948 17.5907H70.0721C70.1014 17.3836 70.139 17.1764 70.1622 16.9604C70.1919 16.7527 70.2054 16.546 70.2054 16.3311H70.3843C70.4434 16.5537 70.6296 16.546 70.8285 16.546H74.6553C74.8543 16.546 75.0394 16.5388 75.0548 16.3157L75.2321 16.3456C75.2038 16.546 75.1746 16.7461 75.1519 16.9465C75.136 17.1466 75.136 17.347 75.136 17.5465L74.9139 17.6293C74.9 17.3553 74.863 16.9162 74.3658 16.9162H73.1499V20.8617C73.1499 21.4334 73.4101 21.4988 73.7648 21.4988H73.9056V21.7224C73.6167 21.7224 73.0985 21.6931 72.6974 21.6931C72.2532 21.6931 71.7334 21.7224 71.4445 21.7224V21.4988H71.5848C71.9935 21.4988 72.2013 21.4622 72.2013 20.8771V16.9162H70.9848V16.9162Z" fill="#211E1F"/>
<path d="M73.9056 21.7538C73.6146 21.7538 73.0954 21.724 72.6974 21.724C72.2542 21.724 71.7349 21.7538 71.4444 21.7538H71.4116V21.7224V21.4669H71.4444H71.5848C71.9935 21.4571 72.1576 21.452 72.1678 20.8771L72.1668 16.9486H70.9848V16.9162V16.8833H72.2321V20.8771C72.2321 21.472 71.992 21.5306 71.5848 21.5321H71.4758V21.6905C71.7694 21.6874 72.267 21.6607 72.6974 21.6607C73.0845 21.6607 73.5802 21.6875 73.8732 21.6905V21.5321H73.7637C73.4073 21.5306 73.1185 21.4447 73.1175 20.8617V16.8833H74.3658C74.8634 16.8854 74.9287 17.3085 74.9427 17.5836L75.1046 17.5244C75.1046 17.3311 75.1051 17.1373 75.1195 16.9429C75.14 16.7522 75.1678 16.562 75.1951 16.3727L75.083 16.3537C75.0491 16.5696 74.8398 16.5815 74.6553 16.5784H70.8284H70.7909C70.6161 16.5804 70.4269 16.5701 70.3595 16.3619H70.2382C70.2361 16.5676 70.2223 16.7671 70.1929 16.9645C70.1735 17.1686 70.1369 17.365 70.1092 17.5599H70.2681C70.3663 17.0431 70.4305 16.8755 70.9847 16.8833V16.9162V16.9486C70.4352 16.9579 70.4475 17.0509 70.3261 17.599L70.3205 17.6242H70.2947H70.0345L70.0392 17.5871C70.07 17.3779 70.107 17.1712 70.1286 16.9568C70.159 16.7496 70.1734 16.5439 70.1734 16.3311V16.2987H70.2052H70.4078L70.414 16.3218C70.4659 16.509 70.6011 16.51 70.7908 16.5131L70.8283 16.5141H74.6552C74.8598 16.51 75.0094 16.5069 75.0222 16.3136L75.0243 16.2782L75.0593 16.2854L75.2696 16.3183L75.2639 16.3507C75.2336 16.5492 75.2053 16.7497 75.1827 16.9486C75.1678 17.1461 75.1678 17.3471 75.1678 17.5466V17.5697L75.1468 17.5779L74.884 17.6736L74.8825 17.6303C74.8634 17.3517 74.8341 16.9486 74.3658 16.9486H73.1817V20.8617C73.1895 21.4211 73.411 21.4596 73.7637 21.4668H73.9375V21.4987V21.7537L73.9056 21.7538Z" fill="#211E1F"/>
<path d="M75.5059 21.4987H75.6098C75.8776 21.4987 76.1578 21.4628 76.1578 21.0766V17.1918C76.1578 16.8051 75.8776 16.7686 75.6098 16.7686H75.5059V16.546C75.7954 16.546 76.2396 16.5753 76.6021 16.5753C76.9743 16.5753 77.4191 16.546 77.7676 16.546V16.7686H77.6638C77.397 16.7686 77.1142 16.8051 77.1142 17.1918V21.0766C77.1142 21.4628 77.397 21.4987 77.6638 21.4987H77.7676V21.7224C77.4113 21.7224 76.9661 21.6931 76.5965 21.6931C76.2324 21.6931 75.7954 21.7224 75.5059 21.7224V21.4987Z" fill="#211E1F"/>
<path d="M77.7679 21.7538C77.4096 21.7538 76.9658 21.7234 76.5962 21.7234C76.2337 21.7234 75.7957 21.7538 75.5062 21.7538H75.4738V21.7224V21.4988V21.4669H75.5062H75.6101C75.8779 21.4628 76.1237 21.4396 76.1247 21.0767V17.1918C76.1237 16.8298 75.8779 16.8051 75.6101 16.8H75.4738V16.7687V16.5142H75.5062C75.7957 16.5142 76.2409 16.5425 76.6023 16.5425C76.972 16.5425 77.4167 16.5142 77.7679 16.5142H77.7993V16.546V16.8H77.7679H77.664C77.393 16.8051 77.1499 16.8298 77.1463 17.1918V21.0767C77.1499 21.4396 77.3931 21.4628 77.664 21.4669H77.7993V21.4988V21.7538H77.7679ZM77.7345 21.689V21.5321H77.664C77.3982 21.5321 77.0836 21.4854 77.0836 21.0767V17.1918C77.0836 16.782 77.3982 16.7357 77.664 16.7357H77.7345V16.5784C77.3921 16.5805 76.9638 16.6072 76.6023 16.6072C76.2511 16.6072 75.826 16.5805 75.5386 16.5784V16.7357H75.6101C75.8738 16.7357 76.1896 16.782 76.1905 17.1918V21.0767C76.1895 21.4853 75.8738 21.5321 75.6101 21.5321H75.5386V21.689C75.8245 21.6859 76.244 21.6607 76.5962 21.6607C76.9556 21.6607 77.3849 21.6875 77.7344 21.689H77.7345Z" fill="#211E1F"/>
<path d="M80.7245 16.435C82.3049 16.435 83.5646 17.4149 83.5646 18.9938C83.5646 20.6998 82.3414 21.8334 80.763 21.8334C79.1898 21.8334 77.9898 20.7655 77.9898 19.1712C77.9898 17.6293 79.1826 16.435 80.7245 16.435ZM80.8365 21.5069C82.2751 21.5069 82.5255 20.2381 82.5255 19.1568C82.5255 18.073 81.9415 16.7609 80.7101 16.7609C79.4124 16.7609 79.0273 17.9177 79.0273 18.9105C79.0273 20.2381 79.635 21.5069 80.8365 21.5069Z" fill="#211E1F"/>
<path d="M77.9564 19.1712C77.9596 17.6113 79.1668 16.4046 80.724 16.4026V16.435V16.4663C79.2002 16.4663 78.0207 17.6452 78.0192 19.1712C78.0228 20.7475 79.2058 21.7994 80.7627 21.8C82.3256 21.7994 83.5313 20.6817 83.5338 18.9923C83.5323 17.4334 82.2916 16.4683 80.7241 16.4663V16.435V16.4026C82.3169 16.4036 83.5935 17.3933 83.5966 18.9923C83.5951 20.7161 82.3559 21.8617 80.7627 21.8647C79.177 21.8616 77.9596 20.783 77.9565 19.1712H77.9564V19.1712ZM78.9951 18.9105C78.9971 17.9132 79.3868 16.7275 80.7102 16.7275C81.9688 16.7306 82.5565 18.0674 82.5585 19.1568C82.5565 20.238 82.302 21.5378 80.8367 21.5378V21.507V21.4751C82.2465 21.4731 82.4907 20.238 82.4942 19.1568C82.4942 18.0818 81.9153 16.7949 80.7102 16.7933C79.4382 16.7949 79.0618 17.9229 79.0594 18.9105C79.0604 20.2314 79.6624 21.472 80.8367 21.4751V21.507V21.5378C79.6058 21.5362 78.9971 20.2458 78.9951 18.9105Z" fill="#211E1F"/>
<path d="M88.5608 20.2607L88.5758 20.2463V17.4658C88.5758 16.8571 88.1521 16.7686 87.9295 16.7686H87.769V16.546C88.1166 16.546 88.4575 16.5753 88.805 16.5753C89.1099 16.5753 89.4138 16.546 89.7181 16.546V16.7686H89.6061C89.2955 16.7686 88.9464 16.8277 88.9464 17.71V21.0848C88.9464 21.344 88.9537 21.6031 88.9912 21.833H88.7099L84.8908 17.5764V20.6319C84.8908 21.2772 85.0163 21.4988 85.587 21.4988H85.714V21.7224C85.3947 21.7224 85.0765 21.6931 84.7577 21.6931C84.424 21.6931 84.0822 21.7224 83.7485 21.7224V21.4988H83.8528C84.3654 21.4988 84.5192 21.1512 84.5192 20.5584V17.435C84.5192 17.0201 84.1797 16.7687 83.8451 16.7687H83.7485V16.5461C84.0302 16.5461 84.3196 16.5753 84.6009 16.5753C84.8235 16.5753 85.0379 16.5461 85.2611 16.5461L88.5608 20.2607Z" fill="#211E1F"/>
<path d="M88.9918 21.8648L88.6849 21.854L84.923 17.6602V20.6319C84.9311 21.2767 85.0293 21.4592 85.5861 21.4659H85.7466V21.4993V21.7538H85.7141C85.3928 21.7538 85.0746 21.724 84.7578 21.724C84.4251 21.724 84.0848 21.7538 83.748 21.7538H83.7172V21.7219V21.4659H83.748H83.8529C84.3419 21.4644 84.4823 21.1497 84.4884 20.5584V17.435C84.4873 17.0402 84.1639 16.8006 83.8452 16.8001H83.7172V16.7687V16.5142H83.748C84.0324 16.5142 84.3213 16.5425 84.601 16.5425C84.8211 16.5425 85.035 16.5142 85.2858 16.525L88.5434 20.1934V17.4664C88.5413 16.8762 88.1465 16.8052 87.9295 16.8001H87.7347V16.7688V16.5143H87.7681C88.1172 16.5143 88.4591 16.5426 88.804 16.5426C89.1084 16.5426 89.4107 16.5143 89.7182 16.5143H89.75V16.5461V16.8001H89.7182H89.606C89.3011 16.8088 88.9855 16.8366 88.9793 17.7101V21.0844C88.9793 21.3435 88.9849 21.6021 89.021 21.8288L89.0271 21.8648H88.9918V21.8648ZM88.7102 21.8H88.9528C88.9205 21.5774 88.9148 21.3306 88.9148 21.0843V17.71C88.9148 16.8185 89.2886 16.7378 89.6063 16.7352H89.6865V16.5784C89.394 16.5805 89.1009 16.6072 88.8043 16.6072C88.467 16.6072 88.1353 16.5805 87.7996 16.5784V16.7352H87.9297C88.1595 16.7378 88.6068 16.8391 88.6068 17.4663L88.5987 20.2684L88.5847 20.2839L88.5611 20.3075L85.2614 16.5785C85.0429 16.5785 84.8264 16.6072 84.6012 16.6072C84.3282 16.6072 84.05 16.5805 83.7801 16.5785V16.7353H83.8454C84.1935 16.7378 84.5518 17.0006 84.5518 17.435V20.5584C84.5518 21.1512 84.3863 21.5306 83.8531 21.5327L83.7801 21.5321V21.689C84.1019 21.6875 84.432 21.6607 84.758 21.6607C85.067 21.6607 85.3739 21.6875 85.6819 21.689V21.5327H85.5863C85.0044 21.5321 84.8589 21.2767 84.8589 20.6319V17.4931L88.7102 21.8ZM88.561 20.2602L88.5846 20.2391L88.561 20.2602ZM88.5435 20.2463V20.2437L88.5373 20.238L88.5435 20.2463Z" fill="#211E1F"/>
<path d="M90.9095 20.6617C90.837 20.9131 90.7471 21.1074 90.7471 21.2396C90.7471 21.4627 91.0591 21.4987 91.3024 21.4987H91.3851V21.7224C91.0884 21.7064 90.7841 21.6931 90.4875 21.6931C90.2195 21.6931 89.9537 21.7065 89.6879 21.7224V21.4987H89.7301C90.0206 21.4987 90.2663 21.3285 90.3759 21.0164L91.5636 17.6138C91.6591 17.3393 91.7933 16.9686 91.8366 16.6936C92.0741 16.6128 92.3702 16.4648 92.5126 16.3753C92.5337 16.3677 92.5486 16.3599 92.5713 16.3599C92.5934 16.3599 92.6072 16.3599 92.6222 16.383C92.6447 16.4416 92.668 16.509 92.69 16.5681L94.0535 20.4468C94.1425 20.7059 94.231 20.9799 94.3286 21.2031C94.4175 21.4108 94.5738 21.4987 94.8175 21.4987H94.8628V21.7224C94.5286 21.7064 94.195 21.6931 93.8387 21.6931C93.4762 21.6931 93.105 21.7065 92.7265 21.7224V21.4987H92.8089C92.978 21.4987 93.269 21.4699 93.269 21.2843C93.269 21.1882 93.2016 20.9882 93.1189 20.7501L92.831 19.89H91.1477L90.9095 20.6617ZM91.9933 17.3763H91.9785L91.288 19.4751H92.6755L91.9933 17.3763Z" fill="#211E1F"/>
<path d="M94.8597 21.7538C94.5261 21.7404 94.193 21.7239 93.8387 21.7239C93.4772 21.7239 93.1061 21.7404 92.7276 21.7538L92.6948 21.7558V21.7219V21.4669H92.7266H92.8073C92.98 21.4669 93.2356 21.4268 93.2361 21.2844C93.2376 21.2 93.1708 20.998 93.0881 20.7604L92.8063 19.9219H91.1698L90.9405 20.6709C90.8665 20.9249 90.778 21.1198 90.7796 21.2396C90.7796 21.4216 91.0571 21.4669 91.3025 21.4669H91.4155V21.4987V21.7558L91.3827 21.7538C91.086 21.7404 90.7826 21.7239 90.4876 21.7239C90.2217 21.7239 89.9553 21.7404 89.688 21.7538L89.6556 21.7558V21.7219V21.4669H89.688H89.7302C90.0067 21.4658 90.2381 21.307 90.3461 21.0062L91.5328 17.6031C91.6274 17.3281 91.761 16.9584 91.8268 16.6638C92.0597 16.5831 92.3574 16.435 92.5014 16.3445C92.5209 16.3378 92.541 16.329 92.5713 16.329C92.5908 16.327 92.6288 16.3316 92.6525 16.3722C92.6746 16.4304 92.6962 16.4977 92.7209 16.5578L94.0844 20.436C94.1729 20.6962 94.2618 20.9702 94.3579 21.1908C94.4447 21.3872 94.58 21.4648 94.8165 21.4669H94.8936V21.4987V21.7558L94.8597 21.7538ZM92.7585 21.6884C93.125 21.6745 93.486 21.6601 93.8387 21.6601C94.1837 21.6601 94.5071 21.6745 94.8299 21.6874L94.8289 21.5326H94.8166C94.5656 21.5331 94.3904 21.4344 94.2983 21.2159C94.2006 20.9907 94.1122 20.7157 94.0238 20.457L92.6592 16.5784C92.6371 16.5193 92.6145 16.4519 92.5965 16.4015C92.5903 16.3923 92.5909 16.3923 92.5851 16.3923H92.5713C92.5559 16.3923 92.5476 16.3974 92.5296 16.4026C92.3851 16.4936 92.0879 16.6416 91.8684 16.6987C91.8226 16.9794 91.688 17.3491 91.5924 17.6242L90.4052 21.0277C90.2926 21.3496 90.0335 21.5331 89.7301 21.5326H89.7193V21.6874C89.9743 21.6745 90.2293 21.6601 90.4875 21.6601C90.7749 21.6601 91.0674 21.6745 91.3528 21.6874V21.5326H91.3024C91.0613 21.5295 90.7229 21.5033 90.7142 21.2396C90.7157 21.0925 90.8077 20.9038 90.8792 20.6524L90.9096 20.6621L90.8792 20.6513L91.1234 19.8585H92.8526L93.1497 20.7398C93.2314 20.9784 93.2988 21.1753 93.2988 21.2843C93.2879 21.5121 92.9769 21.528 92.8072 21.5326H92.7584V21.6884H92.7585ZM91.2438 19.5065L91.9549 17.344H91.9774H91.9934V17.3763L91.9857 17.3779L91.9934 17.3763V17.344H92.0166L92.7173 19.5065H91.2438ZM91.3328 19.4427H92.6295L91.9847 17.4565L91.3328 19.4427ZM91.9626 17.3856L91.9774 17.38L91.9626 17.3856Z" fill="#211E1F"/>
<path d="M96.7311 20.9954C96.7311 21.2921 96.9368 21.3805 97.1744 21.4108C97.4782 21.4334 97.8119 21.4334 98.1544 21.3959C98.4648 21.3584 98.7323 21.1805 98.8648 20.9954C98.9831 20.8319 99.05 20.6242 99.0947 20.4612H99.3096C99.2283 20.8838 99.1245 21.3003 99.035 21.7224C98.3841 21.7224 97.7302 21.6931 97.0787 21.6931C96.4253 21.6931 95.7739 21.7224 95.1215 21.7224V21.4987H95.2232C95.4916 21.4987 95.7816 21.4627 95.7816 21.0026V17.1918C95.7816 16.8051 95.4916 16.7686 95.2232 16.7686H95.1215V16.546C95.5132 16.546 95.8993 16.5753 96.2916 16.5753C96.671 16.5753 97.0413 16.546 97.4196 16.546V16.7686H97.2329C96.9523 16.7686 96.7311 16.7769 96.7311 17.1686V20.9954V20.9954Z" fill="#211E1F"/>
<path d="M99.035 21.7538C98.3816 21.7538 97.7292 21.724 97.0788 21.724C96.4258 21.724 95.7733 21.7538 95.1199 21.7538H95.0885V21.7219V21.4669H95.1199H95.2233C95.4922 21.4607 95.7461 21.4422 95.7492 21.0026V17.1903C95.7461 16.8299 95.4936 16.8052 95.2233 16.8H95.0885V16.7687V16.5142H95.1199C95.5143 16.5142 95.9004 16.5425 96.2921 16.5425C96.6684 16.5425 97.0387 16.5142 97.4196 16.5142H97.45V16.5461V16.8H97.4196H97.2335C96.9461 16.8083 96.7672 16.7949 96.7616 17.1687V20.9955C96.7636 21.2716 96.9446 21.3461 97.176 21.3785C97.3071 21.3878 97.4443 21.3934 97.5873 21.3934C97.7688 21.3934 97.9574 21.3847 98.1488 21.3641C98.451 21.3287 98.7112 21.1543 98.8387 20.9775C98.9528 20.8191 99.0187 20.6155 99.0628 20.4536L99.0696 20.4289H99.0942H99.3488L99.342 20.468C99.2583 20.8922 99.1565 21.3066 99.0665 21.7287L99.0604 21.7539H99.0352H99.035V21.7538ZM99.0083 21.689C99.0942 21.2869 99.1914 20.8936 99.2711 20.4925H99.1188C99.0726 20.654 99.0067 20.8529 98.8901 21.0149C98.7517 21.2072 98.4772 21.3882 98.1559 21.4278C97.9616 21.4478 97.7692 21.4581 97.5873 21.4581C97.4438 21.4581 97.3045 21.4514 97.1703 21.4421C96.9292 21.4154 96.6952 21.3125 96.6963 20.9954V17.1686C96.6963 16.7568 96.9568 16.7357 97.2335 16.7357H97.3867V16.5784C97.0212 16.5805 96.6613 16.6077 96.292 16.6077C95.908 16.6077 95.5327 16.5805 95.1522 16.5784V16.7357H95.2232C95.488 16.7357 95.8118 16.782 95.8118 17.1902V21.0026C95.8118 21.4823 95.4895 21.5321 95.2232 21.5321H95.1522V21.6889C95.7934 21.6884 96.4345 21.6607 97.0787 21.6607C97.7229 21.6607 98.3668 21.6884 99.0083 21.689Z" fill="#211E1F"/>
<path d="M99.2196 16.3352C99.6663 16.3352 100 16.6787 100 17.1188C100 17.5568 99.6664 17.8972 99.2196 17.8972C98.7728 17.8972 98.4387 17.5568 98.4387 17.1188C98.4386 16.6787 98.7728 16.3352 99.2196 16.3352ZM99.2196 17.7517C99.5687 17.7517 99.8371 17.4535 99.8371 17.1188C99.8371 16.782 99.5728 16.4812 99.2196 16.4812C98.8685 16.4812 98.6001 16.7821 98.6001 17.1188C98.6001 17.4535 98.8685 17.7517 99.2196 17.7517ZM98.8309 17.5301V17.4915C98.927 17.4781 98.9445 17.4812 98.9445 17.4216V16.8437C98.9445 16.7625 98.9357 16.7348 98.8345 16.7388V16.6992H99.234C99.3717 16.6992 99.4977 16.7645 99.4977 16.9064C99.4977 17.0226 99.4205 17.1085 99.3131 17.1419L99.4411 17.3208C99.5013 17.402 99.5686 17.4781 99.6133 17.5048V17.53H99.4612C99.3882 17.53 99.3245 17.3763 99.1805 17.1701H99.0941V17.4298C99.0941 17.4812 99.1121 17.4781 99.2083 17.4915V17.53H98.8309V17.5301ZM99.0941 17.1188H99.1862C99.2869 17.1188 99.3342 17.0422 99.3342 16.9193C99.3342 16.7949 99.2612 16.7511 99.181 16.7511H99.0941V17.1188V17.1188Z" fill="#211E1F"/>
</g>
<defs>
<clipPath id="clip0">
<rect width="100" height="25.9126" fill="white"/>
</clipPath>
</defs>
</svg>
