<svg width="100" height="65" viewBox="0 0 100 65" fill="none" xmlns="http://www.w3.org/2000/svg">
<path d="M90 0H10C4.47715 0 0 4.47715 0 10V55C0 60.5228 4.47715 65 10 65H90C95.5229 65 100 60.5228 100 55V10C100 4.47715 95.5229 0 90 0Z" fill="black"/>
<path d="M23.6688 24.5102C24.4699 24.239 25.33 24.0975 26.2253 24.0975C30.1368 24.0975 33.4003 26.8805 34.1423 30.5712L39.6795 29.4392C38.4073 23.166 32.87 18.4375 26.2253 18.4375C24.7056 18.4375 23.2447 18.6852 21.8781 19.145L23.6688 24.5102Z" fill="white"/>
<path d="M17.13 42.4807L20.8765 38.2357C19.2035 36.75 18.155 34.592 18.155 32.1745C18.155 29.769 19.2035 27.5992 20.8765 26.1255L17.13 21.892C14.2907 24.4155 12.5 28.0827 12.5 32.1865C12.5 36.2782 14.2907 39.9572 17.13 42.4807Z" fill="white"/>
<path d="M34.1426 33.8013C33.3886 37.4923 30.1368 40.2633 26.2256 40.2633C25.3301 40.2633 24.4701 40.1218 23.6572 39.8505L21.8665 45.2157C23.2331 45.6755 24.7057 45.9232 26.2256 45.9232C32.8701 45.9232 38.4073 41.2065 39.6798 34.9333L34.1426 33.8013Z" fill="white"/>
<path d="M58.1287 37.5995C57.2097 38.4958 55.9727 39.038 54.606 39.0145C53.6635 39.0028 52.792 38.7198 52.0612 38.248L50.2235 41.1725C51.484 41.9625 52.9565 42.434 54.559 42.4578C56.8797 42.493 59.0005 41.5733 60.544 40.0758L58.1287 37.5995ZM54.8065 25.6778C50.188 25.607 46.371 29.3098 46.3002 33.9323C46.2767 35.6655 46.7715 37.2928 47.6552 38.637L62.8295 32.1398C61.9813 28.496 58.7297 25.7485 54.8065 25.6778ZM49.776 34.5925C49.7522 34.4038 49.7405 34.2033 49.7405 34.0028C49.7877 31.2788 52.0262 29.0973 54.7475 29.1445C56.232 29.168 57.5515 29.8403 58.435 30.9015L49.776 34.5925ZM67.601 21.9043V38.0945L70.405 39.262L69.0735 42.4575L66.2933 41.302C65.669 41.0308 65.2448 40.618 64.9265 40.1463C64.6202 39.6748 64.3848 39.0143 64.3848 38.1418V21.9043H67.601ZM77.7213 29.3923C78.216 29.227 78.7343 29.1445 79.2883 29.1445C81.6798 29.1445 83.659 30.8425 84.1185 33.0948L87.4998 32.399C86.722 28.5668 83.341 25.6895 79.2883 25.6895C78.3575 25.6895 77.462 25.8428 76.6375 26.114L77.7213 29.3923ZM73.7273 40.3468L76.0128 37.7645C74.988 36.8565 74.3515 35.5358 74.3515 34.0618C74.3515 32.5878 74.9995 31.267 76.0128 30.371L73.7273 27.7885C71.9955 29.3215 70.8998 31.5738 70.8998 34.0735C70.8998 36.5735 71.9955 38.814 73.7273 40.3468ZM84.1185 35.064C83.659 37.3163 81.668 39.0143 79.2883 39.0143C78.7463 39.0143 78.216 38.92 77.7213 38.755L76.6258 42.033C77.462 42.316 78.3573 42.4693 79.2883 42.4693C83.341 42.4693 86.7223 39.5923 87.4998 35.7598L84.1185 35.064Z" fill="white"/>
</svg>
