<svg width="40" height="40" viewBox="0 0 40 40" fill="none" xmlns="http://www.w3.org/2000/svg">
<rect y="7" width="40" height="26" rx="4" fill="black"/>
<path d="M9.46752 16.8041C9.78797 16.6956 10.132 16.639 10.4901 16.639C12.0547 16.639 13.3601 17.7522 13.6569 19.2285L15.8718 18.7757C15.3629 16.2664 13.148 14.375 10.4901 14.375C9.88222 14.375 9.29787 14.4741 8.75122 14.658L9.46752 16.8041Z" fill="white"/>
<path d="M6.85202 23.9923L8.35059 22.2943C7.68142 21.7 7.262 20.8368 7.262 19.8698C7.262 18.9076 7.68142 18.0397 8.35059 17.4502L6.85202 15.7568C5.7163 16.7662 5 18.2331 5 19.8746C5 21.5113 5.7163 22.9829 6.85202 23.9923Z" fill="white"/>
<path d="M13.6569 20.5205C13.3553 21.9969 12.0546 23.1053 10.4901 23.1053C10.1319 23.1053 9.78792 23.0487 9.46276 22.9402L8.74646 25.0863C9.29311 25.2702 9.88217 25.3693 10.4901 25.3693C13.1479 25.3693 15.3628 23.4826 15.8718 20.9733L13.6569 20.5205Z" fill="white"/>
<path d="M23.2516 22.0398C22.884 22.3983 22.3892 22.6152 21.8425 22.6058C21.4655 22.6011 21.1169 22.4879 20.8246 22.2992L20.0895 23.469C20.5937 23.785 21.1827 23.9736 21.8237 23.9831C22.752 23.9972 23.6003 23.6293 24.2177 23.0303L23.2516 22.0398ZM21.9227 17.2711C20.0753 17.2428 18.5485 18.7239 18.5202 20.5729C18.5108 21.2662 18.7087 21.9171 19.0622 22.4548L25.1319 19.8559C24.7926 18.3984 23.492 17.2994 21.9227 17.2711H21.9227ZM19.9105 20.837C19.901 20.7615 19.8963 20.6813 19.8963 20.6011C19.9152 19.5115 20.8106 18.6389 21.8991 18.6578C22.4929 18.6672 23.0207 18.9361 23.3741 19.3606L19.9105 20.837ZM27.0405 15.7617V22.2378L28.1621 22.7048L27.6295 23.983L26.5174 23.5208C26.2677 23.4123 26.098 23.2472 25.9707 23.0585C25.8482 22.8699 25.754 22.6057 25.754 22.2567V15.7617H27.0405ZM31.0886 18.7569C31.2865 18.6908 31.4938 18.6578 31.7154 18.6578C32.672 18.6578 33.4637 19.337 33.6475 20.2379L35 19.9596C34.6889 18.4267 33.3365 17.2758 31.7154 17.2758C31.3431 17.2758 30.9849 17.3371 30.6551 17.4456L31.0886 18.7569ZM29.491 23.1387L30.4052 22.1058C29.9953 21.7426 29.7407 21.2143 29.7407 20.6247C29.7407 20.0351 29.9999 19.5068 30.4052 19.1484L29.491 18.1154C28.7983 18.7286 28.36 19.6295 28.36 20.6294C28.36 21.6294 28.7983 22.5256 29.491 23.1387ZM33.6475 21.0256C33.4637 21.9265 32.6673 22.6057 31.7154 22.6057C31.4986 22.6057 31.2865 22.568 31.0886 22.502L30.6504 23.8132C30.9849 23.9264 31.343 23.9877 31.7154 23.9877C33.3365 23.9877 34.689 22.8369 35 21.3039L33.6475 21.0256Z" fill="white"/>
</svg>
