<svg width="100" height="65" viewBox="0 0 100 65" fill="none" xmlns="http://www.w3.org/2000/svg">
<path d="M90 0H10C4.47715 0 0 4.47715 0 10V55C0 60.5228 4.47715 65 10 65H90C95.5229 65 100 60.5228 100 55V10C100 4.47715 95.5229 0 90 0Z" fill="#B82327"/>
<path fill-rule="evenodd" clip-rule="evenodd" d="M27.274 25.3346C27.6888 25.0468 28.242 23.7226 27.6155 23.1651C27.4715 23.0688 27.3085 23.0051 27.1377 22.9786C26.967 22.9521 26.7927 22.9633 26.6267 23.0113C26.4665 23.0263 26.3108 23.0728 26.1683 23.1486C26.026 23.2243 25.8997 23.3278 25.797 23.4528C25.5315 23.8176 25.284 24.9308 25.7015 25.3346C25.9385 25.4803 26.2105 25.5576 26.4878 25.5576C26.765 25.5576 27.037 25.4803 27.274 25.3346ZM21.3067 23.1651C21.0024 25.1418 20.6609 27.0628 20.3179 29.0003C18.1329 29.0201 15.9092 29.1151 13.8003 28.9431C14.1999 27.0613 14.4848 25.0456 14.883 23.1651H12.546C11.7162 27.9833 10.9307 32.8786 10 37.6018H12.3938C12.7741 35.1836 13.1157 32.7263 13.6094 30.4408C15.7623 30.3346 17.9196 30.3538 20.0704 30.4981C19.6707 32.8981 19.177 35.2018 18.7967 37.6228H21.1905C21.9691 32.7333 22.7684 27.8898 23.7365 23.1861H21.3067V23.1651ZM55.228 27.3113C54.467 27.0386 53.632 27.0646 52.889 27.3848C52.146 27.7051 51.5495 28.2956 51.2178 29.0396C51.3698 28.5018 51.4265 27.8688 51.5592 27.3113H49.6978C49.2415 30.8823 48.5762 34.2226 47.9305 37.6018H50.0395C50.2178 35.3676 50.58 33.1523 51.1223 30.9786C51.215 30.5696 51.3928 30.1848 51.6435 29.8501C51.8943 29.5153 52.2125 29.2383 52.5772 29.0371C52.9417 28.8356 53.3445 28.7146 53.7587 28.6821C54.173 28.6496 54.5895 28.7061 54.9805 28.8481C55 28.2908 55.1715 27.8493 55.228 27.3113ZM56.4062 35.1823C56.215 34.5423 56.1505 33.8706 56.2168 33.2056C56.2763 31.7701 56.7743 30.3883 57.6428 29.2506C58.749 28.1566 60.9118 28.3481 62.6405 28.9628C62.6973 28.3676 62.812 27.8451 62.888 27.2738C60.0557 26.8128 57.3565 27.1006 55.9335 28.6176C55.1585 29.5913 54.606 30.7261 54.3155 31.9406C54.025 33.1551 54.0037 34.4196 54.2532 35.6433C55.0137 38.1383 58.4017 38.2976 61.151 37.3323C61.2645 36.8336 61.3405 36.2761 61.436 35.7578C59.941 36.5066 57.0715 36.9103 56.4062 35.1823ZM80.0278 27.3688C78.165 26.4286 76.6257 28.0016 76.0175 28.9431C76.1887 28.4626 76.2068 27.8101 76.359 27.3113H74.4963C74.0025 30.8431 73.3897 34.2603 72.6915 37.6018H74.8392C74.9075 36.3558 75.0728 35.1171 75.3328 33.8971C75.7893 31.0358 76.4393 27.9081 79.7415 28.8481C79.8563 28.3676 79.895 27.8101 80.0278 27.3688ZM25.1262 27.3113C25.0695 27.3113 25.0695 27.3883 25.0695 27.4651C24.6132 30.9576 23.9868 34.2993 23.3022 37.6018H25.4113C25.9243 34.0703 26.494 30.6168 27.2158 27.3113H25.1262ZM43.6172 27.1201C42.2275 27.1351 40.8958 27.6846 39.893 28.6568C38.518 30.4226 37.8835 32.6626 38.1258 34.8958C38.506 38.3131 42.7238 38.1983 46.1065 37.3728C46.163 36.7776 46.3152 36.2551 46.3912 35.6838C45.0085 36.2021 42.591 36.9508 41.146 36.0288C40.063 35.3373 40.063 33.5911 40.4047 32.0738C42.6657 31.9971 45.0415 32.0166 47.3028 32.0738C47.6205 30.9968 47.6855 29.8598 47.492 28.7531C47.062 27.3506 45.3652 26.9846 43.6172 27.1201ZM45.632 30.8823H40.691C40.7965 30.2046 41.1338 29.5856 41.644 29.1331C42.1545 28.6806 42.8055 28.4231 43.4845 28.4053C44.9878 28.3481 46.094 28.9628 45.632 30.8823ZM35.6557 27.3113C34.8282 27.0671 33.9558 27.0213 33.1078 27.1778C32.2595 27.3346 31.4595 27.6893 30.7713 28.2138C30.7713 28.2516 30.752 28.2516 30.7145 28.2516C30.734 28.2321 30.752 28.2321 30.7713 28.2138C30.7908 27.8871 30.9095 27.6551 30.9235 27.3311H29.1173C28.3568 32.3993 27.4578 37.3323 26.5328 42.2093H28.607C28.9112 40.3093 29.12 38.3116 29.5377 36.5261C30.0135 38.4081 33.1485 38.0433 34.479 37.3128C37.213 35.8166 39.304 28.7126 35.6545 27.3113H35.6557ZM33.9838 35.6628C32.8623 36.8726 30.0883 36.8531 29.8793 34.8246C29.8845 33.9016 30.019 32.9838 30.279 32.0991C30.4505 31.1771 30.564 30.2941 30.716 29.4683C31.8222 28.1048 35.0875 27.9318 35.4095 30.2173C35.6478 32.1506 35.1363 34.1018 33.9825 35.6628H33.9838ZM87.8757 22.8578C87.7122 24.4071 87.4648 25.9461 87.1345 27.4678C81.9653 25.8166 78.8108 29.6571 78.8675 34.3986C78.8178 35.2866 79.0803 36.1638 79.6088 36.8756C80.3378 37.4501 81.2168 37.7978 82.138 37.8761C83.0595 37.9546 83.9835 37.7603 84.7975 37.3168C85.0767 37.1021 85.326 36.8503 85.5387 36.5681C85.677 36.3948 85.8998 35.9353 85.9385 36.0693C85.8333 36.5753 85.7697 37.0893 85.749 37.6061H87.649C88.1523 32.6563 88.9373 27.7401 90 22.8816H87.8718L87.8757 22.8578ZM83.163 36.4688C81.737 36.5066 81.0345 35.6056 81.0153 34.1456C80.9585 31.5738 82.08 28.7126 84.3342 28.4626C85.2217 28.3851 86.1145 28.5236 86.9382 28.8663C86.2232 31.7456 86.4888 36.3921 83.163 36.4688ZM65.015 27.3113C64.9195 27.9066 64.7495 28.4291 64.6152 29.0003C65.8502 28.6931 69.732 27.7138 70.0887 29.4041C70.1577 29.9421 70.0718 30.4888 69.8413 30.9786C66.3453 30.6518 63.4937 31.2286 62.7525 33.7433C62.4752 34.4103 62.4358 35.1536 62.6403 35.8466C62.8448 36.5398 63.2808 37.1398 63.874 37.5446C64.8225 37.9171 65.865 37.9686 66.845 37.6916C67.825 37.4146 68.6898 36.8236 69.309 36.0078C69.1963 36.5248 69.1453 37.0533 69.1568 37.5823H70.9615C71.007 35.9896 71.185 34.4036 71.494 32.8408C71.8178 31.5778 72.015 30.2851 72.083 28.9823C71.9545 26.2748 67.5043 27.2346 65.015 27.3113ZM68.4363 35.6238C67.3535 36.6993 64.3125 37.0053 64.6168 34.4336C64.8823 32.3031 67.1625 31.8616 69.6532 32.1676C69.6035 33.4176 69.179 34.6228 68.4363 35.6238Z" fill="white"/>
</svg>
