<svg width="40" height="40" viewBox="0 0 40 40" fill="none" xmlns="http://www.w3.org/2000/svg">
<rect y="7" width="40" height="26" rx="4" fill="#B82327"/>
<path fill-rule="evenodd" clip-rule="evenodd" d="M10.9096 17.1338C11.0755 17.0187 11.2968 16.489 11.0462 16.266C10.9886 16.2275 10.9234 16.202 10.8551 16.1914C10.7868 16.1808 10.7171 16.1853 10.6507 16.2045C10.5866 16.2105 10.5243 16.2291 10.4673 16.2594C10.4104 16.2897 10.3599 16.3311 10.3188 16.3811C10.2126 16.527 10.1136 16.9723 10.2806 17.1338C10.3754 17.1921 10.4842 17.223 10.5951 17.223C10.706 17.223 10.8148 17.1921 10.9096 17.1338ZM8.52267 16.266C8.40098 17.0567 8.26434 17.8251 8.12716 18.6001C7.25316 18.608 6.36367 18.646 5.5201 18.5772C5.67996 17.8245 5.79391 17.0182 5.95322 16.266H5.01838C4.68648 18.1933 4.37228 20.1514 4 22.0407H4.95753C5.10965 21.0734 5.24628 20.0905 5.44376 19.1763C6.30494 19.1338 7.16783 19.1415 8.02814 19.1992C7.86828 20.1592 7.6708 21.0807 7.51868 22.0491H8.47621C8.78764 20.0933 9.10736 18.1559 9.49458 16.2744H8.52267V16.266ZM22.0912 17.9245C21.7868 17.8154 21.4528 17.8258 21.1556 17.9539C20.8584 18.082 20.6198 18.3182 20.4871 18.6158C20.5479 18.4007 20.5706 18.1475 20.6237 17.9245H19.8791C19.6966 19.3529 19.4305 20.689 19.1722 22.0407H20.0158C20.0871 21.147 20.232 20.2609 20.4489 19.3914C20.486 19.2278 20.5571 19.0739 20.6574 18.94C20.7577 18.8061 20.885 18.6953 21.0309 18.6148C21.1767 18.5342 21.3378 18.4858 21.5035 18.4728C21.6692 18.4598 21.8358 18.4824 21.9922 18.5392C22 18.3163 22.0686 18.1397 22.0912 17.9245ZM22.5625 21.0729C22.486 20.8169 22.4602 20.5482 22.4867 20.2822C22.5105 19.708 22.7097 19.1553 23.0571 18.7002C23.4996 18.2626 24.3647 18.3392 25.0562 18.5851C25.0789 18.347 25.1248 18.138 25.1552 17.9095C24.0223 17.7251 22.9426 17.8402 22.3734 18.447C22.0634 18.8365 21.8424 19.2904 21.7262 19.7762C21.61 20.262 21.6015 20.7678 21.7013 21.2573C22.0055 22.2553 23.3607 22.319 24.4604 21.9329C24.5058 21.7334 24.5362 21.5104 24.5744 21.3031C23.9764 21.6026 22.8286 21.7641 22.5625 21.0729ZM32.0111 17.9475C31.266 17.5714 30.6503 18.2006 30.407 18.5772C30.4755 18.385 30.4827 18.124 30.5436 17.9245H29.7985C29.601 19.3372 29.3559 20.7041 29.0766 22.0407H29.9357C29.963 21.5423 30.0291 21.0468 30.1331 20.5588C30.3157 19.4143 30.5757 18.1632 31.8966 18.5392C31.9425 18.347 31.958 18.124 32.0111 17.9475ZM10.0505 17.9245C10.0278 17.9245 10.0278 17.9553 10.0278 17.986C9.84529 19.383 9.59471 20.7197 9.32089 22.0407H10.1645C10.3697 20.6281 10.5976 19.2467 10.8863 17.9245H10.0505ZM17.4469 17.848C16.891 17.854 16.3583 18.0738 15.9572 18.4627C15.4072 19.169 15.1534 20.065 15.2503 20.9583C15.4024 22.3252 17.0895 22.2793 18.4426 21.9491C18.4652 21.711 18.5261 21.502 18.5565 21.2735C18.0034 21.4808 17.0364 21.7803 16.4584 21.4115C16.0252 21.1349 16.0252 20.4364 16.1619 19.8295C17.0663 19.7988 18.0166 19.8066 18.9211 19.8295C19.0482 19.3987 19.0742 18.9439 18.9968 18.5012C18.8248 17.9402 18.1461 17.7938 17.4469 17.848ZM18.2528 19.3529H16.2764C16.3186 19.0818 16.4535 18.8342 16.6576 18.6532C16.8618 18.4722 17.1222 18.3692 17.3938 18.3621C17.9951 18.3392 18.4376 18.5851 18.2528 19.3529ZM14.2623 17.9245C13.9313 17.8268 13.5823 17.8085 13.2431 17.8711C12.9038 17.9338 12.5838 18.0757 12.3085 18.2855C12.3085 18.3006 12.3008 18.3006 12.2858 18.3006C12.2936 18.2928 12.3008 18.2928 12.3085 18.2855C12.3163 18.1548 12.3638 18.062 12.3694 17.9324H11.6469C11.3427 19.9597 10.9831 21.9329 10.6131 23.8837H11.4428C11.5645 23.1237 11.648 22.3246 11.8151 21.6104C12.0054 22.3632 13.2594 22.2173 13.7916 21.9251C14.8852 21.3266 15.7216 18.485 14.2618 17.9245H14.2623ZM13.5935 21.2651C13.1449 21.749 12.0353 21.7412 11.9517 20.9298C11.9538 20.5606 12.0076 20.1935 12.1116 19.8396C12.1802 19.4708 12.2256 19.1176 12.2864 18.7873C12.7289 18.2419 14.035 18.1727 14.1638 19.0869C14.2591 19.8602 14.0545 20.6407 13.593 21.2651H13.5935ZM35.1503 16.1431C35.0849 16.7628 34.9859 17.3784 34.8538 17.9871C32.7861 17.3266 31.5243 18.8628 31.547 20.7594C31.5271 21.1146 31.6321 21.4655 31.8435 21.7502C32.1351 21.98 32.4867 22.1191 32.8552 22.1504C33.2238 22.1818 33.5934 22.1041 33.919 21.9267C34.0307 21.8408 34.1304 21.7401 34.2155 21.6272C34.2708 21.5579 34.3599 21.3741 34.3754 21.4277C34.3333 21.6301 34.3079 21.8357 34.2996 22.0424H35.0596C35.2609 20.0625 35.5749 18.096 36 16.1526H35.1487L35.1503 16.1431ZM33.2652 21.5875C32.6948 21.6026 32.4138 21.2422 32.4061 20.6582C32.3834 19.6295 32.832 18.485 33.7337 18.385C34.0887 18.354 34.4458 18.4094 34.7753 18.5465C34.4893 19.6982 34.5955 21.5568 33.2652 21.5875ZM26.006 17.9245C25.9678 18.1626 25.8998 18.3716 25.8461 18.6001C26.3401 18.4772 27.8928 18.0855 28.0355 18.7616C28.0631 18.9768 28.0287 19.1955 27.9365 19.3914C26.5381 19.2607 25.3975 19.4914 25.101 20.4973C24.9901 20.7641 24.9743 21.0614 25.0561 21.3386C25.1379 21.6159 25.3123 21.8559 25.5496 22.0178C25.929 22.1668 26.346 22.1874 26.738 22.0766C27.13 21.9658 27.4759 21.7294 27.7236 21.4031C27.6785 21.6099 27.6581 21.8213 27.6627 22.0329H28.3846C28.4028 21.3958 28.474 20.7614 28.5976 20.1363C28.7271 19.6311 28.806 19.114 28.8332 18.5929C28.7818 17.5099 27.0017 17.8938 26.006 17.9245ZM27.3745 21.2495C26.9414 21.6797 25.725 21.8021 25.8467 20.7734C25.9529 19.9212 26.865 19.7446 27.8613 19.867C27.8414 20.367 27.6716 20.8491 27.3745 21.2495Z" fill="white"/>
</svg>
