<svg width="40" height="40" viewBox="0 0 40 40" fill="none" xmlns="http://www.w3.org/2000/svg">
<rect y="7" width="40" height="26" rx="4" fill="#3586DD"/>
<g clip-path="url(#clip0)">
<path d="M31.25 25.2167C31.25 27.1679 29.6836 28.75 27.7504 28.75H8.75V14.7838C8.75 12.8321 10.3165 11.25 12.25 11.25H31.2499L31.2498 25.2167L31.25 25.2167Z" fill="white"/>
<path d="M24.7143 20.3098C25.308 20.3219 25.905 20.2854 26.4962 20.3288C27.095 20.433 27.2394 21.2789 26.7074 21.5559C26.3444 21.7384 25.9132 21.6239 25.5197 21.6561H24.7143V20.3098ZM26.8395 18.786C26.9714 19.2204 26.5226 19.6105 26.0742 19.5506H24.7143C24.7239 19.141 24.6957 18.6963 24.7281 18.3082C25.2729 18.3225 25.8227 18.279 26.3644 18.331C26.5971 18.3855 26.7919 18.5641 26.8395 18.786ZM30.1123 12.3438C30.1376 13.1734 30.116 14.0469 30.1232 14.8933C30.1216 18.3347 30.1268 21.7759 30.1203 25.2175C30.0965 26.5072 28.8716 27.6279 27.499 27.6536C26.1251 27.6588 24.751 27.6544 23.3769 27.6559V22.4532C24.874 22.446 26.3719 22.4679 27.8685 22.4423C28.5627 22.4017 29.3231 21.9742 29.3554 21.2613C29.4372 20.5453 28.7138 20.0501 28.027 19.9719C27.763 19.9655 27.7707 19.9001 28.027 19.8715C28.682 19.7394 29.1964 19.1067 29.0037 18.4731C28.8395 17.8067 28.0501 17.5488 27.3936 17.5501C26.0549 17.5416 24.7159 17.5489 23.3772 17.5464C23.3858 16.5752 23.3592 15.6029 23.3916 14.6323C23.4976 13.3659 24.7534 12.3215 26.1067 12.3441C27.442 12.3439 28.7772 12.3439 30.1123 12.3439V12.3438Z" fill="#50A952"/>
<path d="M9.90455 14.7637C9.93292 13.476 10.9538 12.3645 12.0913 12.3457C13.2272 12.3418 14.3633 12.3452 15.4992 12.344C15.4961 16.6523 15.5054 20.9611 15.4946 25.2691C15.4508 26.5411 14.4411 27.6314 13.3159 27.6539C12.1779 27.6586 11.0397 27.6546 9.90156 27.6559V22.2779C11.007 22.5716 12.1663 22.6966 13.2941 22.5018C13.9682 22.3798 14.7058 22.0076 14.9341 21.2212C15.102 20.5485 15.0074 19.8405 15.0324 19.15V17.5466H13.0807C13.0719 18.6071 13.0987 19.6694 13.0666 20.7286C13.014 21.3796 12.4406 21.7933 11.8945 21.7712C11.2173 21.7792 9.87533 21.2193 9.87533 21.2193C9.87196 19.2324 9.89498 16.7442 9.90455 14.7639V14.7637Z" fill="#19509B"/>
<path d="M16.0643 18.1934C15.9406 18.2179 16.0394 17.7999 16.0078 17.6414C16.0162 16.6388 15.9902 15.6352 16.0221 14.6333C16.1278 13.3616 17.3924 12.3146 18.7503 12.3444H22.7491C22.7454 16.6525 22.7565 20.9611 22.7435 25.2691C22.6907 26.541 21.4747 27.6313 20.1197 27.6538C18.7491 27.6586 17.3784 27.6546 16.0077 27.6558V21.7637C16.9438 22.4809 18.2161 22.5925 19.3823 22.5944C20.2615 22.5942 21.1356 22.4676 21.9894 22.2783V21.1988C21.0272 21.6466 19.8961 21.931 18.8295 21.6737C18.0854 21.5008 17.5453 20.8294 17.5573 20.1125C17.4711 19.3669 17.9392 18.5797 18.7239 18.3581C19.6982 18.0733 20.7601 18.2911 21.6733 18.6613C21.869 18.757 22.0676 18.8756 21.9893 18.5703V17.7218C20.4619 17.3825 18.8365 17.2577 17.302 17.6268C16.8578 17.7438 16.4251 17.9212 16.0643 18.1935V18.1934Z" fill="#D03831"/>
</g>
<defs>
<clipPath id="clip0">
<rect x="9" y="11" width="22" height="18" fill="white"/>
</clipPath>
</defs>
</svg>
