<svg width="100" height="65" viewBox="0 0 100 65" fill="none" xmlns="http://www.w3.org/2000/svg">
<path d="M90 0H10C4.47715 0 0 4.47715 0 10V55C0 60.5228 4.47715 65 10 65H90C95.5229 65 100 60.5228 100 55V10C100 4.47715 95.5229 0 90 0Z" fill="#3586DD"/>
<path d="M78.125 45.5417C78.125 50.4197 74.209 54.375 69.376 54.375H21.875V19.4595C21.875 14.5803 25.7912 10.625 30.625 10.625H78.1248L78.1245 45.5417H78.125Z" fill="white"/>
<path d="M61.7857 33.2745C63.2699 33.3048 64.7624 33.2135 66.2404 33.322C67.7374 33.5825 68.0984 35.6973 66.7684 36.3898C65.8609 36.846 64.7829 36.5598 63.7992 36.6403H61.7857V33.2745ZM67.0987 29.465C67.4284 30.551 66.3064 31.5263 65.1854 31.3765H61.7857C61.8097 30.3525 61.7392 29.2408 61.8202 28.2705C63.1822 28.3063 64.5567 28.1975 65.9109 28.3275C66.4927 28.4638 66.9797 28.9103 67.0987 29.465ZM75.2807 13.3595C75.3439 15.4335 75.2899 17.6173 75.3079 19.7333C75.3039 28.3368 75.3169 36.9398 75.3007 45.5438C75.2412 48.768 72.1789 51.5698 68.7474 51.634C65.3127 51.647 61.8774 51.636 58.4422 51.6398V38.633C62.1849 38.615 65.9297 38.6698 69.6712 38.6058C71.4067 38.5043 73.3077 37.4355 73.3884 35.6533C73.5929 33.8633 71.7844 32.6253 70.0674 32.4298C69.4074 32.4138 69.4267 32.2503 70.0674 32.1788C71.7049 31.8485 72.9909 30.2668 72.5092 28.6828C72.0987 27.0168 70.1252 26.372 68.4839 26.3753C65.1372 26.354 61.7897 26.3723 58.4429 26.366C58.4644 23.938 58.3979 21.5073 58.4789 19.0808C58.7439 15.9148 61.8834 13.3038 65.2667 13.3603C68.6049 13.3598 71.9429 13.3598 75.2807 13.3598V13.3595Z" fill="#50A952"/>
<path d="M24.7613 19.4092C24.8322 16.19 27.3844 13.4112 30.2281 13.3642C33.0679 13.3545 35.9081 13.363 38.7479 13.36C38.7401 24.1307 38.7634 34.9027 38.7364 45.6727C38.6269 48.8527 36.1026 51.5785 33.2896 51.6347C30.4446 51.6465 27.5991 51.6365 24.7538 51.6397V38.1947C27.5174 38.929 30.4156 39.2415 33.2351 38.7545C34.9204 38.4495 36.7644 37.519 37.3351 35.553C37.7549 33.8712 37.5184 32.1012 37.5809 30.375V26.3665H32.7016C32.6796 29.0177 32.7466 31.6735 32.6664 34.3215C32.5349 35.949 31.1014 36.9832 29.7361 36.928C28.0431 36.948 24.6882 35.5482 24.6882 35.5482C24.6798 30.581 24.7373 24.3605 24.7613 19.4097V19.4092Z" fill="#19509B"/>
<path d="M40.1608 27.9834C39.8515 28.0447 40.0985 26.9997 40.0195 26.6034C40.0405 24.0969 39.9755 21.5879 40.0553 19.0832C40.3195 15.904 43.4811 13.2865 46.8758 13.361H56.8728C56.8636 24.1312 56.8913 34.9027 56.8588 45.6727C56.7268 48.8524 53.6868 51.5782 50.2993 51.6344C46.8728 51.6464 43.4461 51.6364 40.0193 51.6394V36.9092C42.3596 38.7022 45.5403 38.9812 48.4558 38.9859C50.6538 38.9854 52.8391 38.6689 54.9736 38.1957V35.4969C52.5681 36.6164 49.7403 37.3274 47.0738 36.6842C45.2136 36.2519 43.8633 34.5734 43.8933 32.7812C43.6778 30.9172 44.8481 28.9492 46.8098 28.3952C49.2456 27.6832 51.9003 28.2277 54.1833 29.1532C54.6726 29.3924 55.1691 29.6889 54.9733 28.9257V26.8044C51.1548 25.9562 47.0913 25.6442 43.2551 26.5669C42.1445 26.8594 41.0628 27.3029 40.1608 27.9837V27.9834Z" fill="#D03831"/>
</svg>
