<svg width="100" height="65" viewBox="0 0 100 65" fill="none" xmlns="http://www.w3.org/2000/svg">
<path d="M90 0H10C4.47715 0 0 4.47715 0 10V55C0 60.5228 4.47715 65 10 65H90C95.5229 65 100 60.5228 100 55V10C100 4.47715 95.5229 0 90 0Z" fill="black"/>
<path d="M56.9431 18.5632H41.2163V44.7635H56.9431V18.5632Z" fill="#FF5F00"/>
<path d="M42.2147 31.6728C42.2125 29.1498 42.8295 26.6595 44.0187 24.3903C45.2082 22.1213 46.9387 20.1325 49.0797 18.5748C46.428 16.6433 43.2437 15.442 39.8905 15.1085C36.5375 14.775 33.1507 15.3228 30.1175 16.6893C27.0842 18.0558 24.527 20.1858 22.7379 22.8355C20.9488 25.4855 20 28.5488 20 31.675C20 34.8013 20.9488 37.8643 22.7379 40.5143C24.527 43.1643 27.0842 45.2943 30.1175 46.6608C33.1507 48.027 36.5375 48.575 39.8905 48.2415C43.2437 47.908 46.428 46.7068 49.0797 44.775C46.9382 43.217 45.2072 41.2275 44.0177 38.9575C42.8285 36.6875 42.2117 34.1963 42.2147 31.6728Z" fill="#EB001B"/>
<path d="M76.459 41.992V41.455H76.6937V41.344H76.0995V41.455H76.3342V41.992H76.459ZM77.6122 41.992V41.344H77.4325L77.223 41.8067L77.0132 41.344H76.8335V41.992H76.9582V41.5012L77.153 41.9225H77.2877L77.4825 41.5012V41.992H77.6122Z" fill="#F79E1B"/>
<path d="M78.1615 31.6657C78.1615 34.7922 77.2125 37.8555 75.423 40.5057C73.6335 43.1557 71.076 45.2857 68.0422 46.6517C65.0087 48.018 61.6217 48.5655 58.2682 48.2317C54.915 47.8977 51.7307 46.696 49.0792 44.7635C51.2192 43.2045 52.9495 41.2152 54.139 38.946C55.3287 36.6767 55.9467 34.1865 55.9467 31.6635C55.9467 29.1405 55.3287 26.6502 54.139 24.381C52.9495 22.1115 51.2192 20.1225 49.0792 18.5632C51.7307 16.631 54.915 15.4293 58.2682 15.0953C61.6217 14.7615 65.0087 15.3088 68.0422 16.675C71.076 18.0413 73.6335 20.1713 75.423 22.8212C77.2125 25.4712 78.1615 28.5347 78.1615 31.6612V31.6657Z" fill="#F79E1B"/>
</svg>
