<svg width="40" height="40" viewBox="0 0 40 40" fill="none" xmlns="http://www.w3.org/2000/svg">
<rect y="7" width="40" height="26" rx="4" fill="black"/>
<path d="M22.7772 14.4253H16.4865V24.9054H22.7772V14.4253Z" fill="#FF5F00"/>
<path d="M16.8859 19.6691C16.885 18.6599 17.1318 17.6638 17.6075 16.7561C18.0833 15.8485 18.7755 15.053 19.6319 14.4299C18.5712 13.6573 17.2975 13.1768 15.9562 13.0434C14.615 12.91 13.2603 13.1291 12.047 13.6757C10.8337 14.2223 9.81082 15.0743 9.09517 16.1342C8.37952 17.1942 8 18.4195 8 19.67C8 20.9205 8.37952 22.1457 9.09517 23.2057C9.81082 24.2657 10.8337 25.1177 12.047 25.6643C13.2603 26.2108 14.615 26.43 15.9562 26.2966C17.2975 26.1632 18.5712 25.6827 19.6319 24.91C18.7753 24.2868 18.0829 23.491 17.6071 22.583C17.1314 21.675 16.8847 20.6785 16.8859 19.6691Z" fill="#EB001B"/>
<path d="M30.5836 23.7968V23.582H30.6775V23.5376H30.4398V23.582H30.5337V23.7968H30.5836ZM31.0449 23.7968V23.5376H30.973L30.8892 23.7227L30.8053 23.5376H30.7334V23.7968H30.7833V23.6005L30.8612 23.769H30.9151L30.993 23.6005V23.7968H31.0449Z" fill="#F79E1B"/>
<path d="M31.2646 19.6663C31.2646 20.9169 30.885 22.1422 30.1692 23.2023C29.4534 24.2623 28.4304 25.1143 27.2169 25.6607C26.0035 26.2072 24.6487 26.4262 23.3073 26.2927C21.966 26.1591 20.6923 25.6784 19.6317 24.9054C20.4877 24.2818 21.1798 23.4861 21.6556 22.5784C22.1315 21.6707 22.3787 20.6746 22.3787 19.6654C22.3787 18.6562 22.1315 17.6601 21.6556 16.7524C21.1798 15.8446 20.4877 15.049 19.6317 14.4253C20.6923 13.6524 21.966 13.1717 23.3073 13.0381C24.6487 12.9046 26.0035 13.1235 27.2169 13.67C28.4304 14.2165 29.4534 15.0685 30.1692 16.1285C30.885 17.1885 31.2646 18.4139 31.2646 19.6645V19.6663Z" fill="#F79E1B"/>
</svg>
