<svg width="100" height="21" viewBox="0 0 100 21" fill="none" xmlns="http://www.w3.org/2000/svg">
<g clip-path="url(#clip0)">
<path fill-rule="evenodd" clip-rule="evenodd" d="M29.9362 11.2418C31.0855 10.2785 31.0725 8.53038 30.2836 8.02827C29.4947 7.52617 27.7106 7.92668 27.1294 9.36332C26.5486 10.8 26.5014 11.6756 26.1836 12.4573C26.8488 12.4083 28.7862 12.2051 29.9362 11.2418ZM22.4144 16.7753C23.5427 13.3478 24.6175 9.86992 25.4285 6.28238C26.0614 6.28238 26.7832 6.29766 27.4157 6.29766L27.177 7.65203C28.7831 6.61007 29.8408 6.33992 30.8941 6.42622C34.7022 6.73728 32.6548 11.7407 30.6423 12.9433C29.4615 13.6494 27.8616 13.9641 25.6518 13.6498C25.3911 14.6918 25.1309 15.7338 24.8706 16.7753C24.0516 16.7753 23.2331 16.7753 22.4144 16.7753Z" fill="#221F20"/>
<path fill-rule="evenodd" clip-rule="evenodd" d="M36.7408 8.85761C35.7411 9.82045 35.7524 11.569 36.4387 12.0711C37.1247 12.5733 38.6769 12.1727 39.1821 10.7361C39.6878 9.29992 39.7287 8.42382 40.0052 7.64213C39.4266 7.69112 37.7405 7.89475 36.7408 8.85761ZM41.0322 13.8373C40.3158 13.8373 39.6891 13.8521 38.9731 13.8521L39.1066 12.3C37.634 13.6916 35.2471 14.6114 34.152 13.3001C32.652 11.2508 34.073 8.58565 35.7635 7.49109C37.6398 6.27562 40.131 6.33854 42.6137 6.28595C41.725 8.75601 41.128 11.2886 41.0322 13.8373Z" fill="#221F20"/>
<path fill-rule="evenodd" clip-rule="evenodd" d="M45.6232 8.85761C44.6229 9.82045 44.6342 11.569 45.3206 12.0711C46.007 12.5733 47.5592 12.1727 48.0645 10.7361C48.5701 9.29992 48.6111 8.42382 48.8875 7.64213C48.309 7.69112 46.6233 7.89475 45.6232 8.85761ZM41.8481 16.8332L42.2087 14.9179C43.8089 15.4362 45.1983 15.6857 46.2421 15.162C47.0539 14.7548 47.6577 13.8795 47.9889 12.3C46.5167 13.6916 44.1294 14.6114 43.0349 13.3001C41.5345 11.2508 42.9553 8.58565 44.6459 7.49109C46.5221 6.27562 49.0138 6.33854 51.4964 6.28595C50.7273 8.42247 50.7129 11.7749 49.6921 14.1605C49.1536 15.42 48.2478 16.2286 47.164 16.6917C45.5795 17.3678 43.6129 17.3057 41.8481 16.8332Z" fill="#221F20"/>
<path fill-rule="evenodd" clip-rule="evenodd" d="M70.2176 8.85763C69.2184 9.82047 69.2293 11.5691 69.9151 12.0711C70.602 12.5733 72.1538 12.1727 72.6594 10.7361C73.1647 9.29994 73.2056 8.42384 73.4824 7.64215C72.9035 7.69114 71.2179 7.89477 70.2176 8.85763ZM51.8768 11.9552C51.6375 12.4717 51.3692 13.0183 51.131 13.5348C54.0429 14.1686 56.2725 13.7861 57.1517 12.8493C58.0107 11.7898 57.8669 10.5905 56.3768 9.71933C56.0594 9.49863 55.1614 9.05361 55.1847 8.52723C55.227 7.32928 57.0484 7.61428 58.1663 7.96085L58.5227 6.32103C57.7415 6.13988 56.7494 6.08593 55.9525 6.16415C54.9824 6.25899 53.9382 6.6784 53.1287 7.48347C52.4998 8.1366 52.3703 9.0163 52.6005 9.55167C52.8769 10.194 53.7737 10.4637 54.2313 10.7321C54.9963 11.0885 55.4522 11.3578 55.3222 11.8994C55.2135 12.3548 54.6587 12.7271 53.6667 12.55C53.0504 12.4398 52.3303 12.2204 51.8768 11.9552ZM61.4594 9.45142C61.819 8.65534 62.4276 7.85027 63.6652 7.69249C64.6393 7.59809 64.7431 8.62477 64.1709 9.01989C63.1316 9.4676 63.0156 8.85358 61.4594 9.45142ZM65.4978 12.104C65.4385 12.6007 65.2592 13.0974 65.2003 13.5946C62.8853 13.9123 60.4013 14.4482 59.1192 12.6407C57.7923 10.0821 59.7064 7.73834 61.3844 6.8582C64.3309 5.53664 66.377 6.20955 66.8095 7.51404C67.6829 9.8016 64.9817 11.3111 61.0863 10.8521C60.6804 12.8412 62.7127 12.8115 65.4978 12.104ZM77.7187 6.2617C78.4339 6.28192 79.1495 6.3017 79.8646 6.32148C79.4866 7.91095 78.8708 9.44109 78.4936 11.031C77.9344 12.9648 80.2404 12.7639 81.2357 11.5673C82.1217 10.0097 82.5181 8.1402 83.084 6.2617C83.7992 6.2617 84.5144 6.2617 85.2299 6.2617C84.4199 8.74569 83.7143 11.2297 83.3816 13.7137C82.7459 13.6737 81.9904 13.6341 81.3553 13.5946C81.3749 13.1968 81.3943 12.7994 81.4145 12.402C79.2646 14.3772 75.7256 14.8986 76.1683 11.5673C76.4227 9.79889 77.1406 8.03053 77.7187 6.2617ZM84.6932 13.5946C85.652 11.1596 86.2971 8.0521 86.7794 6.32148H88.5088L88.4485 7.87139C89.2037 6.82852 90.5752 6.25225 91.9664 6.32148L91.3105 8.289C89.5813 8.06199 88.3622 9.44558 87.6884 11.7322C87.5167 12.3149 87.3795 12.9563 87.2798 13.644L84.6932 13.5946ZM93.5167 7.24567C91.3303 8.71063 90.4533 11.1798 91.5591 12.7598C92.6645 14.3398 95.3336 14.4334 97.5191 12.9684C99.7056 11.5039 100.582 9.03428 99.4777 7.45424C98.372 5.87422 95.7031 5.78072 93.5167 7.24567ZM94.1456 9.49278C93.4398 10.7546 93.5285 12.0932 94.3439 12.4821C95.1593 12.8704 96.3922 12.1624 97.0989 10.9002C97.8051 9.63842 97.7165 8.30023 96.9011 7.91095C96.0856 7.52257 94.8518 8.23055 94.1456 9.49278ZM66.4432 16.8333L66.8033 14.918C68.4035 15.4363 69.7929 15.6857 70.8366 15.162C71.6485 14.7548 72.2522 13.8795 72.583 12.3C71.1108 13.6916 68.724 14.6114 67.6294 13.3001C66.1289 11.2508 67.5503 8.58567 69.2404 7.49111C71.1167 6.27563 73.6083 6.33856 76.0909 6.28597C75.3219 8.42249 75.308 11.7749 74.2867 14.1605C73.7477 15.42 72.8428 16.2287 71.7591 16.6917C70.174 17.3678 68.2075 17.3058 66.4432 16.8333Z" fill="#A5CE39"/>
<path fill-rule="evenodd" clip-rule="evenodd" d="M2.42015 3.63204C1.67487 4.50814 1.11298 5.50469 0.701681 6.59476C0.27015 7.72843 0.0395508 8.89357 0.0395508 10.136C0.0395508 11.5438 0.339825 12.8479 0.856313 14.08C1.37056 15.3031 2.07358 16.3545 2.99913 17.2782C3.8995 18.1787 4.9545 18.8987 6.17402 19.4229C7.3931 19.9551 8.7187 20.2482 10.0933 20.2482C11.4917 20.2482 12.7957 19.9678 14.0368 19.4229C15.2245 18.9046 16.2961 18.1957 17.2117 17.2782C18.1189 16.3698 18.8183 15.2969 19.3213 14.08C19.849 12.8353 20.1484 11.5438 20.1484 10.136C20.1484 8.89357 19.9155 7.72843 19.4854 6.59476C19.0647 5.50469 18.5072 4.52971 17.767 3.63204C17.0261 2.75369 16.1689 2.02684 15.1975 1.46495C13.6719 0.584352 12.0982 0.0575256 10.274 0.0575256C10.1855 0.0575256 10.0992 0.0575256 10.0124 0.0575256C8.21211 0.0575256 6.56285 0.573115 5.01204 1.46495C4.0303 2.02278 3.1641 2.75728 2.42015 3.63204Z" fill="#221F20"/>
<path fill-rule="evenodd" clip-rule="evenodd" d="M93.0227 17.2779C93.2781 17.2779 93.4813 17.3596 93.6318 17.5413C93.7851 17.7139 93.8674 17.9373 93.8674 18.2318C93.8674 18.5051 93.7851 18.7402 93.6318 18.9033C93.4813 19.0727 93.2781 19.1546 93.0227 19.1546C92.7718 19.1546 92.5777 19.0763 92.4267 18.9033C92.2636 18.7402 92.1916 18.5051 92.1916 18.2318C92.1916 17.9373 92.2636 17.7139 92.4267 17.5413C92.5777 17.3596 92.7718 17.2779 93.0227 17.2779ZM93.0227 15.6146C92.6501 15.6146 92.3053 15.674 91.9781 15.8061C91.6548 15.9388 91.3699 16.1195 91.128 16.3649C90.8835 16.6094 90.692 16.8827 90.5693 17.1966C90.4371 17.5134 90.3783 17.8586 90.3783 18.2318C90.3783 18.5864 90.4371 18.9317 90.5693 19.2486C90.692 19.5497 90.8835 19.836 91.128 20.0806C91.3824 20.3126 91.6647 20.504 91.9911 20.6357C92.3053 20.758 92.6595 20.8299 93.0227 20.8299C93.4003 20.8299 93.7356 20.758 94.0718 20.6357C94.3852 20.504 94.6769 20.3126 94.9219 20.0806C95.1754 19.836 95.3579 19.5497 95.4901 19.2355C95.6218 18.9222 95.6843 18.5869 95.6843 18.2318C95.6843 17.8586 95.6218 17.5134 95.4901 17.1966C95.3678 16.8827 95.1853 16.6094 94.9309 16.3649C94.6899 16.1195 94.3942 15.9388 94.0718 15.8061C93.7455 15.674 93.4003 15.6146 93.0227 15.6146Z" fill="#221F20"/>
<path fill-rule="evenodd" clip-rule="evenodd" d="M89.5561 19.2989C89.597 19.0628 89.6145 18.7716 89.6145 18.4143V15.7239H87.8295V18.4358C87.8295 18.7402 87.7981 18.9536 87.7172 19.0857C87.6358 19.2081 87.5162 19.2674 87.3305 19.2674C87.1485 19.2674 87.0272 19.2081 86.948 19.0857C86.8756 18.972 86.8348 18.7501 86.8348 18.4358V15.7239H85.0596V18.4143C85.0493 18.7905 85.0803 19.0763 85.1212 19.2989C85.1589 19.5313 85.2412 19.7129 85.332 19.8671C85.5366 20.1799 85.809 20.4132 86.1542 20.5764C86.4905 20.749 86.8855 20.8299 87.3305 20.8299C87.7796 20.8299 88.1657 20.749 88.5078 20.5764C88.8531 20.4132 89.129 20.1799 89.32 19.8671C89.4204 19.7129 89.5025 19.5214 89.5561 19.2989Z" fill="#221F20"/>
<path fill-rule="evenodd" clip-rule="evenodd" d="M98.2204 15.7239H96.4341V20.6982H99.955V19.0857H98.2204V15.7239Z" fill="#221F20"/>
<path fill-rule="evenodd" clip-rule="evenodd" d="M16.8113 3.71521C15.5657 2.2017 13.9542 1.22717 11.9651 0.850922C10.0124 0.483223 8.16265 0.777652 6.41135 1.72747C5.51143 2.23316 4.75087 2.86428 4.13773 3.60823C3.50707 4.36924 3.02475 5.24444 2.71412 6.22618C2.39498 7.23263 2.31317 8.28897 2.42015 9.31881C2.68177 8.65668 3.08228 8.04939 3.55831 7.46953C4.24426 6.65097 5.09564 6.03782 6.04501 5.58787C6.99257 5.16218 8.03229 4.92484 9.11202 4.90056C10.1989 4.90056 11.2553 5.11274 12.2352 5.53932C13.2682 5.95691 14.1681 6.59477 14.9354 7.44569C15.2226 7.73204 15.4609 8.07502 15.6964 8.41889C16.0394 8.41889 16.3842 8.44271 16.6787 8.52587C17.4477 8.73804 18.0542 9.13046 18.5284 9.71977L18.5513 9.34263C18.635 8.31191 18.5284 7.33871 18.2424 6.38125C17.9472 5.43189 17.4711 4.53197 16.8113 3.71521Z" fill="#F3A935"/>
<path fill-rule="evenodd" clip-rule="evenodd" d="M2.20623 13.2372C2.33703 14.0311 2.57527 14.7911 2.97398 15.4865C3.34438 16.1748 3.85053 16.8036 4.48075 17.3605L4.7999 17.6227C5.88862 18.3674 7.0488 18.8987 8.31867 19.1609C9.13722 19.3155 9.96253 19.2665 10.7564 19.0791C11.5983 18.8987 12.3935 18.5554 13.1374 18.0479C12.4496 17.8923 11.8365 17.5233 11.3605 16.9677L11.1735 16.7555C10.1752 16.8616 9.16959 16.8292 8.16269 16.6247C6.88518 16.3307 5.78163 15.7981 4.75091 15.0623C3.76872 14.3174 2.95196 13.3676 2.33703 12.2564L2.1815 11.9359C2.15723 12.3616 2.15723 12.8106 2.20623 13.2372Z" fill="#F3A935"/>
<path fill-rule="evenodd" clip-rule="evenodd" d="M11.6221 6.57006C10.6988 6.16909 9.69052 5.98929 8.66159 5.98929C7.65514 6.01311 6.70532 6.22618 5.83058 6.65097C4.95448 7.04474 4.19525 7.6255 3.5583 8.37035C3.10654 8.92683 2.73795 9.53232 2.50195 10.1697C2.68176 10.9631 2.97394 11.699 3.40187 12.4443C4.00691 13.4746 4.79985 14.3492 5.78158 15.037C6.73095 15.7239 7.81966 16.1748 8.97939 16.435C9.69052 16.5672 10.4367 16.6247 11.1735 16.5906C10.8871 16.1176 10.6988 15.6183 10.617 15.037C10.5181 14.449 10.5441 13.8674 10.6489 13.2372C10.7797 12.4681 11.0669 11.756 11.4656 11.0935C11.894 10.4309 12.4497 9.82586 13.1027 9.34263C13.5293 9.03292 13.9793 8.79558 14.4298 8.60634L14.1915 8.33663C13.4475 7.5765 12.6042 6.96248 11.6221 6.57006Z" fill="#D94937"/>
<path fill-rule="evenodd" clip-rule="evenodd" d="M18.6907 11.0935L18.4551 10.693C18.1103 11.8869 17.4711 12.9436 16.6544 13.9007C16.466 14.6932 16.1468 15.4052 15.7306 16.0682C15.3045 16.7222 14.747 17.3115 14.1101 17.8109C14.5605 17.8347 15.0105 17.7624 15.4609 17.5975C15.8848 17.4423 16.2777 17.2055 16.6787 16.8849C17.2117 16.3869 17.7107 15.798 18.1355 15.193L18.2083 15.0869C18.3966 14.6932 18.5859 14.2935 18.7149 13.924C18.847 13.5236 18.9289 13.1311 18.9541 12.7643C18.9784 12.3616 18.9784 12.0177 18.9046 11.6747C18.8471 11.463 18.7652 11.2742 18.6907 11.0935Z" fill="#EE8A30"/>
<path fill-rule="evenodd" clip-rule="evenodd" d="M1.28066 6.43745C0.937681 7.38907 0.750685 8.39328 0.701688 9.48289C0.677414 10.88 0.937681 12.2307 1.4708 13.5001C1.73062 14.1039 2.05202 14.6932 2.44265 15.2505C2.82158 15.7738 3.23738 16.2817 3.71116 16.7222C2.68178 15.585 2.07359 14.2679 1.88885 12.7877C1.83851 12.2811 1.83851 11.8065 1.86322 11.307C1.52024 10.3482 1.3319 9.40063 1.3319 8.4189C1.3319 7.49515 1.49418 6.59478 1.78142 5.66879C2.0264 5.03229 2.33701 4.42589 2.68179 3.87164C2.07359 4.66459 1.62723 5.51461 1.28066 6.43745Z" fill="#E36B34"/>
<path fill-rule="evenodd" clip-rule="evenodd" d="M19.3465 6.99531C19.1087 6.2262 18.798 5.48135 18.3966 4.79451C18.0047 4.13192 17.5206 3.52553 16.9416 2.97129C16.417 2.41345 15.8039 1.93877 15.117 1.5387C15.6964 1.93877 16.2278 2.41345 16.7033 2.94567C17.4477 3.7885 18.0047 4.68842 18.3476 5.69488C18.6907 6.7247 18.847 7.78959 18.7652 8.8936C18.7414 9.23746 18.6907 9.55573 18.635 9.89959C18.7652 10.1122 18.9046 10.3734 19.0116 10.6435C19.2719 11.4131 19.3213 12.2307 19.1905 13.0493C19.5915 11.9134 19.7951 10.7164 19.7709 9.48289C19.7214 8.63197 19.5915 7.78959 19.3465 6.99531Z" fill="#E36B34"/>
<path fill-rule="evenodd" clip-rule="evenodd" d="M16.2278 9.50671C16.4903 10.0628 16.6544 10.6691 16.7272 11.2742C16.8113 11.8869 16.8342 12.4681 16.7852 13.0493L16.6787 13.6305C17.4711 12.7068 18.0047 11.6747 18.3158 10.4795C18.1356 10.3005 17.9472 10.1122 17.7328 9.95757C17.3079 9.66224 16.8113 9.50671 16.2278 9.50671Z" fill="#E36B34"/>
<path fill-rule="evenodd" clip-rule="evenodd" d="M14.6424 16.4854C14.9616 16.0345 15.2227 15.5374 15.4111 15.037C14.3466 15.798 13.1864 16.3307 11.9178 16.5906C12.0982 16.8849 12.3422 17.1237 12.6043 17.3116C12.8672 17.4914 13.1608 17.6227 13.5038 17.7291C13.9304 17.3605 14.3223 16.9344 14.6424 16.4854Z" fill="#D94937"/>
<path fill-rule="evenodd" clip-rule="evenodd" d="M9.32288 19.3155L10.4624 19.3726C11.4437 19.3488 12.3661 19.1609 13.2683 18.8655C14.1101 18.5792 14.9355 18.1787 15.6493 17.6793C15.1975 17.8923 14.7233 18.0479 14.2176 18.0717C14.0611 18.104 13.8724 18.104 13.693 18.104C12.3935 18.9478 10.9344 19.3488 9.32288 19.3155Z" fill="#D94937"/>
<path fill-rule="evenodd" clip-rule="evenodd" d="M15.6232 11.6499C15.4609 10.9631 15.2227 10.3262 14.8797 9.71976C14.2733 9.89956 13.7415 10.2192 13.2421 10.6435C12.7108 11.0935 12.2613 11.6499 11.9178 12.2811C11.6221 12.9176 11.4436 13.5236 11.3861 14.161C11.3128 14.7664 11.3861 15.3238 11.5492 15.8551C11.6221 16.0345 11.6801 16.1981 11.7876 16.3545C12.4496 16.2817 13.0542 16.0925 13.6606 15.8304C14.2971 15.585 14.8797 15.2505 15.4353 14.8253L15.4843 14.7911C15.5917 14.3983 15.6731 13.9983 15.7306 13.604C15.7778 12.9436 15.754 12.3121 15.6232 11.6499Z" fill="#FBE638"/>
</g>
<defs>
<clipPath id="clip0">
<rect width="100" height="20.9436" fill="white"/>
</clipPath>
</defs>
</svg>
