<svg width="100" height="65" viewBox="0 0 100 65" fill="none" xmlns="http://www.w3.org/2000/svg">
<path d="M90 0H10C4.47715 0 0 4.47715 0 10V55C0 60.5228 4.47715 65 10 65H90C95.5229 65 100 60.5228 100 55V10C100 4.47715 95.5229 0 90 0Z" fill="#283C93"/>
<path d="M77.7795 24.3512C78.2827 23.4255 78.7567 22.488 79.2702 21.5625C79.405 22.5097 79.551 23.4472 79.698 24.3945C80.7127 24.0857 81.703 23.7225 82.7287 23.458C82.008 24.2515 81.3115 25.0667 80.615 25.8817C81.373 26.4252 82.13 26.9395 82.8757 27.4795C81.861 27.579 80.8465 27.6235 79.832 27.6995C79.7957 28.6695 79.7222 29.6505 79.6617 30.6302C79.075 29.9247 78.5375 29.1985 77.9747 28.482C77.1312 29.1757 76.2765 29.8705 75.4582 30.5867C75.7762 29.5905 76.0945 28.6035 76.3995 27.6107C75.422 27.5002 74.4325 27.3797 73.4552 27.2585C74.4085 26.773 75.3737 26.2767 76.327 25.7812C75.9355 24.9335 75.5327 24.0957 75.1542 23.2452C76.022 23.631 76.9137 23.9617 77.7815 24.3475" fill="white"/>
<path d="M43.4304 42.9965C43.2604 42.9965 43.0852 42.9965 42.9112 42.9855C42.1907 42.9807 41.4792 42.8422 40.8212 42.5787C40.1629 42.3152 39.5722 41.9322 39.0862 41.454C38.6577 40.893 38.3844 40.2482 38.289 39.573C38.1935 38.8977 38.2787 38.2117 38.5377 37.5722C38.7754 36.794 39.2134 36.077 39.8159 35.479C40.4152 34.8775 41.1554 34.4027 41.9832 34.0897C43.3267 33.5985 44.7719 33.3735 46.2207 33.4295C46.7532 33.4295 47.2897 33.445 47.8092 33.4602H47.8202L48.2682 33.473C48.4152 32.7755 48.5702 32.0682 48.7182 31.3835V31.3707C48.8269 30.871 48.9384 30.3547 49.0472 29.8475C49.6019 29.805 50.1634 29.7732 50.7072 29.7377H50.7132L51.6009 29.6825C51.0514 32.3217 50.4092 35.394 49.7559 38.4535C49.5212 39.8205 48.7324 41.061 47.5414 41.9357C46.3377 42.686 44.8932 43.0587 43.4304 42.9965ZM46.2752 34.961C45.2224 34.9302 44.1772 35.13 43.2292 35.5435C42.7102 35.799 42.2584 36.152 41.9042 36.5782C41.5502 37.0047 41.3019 37.4947 41.1769 38.015C40.8929 38.7465 40.9144 39.5457 41.2372 40.264C41.4224 40.548 41.6842 40.7855 41.9982 40.9547C42.3122 41.124 42.6682 41.2197 43.0339 41.233C43.2377 41.2552 43.4427 41.2662 43.6479 41.2665C44.4932 41.2962 45.3199 41.041 45.9672 40.551C46.5714 40.0107 46.9549 39.3025 47.0552 38.5412C47.1699 38.0495 47.2807 37.5505 47.3884 37.0677C47.5364 36.4047 47.6904 35.721 47.8494 35.049C47.3269 34.9935 46.8012 34.9642 46.2752 34.961Z" fill="white"/>
<path d="M68.3568 37.1092C70.911 35.0982 73.2813 32.9057 75.445 30.553C74.4483 33.6427 72.5495 36.4355 69.946 38.6407C69.3595 39.121 68.7388 39.5665 68.088 39.974C65.8603 41.384 63.221 42.1735 60.4983 42.2437L60.5598 42.2002C62.703 41.0857 64.746 39.8217 66.6698 38.4197C67.2323 37.9905 67.8313 37.582 68.3568 37.1092Z" fill="#EA2228"/>
<path d="M29.6922 43.0916C28.5527 43.1311 27.4232 42.8873 26.4277 42.3868C25.9432 42.1308 25.5317 41.7763 25.2262 41.3516C24.9208 40.9271 24.7297 40.4443 24.6683 39.9416C24.532 38.4921 25.0317 37.0523 26.0605 35.9301C27.3442 34.5803 29.1655 33.7373 31.1325 33.5826C31.4837 33.5496 31.8365 33.5326 32.1895 33.5318C33.3045 33.5003 34.4082 33.7383 35.3862 34.2211C35.859 34.4671 36.2637 34.8061 36.5705 35.2123C36.8775 35.6186 37.0785 36.0818 37.159 36.5678C37.3192 37.8963 36.9362 39.2318 36.082 40.3246C35.4425 41.1146 34.6185 41.7686 33.6675 42.2408C32.7167 42.7133 31.6625 42.9921 30.579 43.0581C30.277 43.0798 29.975 43.0916 29.6922 43.0916ZM31.8 35.1213C31.4887 35.1218 31.1785 35.1551 30.876 35.2201C29.8452 35.4863 28.945 36.0586 28.3215 36.8436C27.698 37.6286 27.3877 38.5803 27.4415 39.5438C27.4537 40.0011 27.649 40.4391 27.991 40.7776C28.2562 40.9943 28.567 41.1616 28.9047 41.2693C29.2427 41.3771 29.601 41.4233 29.959 41.4051C30.0052 41.4051 30.0525 41.4051 30.1027 41.4051C30.7305 41.3986 31.3485 41.2656 31.9115 41.0161C32.4745 40.7663 32.968 40.4063 33.356 39.9623C33.9212 39.3008 34.2725 38.5116 34.3707 37.6818C34.4352 37.3176 34.4025 36.9446 34.275 36.5938C34.1472 36.2433 33.9285 35.9251 33.637 35.6658C33.1132 35.2981 32.463 35.1071 31.799 35.1258L31.8 35.1213Z" fill="white"/>
<path d="M56.3923 43.3288C55.9255 43.3283 55.4595 43.293 54.9993 43.2228C53.7275 43.0865 52.563 42.5143 51.748 41.625C51.1283 40.913 50.8395 40.0125 50.9428 39.1128C51.0115 37.6645 51.7095 36.2985 52.8865 35.3088C54.372 34.0973 56.323 33.453 58.327 33.5128H58.5555C59.6603 33.468 60.7495 33.7595 61.6478 34.3398C62.0578 34.6703 62.3193 35.1245 62.3825 35.6168C62.457 36.106 62.3718 36.604 62.137 37.0505C61.6563 37.7825 60.9025 38.3378 60.01 38.6173C58.8905 38.982 57.7068 39.1615 56.5163 39.147C55.5398 39.1405 54.5658 39.0553 53.6063 38.8925C53.531 39.4235 53.6283 39.9625 53.886 40.4448C54.144 40.9268 54.5518 41.3315 55.0598 41.6098C56.1665 42.1033 57.3925 42.3408 58.627 42.3008C59.2725 42.298 59.9173 42.2643 60.5585 42.1993L60.4983 42.2428C59.2833 42.9705 57.8515 43.3493 56.3923 43.3288ZM58.0855 34.9538C57.4333 34.9595 56.7898 35.089 56.197 35.3343C55.19 35.7833 54.3993 36.5468 53.9725 37.4825C54.75 37.6068 55.5375 37.6725 56.327 37.679C57.12 37.6895 57.9098 37.5843 58.6653 37.3675C59.019 37.2865 59.3323 37.1003 59.5535 36.839C59.7748 36.5778 59.8913 36.2568 59.8843 35.9283C59.86 35.7195 59.763 35.5228 59.6073 35.3665C59.4513 35.2103 59.2445 35.1023 59.0165 35.058C58.7123 34.988 58.3995 34.953 58.0855 34.9538Z" fill="white"/>
<path d="M79.3655 43.199C78.3435 43.2162 77.3297 43.0287 76.3982 42.65C75.878 42.4337 75.4202 42.1122 75.0605 41.7107C74.7007 41.3092 74.449 40.8385 74.3247 40.335C74.084 39.0812 74.3515 37.7912 75.0785 36.6997C75.6475 35.8562 76.4192 35.1382 77.337 34.5985C78.255 34.0587 79.2955 33.711 80.3822 33.5805C80.8832 33.5147 81.3887 33.481 81.8952 33.479C82.8892 33.4612 83.8755 33.6427 84.782 34.0105C85.3317 34.2295 85.8137 34.5655 86.1862 34.99C86.5587 35.4145 86.8107 35.9142 86.92 36.446C87.1327 37.7777 86.7887 39.1332 85.9547 40.25C85.3597 41.0322 84.587 41.6922 83.6872 42.1857C82.7877 42.6792 81.782 42.9952 80.7365 43.113C80.2822 43.169 79.8242 43.1977 79.3655 43.199ZM81.5297 35.1092C81.218 35.1087 80.907 35.1392 80.6027 35.1997C79.5152 35.4682 78.5677 36.0727 77.9262 36.9072C77.285 37.7415 76.9905 38.7525 77.0947 39.7627C77.1242 40.0867 77.2527 40.397 77.466 40.6595C77.679 40.9217 77.9685 41.1262 78.3027 41.2497C78.7537 41.4105 79.2347 41.4917 79.72 41.489C80.286 41.4867 80.8465 41.3867 81.3707 41.1945C82.2127 40.8527 82.9237 40.2952 83.4152 39.5915C83.9067 38.8877 84.1567 38.0692 84.1337 37.2385C84.138 36.9162 84.0595 36.5975 83.905 36.3067C83.7502 36.016 83.5235 35.7612 83.242 35.562C82.7397 35.2502 82.1395 35.0915 81.5297 35.1092Z" fill="white"/>
<path d="M17.5789 34.0004C18.7072 33.7334 19.871 33.6077 21.0375 33.6264C22.3228 33.6089 23.6071 33.6977 24.8745 33.8909C24.6913 34.3319 24.5081 34.7612 24.3491 35.2022C22.5145 35.0017 20.6568 35.0499 18.8381 35.3454C18.2885 35.4777 17.5789 35.6759 17.4289 36.2602C17.4047 36.7012 17.8567 36.9547 18.2724 37.0644C19.5679 37.3842 20.961 37.3362 22.1829 37.8587C22.4769 37.9652 22.7369 38.1357 22.9395 38.3549C23.142 38.5742 23.2809 38.8354 23.3435 39.1149C23.4267 39.5672 23.3962 40.0307 23.2545 40.4709C23.1127 40.9114 22.8632 41.3177 22.5242 41.6599C21.6773 42.3767 20.5989 42.8322 19.4451 42.9604C17.1266 43.2654 14.7634 43.1422 12.4997 42.5982C12.6225 42.1354 12.7684 41.6727 12.8912 41.2097C14.8292 41.5454 16.8155 41.5899 18.7696 41.3419C19.5024 41.1979 20.3339 40.8457 20.4687 40.1074C20.6157 39.6219 20.1386 39.2372 19.6746 39.1112C18.4405 38.7697 17.1199 38.8467 15.91 38.4392C15.6384 38.3642 15.3879 38.2377 15.1751 38.0682C14.9622 37.8989 14.792 37.6907 14.6759 37.4574C14.5122 37.0327 14.4917 36.5739 14.6171 36.1389C14.7425 35.7037 15.0081 35.3117 15.3805 35.0122C16.0168 34.5322 16.7641 34.1859 17.5678 33.9987" fill="white"/>
<path d="M62.8963 33.6267C63.6903 33.6267 64.4968 33.6375 65.2908 33.6267C66.2683 34.8167 67.319 35.9625 68.4193 37.0537L68.358 37.1092C67.8325 37.5827 67.2335 37.9902 66.6708 38.4197C65.3028 36.8942 64.0418 35.2935 62.8953 33.6267" fill="white"/>
<path d="M68.0873 39.9733C68.738 39.5658 69.3588 39.1203 69.9453 38.6403C71.4493 40.1283 72.976 41.5928 74.504 43.0583C73.4403 43.0365 72.3653 43.07 71.3023 43.0473C71.047 42.876 70.8135 42.6803 70.6058 42.463C69.726 41.6588 68.8703 40.8438 68.0893 39.9733" fill="white"/>
</svg>
