<svg width="40" height="40" viewBox="0 0 40 40" fill="none" xmlns="http://www.w3.org/2000/svg">
<rect y="7" width="40" height="26" rx="4" fill="#283C93"/>
<path d="M31.1118 16.7405C31.3131 16.3702 31.5027 15.9952 31.7081 15.625C31.762 16.0039 31.8204 16.3789 31.8792 16.7578C32.2851 16.6343 32.6812 16.489 33.0915 16.3832C32.8032 16.7006 32.5246 17.0267 32.246 17.3527C32.5492 17.5701 32.852 17.7758 33.1503 17.9918C32.7444 18.0316 32.3386 18.0494 31.9328 18.0798C31.9183 18.4678 31.8889 18.8602 31.8647 19.2521C31.63 18.9699 31.415 18.6794 31.1899 18.3928C30.8525 18.6703 30.5106 18.9482 30.1833 19.2347C30.3105 18.8362 30.4378 18.4414 30.5598 18.0443C30.1688 18.0001 29.773 17.9519 29.3821 17.9034C29.7634 17.7092 30.1495 17.5107 30.5308 17.3125C30.3742 16.9734 30.2131 16.6383 30.0617 16.2981C30.4088 16.4524 30.7655 16.5847 31.1126 16.739" fill="white"/>
<path d="M17.3722 24.1986C17.3042 24.1986 17.2341 24.1986 17.1645 24.1942C16.8763 24.1923 16.5917 24.1369 16.3285 24.0315C16.0652 23.9261 15.8289 23.7729 15.6345 23.5816C15.4631 23.3572 15.3538 23.0993 15.3156 22.8292C15.2774 22.5591 15.3115 22.2847 15.4151 22.0289C15.5102 21.7176 15.6854 21.4308 15.9264 21.1916C16.1661 20.951 16.4622 20.7611 16.7933 20.6359C17.3307 20.4394 17.9088 20.3494 18.4883 20.3718C18.7013 20.3718 18.9159 20.378 19.1237 20.3841H19.1281L19.3073 20.3892C19.3661 20.1102 19.4281 19.8273 19.4873 19.5534V19.5483C19.5308 19.3484 19.5754 19.1419 19.6189 18.939C19.8408 18.922 20.0654 18.9093 20.2829 18.8951H20.2853L20.6404 18.873C20.4206 19.9287 20.1637 21.1576 19.9024 22.3814C19.8085 22.9282 19.493 23.4244 19.0166 23.7743C18.5351 24.0744 17.9573 24.2235 17.3722 24.1986ZM18.5101 20.9844C18.089 20.9721 17.6709 21.052 17.2917 21.2174C17.0841 21.3196 16.9034 21.4608 16.7617 21.6313C16.6201 21.8019 16.5208 21.9979 16.4708 22.206C16.3572 22.4986 16.3658 22.8183 16.4949 23.1056C16.569 23.2192 16.6737 23.3142 16.7993 23.3819C16.9249 23.4496 17.0673 23.4879 17.2136 23.4932C17.2951 23.5021 17.3771 23.5065 17.4592 23.5066C17.7973 23.5185 18.128 23.4164 18.3869 23.2204C18.6286 23.0043 18.782 22.721 18.8221 22.4165C18.868 22.2198 18.9123 22.0202 18.9554 21.8271C19.0146 21.5619 19.0762 21.2884 19.1398 21.0196C18.9308 20.9974 18.7205 20.9857 18.5101 20.9844Z" fill="white"/>
<path d="M27.3427 21.8437C28.3644 21.0393 29.3125 20.1623 30.178 19.2212C29.7793 20.4571 29.0198 21.5742 27.9784 22.4563C27.7438 22.6484 27.4955 22.8266 27.2352 22.9896C26.3441 23.5536 25.2884 23.8694 24.1993 23.8975L24.2239 23.8801C25.0812 23.4343 25.8984 22.9287 26.6679 22.3679C26.8929 22.1962 27.1325 22.0328 27.3427 21.8437Z" fill="#EA2228"/>
<path d="M11.8769 24.2366C11.4211 24.2524 10.9693 24.1549 10.5711 23.9547C10.3773 23.8523 10.2127 23.7105 10.0905 23.5406C9.96833 23.3708 9.8919 23.1777 9.86733 22.9766C9.81282 22.3968 10.0127 21.8209 10.4242 21.372C10.9377 20.8321 11.6662 20.4949 12.453 20.433C12.5935 20.4198 12.7346 20.413 12.8758 20.4127C13.3218 20.4001 13.7633 20.4953 14.1545 20.6884C14.3436 20.7868 14.5055 20.9224 14.6282 21.0849C14.751 21.2474 14.8314 21.4327 14.8636 21.6271C14.9277 22.1585 14.7745 22.6927 14.4328 23.1298C14.177 23.4458 13.8474 23.7074 13.467 23.8963C13.0867 24.0853 12.665 24.1968 12.2316 24.2232C12.1108 24.2319 11.99 24.2366 11.8769 24.2366ZM12.72 21.0485C12.5955 21.0487 12.4714 21.062 12.3504 21.088C11.9381 21.1945 11.578 21.4234 11.3286 21.7374C11.0792 22.0514 10.9551 22.4321 10.9766 22.8175C10.9815 23.0004 11.0596 23.1756 11.1964 23.311C11.3025 23.3977 11.4268 23.4646 11.5619 23.5077C11.6971 23.5508 11.8404 23.5693 11.9836 23.562C12.0021 23.562 12.021 23.562 12.0411 23.562C12.2922 23.5594 12.5394 23.5062 12.7646 23.4064C12.9898 23.3065 13.1872 23.1625 13.3424 22.9849C13.5685 22.7203 13.709 22.4046 13.7483 22.0727C13.7741 21.927 13.761 21.7778 13.71 21.6375C13.6589 21.4973 13.5714 21.37 13.4548 21.2663C13.2453 21.1192 12.9852 21.0428 12.7196 21.0503L12.72 21.0485Z" fill="white"/>
<path d="M22.5569 24.3315C22.3702 24.3313 22.1838 24.3172 21.9997 24.2891C21.491 24.2346 21.0252 24.0057 20.6992 23.65C20.4513 23.3652 20.3358 23.005 20.3771 22.6451C20.4046 22.0658 20.6838 21.5194 21.1546 21.1235C21.7488 20.6389 22.5292 20.3812 23.3308 20.4051H23.4222C23.8641 20.3872 24.2998 20.5038 24.6591 20.7359C24.8231 20.8681 24.9277 21.0498 24.953 21.2467C24.9828 21.4424 24.9487 21.6416 24.8548 21.8202C24.6625 22.113 24.361 22.3351 24.004 22.4469C23.5562 22.5928 23.0827 22.6646 22.6065 22.6588C22.2159 22.6562 21.8263 22.6221 21.4425 22.557C21.4124 22.7694 21.4513 22.985 21.5544 23.1779C21.6576 23.3707 21.8207 23.5326 22.0239 23.6439C22.4666 23.8413 22.957 23.9363 23.4508 23.9203C23.709 23.9192 23.9669 23.9057 24.2234 23.8797L24.1993 23.8971C23.7133 24.1882 23.1406 24.3397 22.5569 24.3315ZM23.2342 20.9815C22.9733 20.9838 22.7159 21.0356 22.4788 21.1337C22.076 21.3133 21.7597 21.6187 21.589 21.993C21.9 22.0427 22.215 22.069 22.5308 22.0716C22.848 22.0758 23.1639 22.0337 23.4661 21.947C23.6076 21.9146 23.7329 21.8401 23.8214 21.7356C23.9099 21.6311 23.9565 21.5027 23.9537 21.3713C23.944 21.2878 23.9052 21.2091 23.8429 21.1466C23.7805 21.0841 23.6978 21.0409 23.6066 21.0232C23.4849 20.9952 23.3598 20.9812 23.2342 20.9815Z" fill="white"/>
<path d="M31.7462 24.2796C31.3374 24.2865 30.9319 24.2115 30.5593 24.06C30.3512 23.9735 30.1681 23.8449 30.0242 23.6843C29.8803 23.5237 29.7796 23.3354 29.7299 23.134C29.6336 22.6325 29.7406 22.1165 30.0314 21.6799C30.259 21.3425 30.5677 21.0553 30.9348 20.8394C31.302 20.6235 31.7182 20.4844 32.1529 20.4322C32.3533 20.4059 32.5555 20.3924 32.7581 20.3916C33.1557 20.3845 33.5502 20.4571 33.9128 20.6042C34.1327 20.6918 34.3255 20.8262 34.4745 20.996C34.6235 21.1658 34.7243 21.3657 34.768 21.5784C34.8531 22.1111 34.7155 22.6533 34.3819 23.1C34.1439 23.4129 33.8348 23.6769 33.4749 23.8743C33.1151 24.0717 32.7128 24.1981 32.2946 24.2452C32.1129 24.2676 31.9297 24.2791 31.7462 24.2796ZM32.6119 21.0437C32.4872 21.0435 32.3628 21.0557 32.2411 21.0799C31.8061 21.1873 31.4271 21.4291 31.1705 21.7629C30.914 22.0966 30.7962 22.501 30.8379 22.9051C30.8497 23.0347 30.9011 23.1588 30.9864 23.2638C31.0716 23.3687 31.1874 23.4505 31.3211 23.4999C31.5015 23.5642 31.6939 23.5967 31.888 23.5956C32.1144 23.5947 32.3386 23.5547 32.5483 23.4778C32.8851 23.3411 33.1695 23.1181 33.3661 22.8366C33.5627 22.5551 33.6627 22.2277 33.6535 21.8954C33.6552 21.7665 33.6238 21.639 33.562 21.5227C33.5001 21.4064 33.4094 21.3045 33.2968 21.2248C33.0959 21.1001 32.8558 21.0366 32.6119 21.0437Z" fill="white"/>
<path d="M7.03155 20.6002C7.48288 20.4934 7.9484 20.4431 8.41499 20.4506C8.92911 20.4436 9.44286 20.4791 9.94982 20.5564C9.87654 20.7328 9.80326 20.9045 9.73964 21.0809C9.00579 21.0007 8.26273 21.02 7.53524 21.1382C7.3154 21.1911 7.03155 21.2704 6.97156 21.5041C6.96189 21.6805 7.14268 21.7819 7.30896 21.8258C7.82715 21.9537 8.38439 21.9345 8.87318 22.1435C8.99077 22.1861 9.09476 22.2543 9.17579 22.342C9.25682 22.4297 9.31236 22.5342 9.33741 22.646C9.37067 22.8269 9.3585 23.0123 9.30179 23.1884C9.24508 23.3646 9.14527 23.5271 9.00968 23.664C8.67093 23.9507 8.23955 24.1329 7.77803 24.1842C6.85065 24.3062 5.90537 24.2569 4.99988 24.0393C5.049 23.8542 5.10738 23.6691 5.1565 23.4839C5.93168 23.6182 6.7262 23.636 7.50786 23.5368C7.80098 23.4792 8.13355 23.3383 8.1875 23.043C8.24629 22.8488 8.05544 22.6949 7.86983 22.6445C7.3762 22.5079 6.84795 22.5387 6.36399 22.3757C6.25538 22.3457 6.15516 22.2951 6.07003 22.2273C5.9849 22.1596 5.91682 22.0763 5.87036 21.983C5.80488 21.8131 5.7967 21.6296 5.84685 21.4556C5.897 21.2815 6.00324 21.1247 6.15221 21.0049C6.40674 20.8129 6.70563 20.6744 7.02712 20.5995" fill="white"/>
<path d="M25.1585 20.4507C25.4761 20.4507 25.7987 20.455 26.1163 20.4507C26.5073 20.9267 26.9276 21.385 27.3677 21.8215L27.3432 21.8437C27.133 22.0331 26.8934 22.1961 26.6683 22.3679C26.1211 21.7577 25.6167 21.1174 25.1581 20.4507" fill="white"/>
<path d="M27.2349 22.9893C27.4952 22.8263 27.7435 22.6481 27.9781 22.4561C28.5797 23.0513 29.1904 23.6371 29.8016 24.2233C29.3761 24.2146 28.9461 24.228 28.5209 24.2189C28.4188 24.1504 28.3254 24.0721 28.2423 23.9852C27.8904 23.6635 27.5481 23.3375 27.2357 22.9893" fill="white"/>
</svg>
