<svg width="40" height="40" viewBox="0 0 40 40" fill="none" xmlns="http://www.w3.org/2000/svg">
<rect y="7" width="40" height="26" rx="4" fill="#CD9F26"/>
<g clip-path="url(#clip0)">
<path d="M15.0866 16.7255C15.3539 17.0733 15.328 17.3363 15.328 17.7605C15.328 18.2187 15.328 18.4138 15.2677 18.6429C15.1297 19.1265 14.7246 19.5592 13.6898 19.5592C13.2588 19.5592 12.8018 19.4997 12.4396 19.2198C12.2995 19.1132 12.1897 18.973 12.1207 18.8125C12.0302 18.6188 11.9887 18.4063 12 18.1934V17.3194H13.1122V18.015C13.1122 18.2357 13.0949 18.4902 13.3105 18.6259C13.4146 18.6866 13.5345 18.7161 13.6554 18.7106C13.8537 18.7106 13.9658 18.6682 14.0434 18.6003C14.2072 18.473 14.2072 18.2101 14.2072 17.8028C14.2072 17.7265 14.2244 17.455 14.0865 17.2514C14.0152 17.1578 13.9276 17.0774 13.8278 17.0138L12.7673 16.31C12.5345 16.1573 12.4138 16.0639 12.2586 15.8179C12.1293 15.6058 12.0431 15.3767 12.0431 14.8677C12.0431 14.783 12.0344 14.3587 12.1896 14.0448C12.5345 13.3151 13.5778 13.3151 13.6985 13.3151C13.8795 13.3151 14.8539 13.3151 15.1728 14.1041C15.2332 14.2569 15.2677 14.3163 15.2677 14.6047V15.1986H14.1469V14.5877C14.1469 14.4096 14.0778 14.155 13.6467 14.155C13.3884 14.155 13.1467 14.2484 13.1467 14.7489C13.1467 14.7744 13.1294 15.1307 13.2674 15.3258C13.3345 15.4021 13.413 15.4679 13.5002 15.521L14.5865 16.2591C14.7763 16.3887 14.9449 16.5459 15.0866 16.7255ZM16.0007 18.1508V14.7911C16.0007 14.6639 15.9748 14.0616 16.3801 13.7053C16.6043 13.5101 17.0267 13.315 17.7079 13.315C18.5873 13.315 19.0529 13.6713 19.234 14.0189C19.3288 14.2139 19.3719 14.4007 19.3719 14.8164V18.1505C19.3719 18.5323 19.3116 18.8802 19.0184 19.1601C18.6563 19.4911 18.1648 19.5589 17.6992 19.5589C17.2509 19.5589 16.7939 19.4995 16.4318 19.211C16.3011 19.1133 16.1974 18.985 16.13 18.8377C16.0367 18.6207 15.9925 18.3863 16.0007 18.1508ZM17.1302 14.9354V17.9642C17.1302 18.1423 17.1216 18.3629 17.2336 18.5157C17.363 18.6938 17.6389 18.6938 17.6907 18.6938C17.8159 18.6937 17.9386 18.6584 18.0442 18.592C18.2511 18.4477 18.2425 18.2102 18.2425 17.9896V14.893C18.2425 14.859 18.2684 14.5876 18.1735 14.4094C18.1218 14.2991 17.9925 14.1464 17.7079 14.1464C17.5785 14.145 17.4518 14.1836 17.3458 14.2567C17.0956 14.4264 17.13 14.6894 17.13 14.9354H17.1302ZM21.303 19.4319H20.1822V13.4423H22.4239C22.6912 13.4423 22.9412 13.4678 23.1654 13.6375C23.5275 13.9005 23.5189 14.3162 23.5189 14.7063V15.3511C23.5189 15.3935 23.5275 15.7668 23.3982 15.9959C23.3632 16.0555 23.3197 16.1098 23.2689 16.1571C23.1481 16.2589 23.0274 16.3013 22.7343 16.3692C22.8517 16.3924 22.965 16.4324 23.0706 16.4879C23.5534 16.7421 23.562 17.2515 23.562 17.4127V18.6344C23.562 18.6513 23.5448 19.1095 23.7172 19.3383C23.7453 19.3757 23.7804 19.4073 23.8207 19.4316H22.5877C22.5705 19.3977 22.5532 19.3722 22.536 19.3383C22.4613 19.1877 22.4229 19.0222 22.4239 18.8547V17.4891C22.4239 17.3958 22.4239 17.3024 22.4152 17.2006C22.3808 16.8697 22.1308 16.7934 21.8376 16.7934H21.303V19.4319ZM21.303 15.9365H21.889C22.0356 15.9365 22.208 15.9195 22.3114 15.7923C22.3976 15.6905 22.4063 15.6056 22.4063 15.3681V14.7911C22.4063 14.5621 22.3719 14.4857 22.277 14.3924C22.1563 14.2906 22.0356 14.2991 21.889 14.2991H21.3027L21.303 15.9365ZM27.6316 14.8166V18.1508C27.6316 18.5325 27.5713 18.8804 27.2781 19.1604C26.916 19.4913 26.4245 19.5592 25.9589 19.5592C25.5106 19.5592 25.0536 19.4998 24.6915 19.2113C24.5608 19.1135 24.4571 18.9852 24.3897 18.838C24.2963 18.6209 24.2522 18.3864 24.2604 18.1508V14.7911C24.2604 14.6639 24.2345 14.0616 24.6398 13.7053C24.864 13.5101 25.2864 13.315 25.9676 13.315C26.847 13.315 27.3126 13.6713 27.4936 14.0189C27.5884 14.2142 27.6316 14.4009 27.6316 14.8166ZM26.5021 17.9896V14.893C26.5021 14.859 26.528 14.5876 26.4331 14.4094C26.3814 14.2991 26.2521 14.1464 25.9676 14.1464C25.8381 14.145 25.7114 14.1836 25.6054 14.2567C25.3554 14.4262 25.3899 14.6894 25.3899 14.9354V17.9642C25.3899 18.1423 25.3813 18.3629 25.4933 18.5157C25.6227 18.6938 25.8986 18.6938 25.9504 18.6938C26.0756 18.6937 26.1983 18.6584 26.3039 18.592C26.5106 18.4477 26.502 18.2102 26.502 17.9896H26.5021ZM14.8453 20.6926C14.509 20.472 14.0952 20.4211 13.7073 20.4211C13.0347 20.4211 12.6984 20.5738 12.4484 20.7689C12.138 21.015 12.0345 21.3119 12.0173 21.6937C12.0086 21.7955 12 21.9058 12 22.0076V25.2654C12 25.486 12 25.6727 12.0861 25.8933C12.2672 26.326 12.6638 26.5211 13.1122 26.6059C13.3023 26.6443 13.4958 26.6642 13.6898 26.6653C13.8192 26.6653 14.9486 26.6823 15.2418 25.8506C15.3194 25.63 15.3279 25.3755 15.3279 25.138V24.2898H14.2244V25.0703C14.2244 25.5284 14.1813 25.8084 13.6813 25.8084C13.2157 25.8084 13.1295 25.5199 13.1295 25.1297V21.9228C13.1295 21.5325 13.2156 21.2695 13.6468 21.2695C14.1469 21.2695 14.2245 21.5156 14.2245 21.9734V22.7285H15.3281V21.8125C15.3281 21.4475 15.3194 21.3289 15.2246 21.1338C15.1428 20.9546 15.0113 20.8017 14.8452 20.6926H14.8453ZM19.6392 26.538H18.4061C18.3888 26.5041 18.3716 26.4787 18.3543 26.4447C18.2796 26.2942 18.2413 26.1287 18.2423 25.9611V24.5953C18.2423 24.5019 18.2423 24.4086 18.2336 24.3068C18.1991 23.9759 17.9491 23.8995 17.656 23.8995H17.1214V26.538H16.0007V20.5485H18.2424C18.5097 20.5485 18.7597 20.5739 18.9839 20.7436C19.346 21.0066 19.3374 21.4224 19.3374 21.8125V22.4572C19.3374 22.4996 19.346 22.8729 19.2167 23.102C19.1817 23.1616 19.1382 23.2159 19.0874 23.2632C18.9666 23.365 18.8459 23.4074 18.5528 23.4753C18.6701 23.4986 18.7834 23.5386 18.8891 23.594C19.3718 23.8482 19.3805 24.3576 19.3805 24.5188V25.7405C19.3805 25.7574 19.3632 26.2156 19.5357 26.4444C19.5637 26.4819 19.5988 26.5137 19.639 26.538H19.6392ZM18.2251 21.8973C18.2251 21.6683 18.1907 21.5919 18.0958 21.4986C17.9751 21.3968 17.8544 21.4053 17.7078 21.4053H17.1214V23.0427H17.7077C17.8543 23.0427 18.0267 23.0257 18.1301 22.8984C18.2162 22.7966 18.225 22.7118 18.225 22.4742L18.2251 21.8973ZM21.2513 23.7723H22.9758V22.8645H21.2512V21.4561H23.0793V20.5484H20.1304V26.5379H23.1654V25.6133H21.2511L21.2513 23.7723ZM27.0713 22.1263V24.9261C27.0713 25.0364 27.0713 25.1467 27.0627 25.2569C27.0281 25.8932 26.735 26.2157 26.4936 26.3514C26.1832 26.5295 25.8643 26.538 25.5279 26.538H23.7258V20.5484H25.7864C26.0923 20.5457 26.3891 20.651 26.6228 20.8453C27.0366 21.1928 27.0711 21.6342 27.0711 22.1263H27.0713ZM25.7952 21.524C25.6487 21.4053 25.459 21.4222 25.2865 21.4222H24.8467V25.6642H25.2434C25.35 25.667 25.4567 25.6613 25.5624 25.6472C25.9245 25.5794 25.9504 25.3163 25.9504 25.0194V22.0331C25.9503 21.8465 25.9589 21.6597 25.7951 21.524H25.7952ZM14.3889 11H13.0278V12.4766H14.3889V11ZM13.0278 29H14.3889V27.5234H13.0278V29Z" fill="white"/>
</g>
<defs>
<clipPath id="clip0">
<rect x="12" y="11" width="15.6316" height="18" fill="white"/>
</clipPath>
</defs>
</svg>
