<svg width="40" height="40" viewBox="0 0 40 40" fill="none" xmlns="http://www.w3.org/2000/svg">
<rect y="7" width="40" height="26" rx="4" fill="#1A1F71"/>
<path d="M16.9221 15.1974L15.3038 24.8514H17.8912L19.5107 15.1974H16.9221Z" fill="white"/>
<path d="M24.9235 15C25.927 15 26.7307 15.2099 27.2434 15.4055L26.8926 17.4978L26.6607 17.3864C26.1829 17.1908 25.5696 17.0032 24.7232 17.0165C23.7097 17.0165 23.2407 17.4456 23.2407 17.8469C23.2348 18.2991 23.7889 18.5971 24.6937 19.0438C26.1872 19.7328 26.8768 20.5685 26.8671 21.6668C26.8471 23.6708 25.0806 24.9653 22.3595 24.9653C21.1986 24.9531 20.0806 24.7198 19.4759 24.4502L19.8392 22.289L20.1728 22.4425C21.023 22.8028 21.5734 22.9491 22.6094 22.9491C23.3535 22.9491 24.1517 22.6536 24.1582 22.0064C24.163 21.5839 23.8243 21.2822 22.8167 20.8089C21.8348 20.3471 20.5341 19.5732 20.5485 18.186C20.5639 16.3094 22.3655 15 24.9235 15Z" fill="white"/>
<path fill-rule="evenodd" clip-rule="evenodd" d="M31.9046 15.1972H33.9048L35.9999 24.8451H33.5979C33.5979 24.8451 33.3604 23.7365 33.283 23.3984C33.083 23.3984 32.2474 23.3973 31.4618 23.3962C30.7649 23.3952 30.1074 23.3943 29.9678 23.3943C29.8673 23.6555 29.4229 24.8451 29.4229 24.8451H26.7047L30.5491 15.9978C30.8212 15.3691 31.285 15.1972 31.9046 15.1972ZM30.7312 21.4311H32.88C32.7764 20.9479 32.2807 18.6434 32.2807 18.6434L32.1058 17.8111C32.037 18.0019 31.9413 18.2542 31.8683 18.4467C31.8027 18.6199 31.7554 18.7446 31.7626 18.7325C31.7626 18.7325 30.9455 20.8746 30.7312 21.4311Z" fill="white"/>
<path d="M10.572 21.7809L13.1063 15.1972L15.8484 15.1971L11.7731 24.8329L9.03431 24.8361L6.73735 16.4674C5.93726 16.0141 5.02316 15.65 4 15.3982L4.03309 15.1973H8.20723C8.76945 15.2186 9.22402 15.4014 9.38067 16.0127L10.2612 20.3164C10.2755 20.3587 10.2891 20.4009 10.302 20.443L10.572 21.7809Z" fill="white"/>
</svg>
