<svg width="100" height="65" viewBox="0 0 100 65" fill="none" xmlns="http://www.w3.org/2000/svg">
<path d="M90 0H10C4.47715 0 0 4.47715 0 10V55C0 60.5228 4.47715 65 10 65H90C95.5229 65 100 60.5228 100 55V10C100 4.47715 95.5229 0 90 0Z" fill="#1A1F71"/>
<path d="M42.3053 20.4935L38.2595 44.6285H44.728L48.7768 20.4935H42.3053Z" fill="white"/>
<path d="M62.3087 20C64.8174 20 66.8267 20.5248 68.1084 21.0138L67.2314 26.2445L66.6517 25.966C65.4572 25.477 63.9239 25.008 61.8079 25.0413C59.2742 25.0413 58.1017 26.114 58.1017 27.1173C58.0869 28.2478 59.4722 28.9928 61.7342 30.1095C65.4679 31.832 67.1919 33.9212 67.1677 36.667C67.1177 41.677 62.7014 44.9132 55.8987 44.9132C52.9964 44.8827 50.2014 44.2995 48.6897 43.6255L49.5979 38.2225L50.4319 38.6062C52.5574 39.507 53.9334 39.8728 56.5234 39.8728C58.3837 39.8728 60.3792 39.134 60.3954 37.516C60.4074 36.4597 59.5607 35.7055 57.0417 34.5223C54.5869 33.3678 51.3352 31.433 51.3712 27.965C51.4097 23.2735 55.9137 20 62.3087 20Z" fill="white"/>
<path fill-rule="evenodd" clip-rule="evenodd" d="M79.7615 20.493H84.762L89.9997 44.6128H83.9947C83.9947 44.6128 83.401 41.8413 83.2075 40.996C82.7075 40.996 80.6185 40.9933 78.6545 40.9905C76.9122 40.988 75.2685 40.9858 74.9195 40.9858C74.6682 41.6388 73.5572 44.6128 73.5572 44.6128H66.7617L76.3727 22.4945C77.053 20.9228 78.2125 20.493 79.7615 20.493ZM76.828 36.0778H82.2C81.941 34.8698 80.7017 29.1085 80.7017 29.1085L80.2645 27.0278C80.0925 27.5048 79.8532 28.1355 79.6707 28.6168C79.5067 29.0498 79.3885 29.3615 79.4065 29.3313C79.4065 29.3313 77.3637 34.6865 76.828 36.0778Z" fill="white"/>
<path d="M26.43 36.9522L32.7658 20.493L39.621 20.4927L29.4328 44.5822L22.5858 44.5902L16.8434 23.6685C14.8432 22.5352 12.5579 21.625 10 20.9955L10.0827 20.4932H20.5181C21.9236 20.5465 23.0601 21.0035 23.4517 22.5317L25.653 33.2909C25.6888 33.3967 25.7228 33.5022 25.755 33.6074L26.43 36.9522Z" fill="white"/>
</svg>
