<svg width="1000" height="1064" viewBox="0 0 1000 1064" fill="none" xmlns="http://www.w3.org/2000/svg">
<g clip-path="url(#clip0)">
<path d="M1000.08 0.651367H0V784.061C0 870.871 24.1672 939.233 70.7963 989.025C117.425 1038.82 182.951 1063.73 267.513 1063.73C323.102 1063.73 390.194 1050.4 456.866 1023.72C514.068 1000.85 919.577 851.354 1000.08 821.715V0.651367Z" fill="white"/>
<path d="M379.838 324.498C329.365 324.498 292.145 361.051 292.145 410.021C292.145 458.991 329.349 495.528 379.838 495.528C430.328 495.528 467.873 458.975 467.873 410.021C467.873 361.067 430.483 324.498 379.838 324.498ZM379.838 454.79C355.191 454.79 336.744 436.343 336.744 410.021C336.744 383.699 355.191 365.252 379.838 365.252C404.486 365.252 423.104 383.684 423.104 410.021C423.104 436.358 404.486 454.79 379.838 454.79Z" fill="#76C96E"/>
<path d="M849.711 391.729L835.294 389.558C820.537 387.373 808.786 385.032 808.786 375.607C808.786 366.724 817.173 360.849 833.775 360.849C852.052 361.02 872.685 367.732 885.597 374.103L900.355 339.999C878.653 329.427 858.423 324.575 832.442 324.575C789.673 324.575 763.847 344.355 763.847 377.731C763.847 405.386 782.449 421.833 820.025 427.026L833.279 428.871C852.052 431.553 860.268 435.908 860.268 443.799C860.268 453.348 850.548 459.053 830.256 459.053C805.779 459.053 788.836 452.34 774.915 443.117L757.646 476.321C778.775 491.25 807.779 495.435 829.915 495.435C877.04 495.435 904.541 473.81 904.541 440.28C904.587 412.857 884.977 397.154 849.711 391.729Z" fill="#76C96E"/>
<path d="M541.227 246.54L499.992 262.041V491.56H543.754V248.338C543.76 248.032 543.692 247.73 543.554 247.456C543.417 247.183 543.215 246.948 542.966 246.77C542.717 246.593 542.428 246.479 542.125 246.439C541.822 246.399 541.513 246.433 541.227 246.54V246.54Z" fill="#76C96E"/>
<path d="M195.554 424.732L142.786 277.651H94.1575L171.046 491.575H171.433H219.675H220.062L297.726 277.651H249.097L195.554 424.732Z" fill="#76C96E"/>
<path d="M402.27 277.916L363.174 294.192V308.795H406.982V280.799C406.954 280.255 406.794 279.727 406.516 279.26C406.238 278.792 405.85 278.399 405.386 278.115C404.922 277.831 404.395 277.665 403.852 277.63C403.309 277.595 402.766 277.693 402.27 277.916V277.916Z" fill="#76C96E"/>
<path d="M724.054 334.124V428.855L606.086 477.84C602.69 476.321 599.62 474.157 597.049 471.469C590.073 464.043 586.523 453.905 586.523 441.039V334.077H628.765C628.765 336.387 628.641 418.437 628.641 418.437C628.719 426.545 629.835 433.614 632.501 437.163C634.007 439.296 636.027 441.014 638.374 442.157C640.72 443.301 643.318 443.833 645.925 443.705C651.832 443.705 655.986 442.465 663.272 439.783C670.558 437.101 677.611 434.389 681.161 433.009V334.124H724.054Z" fill="#76C96E"/>
<path d="M623.51 491.141H724.054V450.465C724.028 449.906 723.865 449.362 723.581 448.88C723.296 448.399 722.898 447.994 722.421 447.702C721.943 447.41 721.402 447.239 720.844 447.205C720.285 447.17 719.727 447.273 719.217 447.504L622.735 487.684C622.344 487.847 622.023 488.142 621.828 488.517C621.633 488.893 621.577 489.325 621.67 489.738C621.762 490.151 621.998 490.518 622.334 490.775C622.671 491.032 623.087 491.161 623.51 491.141Z" fill="#3F4444"/>
<path d="M242.199 549.071L239.238 551.923C237.575 549.977 235.351 548.593 232.87 547.961C230.39 547.33 227.775 547.481 225.383 548.395C222.992 549.308 220.942 550.94 219.515 553.064C218.088 555.189 217.353 557.704 217.412 560.263C217.326 561.907 217.58 563.551 218.158 565.093C218.735 566.635 219.624 568.041 220.768 569.225C221.912 570.408 223.288 571.344 224.809 571.973C226.331 572.602 227.966 572.911 229.612 572.881C236.153 572.881 240.184 569.083 240.804 562.821H231.193V558.992H245.144C245.144 559.333 245.144 559.674 245.144 559.999C245.144 569.3 239.238 576.664 229.534 576.664C227.368 576.652 225.226 576.213 223.229 575.373C221.233 574.533 219.421 573.307 217.898 571.767C216.376 570.227 215.171 568.402 214.353 566.396C213.536 564.39 213.121 562.243 213.133 560.077C213.146 557.911 213.584 555.769 214.424 553.772C215.265 551.776 216.49 549.964 218.03 548.441C219.57 546.918 221.395 545.714 223.401 544.896C225.407 544.078 227.554 543.664 229.72 543.676C232.066 543.623 234.396 544.077 236.55 545.008C238.704 545.939 240.631 547.325 242.199 549.071V549.071Z" fill="#3F4444"/>
<path d="M277.527 576.199H254.771V544.157H277.294V547.94H258.801V558.171H276.705V561.969H258.801V572.417H277.527V576.199Z" fill="#3F4444"/>
<path d="M308.918 550.482C306.121 548.549 302.8 547.516 299.4 547.521C294.749 547.521 291.355 549.629 291.355 553.086C291.355 556 293.804 557.473 298.609 558.078L301.431 558.419C306.856 559.085 311.507 561.271 311.507 566.929C311.507 573.316 305.709 576.664 298.78 576.664C294.225 576.7 289.785 575.235 286.146 572.494L288.347 569.285C291.336 571.591 295.005 572.839 298.78 572.835C303.554 572.835 307.306 570.898 307.306 567.27C307.306 564.294 304.64 562.883 299.648 562.263L296.672 561.891C291.386 561.256 287.169 558.791 287.169 553.334C287.169 547.133 292.672 543.708 299.415 543.708C303.533 543.63 307.57 544.856 310.949 547.211L308.918 550.482Z" fill="#3F4444"/>
<path d="M343.347 547.986H332.419V576.199H328.388V547.986H317.459V544.157H343.347V547.986Z" fill="#3F4444"/>
<path d="M375.948 576.199H371.623L368.104 567.456H352.602L349.006 576.199H344.82L357.842 544.157H362.957L375.948 576.199ZM352.261 538.297C352.849 537.492 353.622 536.841 354.516 536.398C355.409 535.956 356.396 535.735 357.392 535.755C360.493 535.755 361.655 537.507 363.453 537.507C364.023 537.477 364.579 537.322 365.082 537.055C365.586 536.787 366.025 536.412 366.368 535.957L368.584 538.111C367.997 538.916 367.223 539.568 366.33 540.01C365.437 540.453 364.45 540.674 363.453 540.654C360.353 540.654 359.252 538.886 357.392 538.886C356.833 538.914 356.285 539.06 355.786 539.314C355.286 539.567 354.846 539.924 354.493 540.359L352.261 538.297ZM354.106 563.643H366.507L360.307 548.141L354.106 563.643Z" fill="#3F4444"/>
<path d="M414.113 560.185C414.131 563.473 413.173 566.693 411.359 569.436C409.545 572.179 406.958 574.321 403.925 575.591C400.892 576.862 397.55 577.203 394.323 576.572C391.096 575.94 388.129 574.365 385.798 572.045C383.468 569.726 381.879 566.766 381.232 563.542C380.586 560.318 380.911 556.974 382.167 553.936C383.424 550.897 385.554 548.299 388.288 546.473C391.022 544.646 394.238 543.673 397.526 543.676C399.72 543.592 401.908 543.96 403.954 544.759C405.999 545.558 407.858 546.77 409.414 548.319C410.97 549.868 412.191 551.721 412.999 553.763C413.808 555.804 414.187 557.991 414.113 560.185ZM385.14 560.185C385.186 562.628 385.952 565.002 387.342 567.011C388.732 569.019 390.685 570.572 392.954 571.475C395.224 572.379 397.71 572.591 400.1 572.087C402.49 571.582 404.678 570.383 406.389 568.64C408.1 566.897 409.259 564.687 409.719 562.288C410.179 559.889 409.92 557.407 408.975 555.155C408.03 552.902 406.44 550.979 404.406 549.626C402.372 548.274 399.984 547.552 397.541 547.551C395.873 547.489 394.209 547.775 392.657 548.389C391.104 549.004 389.696 549.935 388.523 551.124C387.35 552.312 386.436 553.731 385.84 555.291C385.244 556.851 384.98 558.517 385.062 560.185H385.14Z" fill="#3F4444"/>
<path d="M450.34 544.157C460.68 544.157 467.315 550.435 467.315 560.186C467.315 569.937 460.618 576.199 450.34 576.199H438.109V544.157H450.34ZM442.14 547.986V572.324H450.34C458.727 572.324 463.083 567.394 463.083 560.14C463.083 552.885 458.727 547.94 450.34 547.94L442.14 547.986Z" fill="#3F4444"/>
<path d="M499.62 576.199H476.879V544.157H499.372V547.94H480.91V558.171H498.799V561.969H480.91V572.417H499.62V576.199Z" fill="#3F4444"/>
<path d="M537.026 544.157C543.784 544.157 548.698 546.514 548.698 552.668C548.776 554.173 548.375 555.665 547.554 556.929C546.733 558.193 545.533 559.165 544.125 559.705C545.708 560.217 547.08 561.231 548.034 562.594C548.988 563.956 549.472 565.593 549.412 567.255C549.412 573.455 544.761 576.199 537.677 576.199H524.624V544.157H537.026ZM528.655 547.94V558.093H536.917C541.149 558.093 544.497 557.163 544.497 552.978C544.497 548.792 541.103 547.94 536.871 547.94H528.655ZM528.655 561.891V572.463H537.491C542.141 572.463 545.242 571.301 545.242 567.131C545.242 562.961 542.141 561.891 537.491 561.891H528.655Z" fill="#3F4444"/>
<path d="M581.717 576.199H558.976V544.157H581.531V547.94H563.006V558.171H580.895V561.969H563.006V572.417H581.717V576.199Z" fill="#3F4444"/>
<path d="M619.247 576.215H615.635L596.258 551.055V576.199H592.243V544.142H595.87L615.263 569.316V544.157H619.278L619.247 576.215Z" fill="#3F4444"/>
<path d="M653.397 576.199H630.656V544.157H653.165V547.94H634.671V558.171H652.576V561.969H634.671V572.417H653.397V576.199Z" fill="#3F4444"/>
<path d="M685.393 561.969H667.907V576.199H663.876V544.157H686.23V547.986H667.907V558.171H685.393V561.969Z" fill="#3F4444"/>
<path d="M694.492 541.599L699.143 534.731H703.995L698.244 541.599H694.492ZM699.825 576.199H695.81V544.156H699.825V576.199Z" fill="#3F4444"/>
<path d="M739.137 550.312L735.773 552.575C734.691 550.996 733.233 549.711 731.532 548.834C729.83 547.957 727.937 547.517 726.023 547.552C722.751 547.667 719.651 549.047 717.377 551.403C715.103 553.758 713.832 556.904 713.832 560.178C713.832 563.452 715.103 566.599 717.377 568.954C719.651 571.309 722.751 572.69 726.023 572.805C727.932 572.847 729.822 572.412 731.52 571.537C733.217 570.663 734.669 569.377 735.742 567.797L739.044 570.2C737.575 572.269 735.618 573.943 733.346 575.073C731.075 576.204 728.559 576.755 726.023 576.68C723.813 576.748 721.613 576.371 719.551 575.572C717.49 574.773 715.61 573.569 714.024 572.03C712.437 570.491 711.175 568.649 710.313 566.613C709.452 564.577 709.008 562.389 709.008 560.178C709.008 557.968 709.452 555.78 710.313 553.744C711.175 551.708 712.437 549.866 714.024 548.327C715.61 546.788 717.49 545.583 719.551 544.785C721.613 543.986 723.813 543.609 726.023 543.677C728.592 543.58 731.144 544.138 733.438 545.299C735.732 546.459 737.693 548.184 739.137 550.312V550.312Z" fill="#3F4444"/>
<path d="M752.546 576.199H748.516V544.157H752.546V576.199Z" fill="#3F4444"/>
<path d="M795.331 560.186C795.35 563.474 794.392 566.693 792.579 569.435C790.765 572.178 788.179 574.32 785.147 575.591C782.115 576.862 778.774 577.204 775.547 576.574C772.321 575.944 769.354 574.37 767.023 572.052C764.691 569.734 763.101 566.775 762.453 563.552C761.804 560.329 762.128 556.986 763.382 553.947C764.635 550.908 766.763 548.31 769.495 546.481C772.228 544.653 775.441 543.677 778.729 543.677C780.924 543.593 783.113 543.961 785.159 544.76C787.205 545.559 789.065 546.77 790.622 548.319C792.18 549.868 793.402 551.721 794.212 553.762C795.022 555.804 795.403 557.991 795.331 560.186ZM766.358 560.186C766.404 562.628 767.17 565.003 768.561 567.011C769.951 569.02 771.903 570.573 774.173 571.476C776.443 572.379 778.928 572.592 781.319 572.088C783.709 571.583 785.897 570.384 787.608 568.641C789.319 566.898 790.477 564.688 790.937 562.289C791.397 559.89 791.138 557.408 790.193 555.156C789.248 552.903 787.659 550.98 785.625 549.627C783.591 548.274 781.203 547.553 778.76 547.552C777.097 547.501 775.443 547.795 773.899 548.414C772.356 549.034 770.958 549.967 769.793 551.154C768.628 552.341 767.721 553.756 767.13 555.31C766.539 556.865 766.276 558.525 766.358 560.186V560.186Z" fill="#3F4444"/>
<path d="M825.792 550.482C823.003 548.555 819.694 547.522 816.305 547.521C811.654 547.521 808.275 549.629 808.275 553.086C808.275 556.001 810.724 557.473 815.53 558.078L818.335 558.419C823.761 559.085 828.411 561.271 828.411 566.929C828.411 573.316 822.614 576.664 815.685 576.664C811.13 576.697 806.691 575.232 803.051 572.494L805.252 569.286C808.241 571.591 811.91 572.84 815.685 572.836C820.475 572.836 824.226 570.898 824.226 567.27C824.226 564.294 821.544 562.883 816.553 562.263L813.576 561.891C808.29 561.256 804.089 558.791 804.089 553.334C804.089 547.134 809.577 543.708 816.32 543.708C820.438 543.628 824.475 544.855 827.853 547.211L825.792 550.482Z" fill="#3F4444"/>
</g>
<defs>
<clipPath id="clip0">
<rect width="1000" height="1063.08" fill="white" transform="translate(0 0.651367)"/>
</clipPath>
</defs>
</svg>
